%
T1C.008F0S0
X016963Y018013
X016963Y017713
X017263Y017525
X017375Y018313
X017388Y01795
X017638Y018888
X01765Y017538
X017788Y018388
X017863Y0181
X018Y018888
X018325Y01755
X018338Y01785
X01835Y0182
X018638Y016738
X01915Y017475
X01915Y017163
X019163Y017763
X019175Y0181
X01985Y025
X013775Y0272
X013638Y0274
X013625Y027013
X013588Y027975
X013588Y028213
X013588Y028613
X013588Y028863
X011775Y0292
X011688Y0288
X011288Y029088
X010538Y0294
X00965Y029475
X009338Y028775
X00903Y029577
X008963Y0293
X00875Y029475
X008275Y02875
X0079Y028925
X007663Y0291
X00745Y028788
X008075Y030913
X008575Y031375
X008905Y03042
X008905Y030735
X008905Y03168
X00922Y030735
X00922Y03042
X00922Y03168
X009422Y029684
X009535Y031365
X009535Y030735
X009535Y03042
X009535Y03168
X009688Y029788
X010165Y031365
X010165Y03042
X010165Y030735
X010165Y03168
X01035Y029775
X01048Y031365
X01048Y030735
X01048Y03042
X01048Y03168
X010795Y03042
X010795Y030735
X010888Y029813
X01111Y030105
X01111Y031365
X01111Y031995
X011232Y03059
X011275Y03085
X011463Y031625
X012238Y031313
X01245Y031563
X013588Y032013
X0136Y031375
X013613Y03035
X013625Y030113
X013625Y02985
X013625Y031763
X013665Y03114
X01395Y0308
X014088Y029638
X014388Y02975
X014475Y030313
X014475Y031213
X014475Y03055
X014475Y03195
X014475Y0317
X014475Y031463
X017713Y036775
X0176Y036463
X017225Y036513
X016725Y03695
X016575Y036525
X016363Y0364
X01615Y036525
X01595Y0364
X01565Y036525
X01545Y0364
X01525Y036525
X01505Y0364
X014475Y032613
X014475Y033113
X014475Y032863
X014475Y03235
X013888Y032163
X013605Y032978
X0136Y032735
X013588Y032498
X0122Y032563
X012188Y033388
X010813Y032163
X010663Y032338
X010013Y03245
X009704Y032464
X009349Y032452
X00905Y03245
X008738Y03245
T2C.012F095S3
X005963Y001288
X00615Y0002
X006163Y-000438
X006163Y000775
X0071Y001288
X007438Y00015
X0077Y0008
X0077Y-000488
X008988Y-0005
X008988Y0008
X023975Y0006
X027Y000613
X028Y000625
X0296Y0006
X03Y0006
X0306Y0006
X031Y0006
X032Y0006
X0324Y0006
X033Y0006
X03335Y0006
X0357Y0018
X0424Y0019
X042775Y0019
X04315Y0019
X04355Y0019
X04355Y0023
X04355Y0027
X04315Y0023
X04315Y0027
X042775Y0027
X042775Y0023
X0424Y0023
X0424Y0027
X0411Y00365
X0407Y00365
X038825Y00445
X0365Y003
X0361Y003
X0357Y003
X0357Y0026
X0357Y0022
X0352Y003
X03375Y003
X033Y003
X032Y003
X031Y003
X03Y003
X029Y00315
X028525Y002888
X028Y0032
X027013Y003213
X025Y0028
X023Y002788
X022513Y002813
X021838Y003188
X021375Y002775
X0209Y00325
X0205Y002988
X020013Y003225
X017363Y003238
X017138Y002788
X016Y0032
X0026Y004325
X0026Y005363
X00745Y00705
X008413Y006713
X008788Y0057
X008788Y006325
X010713Y00635
X012175Y0061
X015Y005388
X017Y005375
X0181Y005663
X01955Y0067
X02Y0067
X02Y0062
X0204Y0067
X0204Y0062
X0208Y0062
X0208Y0067
X021Y005438
X0212Y0062
X0212Y0067
X0217Y0067
X0217Y0062
X021938Y0055
X02225Y0062
X02225Y0067
X02275Y0062
X02275Y0067
X02315Y0062
X02315Y0067
X0236Y0067
X0236Y0062
X024013Y005363
X024988Y00535
X03Y00545
X031Y00545
X032Y00545
X033Y00545
X03375Y0067
X034Y00545
X0343Y0067
X0348Y0067
X035Y00545
X0354Y0067
X03595Y00675
X03645Y00675
X03715Y00675
X03755Y00675
X03825Y0063
X038825Y006975
X038825Y006025
X038825Y006525
X038825Y004875
X038825Y005475
X0425Y0053
X0425Y0057
X0425Y0061
X0425Y00655
X0425Y0071
X0425Y0076
X0425Y0081
X038825Y00745
X0353Y00895
X034725Y008925
X0236Y00744
X02315Y00745
X02275Y00745
X0212Y00745
X0208Y00745
X0204Y00745
X02Y00745
X01955Y00745
X012738Y009563
X01165Y0072
X011325Y0078
X011063Y0072
X01105Y0089
X010688Y008663
X0099Y009575
X009Y008788
X008125Y0083
X0069Y00835
X006788Y00915
X00585Y008788
X00585Y009563
X0026Y01145
X0047Y01045
X00585Y011363
X00585Y0104
X006425Y011375
X006788Y01
X012213Y009963
X01805Y010975
X018325Y01035
X01835Y009875
X0326Y0101
X0326Y01045
X0326Y00975
X033Y01045
X033Y0101
X033Y00975
X0334Y0101
X0334Y00975
X0334Y01045
X034625Y010925
X0347Y01055
X0363Y0106
X0367Y0106
X041925Y01115
X0305Y01445
X0305Y013875
X030088Y014438
X030088Y013875
X029538Y014463
X0292Y014463
X02885Y014463
X028525Y014463
X027325Y013863
X027325Y0135
X026925Y0135
X026925Y01385
X026563Y013838
X02655Y01305
X02655Y0135
X02625Y0137
X026063Y014388
X026063Y014025
X025688Y0127
X0233Y013688
X02285Y013238
X0225Y013975
X02205Y01245
X02205Y01285
X02205Y0144
X02205Y01325
X02165Y01245
X02165Y01285
X02165Y01325
X02125Y01245
X02125Y01285
X02125Y01325
X02085Y01285
X02085Y01245
X02085Y01325
X0204Y01245
X0204Y01285
X0204Y01325
X02Y01285
X02Y01325
X02Y01245
X018888Y012163
X017313Y01445
X0173Y013088
X014088Y0129
X01405Y01425
X013563Y014125
X013563Y012788
X01255Y01445
X012175Y014225
X01105Y012925
X010163Y014288
X009525Y014025
X0089Y013788
X008113Y013788
X0026Y012463
X001Y01505
X001Y0168
X0014Y01505
X00145Y0168
X0019Y01505
X0019Y0168
X00235Y01505
X00235Y0168
X00275Y01505
X00275Y0168
X005888Y015363
X0062Y017038
X007188Y01655
X008038Y015313
X0094Y0153
X009425Y01675
X009925Y016088
X010063Y016475
X010063Y015763
X010475Y016813
X0108Y016825
X0109Y01545
X0109Y0159
X0109Y01505
X01135Y01545
X01135Y01505
X01135Y0159
X011638Y016938
X0118Y01545
X0118Y01505
X0118Y0159
X012025Y016938
X012613Y01505
X012625Y016363
X01265Y0155
X01265Y015925
X0139Y01505
X0139Y016525
X014Y016175
X0161Y01625
X016525Y015513
X0166Y016238
X0171Y016225
X017663Y016225
X0182Y016225
X02Y01685
X0208Y016525
X021325Y016188
X021325Y016513
X021788Y016513
X021788Y016188
X022238Y016175
X02225Y0165
X02225Y01699
X0229Y0155
X0233Y0155
X02405Y01575
X024238Y015463
X028763Y015575
X028775Y016488
X028775Y016038
X0293Y016488
X029313Y016038
X029313Y015575
X0319Y01695
X0323Y015
X0323Y01545
X0323Y01595
X039225Y01525
X039225Y01575
X04045Y015375
X04045Y0157
X04095Y015375
X04095Y0157
X04145Y0157
X04145Y015375
X04195Y015363
X04195Y015713
X04425Y015025
X044563Y014813
X044788Y016425
X045013Y016638
X042913Y019125
X042675Y01935
X039175Y0183
X039025Y0192
X038925Y018525
X038025Y018925
X0378Y0187
X0319Y01785
X0319Y0174
X0286Y01945
X027363Y019425
X026063Y018425
X026063Y018013
X025725Y019425
X025725Y018425
X025725Y018013
X025375Y018025
X025375Y018413
X0249Y0181
X02395Y0193
X023613Y0193
X022725Y0194
X022363Y0194
X02225Y018163
X02225Y01761
X021788Y018163
X021613Y019538
X021413Y018163
X021363Y018925
X021063Y019263
X020738Y019513
X02Y018388
X019613Y018425
X019275Y018938
X0157Y01915
X015638Y01865
X015638Y01805
X0154Y019025
X014863Y018238
X014788Y0177
X014438Y01955
X012375Y01945
X012363Y01895
X012213Y017263
X012213Y017625
X009013Y017788
X009013Y017438
X009013Y018138
X00745Y018125
X007438Y0171
X0005Y017938
X0005Y01895
X000125Y01955
X003263Y0197
X0042Y021363
X004213Y020975
X004313Y02065
X004513Y020338
X00475Y020025
X004975Y019713
X0062Y021625
X006225Y0206
X006225Y0201
X006238Y0211
X007688Y021188
X007813Y021513
X008175Y021538
X009563Y020163
X010188Y021225
X010275Y01995
X011363Y02095
X011375Y01995
X012338Y022
X01235Y020938
X0125Y0217
X012813Y02155
X013688Y021025
X01395Y019988
X0151Y02005
X015563Y02005
X016513Y020225
X01725Y019725
X018Y020175
X01805Y02145
X0181Y021838
X0185Y02155
X019713Y020263
X020388Y019875
X020625Y020888
X02085Y0212
X02105Y020513
X021088Y02
X021413Y0204
X021825Y019825
X022363Y019813
X022438Y0209
X022438Y021363
X022713Y019813
X022963Y021363
X022975Y021838
X023613Y019625
X023613Y01995
X023863Y0217
X02395Y019625
X02395Y01995
X025725Y019925
X025725Y020463
X025938Y019675
X025938Y020213
X027113Y019675
X027113Y020225
X027363Y01995
X027363Y020463
X0286Y0205
X0286Y01995
X0292Y0212
X0292Y0216
X030925Y021388
X033075Y021388
X035813Y021388
X036913Y019625
X037138Y019913
X038063Y021388
X040813Y021388
X042788Y021013
X043013Y021388
X043013Y020788
X042838Y024288
X042825Y023013
X042238Y023013
X042138Y024288
X041663Y024288
X04155Y023013
X04105Y024288
X041013Y023013
X037888Y023013
X037875Y024288
X037288Y023025
X037188Y024288
X036713Y024288
X036613Y023025
X0361Y024288
X036025Y023013
X032938Y024288
X032913Y023013
X032338Y023013
X032238Y024288
X031763Y024288
X031663Y023013
X031175Y024288
X031075Y023013
X0292Y0221
X027963Y0243
X0255Y023575
X022025Y02435
X02065Y024538
X020575Y022275
X019388Y023675
X018975Y023675
X018525Y023675
X018113Y0226
X0181Y023563
X0181Y022225
X0181Y023238
X01805Y024538
X01795Y024225
X017488Y0239
X017088Y0239
X016675Y0238
X016238Y0238
X016238Y023013
X01595Y023263
X0119Y0241
X011575Y02455
X011525Y0241
X011175Y024075
X010975Y022263
X01085Y024075
X010538Y024075
X010488Y022263
X010225Y024075
X009913Y0241
X009588Y0241
X009488Y0245
X009275Y0241
X008963Y024088
X00865Y024075
X008425Y022263
X008325Y0241
X008125Y022263
X008025Y024263
X007813Y022263
X0077Y024075
X00755Y024563
X0072Y02315
X00675Y023075
X006413Y023088
X006125Y024075
X0058Y024213
X005488Y024138
X0053Y022863
X005175Y024125
X004863Y024113
X004638Y023138
X004563Y024125
X004325Y023138
X004238Y024088
X004075Y022788
X0035Y024125
X002025Y024475
X001363Y023913
X00015Y0262
X00015Y0267
X00015Y02565
X0004Y02595
X0004Y02645
X0016Y02645
X0016Y02595
X00185Y0267
X00185Y0257
X00185Y0262
X002813Y0269
X0036Y026125
X00392Y02517
X004235Y025385
X004475Y025825
X00465Y025025
X004863Y0256
X005113Y0264
X005113Y026075
X005563Y026438
X006338Y025
X00695Y02675
X007425Y026975
X00755Y0261
X007888Y0248
X00875Y025563
X008925Y026675
X00895Y025213
X009225Y02545
X0097Y024988
X009838Y0247
X010213Y024725
X010725Y02665
X01085Y025025
X011338Y0248
X012238Y026688
X013638Y026675
X013675Y025213
X014013Y025225
X0149Y026388
X015075Y025225
X01545Y026388
X01575Y026988
X016113Y0264
X016538Y025
X01665Y026438
X017303Y026398
X01765Y026413
X017988Y026475
X018463Y024813
X018488Y02645
X0189Y026438
X019575Y026388
X019875Y026388
X020675Y026375
X02125Y0264
X021575Y0264
X021948Y026388
X022013Y02515
X022013Y024788
X022468Y02638
X0225Y02685
X0232Y0263
X02375Y0255
X024625Y0264
X024625Y0268
X02475Y025763
X025188Y025763
X025925Y026975
X026188Y025794
X0262Y026313
X026625Y02585
X0272Y026975
X02755Y026263
X02785Y025513
X027963Y025063
X031075Y024925
X032875Y025025
X0339Y026613
X03535Y026388
X03555Y02615
X036013Y025013
X036175Y0269
X036475Y0269
X037813Y025013
X040975Y024938
X042813Y025038
X04655Y02805
X03915Y02765
X03705Y0279
X03625Y028
X03625Y02765
X036088Y0295
X0359Y02835
X0359Y028
X0359Y02765
X0355Y028
X0355Y02835
X0355Y02765
X03515Y02835
X03515Y028
X03515Y02765
X034663Y027163
X0345Y0291
X0344Y028
X034363Y027163
X03315Y0274
X0325Y0276
X02705Y02905
X025925Y029025
X024675Y029388
X02465Y027715
X024625Y028385
X024175Y028813
X023875Y027275
X02375Y027575
X02255Y0283
X02255Y028975
X02255Y0286
X022543Y027948
X022525Y0272
X022513Y0293
X022475Y027625
X021693Y028073
X021275Y02915
X02105Y0277
X02085Y0285
X020538Y02765
X019975Y028063
X01995Y027638
X0197Y0293
X01945Y02765
X01935Y027975
X019288Y0284
X018798Y028163
X0173Y027625
X0162Y02785
X015825Y028288
X015813Y02875
X015813Y0293
X0158Y02765
X01545Y027625
X0149Y027625
X014188Y028688
X014163Y0293
X014163Y028025
X0141Y027438
X012475Y0277
X0124Y028238
X012163Y028475
X012125Y027663
X0118Y0276
X011425Y027138
X011163Y027588
X010225Y0276
X00985Y02735
X009825Y029113
X009813Y028588
X009275Y0276
X008925Y02715
X008325Y0276
X0081Y027125
X0077Y0276
X007213Y027638
X006925Y029163
X006888Y027625
X006638Y02865
X006563Y027625
X006288Y027375
X005913Y027625
X005588Y027425
X005488Y028888
X005113Y02855
X00475Y027625
X004475Y027413
X004238Y029425
X004013Y027538
X003888Y028563
X003688Y02895
X0036Y02755
X001813Y027925
X0018Y027388
X001475Y029225
X001363Y027825
X000575Y027525
X0004Y029388
X000175Y027213
X000163Y028425
X-0014Y029975
X00015Y0312
X00015Y0317
X000163Y030413
X00035Y03145
X001494Y030164
X001588Y030938
X001593Y030519
X002825Y0311
X0029Y032063
X003038Y031775
X003138Y030775
X003347Y029692
X003413Y03105
X003663Y030625
X003671Y029933
X004488Y030588
X00455Y029713
X004663Y031825
X004875Y030575
X006225Y030175
X007238Y029975
X00745Y03185
X011375Y03125
X01185Y032
X012025Y0308
X012188Y031825
X012425Y029813
X01245Y030188
X012488Y030938
X012488Y030588
X01365Y030775
X014813Y030513
X014825Y031563
X014838Y0309
X01615Y030913
X01615Y03155
X016225Y030038
X0174Y0312
X0174Y03015
X0174Y0305
X0174Y03085
X0174Y03155
X01775Y0312
X01775Y0305
X01775Y03015
X01775Y03085
X01775Y03155
X0181Y0305
X0181Y03015
X0181Y0312
X0181Y03085
X0181Y03155
X01845Y0305
X01845Y03015
X01845Y0312
X01845Y03085
X01845Y03155
X0188Y0312
X0188Y03015
X0188Y03085
X0188Y03155
X0188Y0305
X020388Y031188
X021275Y02975
X021275Y0304
X021663Y03185
X022525Y0303
X022538Y029925
X02255Y0296
X02255Y03155
X022563Y031188
X0237Y03015
X0238Y029625
X023838Y0313
X0241Y030175
X0245Y031325
X0245Y031825
X024513Y0309
X024663Y030538
X024788Y031575
X024813Y0298
X024813Y031163
X02665Y0319
X02715Y03195
X027925Y02995
X028575Y030538
X028663Y031488
X0289Y0302
X0291Y0319
X02925Y0302
X02965Y0302
X0299Y03125
X030913Y031475
X031775Y0317
X033438Y030225
X033975Y030763
X034838Y031075
X03525Y03125
X035425Y0299
X035713Y031338
X035713Y029725
X036425Y029638
X03665Y03015
X036775Y0297
X03695Y03085
X037025Y030163
X037288Y029938
X040125Y030225
X04495Y03135
X034788Y0342
X034763Y033688
X0347Y0327
X0347Y0332
X03345Y03355
X033438Y0342
X033075Y03275
X032725Y0342
X032725Y0337
X03185Y03455
X031775Y032488
X0315Y033463
X03115Y032125
X0305Y03425
X02995Y0339
X0294Y0339
X028638Y032188
X0285Y0339
X02705Y0323
X02655Y0326
X0258Y03265
X025625Y0321
X025338Y0323
X0253Y03265
X0253Y0338
X024125Y033825
X024125Y033163
X024013Y034113
X024Y0325
X023888Y0344
X023788Y03325
X023713Y03275
X023713Y034125
X0237Y033813
X022563Y0324
X022525Y032725
X022338Y034288
X022338Y03335
X022075Y032125
X021888Y034113
X021625Y032413
X021625Y033088
X021288Y032625
X021263Y033188
X021225Y034425
X021138Y033763
X020888Y0331
X020775Y03255
X0206Y034025
X020313Y03265
X02005Y033675
X0194Y034025
X0193Y033663
X0189Y034025
X018738Y032438
X0184Y03275
X018063Y033838
X0176Y033925
X01705Y033925
X016863Y032775
X0165Y033925
X01595Y033575
X015613Y032675
X015438Y0335
X015338Y0338
X014888Y032788
X01485Y0323
X0148Y033925
X01451Y034448
X014088Y034443
X013863Y033475
X013675Y034475
X0125Y032525
X0125Y034463
X012188Y0341
X009063Y033488
X009025Y0339
X00895Y03425
X007675Y03215
X007413Y032438
X004725Y032175
X0047Y033463
X004375Y033613
X00375Y0335
X003579Y034575
X003188Y0341
X0028Y034325
X002063Y033625
X001963Y032538
X001838Y034413
X0017Y032163
X001613Y033238
X001313Y033463
X000513Y033688
X00025Y034325
X-000238Y033288
X-000963Y033925
X-000813Y035313
X-000813Y03585
X000138Y036088
X00015Y035575
X000188Y034825
X000438Y036788
X000688Y035813
X001338Y035388
X001338Y036538
X002788Y035513
X0028Y03585
X0028Y03635
X003275Y035
X003325Y036488
X003525Y035888
X00355Y035538
X003563Y0362
X0036Y036925
X004175Y036475
X004838Y035775
X005199Y034948
X005688Y0363
X006725Y034975
X006725Y035375
X006725Y036175
X006725Y03655
X006725Y03695
X006725Y035775
X007963Y035775
X0081Y034975
X0081Y03655
X0081Y03695
X008175Y036175
X008188Y035375
X008988Y034738
X009013Y036175
X0099Y035375
X0099Y034975
X0099Y036175
X0099Y03655
X0099Y03695
X0099Y035775
X011275Y034975
X011275Y035375
X011275Y035775
X011275Y03655
X011275Y03695
X011275Y036175
X012275Y0347
X0125Y0352
X013538Y036988
X013788Y03515
X013838Y036475
X014124Y035318
X014138Y036663
X014188Y036988
X01445Y035325
X01475Y0352
X015125Y0353
X015475Y035075
X015975Y0352
X016713Y0352
X017375Y035188
X01795Y035263
X0181Y036775
X018358Y035308
X018525Y034825
X0189Y0353
X019363Y036525
X019375Y035275
X02005Y03532
X020575Y0353
X020713Y036525
X02105Y036525
X021225Y034975
X021438Y035313
X021833Y035308
X022075Y036488
X022138Y034975
X022275Y034613
X022338Y0353
X022613Y036388
X02305Y0367
X02375Y035075
X023788Y0347
X024438Y035413
X024963Y035425
X024963Y0351
X024975Y036588
X025538Y034825
X025538Y035925
X02635Y0356
X02635Y03525
X02675Y03525
X02675Y0356
X02685Y036025
X026963Y036663
X0273Y0353
X027388Y036363
X027838Y035663
X028275Y0357
X02835Y0365
X028488Y036875
X029Y036938
X029425Y036888
X029713Y03655
X03025Y0352
X031Y0349
X032525Y035875
X034375Y03675
X0355Y035725
X03615Y035713
X0368Y0357
X0375Y035713
X03815Y035725
X0388Y035725
X0394Y036013
X044Y0368
X04455Y0362
X04545Y03465
X045475Y03695
X04195Y0372
X04005Y0385
X039575Y039275
X03955Y03885
X039213Y038013
X03835Y037425
X038338Y038413
X037763Y03725
X0374Y037238
X03735Y0394
X03735Y038425
X036963Y03725
X036663Y03845
X0363Y03945
X036038Y037238
X035675Y03725
X033125Y038
X0329Y0387
X0329Y0394
X0297Y038238
X029188Y03865
X028688Y038613
X028675Y0378
X0282Y037263
X0279Y03835
X027013Y0371
X027013Y037488
X025788Y038263
X025275Y038263
X023975Y038913
X023825Y038275
X022963Y037663
X022063Y037525
X021975Y037113
X021213Y038288
X021075Y037238
X0205Y038813
X0205Y038463
X020488Y038013
X019913Y037788
X019213Y0394
X019188Y038263
X018563Y037175
X018425Y038963
X018025Y038875
X017813Y0392
X017725Y037563
X017375Y037563
X017188Y038938
X017063Y037563
X016813Y039088
X016763Y037563
X016475Y039338
X016463Y037575
X01615Y037575
X016025Y039013
X015888Y037738
X015625Y038425
X015375Y037688
X0151Y039275
X01505Y03765
X014713Y03765
X014525Y0383
X013925Y037613
X013038Y03765
X012225Y038563
X012225Y03715
X011275Y03775
X011275Y038125
X011275Y038925
X011275Y039325
X011275Y038525
X011275Y03735
X0099Y038525
X0099Y038925
X0099Y03735
X0099Y039325
X0099Y038125
X0099Y03775
X008113Y038138
X0081Y039325
X0081Y03775
X0081Y038525
X0081Y03735
X0081Y038925
X006725Y038125
X006725Y03775
X006725Y03735
X006725Y039325
X006725Y038525
X006725Y038925
X005838Y038725
X0057Y037775
X005688Y037325
X004538Y038275
X004375Y03925
X003925Y038038
X003Y0381
X0028Y03835
X0028Y039588
X001863Y038875
X0018Y039425
X001638Y038575
X001388Y037913
X001363Y038275
X00045Y038863
X000425Y038338
X000188Y039338
X000188Y037938
X000163Y0386
X-000775Y0391
X-001Y037713
X-000013Y041575
X00015Y040838
X000363Y03965
X001075Y041825
X002025Y04155
X0028Y039963
X0028Y04035
X004263Y041725
X004613Y039863
X004675Y040238
X005075Y0416
X0055Y03975
X0055Y041863
X00555Y040675
X0057Y041488
X006725Y0397
X006725Y0401
X006725Y041275
X006725Y040875
X006725Y0405
X006725Y041675
X006725Y042075
X0081Y041275
X0081Y041675
X0081Y0405
X0081Y0401
X0081Y042075
X0081Y040875
X0081Y0397
X008988Y0403
X009Y0399
X009013Y041875
X0099Y0401
X0099Y040875
X0099Y041275
X0099Y041675
X0099Y0405
X0099Y042075
X0099Y0397
X011275Y041275
X011275Y0401
X011275Y0405
X011275Y042075
X011275Y040875
X011275Y0397
X01235Y041175
X013Y041888
X013025Y0414
X013425Y04035
X01405Y0415
X014088Y0399
X01425Y041788
X014438Y0415
X014888Y04185
X0149Y0404
X014938Y040938
X01635Y0404
X016575Y041813
X0185Y039925
X0205Y041
X020938Y041
X021938Y041063
X021938Y040663
X021938Y040263
X02255Y041838
X022875Y040588
X022875Y040988
X022875Y041388
X023Y03995
X023225Y040988
X023225Y040588
X023225Y041388
X023788Y041063
X0238Y0414
X02485Y040575
X02485Y04025
X025013Y039925
X0256Y040438
X025925Y04045
X02635Y040438
X0267Y040263
X026763Y042063
X027163Y0407
X027163Y040288
X027588Y040288
X027588Y0407
X0329Y0401
X03365Y040725
X035288Y0412
X035813Y041175
X036563Y040688
X037Y03965
X03755Y041725
X037738Y040588
X037738Y039863
X038538Y0407
X0386Y03995
X039313Y0409
X0397Y0399
X04705Y0422
X043775Y042275
X0406Y042225
X0399Y043225
X0395Y04325
X03885Y0434
X03815Y0434
X03745Y0434
X03675Y0434
X03605Y0434
X03535Y0434
X03465Y0434
X031625Y044325
X0314Y0439
X03075Y04365
X029875Y04325
X029525Y042625
X029225Y043325
X029175Y04385
X0272Y04365
X02715Y04315
X027113Y04225
X02255Y042213
X022Y0421
X020713Y0433
X020225Y042625
X020225Y04295
X0199Y04345
X018675Y04285
X0174Y043725
X017175Y043225
X0166Y043075
X0165Y043938
X016463Y043413
X01495Y0438
X014938Y042388
X014938Y042925
X0146Y04265
X0146Y04375
X0146Y0432
X013388Y04225
X013388Y04275
X013388Y04375
X013375Y04325
X013025Y04445
X012413Y044088
X012125Y04365
X011275Y044025
X011275Y04365
X011275Y044425
X011275Y04285
X011275Y04325
X011275Y04245
X0099Y04365
X0099Y044425
X0099Y04285
X0099Y044025
X0099Y04245
X0099Y04325
X008988Y04275
X0081Y044025
X0081Y04325
X0081Y044425
X0081Y04285
X0081Y04365
X0081Y04245
X006725Y044425
X006725Y04285
X006725Y04365
X006725Y0425
X006725Y04325
X006725Y044025
X005313Y0438
X005288Y0425
X00505Y043038
X004663Y044525
X004388Y044025
X0043Y0432
X004013Y044263
X003225Y0435
X-000125Y042138
X003013Y044688
X00365Y04685
X003763Y044625
X005675Y045963
X005713Y045338
X005825Y04565
X005825Y046325
X006725Y045225
X006725Y044825
X0081Y045225
X0081Y044825
X0099Y044825
X0099Y045225
X011275Y045225
X011275Y044825
X012225Y045725
X013588Y0458
X0136Y0463
X0136Y04525
X013625Y0447
X014513Y0467
X01485Y0458
X01485Y04525
X014863Y046688
X014875Y044713
X016475Y044813
X016713Y04635
X017163Y044863
X020463Y045725
X02075Y046025
X02095Y0463
X02125Y046425
X02175Y04635
X0291Y045375
X03415Y044825
X03465Y04535
X03535Y04535
X03605Y04535
X03675Y04535
X03745Y04535
X042825Y0453
X043175Y046875
X02285Y04725
X0224Y04725
X021538Y049513
X020975Y0494
X020175Y047838
X0198Y0493
X0198Y0489
X0193Y0489
X0193Y0493
X018738Y0493
X018738Y048488
X018725Y0489
X014588Y047988
X01355Y049575
X013213Y048513
X0041Y048538
X0041Y047163
X004Y049225
X002725Y0495
X002725Y04885
X002725Y0477
X-00005Y0518
X003625Y049925
X004838Y05185
X006188Y05135
X009063Y049613
X009438Y0507
X009488Y051763
X009988Y050188
X011075Y050775
X013225Y050475
X013225Y05185
X013625Y050475
X013625Y05185
X014025Y050475
X014025Y05185
X014425Y050475
X014425Y05185
X0148Y050475
X0148Y05185
X0152Y050475
X0152Y05185
X0156Y05185
X0156Y050475
X016Y050475
X016Y05185
X016375Y050475
X016375Y05185
X016575Y0496
X016775Y050475
X016775Y05185
X017175Y050475
X017175Y05185
X017575Y050475
X017575Y05185
X01795Y050475
X01795Y05185
X01835Y05185
X01875Y05185
X019125Y050475
X019125Y05185
X019525Y05185
X0198Y0505
X019925Y05185
X020325Y050475
X020325Y05185
X0207Y050475
X020725Y05185
X0211Y05185
X021275Y051163
X021388Y050538
X0215Y05185
X0219Y050475
X0219Y05185
X022275Y05185
X022675Y05185
X022675Y050475
X023075Y051863
X023475Y05185
X0256Y049863
X029925Y051975
X02845Y0536
X028Y053063
X026538Y05365
X026213Y05245
X025925Y052775
X023488Y0535
X022588Y053613
X022125Y052775
X021525Y052725
X021188Y052738
X020825Y052738
X020113Y053588
X019275Y053575
X018563Y05295
X014838Y05325
X013025Y053688
X012488Y05295
X012088Y052838
X011Y0536
X011Y0532
X01Y0532
X01Y0536
X009Y0532
X009Y0536
X008Y0532
X008Y0536
X007Y0532
X007Y0536
X006Y0532
X006Y05365
X002925Y053075
X001725Y0533
X00145Y054163
X001263Y052525
X00105Y0537
X00085Y052175
X000538Y05385
X-000263Y05285
X-000313Y054175
X-00125Y056863
X-000238Y05665
X0004Y055038
X00125Y055025
X00175Y055013
X003275Y0554
X009775Y056238
X010525Y05635
X011738Y05625
X012513Y056138
X014075Y056025
X017Y0559
X018Y0559
X019Y0559
X019513Y056375
X021488Y056325
X022988Y055763
X0235Y055838
X026325Y05625
X026775Y056188
X028375Y056213
X028688Y0558
X036Y055925
X02885Y0587
X028675Y059088
X028638Y059588
X02755Y058838
X027525Y059275
X02645Y059438
X025488Y058425
X023788Y059025
X0236Y058225
X023Y0585
X022775Y058938
X022188Y058988
X021088Y0585
X020725Y058588
X0203Y058713
X019913Y058513
X018875Y058975
X018538Y05955
X015575Y05845
X0154Y059563
X015175Y05845
X014713Y058438
X014Y05855
X011938Y059125
X011Y05885
X01Y05885
X009563Y059538
X009313Y059238
X009Y05885
X008Y05885
X007Y05885
X007Y0584
X006Y05885
X006Y0584
X003913Y058325
X0004Y058738
X000088Y059325
X-0002Y05785
X-000225Y05735
X-000963Y05715
X-00125Y059763
X-001188Y061363
X000313Y061113
X000513Y06055
X000875Y06005
X0025Y061563
X002975Y06065
X01015Y059825
X011Y0606
X011Y0602
X012Y0606
X012Y0602
X013Y0606
X013Y0602
X014Y0606
X014Y0602
X015Y0606
X015Y0602
X0155Y0611
X016Y0602
X016Y0606
X016438Y06035
X016475Y059725
X0165Y061125
X016863Y0604
X017238Y060288
X017775Y059825
X019Y060525
X019488Y060675
X020113Y060038
X020738Y060638
X021488Y060638
X0215Y061075
X0227Y06005
X0231Y059925
X023375Y060525
X023513Y060863
X023925Y059963
X024025Y060575
X024538Y060775
X025Y060575
X025488Y060813
X0255Y05995
X026Y0606
X028Y0605
X0285Y06105
X028738Y059988
X028838Y060363
X029325Y060413
X029613Y060663
X031Y060575
X0315Y060888
X030638Y063225
X028913Y062988
X02725Y063013
X026625Y062825
X026013Y063175
X023175Y0631
X022625Y0632
X02165Y0631
X021525Y062575
X021Y0629
X020175Y062838
X018988Y063163
X018525Y062913
X018213Y063075
X0175Y063075
X0165Y063063
X00845Y063525
X007513Y06435
X007075Y06265
X007Y063175
X006375Y063113
X005275Y064025
X004938Y063113
X004575Y0645
X003663Y063038
X003025Y062163
X002925Y0645
X00265Y0627
X002375Y06395
X00175Y064363
X00175Y063
X00105Y0628
X-00035Y0622
X-0007Y063175
X-00075Y064125
X-001163Y0628
X002313Y06505
X002338Y0662
X002588Y065475
X002913Y0658
X0033Y065488
X00425Y06665
X004638Y065638
X005275Y06705
X006875Y065363
X00715Y065888
X007463Y064863
X0087Y06665
X0087Y066138
X008738Y065113
X00875Y065625
X00875Y0646
X011Y06545
X011Y06585
X012Y06585
X012Y06545
X013Y06545
X013Y0659
X014Y0659
X014Y06545
X0145Y0649
X015Y06545
X015Y0659
X0155Y0649
X016Y0659
X016Y06545
X0165Y0649
X0175Y0649
X017888Y06535
X0185Y0649
X0195Y0649
X0205Y0649
X0215Y0649
X022Y06535
X0225Y0649
X0235Y0649
X024025Y065313
X0245Y0649
X0255Y0649
X026Y065325
X0265Y0649
X0275Y0649
X0285Y0649
X029025Y0654
X0295Y0649
X030463Y065363
X0315Y0649
X036075Y06645
X036088Y06565
X03665Y06525
X037Y066225
X037475Y0661
X037538Y0648
X038725Y066325
X0392Y065475
X039338Y066338
X039838Y06545
X040275Y066213
X04035Y06545
X040575Y06575
X040638Y066363
X041725Y066913
X041725Y066363
X0418Y06545
X04215Y066638
X042438Y065463
X041825Y06725
X006775Y0673
X002338Y0673
T3C.032F197S55
X-00125Y01855
X00175Y01955
X00175Y01855
X00175Y01755
X01945Y01385
X0269Y02625
X02555Y02625
X02035Y0232
X02035Y021775
X0173Y02115
X006723Y033811
X008077Y033811
X009923Y033811
X011277Y033811
X01395Y0388
X0193Y03875
X02755Y03295
X0277Y03395
X024963Y0487
X023025Y044375
X023025Y043675
X011277Y046389
X009923Y046389
X008077Y046389
X006723Y046389
X012061Y051827
X012061Y050473
X024639Y050473
X024639Y051827
X0429Y06595
X0441Y00344G85X0441Y00316
X04518Y00448G85X04472Y00448
X04479Y00212G85X04433Y00212
X04696Y00228G85X0465Y00228
X04696Y00432G85X0465Y00432
T4C.033F197S55
X0074Y033811
X0106Y033811
X012061Y05115
T5C.034F197S55
X01825Y066475
X01925Y066475
X02025Y066475
X02125Y066475
X02225Y066475
X02325Y066475
X02425Y066475
X02525Y066475
X02625Y066475
X02725Y066475
X02775Y067225
X02775Y068725
X02725Y067975
X02675Y067225
X02675Y068725
X02625Y067975
X02575Y067225
X02575Y068725
X02525Y067975
X02475Y067225
X02475Y068725
X02425Y067975
X02375Y067225
X02375Y068725
X02325Y067975
X02275Y067225
X02275Y068725
X02225Y067975
X02175Y067225
X02175Y068725
X02125Y067975
X02075Y067225
X02075Y068725
X02025Y067975
X01975Y067225
X01975Y068725
X01925Y067975
X01875Y067225
X01875Y068725
X01825Y067975
T6C.038F197S55
X00635Y003
X00735Y003
X00835Y003
X04605Y012
X04605Y011
X04605Y01
X04705Y011
X04705Y012
X04705Y01
X04705Y014
X04705Y013
X04705Y017
X04705Y016
X04705Y015
X04605Y013
X04605Y016
X04605Y014
X04605Y015
X04605Y017
X01735Y02215
X01735Y02315
X0191Y02315
X0191Y02215
X04605Y021
X04605Y02
X04605Y018
X04605Y019
X04705Y021
X04705Y018
X04705Y02
X04705Y019
X04275Y02935
X04275Y03035
X04275Y03135
X04175Y02985
X04175Y03085
X04175Y03185
X00675Y03095
X00675Y03195
X017Y0383
X018Y0383
X02555Y03325
X02655Y03325
X04175Y03285
X04275Y03235
X04565Y03825
X04665Y03825
X04665Y0399
X04565Y0399
X01775Y0413
X01775Y0403
T7C.04F139S55
X0181Y026874
X0181Y034826
X-001061Y04847G85X-001061Y04862
T8C.04F139S55
X04658Y02961
X04718Y02861
X04718Y03259
X04658Y03359
T9C.043F139S55
X002719Y050238
X002719Y046458G85X002719Y046538
T10C.045F139S55
X-000937Y001976
X-000346Y002881
X-000346Y006819
X001622Y003866
X001622Y002881
X001622Y006819
X001622Y005834
X002606Y002389
X00336Y00485
X00336Y0119
X002606Y007311
X002606Y009439
X002606Y014361
X001622Y009931
X001622Y010916
X001622Y012884
X001622Y013869
X-000346Y009931
X-000346Y013869
X-000937Y009026
X-000937Y007724
X-000937Y014774
X03065Y05265
X04602Y055365
X04602Y056455
X04602Y058635
X04602Y057545
X0449Y05591
X0449Y057
X0449Y05482
X0449Y05918
X0449Y05809
X03065Y05921
T11C.046F139S55
X00175Y025125
X004093Y032022
X00175Y040875
T12C.063F089S55
X04515Y0033
X04732Y0033
X004093Y04029
T13C.063F089S55
X04405Y028
X04405Y0342
T14C.07F081S55
X0115Y003
X0345Y003
X027Y023575
X027Y038275
X022Y038275
X022Y023575
X0065Y056
X0115Y063
X0345Y063
X0395Y056
T15C.093F066S55
X0Y-0029
X046Y-0029
X046Y0689
X0Y0689
T16C.109F069S658
X0151Y067975
X0309Y067975
T17C.117F069S658
X-000346Y004063
X-000346Y005637
X-000346Y011113
X-000346Y012687
T18C.125F035S794
X04546Y05208
X04546Y06192
T19C.128F035S794
X001Y022
X0055Y0055
X0405Y0055
X04525Y02885
X04525Y03335
X001Y044
X0055Y0605
X0405Y0605
T20C.136F035S794
X015Y02245
X042Y03945
T21C.156F035S9
X0Y0
X046Y0
X046Y066
X0Y066
M30
