%FSLAX42Y42*%
%MOMM*%
G71*
G01*
G75*
G04 Layer_Color=32896*
%ADD10C,1.00*%
%ADD11C,0.25*%
%ADD12R,1.00X1.10*%
%ADD13R,0.60X2.20*%
%ADD14R,1.10X1.00*%
%ADD15C,0.90*%
%ADD16R,2.00X1.80*%
%ADD17R,4.10X4.10*%
%ADD18R,1.55X1.30*%
%ADD19R,1.50X2.15*%
%ADD20R,2.30X2.30*%
%ADD21R,0.25X1.00*%
%ADD22R,1.00X0.25*%
%ADD23R,2.20X0.60*%
%ADD24R,0.30X1.75*%
%ADD25R,1.75X0.30*%
%ADD26R,6.20X6.20*%
%ADD27R,1.35X0.60*%
%ADD28R,1.35X1.00*%
%ADD29R,1.40X0.60*%
%ADD30R,1.50X0.60*%
%ADD31R,1.85X0.35*%
%ADD32R,0.35X1.55*%
%ADD33R,1.80X0.30*%
%ADD34R,0.30X1.80*%
%ADD35R,2.03X0.66*%
%ADD36R,2.75X1.00*%
%ADD37R,1.02X1.91*%
%ADD38R,2.45X2.40*%
%ADD39R,1.80X2.40*%
%ADD40R,1.70X0.50*%
%ADD41R,2.79X3.81*%
%ADD42R,4.60X1.80*%
%ADD43R,1.80X1.60*%
%ADD44R,2.55X2.45*%
%ADD45R,1.50X1.30*%
%ADD46R,1.80X3.20*%
%ADD47R,3.30X2.20*%
%ADD48R,0.65X2.20*%
%ADD49R,5.50X1.50*%
%ADD50R,1.80X2.00*%
%ADD51R,1.30X1.50*%
%ADD52R,0.70X0.90*%
%ADD53R,0.90X0.70*%
%ADD54R,1.00X1.40*%
%ADD55R,1.30X1.55*%
%ADD56R,0.60X1.40*%
%ADD57R,2.50X1.30*%
%ADD58R,1.00X1.70*%
%ADD59R,1.70X1.30*%
%ADD60R,1.20X0.80*%
%ADD61C,0.51*%
%ADD62C,0.64*%
%ADD63C,1.02*%
%ADD64C,2.50*%
%ADD65R,2.50X2.50*%
%ADD66C,3.30*%
%ADD67C,1.80*%
%ADD68R,1.80X1.80*%
%ADD69R,4.00X2.00*%
%ADD70R,2.00X4.00*%
%ADD71R,4.50X2.00*%
%ADD72C,3.50*%
%ADD73C,1.60*%
%ADD74C,1.90*%
%ADD75C,1.40*%
%ADD76C,2.40*%
%ADD77C,1.52*%
%ADD78C,0.60*%
%ADD79C,0.66*%
%ADD80C,4.00*%
%ADD81C,0.76*%
%ADD82C,2.52*%
%ADD83C,4.32*%
%ADD84C,2.12*%
%ADD85O,4.52X2.02*%
%ADD86C,2.02*%
%ADD87C,2.92*%
%ADD88C,2.42*%
%ADD89C,1.92*%
%ADD90C,1.32*%
%ADD91C,1.82*%
%ADD92C,3.52*%
%ADD93C,3.32*%
%ADD94O,4.02X2.02*%
%ADD95O,2.02X4.02*%
%ADD96C,2.73*%
%ADD97C,1.35*%
%ADD98R,1.80X1.25*%
%ADD99C,0.10*%
%ADD100C,0.25*%
%ADD101C,0.20*%
%ADD102C,0.60*%
%ADD103C,0.13*%
%ADD104C,0.03*%
%ADD105C,0.10*%
%ADD106C,0.55*%
%ADD107C,0.15*%
%ADD108R,1.42X0.36*%
%ADD109R,0.36X1.42*%
%ADD110R,2.51X8.92*%
%ADD111C,3.39*%
%ADD112R,1.20X1.30*%
%ADD113R,0.80X2.40*%
%ADD114R,1.30X1.20*%
%ADD115C,1.10*%
%ADD116R,2.20X2.00*%
%ADD117R,4.30X4.30*%
%ADD118R,1.75X1.50*%
%ADD119R,1.65X2.30*%
%ADD120R,2.50X2.50*%
%ADD121R,0.45X1.20*%
%ADD122R,1.20X0.45*%
%ADD123R,2.40X0.80*%
%ADD124R,0.50X1.95*%
%ADD125R,1.95X0.50*%
%ADD126R,6.40X6.40*%
%ADD127R,1.55X0.80*%
%ADD128R,1.55X1.20*%
%ADD129R,1.60X0.80*%
%ADD130R,1.70X0.80*%
%ADD131R,2.05X0.55*%
%ADD132R,0.55X1.75*%
%ADD133R,2.00X0.50*%
%ADD134R,0.50X2.00*%
%ADD135R,2.24X0.86*%
%ADD136R,2.95X1.20*%
%ADD137R,1.22X2.11*%
%ADD138R,2.65X2.60*%
%ADD139R,2.00X2.60*%
%ADD140R,1.90X0.70*%
%ADD141R,3.00X4.01*%
%ADD142R,4.80X2.00*%
%ADD143R,2.00X1.80*%
%ADD144R,2.75X2.65*%
%ADD145R,1.70X1.50*%
%ADD146R,2.00X3.40*%
%ADD147R,3.50X2.40*%
%ADD148R,0.85X2.40*%
%ADD149R,5.70X1.70*%
%ADD150R,2.00X2.20*%
%ADD151R,1.50X1.70*%
%ADD152R,0.90X1.10*%
%ADD153R,1.10X0.90*%
%ADD154R,1.20X1.60*%
%ADD155R,1.50X1.75*%
%ADD156R,0.80X1.60*%
%ADD157R,2.70X1.50*%
%ADD158R,1.20X1.90*%
%ADD159R,1.90X1.50*%
%ADD160R,1.40X1.00*%
%ADD161C,2.70*%
%ADD162R,2.70X2.70*%
%ADD163C,3.50*%
%ADD164C,2.00*%
%ADD165R,2.00X2.00*%
%ADD166R,4.20X2.20*%
%ADD167R,2.20X4.20*%
%ADD168R,4.70X2.20*%
%ADD169C,3.70*%
%ADD170C,1.80*%
%ADD171C,2.10*%
%ADD172C,1.60*%
%ADD173C,2.60*%
%ADD174C,1.73*%
%ADD175C,4.20*%
%ADD176R,2.00X1.45*%
%ADD177C,0.86*%
%ADD178R,0.35X1.80*%
D11*
X2241Y1679D02*
G03*
X2241Y1679I-565J0D01*
G01*
X9889D02*
G03*
X9889Y1679I-565J0D01*
G01*
X10041Y13148D02*
G03*
X10041Y13148I-565J0D01*
G01*
X2089D02*
G03*
X2089Y13148I-565J0D01*
G01*
X1276Y2076D02*
X1676Y1676D01*
X1276Y1276D02*
X1676Y1676D01*
X2076Y1276D01*
X1676Y1676D02*
X2076Y2076D01*
X8924D02*
X9324Y1676D01*
X8924Y1276D02*
X9324Y1676D01*
X9724Y1276D01*
X9324Y1676D02*
X9724Y2076D01*
X9076Y13546D02*
X9476Y13146D01*
X9076Y12746D02*
X9476Y13146D01*
X9876Y12746D01*
X9476Y13146D02*
X9876Y13546D01*
X1124D02*
X1524Y13146D01*
X1124Y12746D02*
X1524Y13146D01*
X1924Y12746D01*
X1524Y13146D02*
X1924Y13546D01*
D103*
X4573Y10564D02*
Y10702D01*
Y10564D02*
X4891D01*
X4573Y10702D02*
X4891D01*
Y10564D02*
Y10702D01*
X6591Y9480D02*
X6729D01*
Y9798D01*
X6591Y9480D02*
Y9798D01*
X6729D01*
X7036Y10165D02*
Y10303D01*
X6718D02*
X7036D01*
X6718Y10165D02*
X7036D01*
X6718D02*
Y10303D01*
X5772Y10165D02*
Y10303D01*
Y10165D02*
X6090D01*
X5772Y10303D02*
X6090D01*
Y10165D02*
Y10303D01*
X2110Y12453D02*
Y12591D01*
Y12453D02*
X2428D01*
X2110Y12591D02*
X2428D01*
Y12453D02*
Y12591D01*
X6870Y10980D02*
Y11118D01*
X6552D02*
X6870D01*
X6552Y10980D02*
X6870D01*
X6552D02*
Y11118D01*
X6966Y12567D02*
Y12706D01*
X6648D02*
X6966D01*
X6648Y12567D02*
X6966D01*
X6648D02*
Y12706D01*
X6134Y9798D02*
X6272D01*
X6134Y9480D02*
Y9798D01*
X6272Y9480D02*
Y9798D01*
X6134Y9480D02*
X6272D01*
X6286Y9480D02*
X6424D01*
Y9798D01*
X6286Y9480D02*
Y9798D01*
X6424D01*
X6438Y9480D02*
X6577D01*
Y9798D01*
X6438Y9480D02*
Y9798D01*
X6577D01*
X7144Y12970D02*
X7282D01*
Y13288D01*
X7144Y12970D02*
Y13288D01*
X7282D01*
X6448Y12987D02*
Y13125D01*
X6130D02*
X6448D01*
X6130Y12987D02*
X6448D01*
X6130D02*
Y13125D01*
X6563Y13723D02*
Y13861D01*
Y13723D02*
X6881D01*
X6563Y13861D02*
X6881D01*
Y13723D02*
Y13861D01*
X5921Y13540D02*
X6059D01*
X5921Y13222D02*
Y13540D01*
X6059Y13222D02*
Y13540D01*
X5921Y13222D02*
X6059D01*
X5162Y9461D02*
X5301D01*
Y9780D01*
X5162Y9461D02*
Y9780D01*
X5301D01*
X7035Y11469D02*
X7173D01*
Y11787D01*
X7035Y11469D02*
Y11787D01*
X7173D01*
X8383Y2693D02*
Y2881D01*
Y2693D02*
X8741D01*
X8383Y2881D02*
X8741D01*
Y2693D02*
Y2881D01*
X8721Y2540D02*
Y2678D01*
X8403D02*
X8721D01*
X8403Y2540D02*
X8721D01*
X8403D02*
Y2678D01*
X7576Y2046D02*
X7715D01*
Y2364D01*
X7576Y2046D02*
Y2364D01*
X7715D01*
X7424Y2046D02*
X7562D01*
Y2364D01*
X7424Y2046D02*
Y2364D01*
X7562D01*
X7729Y2046D02*
X7867D01*
Y2364D01*
X7729Y2046D02*
Y2364D01*
X7867D01*
X8551Y2382D02*
Y2520D01*
X8233D02*
X8551D01*
X8233Y2382D02*
X8551D01*
X8233D02*
Y2520D01*
X2309Y13774D02*
X2447D01*
X2309Y13456D02*
Y13774D01*
X2447Y13456D02*
Y13774D01*
X2309Y13456D02*
X2447D01*
X2448Y10635D02*
Y10823D01*
X2089D02*
X2448D01*
X2089Y10635D02*
X2448D01*
X2089D02*
Y10823D01*
X2263Y9986D02*
X2401D01*
Y10304D01*
X2263Y9986D02*
Y10304D01*
X2401D01*
X2873Y9986D02*
X3011D01*
Y10304D01*
X2873Y9986D02*
Y10304D01*
X3011D01*
X2339Y12031D02*
X2477D01*
X2339Y11713D02*
Y12031D01*
X2477Y11713D02*
Y12031D01*
X2339Y11713D02*
X2477D01*
X3558Y12031D02*
X3696D01*
X3558Y11713D02*
Y12031D01*
X3696Y11713D02*
Y12031D01*
X3558Y11713D02*
X3696D01*
X3203Y11693D02*
X3391D01*
Y12051D01*
X3203Y11693D02*
Y12051D01*
X3391D01*
X3025Y9986D02*
X3163D01*
Y10304D01*
X3025Y9986D02*
Y10304D01*
X3163D01*
X3482Y9986D02*
X3620D01*
Y10304D01*
X3482Y9986D02*
Y10304D01*
X3620D01*
X3635Y9986D02*
X3773D01*
Y10304D01*
X3635Y9986D02*
Y10304D01*
X3773D01*
X3177Y9986D02*
X3315D01*
Y10304D01*
X3177Y9986D02*
Y10304D01*
X3315D01*
X2720Y9986D02*
X2858D01*
Y10304D01*
X2720Y9986D02*
Y10304D01*
X2858D01*
X2111Y9986D02*
X2249D01*
Y10304D01*
X2111Y9986D02*
Y10304D01*
X2249D01*
X2109Y10482D02*
Y10620D01*
Y10482D02*
X2428D01*
X2109Y10620D02*
X2428D01*
Y10482D02*
Y10620D01*
X2109Y11396D02*
Y11535D01*
Y11396D02*
X2428D01*
X2109Y11535D02*
X2428D01*
Y11396D02*
Y11535D01*
X2448Y10838D02*
Y11026D01*
X2089D02*
X2448D01*
X2089Y10838D02*
X2448D01*
X2089D02*
Y11026D01*
X2448Y11041D02*
Y11229D01*
X2089D02*
X2448D01*
X2089Y11041D02*
X2448D01*
X2089D02*
Y11229D01*
X4079Y11549D02*
Y11687D01*
X3760D02*
X4079D01*
X3760Y11549D02*
X4079D01*
X3760D02*
Y11687D01*
X4079Y11244D02*
Y11382D01*
X3760D02*
X4079D01*
X3760Y11244D02*
X4079D01*
X3760D02*
Y11382D01*
X4079Y11092D02*
Y11230D01*
X3760D02*
X4079D01*
X3760Y11092D02*
X4079D01*
X3760D02*
Y11230D01*
X4079Y10787D02*
Y10925D01*
X3760D02*
X4079D01*
X3760Y10787D02*
X4079D01*
X3760D02*
Y10925D01*
X4079Y10634D02*
Y10773D01*
X3760D02*
X4079D01*
X3760Y10634D02*
X4079D01*
X3760D02*
Y10773D01*
X4079Y10330D02*
Y10468D01*
X3760D02*
X4079D01*
X3760Y10330D02*
X4079D01*
X3760D02*
Y10468D01*
X3939Y9986D02*
X4077D01*
Y10304D01*
X3939Y9986D02*
Y10304D01*
X4077D01*
X3787Y9986D02*
X3925D01*
Y10304D01*
X3787Y9986D02*
Y10304D01*
X3925D01*
X2109Y11549D02*
Y11687D01*
Y11549D02*
X2428D01*
X2109Y11687D02*
X2428D01*
Y11549D02*
Y11687D01*
X3711Y12031D02*
X3849D01*
X3711Y11713D02*
Y12031D01*
X3849Y11713D02*
Y12031D01*
X3711Y11713D02*
X3849D01*
X2797Y11693D02*
X2985D01*
Y12051D01*
X2797Y11693D02*
Y12051D01*
X2985D01*
X2109Y10330D02*
Y10468D01*
Y10330D02*
X2428D01*
X2109Y10468D02*
X2428D01*
Y10330D02*
Y10468D01*
X2568Y9986D02*
X2706D01*
Y10304D01*
X2568Y9986D02*
Y10304D01*
X2706D01*
X2644Y12031D02*
X2782D01*
X2644Y11713D02*
Y12031D01*
X2782Y11713D02*
Y12031D01*
X2644Y11713D02*
X2782D01*
X2492Y12031D02*
X2630D01*
X2492Y11713D02*
Y12031D01*
X2630Y11713D02*
Y12031D01*
X2492Y11713D02*
X2630D01*
X4079Y10939D02*
Y11077D01*
X3760D02*
X4079D01*
X3760Y10939D02*
X4079D01*
X3760D02*
Y11077D01*
X3406Y12031D02*
X3544D01*
X3406Y11713D02*
Y12031D01*
X3544Y11713D02*
Y12031D01*
X3406Y11713D02*
X3544D01*
X2109Y11244D02*
Y11382D01*
Y11244D02*
X2428D01*
X2109Y11382D02*
X2428D01*
Y11244D02*
Y11382D01*
X4079Y10482D02*
Y10620D01*
X3760D02*
X4079D01*
X3760Y10482D02*
X4079D01*
X3760D02*
Y10620D01*
X4079Y11396D02*
Y11535D01*
X3760D02*
X4079D01*
X3760Y11396D02*
X4079D01*
X3760D02*
Y11535D01*
X3330Y9986D02*
X3468D01*
Y10304D01*
X3330Y9986D02*
Y10304D01*
X3468D01*
X2415Y9986D02*
X2553D01*
Y10304D01*
X2415Y9986D02*
Y10304D01*
X2553D01*
X3000Y11693D02*
X3188D01*
Y12051D01*
X3000Y11693D02*
Y12051D01*
X3188D01*
X3243Y6636D02*
Y6774D01*
X2924D02*
X3243D01*
X2924Y6636D02*
X3243D01*
X2924D02*
Y6774D01*
X3243Y5596D02*
Y5734D01*
X2924D02*
X3243D01*
X2924Y5596D02*
X3243D01*
X2924D02*
Y5734D01*
X3243Y5196D02*
Y5334D01*
X2924D02*
X3243D01*
X2924Y5196D02*
X3243D01*
X2924D02*
Y5334D01*
Y4956D02*
Y5094D01*
Y4956D02*
X3243D01*
X2924Y5094D02*
X3243D01*
Y4956D02*
Y5094D01*
X2924Y5436D02*
Y5574D01*
Y5436D02*
X3243D01*
X2924Y5574D02*
X3243D01*
Y5436D02*
Y5574D01*
Y4716D02*
Y4854D01*
X2924D02*
X3243D01*
X2924Y4716D02*
X3243D01*
X2924D02*
Y4854D01*
X3243Y4556D02*
Y4694D01*
X2924D02*
X3243D01*
X2924Y4556D02*
X3243D01*
X2924D02*
Y4694D01*
X6228Y10349D02*
X6366D01*
Y10667D01*
X6228Y10349D02*
Y10667D01*
X6366D01*
X6380Y10349D02*
X6518D01*
Y10667D01*
X6380Y10349D02*
Y10667D01*
X6518D01*
X5732Y10664D02*
X5920D01*
Y11022D01*
X5732Y10664D02*
Y11022D01*
X5920D01*
X5578Y11002D02*
X5716D01*
X5578Y10684D02*
Y11002D01*
X5716Y10684D02*
Y11002D01*
X5578Y10684D02*
X5716D01*
X6916Y10572D02*
X7054D01*
Y10891D01*
X6916Y10572D02*
Y10891D01*
X7054D01*
X6075Y10667D02*
X6213D01*
X6075Y10349D02*
Y10667D01*
X6213Y10349D02*
Y10667D01*
X6075Y10349D02*
X6213D01*
X6225Y4538D02*
Y4676D01*
X5907D02*
X6225D01*
X5907Y4538D02*
X6225D01*
X5907D02*
Y4676D01*
X4515Y1785D02*
Y1923D01*
Y1785D02*
X4833D01*
X4515Y1923D02*
X4833D01*
Y1785D02*
Y1923D01*
X9558Y4864D02*
X9696D01*
X9558Y4546D02*
Y4864D01*
X9696Y4546D02*
Y4864D01*
X9558Y4546D02*
X9696D01*
X1759Y13737D02*
Y13875D01*
Y13737D02*
X2077D01*
X1759Y13875D02*
X2077D01*
Y13737D02*
Y13875D01*
X2800Y14053D02*
X2939D01*
X2800Y13735D02*
Y14053D01*
X2939Y13735D02*
Y14053D01*
X2800Y13735D02*
X2939D01*
X10294Y8240D02*
X10432D01*
X10294Y7922D02*
Y8240D01*
X10432Y7922D02*
Y8240D01*
X10294Y7922D02*
X10432D01*
X578Y4986D02*
Y5124D01*
X260D02*
X578D01*
X260Y4986D02*
X578D01*
X260D02*
Y5124D01*
X578Y4833D02*
Y4971D01*
X260D02*
X578D01*
X260Y4833D02*
X578D01*
X260D02*
Y4971D01*
X578Y4681D02*
Y4819D01*
X260D02*
X578D01*
X260Y4681D02*
X578D01*
X260D02*
Y4819D01*
X5337Y10225D02*
Y10364D01*
Y10225D02*
X5656D01*
X5337Y10364D02*
X5656D01*
Y10225D02*
Y10364D01*
X5337Y10378D02*
Y10516D01*
Y10378D02*
X5656D01*
X5337Y10516D02*
X5656D01*
Y10378D02*
Y10516D01*
X8872Y8240D02*
X9010D01*
X8872Y7922D02*
Y8240D01*
X9010Y7922D02*
Y8240D01*
X8872Y7922D02*
X9010D01*
X10294Y7810D02*
X10432D01*
X10294Y7492D02*
Y7810D01*
X10432Y7492D02*
Y7810D01*
X10294Y7492D02*
X10432D01*
X8872Y7582D02*
X9010D01*
Y7900D01*
X8872Y7582D02*
Y7900D01*
X9010D01*
X10294Y7152D02*
X10432D01*
Y7470D01*
X10294Y7152D02*
Y7470D01*
X10432D01*
X8503Y6332D02*
X8642D01*
X8503Y6014D02*
Y6332D01*
X8642Y6014D02*
Y6332D01*
X8503Y6014D02*
X8642D01*
X9723Y6330D02*
X9861D01*
X9723Y6012D02*
Y6330D01*
X9861Y6012D02*
Y6330D01*
X9723Y6012D02*
X9861D01*
D104*
X1775Y8176D02*
X1996D01*
X1575Y7699D02*
X2182D01*
X1575Y7701D02*
X2187D01*
X1575Y7704D02*
X2195D01*
X1577Y7706D02*
X2202D01*
X1580Y7709D02*
X2207D01*
X1582Y7711D02*
X2210D01*
X1585Y7714D02*
X2217D01*
X1593Y7717D02*
X2220D01*
X1595Y7719D02*
X2223D01*
X1598Y7722D02*
X2223D01*
X1603Y7724D02*
X2225D01*
X1608Y7727D02*
X2225D01*
X1610Y7729D02*
X2228D01*
X1615Y7732D02*
X2228D01*
X1618Y7734D02*
X2228D01*
X1626Y7737D02*
X2228D01*
X1628Y7739D02*
X2228D01*
X1631Y7742D02*
X2228D01*
X1636Y7744D02*
X2228D01*
X1641Y7747D02*
X2228D01*
X1953Y7750D02*
X2228D01*
X1643D02*
X1943D01*
X1961Y7752D02*
X2228D01*
X1648D02*
X1941D01*
X2042Y7755D02*
X2228D01*
X1963D02*
X2027D01*
X1654D02*
X1938D01*
X2045Y7757D02*
X2228D01*
X1966D02*
X2027D01*
X1656D02*
X1935D01*
X1544D02*
X1547D01*
X2047Y7760D02*
X2228D01*
X1966D02*
X2024D01*
X1661D02*
X1935D01*
X1539D02*
X1554D01*
X2047Y7762D02*
X2228D01*
X1968D02*
X2024D01*
X1664D02*
X1933D01*
X1539D02*
X1557D01*
X2047Y7765D02*
X2225D01*
X1968D02*
X2024D01*
X1669D02*
X1933D01*
X1539D02*
X1560D01*
X2047Y7767D02*
X2225D01*
X1968D02*
X2024D01*
X1671D02*
X1930D01*
X1539D02*
X1565D01*
X2050Y7770D02*
X2223D01*
X1971D02*
X2022D01*
X1676D02*
X1928D01*
X1542D02*
X1570D01*
X2050Y7772D02*
X2223D01*
X1971D02*
X2022D01*
X1681D02*
X1928D01*
X1544D02*
X1572D01*
X2050Y7775D02*
X2223D01*
X1971D02*
X2022D01*
X1687D02*
X1925D01*
X1547D02*
X1577D01*
X2050Y7777D02*
X2220D01*
X1974D02*
X2022D01*
X1689D02*
X1925D01*
X1547D02*
X1582D01*
X2052Y7780D02*
X2217D01*
X1974D02*
X2022D01*
X1692D02*
X1923D01*
X1547D02*
X1585D01*
X2052Y7783D02*
X2217D01*
X1974D02*
X2022D01*
X1699D02*
X1923D01*
X1549D02*
X1590D01*
X2055Y7785D02*
X2215D01*
X1974D02*
X2022D01*
X1702D02*
X1923D01*
X1549D02*
X1595D01*
X2055Y7788D02*
X2215D01*
X1974D02*
X2022D01*
X1707D02*
X1920D01*
X1552D02*
X1600D01*
X2055Y7790D02*
X2212D01*
X1974D02*
X2022D01*
X1712D02*
X1920D01*
X1554D02*
X1603D01*
X2057Y7793D02*
X2212D01*
X1974D02*
X2022D01*
X1715D02*
X1918D01*
X1554D02*
X1608D01*
X2057Y7795D02*
X2210D01*
X1976D02*
X2022D01*
X1717D02*
X1918D01*
X1557D02*
X1610D01*
X2057Y7798D02*
X2207D01*
X1976D02*
X2019D01*
X1722D02*
X1915D01*
X1557D02*
X1615D01*
X2057Y7800D02*
X2207D01*
X1976D02*
X2019D01*
X1727D02*
X1915D01*
X1560D02*
X1618D01*
X2060Y7803D02*
X2205D01*
X1976D02*
X2019D01*
X1730D02*
X1913D01*
X1560D02*
X1626D01*
X2060Y7805D02*
X2205D01*
X1976D02*
X2019D01*
X1735D02*
X1910D01*
X1562D02*
X1628D01*
X2060Y7808D02*
X2205D01*
X1976D02*
X2019D01*
X1740D02*
X1910D01*
X1565D02*
X1633D01*
X2062Y7811D02*
X2202D01*
X1976D02*
X2019D01*
X1742D02*
X1908D01*
X1565D02*
X1636D01*
X2062Y7813D02*
X2200D01*
X1976D02*
X2019D01*
X1745D02*
X1908D01*
X1567D02*
X1641D01*
X2062Y7816D02*
X2197D01*
X1976D02*
X2022D01*
X1753D02*
X1905D01*
X1567D02*
X1646D01*
X2065Y7818D02*
X2197D01*
X1976D02*
X2022D01*
X1755D02*
X1905D01*
X1570D02*
X1648D01*
X2065Y7821D02*
X2195D01*
X1976D02*
X2022D01*
X1758D02*
X1902D01*
X1570D02*
X1654D01*
X2065Y7823D02*
X2195D01*
X1976D02*
X2022D01*
X1763D02*
X1900D01*
X1572D02*
X1659D01*
X2065Y7826D02*
X2195D01*
X1974D02*
X2022D01*
X1768D02*
X1897D01*
X1575D02*
X1661D01*
X2065Y7828D02*
X2192D01*
X1974D02*
X2024D01*
X1773D02*
X1895D01*
X1575D02*
X1666D01*
X2068Y7831D02*
X2189D01*
X1974D02*
X2024D01*
X1775D02*
X1892D01*
X1575D02*
X1671D01*
X2068Y7833D02*
X2189D01*
X1971D02*
X2024D01*
X1781D02*
X1890D01*
X1577D02*
X1674D01*
X2068Y7836D02*
X2187D01*
X1971D02*
X2024D01*
X1783D02*
X1887D01*
X1577D02*
X1676D01*
X2068Y7838D02*
X2187D01*
X1968D02*
X2024D01*
X1788D02*
X1885D01*
X1580D02*
X1681D01*
X2070Y7841D02*
X2184D01*
X1966D02*
X2024D01*
X1791D02*
X1882D01*
X1582D02*
X1689D01*
X2070Y7844D02*
X2184D01*
X1966D02*
X2024D01*
X1798D02*
X1880D01*
X1582D02*
X1692D01*
X2073Y7846D02*
X2182D01*
X1963D02*
X2024D01*
X1803D02*
X1875D01*
X1585D02*
X1697D01*
X2073Y7849D02*
X2179D01*
X1963D02*
X2027D01*
X1806D02*
X1872D01*
X1585D02*
X1699D01*
X2073Y7851D02*
X2179D01*
X1961D02*
X2027D01*
X1811D02*
X1869D01*
X1588D02*
X1704D01*
X2073Y7854D02*
X2177D01*
X1958D02*
X2027D01*
X1819D02*
X1862D01*
X1590D02*
X1707D01*
X2075Y7856D02*
X2177D01*
X1956D02*
X2027D01*
X1821D02*
X1859D01*
X1590D02*
X1712D01*
X2075Y7859D02*
X2174D01*
X1953D02*
X2027D01*
X1826D02*
X1854D01*
X1593D02*
X1717D01*
X2075Y7861D02*
X2174D01*
X1951D02*
X2027D01*
X1593D02*
X1722D01*
X2075Y7864D02*
X2172D01*
X1948D02*
X2027D01*
X1595D02*
X1725D01*
X2075Y7866D02*
X2169D01*
X1948D02*
X2027D01*
X1595D02*
X1730D01*
X2075Y7869D02*
X2169D01*
X1946D02*
X2027D01*
X1598D02*
X1735D01*
X2078Y7871D02*
X2169D01*
X1943D02*
X2027D01*
X1600D02*
X1737D01*
X2078Y7874D02*
X2167D01*
X1941D02*
X2027D01*
X1600D02*
X1742D01*
X2078Y7877D02*
X2167D01*
X1935D02*
X2024D01*
X1603D02*
X1748D01*
X2080Y7879D02*
X2164D01*
X1933D02*
X2024D01*
X1603D02*
X1753D01*
X2080Y7882D02*
X2162D01*
X1930D02*
X2024D01*
X1603D02*
X1755D01*
X2080Y7884D02*
X2162D01*
X1928D02*
X2024D01*
X1605D02*
X1760D01*
X2080Y7887D02*
X2159D01*
X1925D02*
X2024D01*
X1608D02*
X1763D01*
X2083Y7889D02*
X2159D01*
X1923D02*
X2024D01*
X1610D02*
X1765D01*
X2083Y7892D02*
X2156D01*
X1920D02*
X2024D01*
X1610D02*
X1770D01*
X2083Y7894D02*
X2156D01*
X1915D02*
X2024D01*
X1610D02*
X1775D01*
X2083Y7897D02*
X2154D01*
X1913D02*
X2024D01*
X1613D02*
X1781D01*
X2083Y7899D02*
X2151D01*
X1910D02*
X2024D01*
X1613D02*
X1783D01*
X2085Y7902D02*
X2151D01*
X1910D02*
X2027D01*
X1615D02*
X1786D01*
X2085Y7904D02*
X2149D01*
X1910D02*
X2027D01*
X1618D02*
X1788D01*
X2085Y7907D02*
X2149D01*
X1910D02*
X2029D01*
X1618D02*
X1791D01*
X2085Y7910D02*
X2149D01*
X1910D02*
X2029D01*
X1621D02*
X1791D01*
X2085Y7912D02*
X2146D01*
X1913D02*
X2027D01*
X1621D02*
X1788D01*
X2085Y7915D02*
X2144D01*
X1918D02*
X2027D01*
X1623D02*
X1786D01*
X2085Y7917D02*
X2141D01*
X1923D02*
X2027D01*
X1623D02*
X1781D01*
X2083Y7920D02*
X2141D01*
X1925D02*
X2024D01*
X1626D02*
X1778D01*
X2083Y7922D02*
X2141D01*
X1930D02*
X2024D01*
X1628D02*
X1775D01*
X2083Y7925D02*
X2139D01*
X1935D02*
X2022D01*
X1628D02*
X1770D01*
X2083Y7927D02*
X2139D01*
X1938D02*
X2019D01*
X1631D02*
X1765D01*
X2080Y7930D02*
X2136D01*
X1941D02*
X2017D01*
X1631D02*
X1763D01*
X2080Y7932D02*
X2134D01*
X1946D02*
X2014D01*
X1631D02*
X1760D01*
X2080Y7935D02*
X2134D01*
X1953D02*
X2012D01*
X1633D02*
X1755D01*
X2078Y7938D02*
X2131D01*
X1956D02*
X2009D01*
X1636D02*
X1753D01*
X2078Y7940D02*
X2131D01*
X1958D02*
X2007D01*
X1636D02*
X1750D01*
X2078Y7943D02*
X2129D01*
X1963D02*
X2007D01*
X1638D02*
X1750D01*
X2078Y7945D02*
X2126D01*
X1966D02*
X2004D01*
X1638D02*
X1745D01*
X2078Y7948D02*
X2126D01*
X1971D02*
X2002D01*
X1641D02*
X1745D01*
X2078Y7950D02*
X2123D01*
X1974D02*
X1999D01*
X1641D02*
X1742D01*
X2075Y7953D02*
X2123D01*
X1979D02*
X1996D01*
X1643D02*
X1740D01*
X2075Y7955D02*
X2121D01*
X1646D02*
X1740D01*
X2075Y7958D02*
X2121D01*
X1646D02*
X1737D01*
X2075Y7960D02*
X2118D01*
X1648D02*
X1735D01*
X2075Y7963D02*
X2116D01*
X1648D02*
X1735D01*
X2075Y7965D02*
X2116D01*
X1651D02*
X1732D01*
X2073Y7968D02*
X2116D01*
X1651D02*
X1732D01*
X2073Y7971D02*
X2113D01*
X1654D02*
X1730D01*
X2073Y7973D02*
X2113D01*
X1656D02*
X1727D01*
X2070Y7976D02*
X2111D01*
X1656D02*
X1727D01*
X2070Y7978D02*
X2108D01*
X1656D02*
X1725D01*
X2070Y7981D02*
X2108D01*
X1659D02*
X1725D01*
X2068Y7983D02*
X2106D01*
X1661D02*
X1722D01*
X2068Y7986D02*
X2106D01*
X1661D02*
X1720D01*
X2068Y7988D02*
X2103D01*
X1664D02*
X1717D01*
X2068Y7991D02*
X2103D01*
X1664D02*
X1715D01*
X2065Y7993D02*
X2101D01*
X1666D02*
X1715D01*
X2065Y7996D02*
X2098D01*
X1666D02*
X1712D01*
X2065Y7998D02*
X2098D01*
X1669D02*
X1709D01*
X2065Y8001D02*
X2095D01*
X1671D02*
X1707D01*
X2065Y8004D02*
X2095D01*
X1676D02*
X1699D01*
X2065Y8006D02*
X2095D01*
X2068Y8009D02*
X2093D01*
X2068Y8011D02*
X2090D01*
X2070Y8014D02*
X2088D01*
X2073Y8016D02*
X2085D01*
X2027Y8049D02*
X2035D01*
X2022Y8052D02*
X2042D01*
X2019Y8054D02*
X2047D01*
X2017Y8057D02*
X2055D01*
X2014Y8059D02*
X2060D01*
X2012Y8062D02*
X2060D01*
X2009Y8064D02*
X2060D01*
X2007Y8067D02*
X2060D01*
X2004Y8070D02*
X2060D01*
X2002Y8072D02*
X2057D01*
X1999Y8075D02*
X2055D01*
X1994Y8077D02*
X2055D01*
X1991Y8080D02*
X2052D01*
X1989Y8082D02*
X2052D01*
X1930Y8085D02*
X2050D01*
X1910Y8087D02*
X2047D01*
X1897Y8090D02*
X2047D01*
X1877Y8092D02*
X2045D01*
X1854Y8095D02*
X2045D01*
X1844Y8098D02*
X2042D01*
X1836Y8100D02*
X2042D01*
X1821Y8103D02*
X2040D01*
X1814Y8105D02*
X2037D01*
X1808Y8108D02*
X2035D01*
X1801Y8110D02*
X2035D01*
X1791Y8113D02*
X2035D01*
X1786Y8115D02*
X2032D01*
X1781Y8118D02*
X2029D01*
X1773Y8120D02*
X2029D01*
X1770Y8123D02*
X2027D01*
X1765Y8125D02*
X2027D01*
X1763Y8128D02*
X2024D01*
X1758Y8131D02*
X2024D01*
X1755Y8133D02*
X2022D01*
X1755Y8136D02*
X2019D01*
X1755Y8138D02*
X2019D01*
X1755Y8141D02*
X2017D01*
X1758Y8143D02*
X2017D01*
X1758Y8146D02*
X2014D01*
X1760Y8148D02*
X2012D01*
X1763Y8151D02*
X2012D01*
X1763Y8153D02*
X2009D01*
X1765Y8156D02*
X2009D01*
X1765Y8158D02*
X2007D01*
X1768Y8161D02*
X2007D01*
X1768Y8164D02*
X2004D01*
X1770Y8166D02*
X2002D01*
X1770Y8169D02*
X2002D01*
X1773Y8171D02*
X1999D01*
X1773Y8174D02*
X1996D01*
X1775Y8179D02*
X1996D01*
X1778Y8181D02*
X1994D01*
X1778Y8184D02*
X1991D01*
X1781Y8186D02*
X1991D01*
X1781Y8189D02*
X1989D01*
X1783Y8192D02*
X1989D01*
X1783Y8194D02*
X1986D01*
X1786Y8197D02*
X1984D01*
X1788Y8199D02*
X1984D01*
X1788Y8202D02*
X1981D01*
X1788Y8204D02*
X1981D01*
X1791Y8207D02*
X1979D01*
X1791Y8209D02*
X1979D01*
X1793Y8212D02*
X1976D01*
X1793Y8214D02*
X1974D01*
X1796Y8217D02*
X1974D01*
X1798Y8219D02*
X1971D01*
X1798Y8222D02*
X1971D01*
X1801Y8225D02*
X1968D01*
X1801Y8227D02*
X1966D01*
X1803Y8230D02*
X1966D01*
X1803Y8232D02*
X1963D01*
X1806Y8235D02*
X1963D01*
X1806Y8237D02*
X1961D01*
X1808Y8240D02*
X1961D01*
X1808Y8242D02*
X1958D01*
X1811Y8245D02*
X1956D01*
X1811Y8247D02*
X1956D01*
X1814Y8250D02*
X1953D01*
X1814Y8252D02*
X1953D01*
X1816Y8255D02*
X1951D01*
X1816Y8258D02*
X1951D01*
X1819Y8260D02*
X1948D01*
X1819Y8263D02*
X1946D01*
X1821Y8265D02*
X1946D01*
X1821Y8268D02*
X1943D01*
X1824Y8270D02*
X1943D01*
X1824Y8273D02*
X1941D01*
X1826Y8275D02*
X1938D01*
X1826Y8278D02*
X1938D01*
X1829Y8280D02*
X1935D01*
X1829Y8283D02*
X1935D01*
X1831Y8285D02*
X1933D01*
X1834Y8288D02*
X1933D01*
X1834Y8291D02*
X1930D01*
X1836Y8293D02*
X1928D01*
X1836Y8296D02*
X1928D01*
X1839Y8298D02*
X1925D01*
X1842Y8301D02*
X1923D01*
X1844Y8303D02*
X1923D01*
X1844Y8306D02*
X1918D01*
X1847Y8308D02*
X1915D01*
X1849Y8311D02*
X1913D01*
X1852Y8313D02*
X1908D01*
X1854Y8316D02*
X1902D01*
X1857Y8318D02*
X1897D01*
X1859Y8321D02*
X1892D01*
X1862Y8324D02*
X1887D01*
X1867Y8326D02*
X1880D01*
D105*
X6688Y9921D02*
Y10094D01*
X7188Y9921D02*
Y10094D01*
X6688Y9921D02*
X7188D01*
X6688Y10094D02*
X7188D01*
D107*
X5283Y10414D02*
Y10490D01*
X5245D01*
X5232Y10477D01*
Y10452D01*
X5245Y10439D01*
X5283D01*
X5258D02*
X5232Y10414D01*
X5207Y10477D02*
X5194Y10490D01*
X5169D01*
X5156Y10477D01*
Y10465D01*
X5169Y10452D01*
X5182D01*
X5169D01*
X5156Y10439D01*
Y10427D01*
X5169Y10414D01*
X5194D01*
X5207Y10427D01*
X5080Y10414D02*
X5131D01*
X5080Y10465D01*
Y10477D01*
X5093Y10490D01*
X5118D01*
X5131Y10477D01*
X5055Y10490D02*
X5004D01*
Y10477D01*
X5055Y10427D01*
Y10414D01*
X5283Y10249D02*
Y10325D01*
X5245D01*
X5232Y10312D01*
Y10287D01*
X5245Y10274D01*
X5283D01*
X5258D02*
X5232Y10249D01*
X5207Y10312D02*
X5194Y10325D01*
X5169D01*
X5156Y10312D01*
Y10300D01*
X5169Y10287D01*
X5182D01*
X5169D01*
X5156Y10274D01*
Y10262D01*
X5169Y10249D01*
X5194D01*
X5207Y10262D01*
X5080Y10249D02*
X5131D01*
X5080Y10300D01*
Y10312D01*
X5093Y10325D01*
X5118D01*
X5131Y10312D01*
X5004Y10325D02*
X5029Y10312D01*
X5055Y10287D01*
Y10262D01*
X5042Y10249D01*
X5017D01*
X5004Y10262D01*
Y10274D01*
X5017Y10287D01*
X5055D01*
X7328Y10262D02*
X7341Y10274D01*
X7366D01*
X7379Y10262D01*
Y10211D01*
X7366Y10198D01*
X7341D01*
X7328Y10211D01*
X7303Y10262D02*
X7290Y10274D01*
X7264D01*
X7252Y10262D01*
Y10249D01*
X7264Y10236D01*
X7277D01*
X7264D01*
X7252Y10223D01*
Y10211D01*
X7264Y10198D01*
X7290D01*
X7303Y10211D01*
X7226Y10262D02*
X7214Y10274D01*
X7188D01*
X7176Y10262D01*
Y10211D01*
X7188Y10198D01*
X7214D01*
X7226Y10211D01*
Y10262D01*
X7099Y10274D02*
X7125Y10262D01*
X7150Y10236D01*
Y10211D01*
X7137Y10198D01*
X7112D01*
X7099Y10211D01*
Y10223D01*
X7112Y10236D01*
X7150D01*
X7480Y10033D02*
X7493Y10046D01*
X7518D01*
X7531Y10033D01*
Y9982D01*
X7518Y9969D01*
X7493D01*
X7480Y9982D01*
X7455Y10033D02*
X7442Y10046D01*
X7417D01*
X7404Y10033D01*
Y10020D01*
X7417Y10008D01*
X7430D01*
X7417D01*
X7404Y9995D01*
Y9982D01*
X7417Y9969D01*
X7442D01*
X7455Y9982D01*
X7379Y10033D02*
X7366Y10046D01*
X7341D01*
X7328Y10033D01*
Y9982D01*
X7341Y9969D01*
X7366D01*
X7379Y9982D01*
Y10033D01*
X7252Y10046D02*
X7303D01*
Y10008D01*
X7277Y10020D01*
X7264D01*
X7252Y10008D01*
Y9982D01*
X7264Y9969D01*
X7290D01*
X7303Y9982D01*
X5220Y10592D02*
Y10668D01*
X5182D01*
X5169Y10655D01*
Y10630D01*
X5182Y10617D01*
X5220D01*
X5194D02*
X5169Y10592D01*
X5144D02*
X5118D01*
X5131D01*
Y10668D01*
X5144Y10655D01*
X5042Y10592D02*
Y10668D01*
X5080Y10630D01*
X5029D01*
X5004Y10668D02*
X4953D01*
Y10655D01*
X5004Y10604D01*
Y10592D01*
X903Y4713D02*
Y4789D01*
X865D01*
X853Y4776D01*
Y4751D01*
X865Y4738D01*
X903D01*
X878D02*
X853Y4713D01*
X777D02*
X827D01*
X777Y4764D01*
Y4776D01*
X789Y4789D01*
X815D01*
X827Y4776D01*
X751Y4713D02*
X726D01*
X738D01*
Y4789D01*
X751Y4776D01*
X688D02*
X675Y4789D01*
X650D01*
X637Y4776D01*
Y4726D01*
X650Y4713D01*
X675D01*
X688Y4726D01*
Y4776D01*
X903Y4865D02*
Y4942D01*
X865D01*
X853Y4929D01*
Y4903D01*
X865Y4891D01*
X903D01*
X878D02*
X853Y4865D01*
X777D02*
X827D01*
X777Y4916D01*
Y4929D01*
X789Y4942D01*
X815D01*
X827Y4929D01*
X751D02*
X738Y4942D01*
X713D01*
X700Y4929D01*
Y4878D01*
X713Y4865D01*
X738D01*
X751Y4878D01*
Y4929D01*
X675Y4878D02*
X662Y4865D01*
X637D01*
X624Y4878D01*
Y4929D01*
X637Y4942D01*
X662D01*
X675Y4929D01*
Y4916D01*
X662Y4903D01*
X624D01*
X903Y5018D02*
Y5094D01*
X865D01*
X853Y5081D01*
Y5056D01*
X865Y5043D01*
X903D01*
X878D02*
X853Y5018D01*
X777D02*
X827D01*
X777Y5069D01*
Y5081D01*
X789Y5094D01*
X815D01*
X827Y5081D01*
X751D02*
X738Y5094D01*
X713D01*
X700Y5081D01*
Y5030D01*
X713Y5018D01*
X738D01*
X751Y5030D01*
Y5081D01*
X675D02*
X662Y5094D01*
X637D01*
X624Y5081D01*
Y5069D01*
X637Y5056D01*
X624Y5043D01*
Y5030D01*
X637Y5018D01*
X662D01*
X675Y5030D01*
Y5043D01*
X662Y5056D01*
X675Y5069D01*
Y5081D01*
X662Y5056D02*
X637D01*
X2834Y14111D02*
X2910D01*
Y14149D01*
X2897Y14162D01*
X2872D01*
X2859Y14149D01*
Y14111D01*
Y14136D02*
X2834Y14162D01*
Y14238D02*
Y14187D01*
X2885Y14238D01*
X2897D01*
X2910Y14225D01*
Y14200D01*
X2897Y14187D01*
X2834Y14263D02*
Y14289D01*
Y14276D01*
X2910D01*
X2897Y14263D01*
Y14327D02*
X2910Y14340D01*
Y14365D01*
X2897Y14378D01*
X2885D01*
X2872Y14365D01*
Y14352D01*
Y14365D01*
X2859Y14378D01*
X2847D01*
X2834Y14365D01*
Y14340D01*
X2847Y14327D01*
X1704Y13768D02*
Y13844D01*
X1666D01*
X1653Y13832D01*
Y13806D01*
X1666Y13793D01*
X1704D01*
X1678D02*
X1653Y13768D01*
X1577D02*
X1627D01*
X1577Y13819D01*
Y13832D01*
X1589Y13844D01*
X1615D01*
X1627Y13832D01*
X1551Y13768D02*
X1526D01*
X1539D01*
Y13844D01*
X1551Y13832D01*
X1488Y13768D02*
X1462D01*
X1475D01*
Y13844D01*
X1488Y13832D01*
X6186Y10704D02*
X6110D01*
Y10755D01*
X6173Y10780D02*
X6186Y10793D01*
Y10819D01*
X6173Y10831D01*
X6161D01*
X6148Y10819D01*
Y10806D01*
Y10819D01*
X6135Y10831D01*
X6123D01*
X6110Y10819D01*
Y10793D01*
X6123Y10780D01*
X6173Y10857D02*
X6186Y10869D01*
Y10895D01*
X6173Y10907D01*
X6123D01*
X6110Y10895D01*
Y10869D01*
X6123Y10857D01*
X6173D01*
Y10933D02*
X6186Y10946D01*
Y10971D01*
X6173Y10984D01*
X6123D01*
X6110Y10971D01*
Y10946D01*
X6123Y10933D01*
X6173D01*
X6478Y10755D02*
X6491Y10742D01*
Y10717D01*
X6478Y10704D01*
X6427D01*
X6415Y10717D01*
Y10742D01*
X6427Y10755D01*
X6478Y10780D02*
X6491Y10793D01*
Y10819D01*
X6478Y10831D01*
X6466D01*
X6453Y10819D01*
Y10806D01*
Y10819D01*
X6440Y10831D01*
X6427D01*
X6415Y10819D01*
Y10793D01*
X6427Y10780D01*
X6478Y10857D02*
X6491Y10869D01*
Y10895D01*
X6478Y10907D01*
X6427D01*
X6415Y10895D01*
Y10869D01*
X6427Y10857D01*
X6478D01*
X6415Y10971D02*
X6491D01*
X6453Y10933D01*
Y10984D01*
X6326Y10755D02*
X6339Y10742D01*
Y10717D01*
X6326Y10704D01*
X6275D01*
X6262Y10717D01*
Y10742D01*
X6275Y10755D01*
X6326Y10780D02*
X6339Y10793D01*
Y10819D01*
X6326Y10831D01*
X6313D01*
X6300Y10819D01*
Y10806D01*
Y10819D01*
X6288Y10831D01*
X6275D01*
X6262Y10819D01*
Y10793D01*
X6275Y10780D01*
X6326Y10857D02*
X6339Y10869D01*
Y10895D01*
X6326Y10907D01*
X6275D01*
X6262Y10895D01*
Y10869D01*
X6275Y10857D01*
X6326D01*
Y10933D02*
X6339Y10946D01*
Y10971D01*
X6326Y10984D01*
X6313D01*
X6300Y10971D01*
Y10958D01*
Y10971D01*
X6288Y10984D01*
X6275D01*
X6262Y10971D01*
Y10946D01*
X6275Y10933D01*
X7175Y10643D02*
X7188Y10630D01*
Y10604D01*
X7175Y10592D01*
X7125D01*
X7112Y10604D01*
Y10630D01*
X7125Y10643D01*
X7175Y10668D02*
X7188Y10681D01*
Y10706D01*
X7175Y10719D01*
X7163D01*
X7150Y10706D01*
Y10693D01*
Y10706D01*
X7137Y10719D01*
X7125D01*
X7112Y10706D01*
Y10681D01*
X7125Y10668D01*
X7175Y10744D02*
X7188Y10757D01*
Y10782D01*
X7175Y10795D01*
X7125D01*
X7112Y10782D01*
Y10757D01*
X7125Y10744D01*
X7175D01*
X7112Y10871D02*
Y10820D01*
X7163Y10871D01*
X7175D01*
X7188Y10858D01*
Y10833D01*
X7175Y10820D01*
X5677Y11125D02*
X5690Y11112D01*
Y11087D01*
X5677Y11074D01*
X5626D01*
X5613Y11087D01*
Y11112D01*
X5626Y11125D01*
X5677Y11151D02*
X5690Y11163D01*
Y11189D01*
X5677Y11201D01*
X5664D01*
X5651Y11189D01*
Y11176D01*
Y11189D01*
X5639Y11201D01*
X5626D01*
X5613Y11189D01*
Y11163D01*
X5626Y11151D01*
X5677Y11227D02*
X5690Y11239D01*
Y11265D01*
X5677Y11278D01*
X5626D01*
X5613Y11265D01*
Y11239D01*
X5626Y11227D01*
X5677D01*
X5613Y11303D02*
Y11328D01*
Y11316D01*
X5690D01*
X5677Y11303D01*
X5855Y11125D02*
X5867Y11112D01*
Y11087D01*
X5855Y11074D01*
X5804D01*
X5791Y11087D01*
Y11112D01*
X5804Y11125D01*
X5855Y11151D02*
X5867Y11163D01*
Y11189D01*
X5855Y11201D01*
X5842D01*
X5829Y11189D01*
Y11176D01*
Y11189D01*
X5817Y11201D01*
X5804D01*
X5791Y11189D01*
Y11163D01*
X5804Y11151D01*
X5855Y11227D02*
X5867Y11239D01*
Y11265D01*
X5855Y11278D01*
X5804D01*
X5791Y11265D01*
Y11239D01*
X5804Y11227D01*
X5855D01*
Y11303D02*
X5867Y11316D01*
Y11341D01*
X5855Y11354D01*
X5804D01*
X5791Y11341D01*
Y11316D01*
X5804Y11303D01*
X5855D01*
X7137Y11074D02*
X7150Y11087D01*
X7176D01*
X7188Y11074D01*
Y11024D01*
X7176Y11011D01*
X7150D01*
X7137Y11024D01*
X7112Y11074D02*
X7099Y11087D01*
X7074D01*
X7061Y11074D01*
Y11062D01*
X7074Y11049D01*
X7087D01*
X7074D01*
X7061Y11036D01*
Y11024D01*
X7074Y11011D01*
X7099D01*
X7112Y11024D01*
X7036Y11074D02*
X7023Y11087D01*
X6998D01*
X6985Y11074D01*
Y11024D01*
X6998Y11011D01*
X7023D01*
X7036Y11024D01*
Y11074D01*
X6960D02*
X6947Y11087D01*
X6922D01*
X6909Y11074D01*
Y11062D01*
X6922Y11049D01*
X6909Y11036D01*
Y11024D01*
X6922Y11011D01*
X6947D01*
X6960Y11024D01*
Y11036D01*
X6947Y11049D01*
X6960Y11062D01*
Y11074D01*
X6947Y11049D02*
X6922D01*
X6020Y10109D02*
X6033Y10122D01*
X6058D01*
X6071Y10109D01*
Y10058D01*
X6058Y10046D01*
X6033D01*
X6020Y10058D01*
X5994Y10109D02*
X5982Y10122D01*
X5956D01*
X5944Y10109D01*
Y10096D01*
X5956Y10084D01*
X5969D01*
X5956D01*
X5944Y10071D01*
Y10058D01*
X5956Y10046D01*
X5982D01*
X5994Y10058D01*
X5918Y10109D02*
X5906Y10122D01*
X5880D01*
X5867Y10109D01*
Y10058D01*
X5880Y10046D01*
X5906D01*
X5918Y10058D01*
Y10109D01*
X5842Y10122D02*
X5791D01*
Y10109D01*
X5842Y10058D01*
Y10046D01*
X6617Y9144D02*
X6693D01*
Y9182D01*
X6680Y9195D01*
X6655D01*
X6642Y9182D01*
Y9144D01*
Y9169D02*
X6617Y9195D01*
X6680Y9220D02*
X6693Y9233D01*
Y9258D01*
X6680Y9271D01*
X6667D01*
X6655Y9258D01*
Y9246D01*
Y9258D01*
X6642Y9271D01*
X6629D01*
X6617Y9258D01*
Y9233D01*
X6629Y9220D01*
X6680Y9296D02*
X6693Y9309D01*
Y9334D01*
X6680Y9347D01*
X6629D01*
X6617Y9334D01*
Y9309D01*
X6629Y9296D01*
X6680D01*
X6693Y9423D02*
X6680Y9398D01*
X6655Y9373D01*
X6629D01*
X6617Y9385D01*
Y9411D01*
X6629Y9423D01*
X6642D01*
X6655Y9411D01*
Y9373D01*
X6464Y9144D02*
X6540D01*
Y9182D01*
X6528Y9195D01*
X6502D01*
X6490Y9182D01*
Y9144D01*
Y9169D02*
X6464Y9195D01*
X6528Y9220D02*
X6540Y9233D01*
Y9258D01*
X6528Y9271D01*
X6515D01*
X6502Y9258D01*
Y9246D01*
Y9258D01*
X6490Y9271D01*
X6477D01*
X6464Y9258D01*
Y9233D01*
X6477Y9220D01*
X6528Y9296D02*
X6540Y9309D01*
Y9334D01*
X6528Y9347D01*
X6477D01*
X6464Y9334D01*
Y9309D01*
X6477Y9296D01*
X6528D01*
Y9373D02*
X6540Y9385D01*
Y9411D01*
X6528Y9423D01*
X6515D01*
X6502Y9411D01*
Y9398D01*
Y9411D01*
X6490Y9423D01*
X6477D01*
X6464Y9411D01*
Y9385D01*
X6477Y9373D01*
X6312Y9144D02*
X6388D01*
Y9182D01*
X6375Y9195D01*
X6350D01*
X6337Y9182D01*
Y9144D01*
Y9169D02*
X6312Y9195D01*
X6375Y9220D02*
X6388Y9233D01*
Y9258D01*
X6375Y9271D01*
X6363D01*
X6350Y9258D01*
Y9246D01*
Y9258D01*
X6337Y9271D01*
X6325D01*
X6312Y9258D01*
Y9233D01*
X6325Y9220D01*
X6375Y9296D02*
X6388Y9309D01*
Y9334D01*
X6375Y9347D01*
X6325D01*
X6312Y9334D01*
Y9309D01*
X6325Y9296D01*
X6375D01*
X6312Y9373D02*
Y9398D01*
Y9385D01*
X6388D01*
X6375Y9373D01*
X7249Y12654D02*
X7262Y12667D01*
X7287D01*
X7300Y12654D01*
Y12603D01*
X7287Y12590D01*
X7262D01*
X7249Y12603D01*
X7224Y12654D02*
X7211Y12667D01*
X7186D01*
X7173Y12654D01*
Y12641D01*
X7186Y12629D01*
X7198D01*
X7186D01*
X7173Y12616D01*
Y12603D01*
X7186Y12590D01*
X7211D01*
X7224Y12603D01*
X7148Y12590D02*
X7122D01*
X7135D01*
Y12667D01*
X7148Y12654D01*
X7084D02*
X7071Y12667D01*
X7046D01*
X7033Y12654D01*
Y12603D01*
X7046Y12590D01*
X7071D01*
X7084Y12603D01*
Y12654D01*
X6223Y9195D02*
X6236Y9182D01*
Y9157D01*
X6223Y9144D01*
X6172D01*
X6160Y9157D01*
Y9182D01*
X6172Y9195D01*
X6223Y9220D02*
X6236Y9233D01*
Y9258D01*
X6223Y9271D01*
X6210D01*
X6198Y9258D01*
Y9246D01*
Y9258D01*
X6185Y9271D01*
X6172D01*
X6160Y9258D01*
Y9233D01*
X6172Y9220D01*
X6223Y9296D02*
X6236Y9309D01*
Y9334D01*
X6223Y9347D01*
X6172D01*
X6160Y9334D01*
Y9309D01*
X6172Y9296D01*
X6223D01*
X6172Y9373D02*
X6160Y9385D01*
Y9411D01*
X6172Y9423D01*
X6223D01*
X6236Y9411D01*
Y9385D01*
X6223Y9373D01*
X6210D01*
X6198Y9385D01*
Y9423D01*
X6769Y13010D02*
Y13086D01*
X6731D01*
X6718Y13073D01*
Y13048D01*
X6731Y13035D01*
X6769D01*
X6744D02*
X6718Y13010D01*
X6693Y13073D02*
X6680Y13086D01*
X6655D01*
X6642Y13073D01*
Y13060D01*
X6655Y13048D01*
X6668D01*
X6655D01*
X6642Y13035D01*
Y13022D01*
X6655Y13010D01*
X6680D01*
X6693Y13022D01*
X6566Y13010D02*
X6617D01*
X6566Y13060D01*
Y13073D01*
X6579Y13086D01*
X6604D01*
X6617Y13073D01*
X6490Y13010D02*
X6541D01*
X6490Y13060D01*
Y13073D01*
X6502Y13086D01*
X6528D01*
X6541Y13073D01*
X7345Y13005D02*
X7421D01*
Y13043D01*
X7408Y13056D01*
X7383D01*
X7370Y13043D01*
Y13005D01*
Y13030D02*
X7345Y13056D01*
X7408Y13081D02*
X7421Y13094D01*
Y13119D01*
X7408Y13132D01*
X7396D01*
X7383Y13119D01*
Y13106D01*
Y13119D01*
X7370Y13132D01*
X7358D01*
X7345Y13119D01*
Y13094D01*
X7358Y13081D01*
X7345Y13208D02*
Y13157D01*
X7396Y13208D01*
X7408D01*
X7421Y13195D01*
Y13170D01*
X7408Y13157D01*
X7345Y13233D02*
Y13259D01*
Y13246D01*
X7421D01*
X7408Y13233D01*
X6009Y12968D02*
X6022Y12955D01*
Y12930D01*
X6009Y12917D01*
X5958D01*
X5945Y12930D01*
Y12955D01*
X5958Y12968D01*
X6009Y12993D02*
X6022Y13006D01*
Y13031D01*
X6009Y13044D01*
X5996D01*
X5983Y13031D01*
Y13019D01*
Y13031D01*
X5971Y13044D01*
X5958D01*
X5945Y13031D01*
Y13006D01*
X5958Y12993D01*
X5945Y13070D02*
Y13095D01*
Y13082D01*
X6022D01*
X6009Y13070D01*
X5945Y13184D02*
Y13133D01*
X5996Y13184D01*
X6009D01*
X6022Y13171D01*
Y13146D01*
X6009Y13133D01*
X7113Y13818D02*
X7126Y13831D01*
X7151D01*
X7164Y13818D01*
Y13768D01*
X7151Y13755D01*
X7126D01*
X7113Y13768D01*
X7088Y13818D02*
X7075Y13831D01*
X7050D01*
X7037Y13818D01*
Y13806D01*
X7050Y13793D01*
X7063D01*
X7050D01*
X7037Y13780D01*
Y13768D01*
X7050Y13755D01*
X7075D01*
X7088Y13768D01*
X7012Y13755D02*
X6986D01*
X6999D01*
Y13831D01*
X7012Y13818D01*
X6948Y13755D02*
X6923D01*
X6936D01*
Y13831D01*
X6948Y13818D01*
X7137Y11874D02*
X7150Y11862D01*
Y11836D01*
X7137Y11824D01*
X7087D01*
X7074Y11836D01*
Y11862D01*
X7087Y11874D01*
X7137Y11900D02*
X7150Y11913D01*
Y11938D01*
X7137Y11951D01*
X7125D01*
X7112Y11938D01*
Y11925D01*
Y11938D01*
X7099Y11951D01*
X7087D01*
X7074Y11938D01*
Y11913D01*
X7087Y11900D01*
X7074Y11976D02*
Y12001D01*
Y11989D01*
X7150D01*
X7137Y11976D01*
Y12040D02*
X7150Y12052D01*
Y12078D01*
X7137Y12090D01*
X7125D01*
X7112Y12078D01*
Y12065D01*
Y12078D01*
X7099Y12090D01*
X7087D01*
X7074Y12078D01*
Y12052D01*
X7087Y12040D01*
X8192Y2413D02*
Y2489D01*
X8153D01*
X8141Y2476D01*
Y2451D01*
X8153Y2438D01*
X8192D01*
X8166D02*
X8141Y2413D01*
X8065D02*
X8115D01*
X8065Y2464D01*
Y2476D01*
X8077Y2489D01*
X8103D01*
X8115Y2476D01*
X8039Y2413D02*
X8014D01*
X8026D01*
Y2489D01*
X8039Y2476D01*
X7925Y2489D02*
X7950Y2476D01*
X7976Y2451D01*
Y2426D01*
X7963Y2413D01*
X7938D01*
X7925Y2426D01*
Y2438D01*
X7938Y2451D01*
X7976D01*
X7825Y2465D02*
X7838Y2452D01*
Y2427D01*
X7825Y2414D01*
X7774D01*
X7761Y2427D01*
Y2452D01*
X7774Y2465D01*
X7761Y2541D02*
Y2490D01*
X7812Y2541D01*
X7825D01*
X7838Y2529D01*
Y2503D01*
X7825Y2490D01*
Y2567D02*
X7838Y2579D01*
Y2605D01*
X7825Y2617D01*
X7774D01*
X7761Y2605D01*
Y2579D01*
X7774Y2567D01*
X7825D01*
Y2643D02*
X7838Y2656D01*
Y2681D01*
X7825Y2694D01*
X7812D01*
X7800Y2681D01*
X7787Y2694D01*
X7774D01*
X7761Y2681D01*
Y2656D01*
X7774Y2643D01*
X7787D01*
X7800Y2656D01*
X7812Y2643D01*
X7825D01*
X7800Y2656D02*
Y2681D01*
X7520Y2465D02*
X7533Y2452D01*
Y2427D01*
X7520Y2414D01*
X7469D01*
X7457Y2427D01*
Y2452D01*
X7469Y2465D01*
X7457Y2541D02*
Y2490D01*
X7507Y2541D01*
X7520D01*
X7533Y2529D01*
Y2503D01*
X7520Y2490D01*
Y2567D02*
X7533Y2579D01*
Y2605D01*
X7520Y2617D01*
X7469D01*
X7457Y2605D01*
Y2579D01*
X7469Y2567D01*
X7520D01*
X7533Y2643D02*
Y2694D01*
X7520D01*
X7469Y2643D01*
X7457D01*
X7673Y2465D02*
X7685Y2452D01*
Y2427D01*
X7673Y2414D01*
X7622D01*
X7609Y2427D01*
Y2452D01*
X7622Y2465D01*
X7609Y2541D02*
Y2490D01*
X7660Y2541D01*
X7673D01*
X7685Y2529D01*
Y2503D01*
X7673Y2490D01*
Y2567D02*
X7685Y2579D01*
Y2605D01*
X7673Y2617D01*
X7622D01*
X7609Y2605D01*
Y2579D01*
X7622Y2567D01*
X7673D01*
X7685Y2694D02*
X7673Y2668D01*
X7647Y2643D01*
X7622D01*
X7609Y2656D01*
Y2681D01*
X7622Y2694D01*
X7634D01*
X7647Y2681D01*
Y2643D01*
X8268Y2642D02*
X8280Y2654D01*
X8306D01*
X8318Y2642D01*
Y2591D01*
X8306Y2578D01*
X8280D01*
X8268Y2591D01*
X8192Y2578D02*
X8242D01*
X8192Y2629D01*
Y2642D01*
X8204Y2654D01*
X8230D01*
X8242Y2642D01*
X8166D02*
X8153Y2654D01*
X8128D01*
X8115Y2642D01*
Y2591D01*
X8128Y2578D01*
X8153D01*
X8166Y2591D01*
Y2642D01*
X8039Y2654D02*
X8090D01*
Y2616D01*
X8065Y2629D01*
X8052D01*
X8039Y2616D01*
Y2591D01*
X8052Y2578D01*
X8077D01*
X8090Y2591D01*
X8255Y2807D02*
X8268Y2819D01*
X8293D01*
X8306Y2807D01*
Y2756D01*
X8293Y2743D01*
X8268D01*
X8255Y2756D01*
X8179Y2743D02*
X8230D01*
X8179Y2794D01*
Y2807D01*
X8192Y2819D01*
X8217D01*
X8230Y2807D01*
X8153D02*
X8141Y2819D01*
X8115D01*
X8103Y2807D01*
Y2756D01*
X8115Y2743D01*
X8141D01*
X8153Y2756D01*
Y2807D01*
X8039Y2743D02*
Y2819D01*
X8077Y2781D01*
X8026D01*
X2415Y13882D02*
X2427Y13870D01*
Y13844D01*
X2415Y13832D01*
X2364D01*
X2351Y13844D01*
Y13870D01*
X2364Y13882D01*
X2351Y13959D02*
Y13908D01*
X2402Y13959D01*
X2415D01*
X2427Y13946D01*
Y13920D01*
X2415Y13908D01*
Y13984D02*
X2427Y13997D01*
Y14022D01*
X2415Y14035D01*
X2364D01*
X2351Y14022D01*
Y13997D01*
X2364Y13984D01*
X2415D01*
Y14060D02*
X2427Y14073D01*
Y14098D01*
X2415Y14111D01*
X2364D01*
X2351Y14098D01*
Y14073D01*
X2364Y14060D01*
X2415D01*
X1932Y10745D02*
X1945Y10758D01*
X1970D01*
X1983Y10745D01*
Y10695D01*
X1970Y10682D01*
X1945D01*
X1932Y10695D01*
X1856Y10758D02*
X1881Y10745D01*
X1907Y10720D01*
Y10695D01*
X1894Y10682D01*
X1869D01*
X1856Y10695D01*
Y10707D01*
X1869Y10720D01*
X1907D01*
X1831Y10745D02*
X1818Y10758D01*
X1793D01*
X1780Y10745D01*
Y10695D01*
X1793Y10682D01*
X1818D01*
X1831Y10695D01*
Y10745D01*
X1754D02*
X1742Y10758D01*
X1716D01*
X1704Y10745D01*
Y10695D01*
X1716Y10682D01*
X1742D01*
X1754Y10695D01*
Y10745D01*
X2923Y12155D02*
X2935Y12142D01*
Y12117D01*
X2923Y12104D01*
X2872D01*
X2859Y12117D01*
Y12142D01*
X2872Y12155D01*
X2935Y12231D02*
X2923Y12206D01*
X2897Y12181D01*
X2872D01*
X2859Y12193D01*
Y12219D01*
X2872Y12231D01*
X2885D01*
X2897Y12219D01*
Y12181D01*
X2923Y12257D02*
X2935Y12269D01*
Y12295D01*
X2923Y12308D01*
X2872D01*
X2859Y12295D01*
Y12269D01*
X2872Y12257D01*
X2923D01*
X2859Y12333D02*
Y12358D01*
Y12346D01*
X2935D01*
X2923Y12333D01*
X3812Y12155D02*
X3824Y12142D01*
Y12117D01*
X3812Y12104D01*
X3761D01*
X3748Y12117D01*
Y12142D01*
X3761Y12155D01*
X3824Y12231D02*
X3812Y12206D01*
X3786Y12181D01*
X3761D01*
X3748Y12193D01*
Y12219D01*
X3761Y12231D01*
X3774D01*
X3786Y12219D01*
Y12181D01*
X3812Y12257D02*
X3824Y12269D01*
Y12295D01*
X3812Y12308D01*
X3761D01*
X3748Y12295D01*
Y12269D01*
X3761Y12257D01*
X3812D01*
X3748Y12384D02*
Y12333D01*
X3799Y12384D01*
X3812D01*
X3824Y12371D01*
Y12346D01*
X3812Y12333D01*
X1932Y11647D02*
X1945Y11660D01*
X1970D01*
X1983Y11647D01*
Y11596D01*
X1970Y11584D01*
X1945D01*
X1932Y11596D01*
X1856Y11660D02*
X1881Y11647D01*
X1907Y11622D01*
Y11596D01*
X1894Y11584D01*
X1869D01*
X1856Y11596D01*
Y11609D01*
X1869Y11622D01*
X1907D01*
X1831Y11647D02*
X1818Y11660D01*
X1793D01*
X1780Y11647D01*
Y11596D01*
X1793Y11584D01*
X1818D01*
X1831Y11596D01*
Y11647D01*
X1754D02*
X1742Y11660D01*
X1716D01*
X1704Y11647D01*
Y11634D01*
X1716Y11622D01*
X1729D01*
X1716D01*
X1704Y11609D01*
Y11596D01*
X1716Y11584D01*
X1742D01*
X1754Y11596D01*
X3888Y9666D02*
X3901Y9653D01*
Y9628D01*
X3888Y9615D01*
X3837D01*
X3824Y9628D01*
Y9653D01*
X3837Y9666D01*
X3901Y9742D02*
X3888Y9717D01*
X3863Y9691D01*
X3837D01*
X3824Y9704D01*
Y9729D01*
X3837Y9742D01*
X3850D01*
X3863Y9729D01*
Y9691D01*
X3888Y9768D02*
X3901Y9780D01*
Y9806D01*
X3888Y9818D01*
X3837D01*
X3824Y9806D01*
Y9780D01*
X3837Y9768D01*
X3888D01*
X3824Y9882D02*
X3901D01*
X3863Y9844D01*
Y9895D01*
X4040Y9666D02*
X4053Y9653D01*
Y9628D01*
X4040Y9615D01*
X3990D01*
X3977Y9628D01*
Y9653D01*
X3990Y9666D01*
X4053Y9742D02*
X4040Y9717D01*
X4015Y9691D01*
X3990D01*
X3977Y9704D01*
Y9729D01*
X3990Y9742D01*
X4002D01*
X4015Y9729D01*
Y9691D01*
X4040Y9768D02*
X4053Y9780D01*
Y9806D01*
X4040Y9818D01*
X3990D01*
X3977Y9806D01*
Y9780D01*
X3990Y9768D01*
X4040D01*
X4053Y9895D02*
Y9844D01*
X4015D01*
X4028Y9869D01*
Y9882D01*
X4015Y9895D01*
X3990D01*
X3977Y9882D01*
Y9856D01*
X3990Y9844D01*
X4383Y10415D02*
X4396Y10428D01*
X4421D01*
X4434Y10415D01*
Y10364D01*
X4421Y10352D01*
X4396D01*
X4383Y10364D01*
X4307Y10428D02*
X4333Y10415D01*
X4358Y10390D01*
Y10364D01*
X4345Y10352D01*
X4320D01*
X4307Y10364D01*
Y10377D01*
X4320Y10390D01*
X4358D01*
X4282Y10415D02*
X4269Y10428D01*
X4244D01*
X4231Y10415D01*
Y10364D01*
X4244Y10352D01*
X4269D01*
X4282Y10364D01*
Y10415D01*
X4155Y10428D02*
X4180Y10415D01*
X4206Y10390D01*
Y10364D01*
X4193Y10352D01*
X4167D01*
X4155Y10364D01*
Y10377D01*
X4167Y10390D01*
X4206D01*
X4383Y10720D02*
X4396Y10733D01*
X4421D01*
X4434Y10720D01*
Y10669D01*
X4421Y10657D01*
X4396D01*
X4383Y10669D01*
X4307Y10733D02*
X4333Y10720D01*
X4358Y10695D01*
Y10669D01*
X4345Y10657D01*
X4320D01*
X4307Y10669D01*
Y10682D01*
X4320Y10695D01*
X4358D01*
X4282Y10720D02*
X4269Y10733D01*
X4244D01*
X4231Y10720D01*
Y10669D01*
X4244Y10657D01*
X4269D01*
X4282Y10669D01*
Y10720D01*
X4206Y10733D02*
X4155D01*
Y10720D01*
X4206Y10669D01*
Y10657D01*
X4383Y10872D02*
X4396Y10885D01*
X4421D01*
X4434Y10872D01*
Y10822D01*
X4421Y10809D01*
X4396D01*
X4383Y10822D01*
X4307Y10885D02*
X4333Y10872D01*
X4358Y10847D01*
Y10822D01*
X4345Y10809D01*
X4320D01*
X4307Y10822D01*
Y10834D01*
X4320Y10847D01*
X4358D01*
X4282Y10872D02*
X4269Y10885D01*
X4244D01*
X4231Y10872D01*
Y10822D01*
X4244Y10809D01*
X4269D01*
X4282Y10822D01*
Y10872D01*
X4206D02*
X4193Y10885D01*
X4167D01*
X4155Y10872D01*
Y10860D01*
X4167Y10847D01*
X4155Y10834D01*
Y10822D01*
X4167Y10809D01*
X4193D01*
X4206Y10822D01*
Y10834D01*
X4193Y10847D01*
X4206Y10860D01*
Y10872D01*
X4193Y10847D02*
X4167D01*
X4383Y11177D02*
X4396Y11190D01*
X4421D01*
X4434Y11177D01*
Y11126D01*
X4421Y11114D01*
X4396D01*
X4383Y11126D01*
X4307Y11190D02*
X4333Y11177D01*
X4358Y11152D01*
Y11126D01*
X4345Y11114D01*
X4320D01*
X4307Y11126D01*
Y11139D01*
X4320Y11152D01*
X4358D01*
X4282Y11177D02*
X4269Y11190D01*
X4244D01*
X4231Y11177D01*
Y11126D01*
X4244Y11114D01*
X4269D01*
X4282Y11126D01*
Y11177D01*
X4206Y11126D02*
X4193Y11114D01*
X4167D01*
X4155Y11126D01*
Y11177D01*
X4167Y11190D01*
X4193D01*
X4206Y11177D01*
Y11165D01*
X4193Y11152D01*
X4155D01*
X4383Y11342D02*
X4396Y11355D01*
X4421D01*
X4434Y11342D01*
Y11292D01*
X4421Y11279D01*
X4396D01*
X4383Y11292D01*
X4307Y11355D02*
X4333Y11342D01*
X4358Y11317D01*
Y11292D01*
X4345Y11279D01*
X4320D01*
X4307Y11292D01*
Y11304D01*
X4320Y11317D01*
X4358D01*
X4282Y11279D02*
X4256D01*
X4269D01*
Y11355D01*
X4282Y11342D01*
X4218D02*
X4206Y11355D01*
X4180D01*
X4167Y11342D01*
Y11292D01*
X4180Y11279D01*
X4206D01*
X4218Y11292D01*
Y11342D01*
X4383Y11647D02*
X4396Y11660D01*
X4421D01*
X4434Y11647D01*
Y11596D01*
X4421Y11584D01*
X4396D01*
X4383Y11596D01*
X4307Y11660D02*
X4333Y11647D01*
X4358Y11622D01*
Y11596D01*
X4345Y11584D01*
X4320D01*
X4307Y11596D01*
Y11609D01*
X4320Y11622D01*
X4358D01*
X4282Y11584D02*
X4256D01*
X4269D01*
Y11660D01*
X4282Y11647D01*
X4218Y11584D02*
X4193D01*
X4206D01*
Y11660D01*
X4218Y11647D01*
X1932Y11165D02*
X1945Y11177D01*
X1970D01*
X1983Y11165D01*
Y11114D01*
X1970Y11101D01*
X1945D01*
X1932Y11114D01*
X1856Y11177D02*
X1881Y11165D01*
X1907Y11139D01*
Y11114D01*
X1894Y11101D01*
X1869D01*
X1856Y11114D01*
Y11126D01*
X1869Y11139D01*
X1907D01*
X1831Y11101D02*
X1805D01*
X1818D01*
Y11177D01*
X1831Y11165D01*
X1716Y11177D02*
X1767D01*
Y11139D01*
X1742Y11152D01*
X1729D01*
X1716Y11139D01*
Y11114D01*
X1729Y11101D01*
X1754D01*
X1767Y11114D01*
X1932Y10949D02*
X1945Y10961D01*
X1970D01*
X1983Y10949D01*
Y10898D01*
X1970Y10885D01*
X1945D01*
X1932Y10898D01*
X1856Y10961D02*
X1881Y10949D01*
X1907Y10923D01*
Y10898D01*
X1894Y10885D01*
X1869D01*
X1856Y10898D01*
Y10911D01*
X1869Y10923D01*
X1907D01*
X1831Y10885D02*
X1805D01*
X1818D01*
Y10961D01*
X1831Y10949D01*
X1716Y10961D02*
X1742Y10949D01*
X1767Y10923D01*
Y10898D01*
X1754Y10885D01*
X1729D01*
X1716Y10898D01*
Y10911D01*
X1729Y10923D01*
X1767D01*
X1932Y11495D02*
X1945Y11507D01*
X1970D01*
X1983Y11495D01*
Y11444D01*
X1970Y11431D01*
X1945D01*
X1932Y11444D01*
X1856Y11507D02*
X1881Y11495D01*
X1907Y11469D01*
Y11444D01*
X1894Y11431D01*
X1869D01*
X1856Y11444D01*
Y11457D01*
X1869Y11469D01*
X1907D01*
X1831Y11431D02*
X1805D01*
X1818D01*
Y11507D01*
X1831Y11495D01*
X1767Y11507D02*
X1716D01*
Y11495D01*
X1767Y11444D01*
Y11431D01*
X1932Y10568D02*
X1945Y10580D01*
X1970D01*
X1983Y10568D01*
Y10517D01*
X1970Y10504D01*
X1945D01*
X1932Y10517D01*
X1856Y10580D02*
X1881Y10568D01*
X1907Y10542D01*
Y10517D01*
X1894Y10504D01*
X1869D01*
X1856Y10517D01*
Y10530D01*
X1869Y10542D01*
X1907D01*
X1831Y10504D02*
X1805D01*
X1818D01*
Y10580D01*
X1831Y10568D01*
X1767D02*
X1754Y10580D01*
X1729D01*
X1716Y10568D01*
Y10555D01*
X1729Y10542D01*
X1716Y10530D01*
Y10517D01*
X1729Y10504D01*
X1754D01*
X1767Y10517D01*
Y10530D01*
X1754Y10542D01*
X1767Y10555D01*
Y10568D01*
X1754Y10542D02*
X1729D01*
X2199Y9666D02*
X2212Y9653D01*
Y9628D01*
X2199Y9615D01*
X2148D01*
X2135Y9628D01*
Y9653D01*
X2148Y9666D01*
X2212Y9742D02*
X2199Y9717D01*
X2173Y9691D01*
X2148D01*
X2135Y9704D01*
Y9729D01*
X2148Y9742D01*
X2161D01*
X2173Y9729D01*
Y9691D01*
X2135Y9768D02*
Y9793D01*
Y9780D01*
X2212D01*
X2199Y9768D01*
X2148Y9831D02*
X2135Y9844D01*
Y9869D01*
X2148Y9882D01*
X2199D01*
X2212Y9869D01*
Y9844D01*
X2199Y9831D01*
X2186D01*
X2173Y9844D01*
Y9882D01*
X2808Y9666D02*
X2821Y9653D01*
Y9628D01*
X2808Y9615D01*
X2758D01*
X2745Y9628D01*
Y9653D01*
X2758Y9666D01*
X2821Y9742D02*
X2808Y9717D01*
X2783Y9691D01*
X2758D01*
X2745Y9704D01*
Y9729D01*
X2758Y9742D01*
X2770D01*
X2783Y9729D01*
Y9691D01*
X2745Y9818D02*
Y9768D01*
X2796Y9818D01*
X2808D01*
X2821Y9806D01*
Y9780D01*
X2808Y9768D01*
Y9844D02*
X2821Y9856D01*
Y9882D01*
X2808Y9895D01*
X2758D01*
X2745Y9882D01*
Y9856D01*
X2758Y9844D01*
X2808D01*
X3278Y9666D02*
X3291Y9653D01*
Y9628D01*
X3278Y9615D01*
X3228D01*
X3215Y9628D01*
Y9653D01*
X3228Y9666D01*
X3291Y9742D02*
X3278Y9717D01*
X3253Y9691D01*
X3228D01*
X3215Y9704D01*
Y9729D01*
X3228Y9742D01*
X3240D01*
X3253Y9729D01*
Y9691D01*
X3215Y9818D02*
Y9768D01*
X3266Y9818D01*
X3278D01*
X3291Y9806D01*
Y9780D01*
X3278Y9768D01*
X3215Y9844D02*
Y9869D01*
Y9856D01*
X3291D01*
X3278Y9844D01*
X3736Y9666D02*
X3748Y9653D01*
Y9628D01*
X3736Y9615D01*
X3685D01*
X3672Y9628D01*
Y9653D01*
X3685Y9666D01*
X3748Y9742D02*
X3736Y9717D01*
X3710Y9691D01*
X3685D01*
X3672Y9704D01*
Y9729D01*
X3685Y9742D01*
X3697D01*
X3710Y9729D01*
Y9691D01*
X3672Y9818D02*
Y9768D01*
X3723Y9818D01*
X3736D01*
X3748Y9806D01*
Y9780D01*
X3736Y9768D01*
X3672Y9895D02*
Y9844D01*
X3723Y9895D01*
X3736D01*
X3748Y9882D01*
Y9856D01*
X3736Y9844D01*
X3583Y9666D02*
X3596Y9653D01*
Y9628D01*
X3583Y9615D01*
X3532D01*
X3520Y9628D01*
Y9653D01*
X3532Y9666D01*
X3596Y9742D02*
X3583Y9717D01*
X3558Y9691D01*
X3532D01*
X3520Y9704D01*
Y9729D01*
X3532Y9742D01*
X3545D01*
X3558Y9729D01*
Y9691D01*
X3520Y9818D02*
Y9768D01*
X3570Y9818D01*
X3583D01*
X3596Y9806D01*
Y9780D01*
X3583Y9768D01*
Y9844D02*
X3596Y9856D01*
Y9882D01*
X3583Y9895D01*
X3570D01*
X3558Y9882D01*
Y9869D01*
Y9882D01*
X3545Y9895D01*
X3532D01*
X3520Y9882D01*
Y9856D01*
X3532Y9844D01*
X3113Y9666D02*
X3126Y9653D01*
Y9628D01*
X3113Y9615D01*
X3062D01*
X3050Y9628D01*
Y9653D01*
X3062Y9666D01*
X3126Y9742D02*
X3113Y9717D01*
X3088Y9691D01*
X3062D01*
X3050Y9704D01*
Y9729D01*
X3062Y9742D01*
X3075D01*
X3088Y9729D01*
Y9691D01*
X3050Y9818D02*
Y9768D01*
X3101Y9818D01*
X3113D01*
X3126Y9806D01*
Y9780D01*
X3113Y9768D01*
X3050Y9882D02*
X3126D01*
X3088Y9844D01*
Y9895D01*
X3126Y12155D02*
X3139Y12142D01*
Y12117D01*
X3126Y12104D01*
X3075D01*
X3062Y12117D01*
Y12142D01*
X3075Y12155D01*
X3139Y12231D02*
X3126Y12206D01*
X3101Y12181D01*
X3075D01*
X3062Y12193D01*
Y12219D01*
X3075Y12231D01*
X3088D01*
X3101Y12219D01*
Y12181D01*
X3062Y12308D02*
Y12257D01*
X3113Y12308D01*
X3126D01*
X3139Y12295D01*
Y12269D01*
X3126Y12257D01*
X3139Y12384D02*
Y12333D01*
X3101D01*
X3113Y12358D01*
Y12371D01*
X3101Y12384D01*
X3075D01*
X3062Y12371D01*
Y12346D01*
X3075Y12333D01*
X2516Y9666D02*
X2529Y9653D01*
Y9628D01*
X2516Y9615D01*
X2466D01*
X2453Y9628D01*
Y9653D01*
X2466Y9666D01*
X2529Y9742D02*
X2516Y9717D01*
X2491Y9691D01*
X2466D01*
X2453Y9704D01*
Y9729D01*
X2466Y9742D01*
X2478D01*
X2491Y9729D01*
Y9691D01*
X2453Y9818D02*
Y9768D01*
X2504Y9818D01*
X2516D01*
X2529Y9806D01*
Y9780D01*
X2516Y9768D01*
X2529Y9895D02*
X2516Y9869D01*
X2491Y9844D01*
X2466D01*
X2453Y9856D01*
Y9882D01*
X2466Y9895D01*
X2478D01*
X2491Y9882D01*
Y9844D01*
X3431Y9666D02*
X3443Y9653D01*
Y9628D01*
X3431Y9615D01*
X3380D01*
X3367Y9628D01*
Y9653D01*
X3380Y9666D01*
X3443Y9742D02*
X3431Y9717D01*
X3405Y9691D01*
X3380D01*
X3367Y9704D01*
Y9729D01*
X3380Y9742D01*
X3393D01*
X3405Y9729D01*
Y9691D01*
X3367Y9818D02*
Y9768D01*
X3418Y9818D01*
X3431D01*
X3443Y9806D01*
Y9780D01*
X3431Y9768D01*
X3443Y9844D02*
Y9895D01*
X3431D01*
X3380Y9844D01*
X3367D01*
X4383Y11495D02*
X4396Y11507D01*
X4421D01*
X4434Y11495D01*
Y11444D01*
X4421Y11431D01*
X4396D01*
X4383Y11444D01*
X4307Y11507D02*
X4333Y11495D01*
X4358Y11469D01*
Y11444D01*
X4345Y11431D01*
X4320D01*
X4307Y11444D01*
Y11457D01*
X4320Y11469D01*
X4358D01*
X4231Y11431D02*
X4282D01*
X4231Y11482D01*
Y11495D01*
X4244Y11507D01*
X4269D01*
X4282Y11495D01*
X4206D02*
X4193Y11507D01*
X4167D01*
X4155Y11495D01*
Y11482D01*
X4167Y11469D01*
X4155Y11457D01*
Y11444D01*
X4167Y11431D01*
X4193D01*
X4206Y11444D01*
Y11457D01*
X4193Y11469D01*
X4206Y11482D01*
Y11495D01*
X4193Y11469D02*
X4167D01*
X4383Y10568D02*
X4396Y10580D01*
X4421D01*
X4434Y10568D01*
Y10517D01*
X4421Y10504D01*
X4396D01*
X4383Y10517D01*
X4307Y10580D02*
X4333Y10568D01*
X4358Y10542D01*
Y10517D01*
X4345Y10504D01*
X4320D01*
X4307Y10517D01*
Y10530D01*
X4320Y10542D01*
X4358D01*
X4231Y10504D02*
X4282D01*
X4231Y10555D01*
Y10568D01*
X4244Y10580D01*
X4269D01*
X4282Y10568D01*
X4206Y10517D02*
X4193Y10504D01*
X4167D01*
X4155Y10517D01*
Y10568D01*
X4167Y10580D01*
X4193D01*
X4206Y10568D01*
Y10555D01*
X4193Y10542D01*
X4155D01*
X1932Y11330D02*
X1945Y11342D01*
X1970D01*
X1983Y11330D01*
Y11279D01*
X1970Y11266D01*
X1945D01*
X1932Y11279D01*
X1856Y11342D02*
X1881Y11330D01*
X1907Y11304D01*
Y11279D01*
X1894Y11266D01*
X1869D01*
X1856Y11279D01*
Y11292D01*
X1869Y11304D01*
X1907D01*
X1831Y11330D02*
X1818Y11342D01*
X1793D01*
X1780Y11330D01*
Y11317D01*
X1793Y11304D01*
X1805D01*
X1793D01*
X1780Y11292D01*
Y11279D01*
X1793Y11266D01*
X1818D01*
X1831Y11279D01*
X1754Y11330D02*
X1742Y11342D01*
X1716D01*
X1704Y11330D01*
Y11279D01*
X1716Y11266D01*
X1742D01*
X1754Y11279D01*
Y11330D01*
X3507Y12155D02*
X3520Y12142D01*
Y12117D01*
X3507Y12104D01*
X3456D01*
X3444Y12117D01*
Y12142D01*
X3456Y12155D01*
X3520Y12231D02*
X3507Y12206D01*
X3482Y12181D01*
X3456D01*
X3444Y12193D01*
Y12219D01*
X3456Y12231D01*
X3469D01*
X3482Y12219D01*
Y12181D01*
X3507Y12257D02*
X3520Y12269D01*
Y12295D01*
X3507Y12308D01*
X3494D01*
X3482Y12295D01*
Y12282D01*
Y12295D01*
X3469Y12308D01*
X3456D01*
X3444Y12295D01*
Y12269D01*
X3456Y12257D01*
X3444Y12333D02*
Y12358D01*
Y12346D01*
X3520D01*
X3507Y12333D01*
X4383Y11025D02*
X4396Y11038D01*
X4421D01*
X4434Y11025D01*
Y10974D01*
X4421Y10961D01*
X4396D01*
X4383Y10974D01*
X4307Y11038D02*
X4333Y11025D01*
X4358Y10999D01*
Y10974D01*
X4345Y10961D01*
X4320D01*
X4307Y10974D01*
Y10987D01*
X4320Y10999D01*
X4358D01*
X4282Y11025D02*
X4269Y11038D01*
X4244D01*
X4231Y11025D01*
Y11012D01*
X4244Y10999D01*
X4256D01*
X4244D01*
X4231Y10987D01*
Y10974D01*
X4244Y10961D01*
X4269D01*
X4282Y10974D01*
X4155Y10961D02*
X4206D01*
X4155Y11012D01*
Y11025D01*
X4167Y11038D01*
X4193D01*
X4206Y11025D01*
X2593Y12155D02*
X2605Y12142D01*
Y12117D01*
X2593Y12104D01*
X2542D01*
X2529Y12117D01*
Y12142D01*
X2542Y12155D01*
X2605Y12231D02*
X2593Y12206D01*
X2567Y12181D01*
X2542D01*
X2529Y12193D01*
Y12219D01*
X2542Y12231D01*
X2554D01*
X2567Y12219D01*
Y12181D01*
X2593Y12257D02*
X2605Y12269D01*
Y12295D01*
X2593Y12308D01*
X2580D01*
X2567Y12295D01*
Y12282D01*
Y12295D01*
X2554Y12308D01*
X2542D01*
X2529Y12295D01*
Y12269D01*
X2542Y12257D01*
X2593Y12333D02*
X2605Y12346D01*
Y12371D01*
X2593Y12384D01*
X2580D01*
X2567Y12371D01*
Y12358D01*
Y12371D01*
X2554Y12384D01*
X2542D01*
X2529Y12371D01*
Y12346D01*
X2542Y12333D01*
X2745Y12155D02*
X2758Y12142D01*
Y12117D01*
X2745Y12104D01*
X2694D01*
X2682Y12117D01*
Y12142D01*
X2694Y12155D01*
X2758Y12231D02*
X2745Y12206D01*
X2720Y12181D01*
X2694D01*
X2682Y12193D01*
Y12219D01*
X2694Y12231D01*
X2707D01*
X2720Y12219D01*
Y12181D01*
X2745Y12257D02*
X2758Y12269D01*
Y12295D01*
X2745Y12308D01*
X2732D01*
X2720Y12295D01*
Y12282D01*
Y12295D01*
X2707Y12308D01*
X2694D01*
X2682Y12295D01*
Y12269D01*
X2694Y12257D01*
X2682Y12371D02*
X2758D01*
X2720Y12333D01*
Y12384D01*
X2656Y9666D02*
X2669Y9653D01*
Y9628D01*
X2656Y9615D01*
X2605D01*
X2593Y9628D01*
Y9653D01*
X2605Y9666D01*
X2669Y9742D02*
X2656Y9717D01*
X2631Y9691D01*
X2605D01*
X2593Y9704D01*
Y9729D01*
X2605Y9742D01*
X2618D01*
X2631Y9729D01*
Y9691D01*
X2656Y9768D02*
X2669Y9780D01*
Y9806D01*
X2656Y9818D01*
X2643D01*
X2631Y9806D01*
Y9793D01*
Y9806D01*
X2618Y9818D01*
X2605D01*
X2593Y9806D01*
Y9780D01*
X2605Y9768D01*
X2669Y9895D02*
Y9844D01*
X2631D01*
X2643Y9869D01*
Y9882D01*
X2631Y9895D01*
X2605D01*
X2593Y9882D01*
Y9856D01*
X2605Y9844D01*
X1932Y10415D02*
X1945Y10428D01*
X1970D01*
X1983Y10415D01*
Y10364D01*
X1970Y10352D01*
X1945D01*
X1932Y10364D01*
X1856Y10428D02*
X1881Y10415D01*
X1907Y10390D01*
Y10364D01*
X1894Y10352D01*
X1869D01*
X1856Y10364D01*
Y10377D01*
X1869Y10390D01*
X1907D01*
X1831Y10415D02*
X1818Y10428D01*
X1793D01*
X1780Y10415D01*
Y10403D01*
X1793Y10390D01*
X1805D01*
X1793D01*
X1780Y10377D01*
Y10364D01*
X1793Y10352D01*
X1818D01*
X1831Y10364D01*
X1704Y10428D02*
X1729Y10415D01*
X1754Y10390D01*
Y10364D01*
X1742Y10352D01*
X1716D01*
X1704Y10364D01*
Y10377D01*
X1716Y10390D01*
X1754D01*
X3329Y12155D02*
X3342Y12142D01*
Y12117D01*
X3329Y12104D01*
X3278D01*
X3266Y12117D01*
Y12142D01*
X3278Y12155D01*
X3342Y12231D02*
X3329Y12206D01*
X3304Y12181D01*
X3278D01*
X3266Y12193D01*
Y12219D01*
X3278Y12231D01*
X3291D01*
X3304Y12219D01*
Y12181D01*
X3329Y12257D02*
X3342Y12269D01*
Y12295D01*
X3329Y12308D01*
X3316D01*
X3304Y12295D01*
Y12282D01*
Y12295D01*
X3291Y12308D01*
X3278D01*
X3266Y12295D01*
Y12269D01*
X3278Y12257D01*
X3342Y12333D02*
Y12384D01*
X3329D01*
X3278Y12333D01*
X3266D01*
X3659Y12155D02*
X3672Y12142D01*
Y12117D01*
X3659Y12104D01*
X3609D01*
X3596Y12117D01*
Y12142D01*
X3609Y12155D01*
X3672Y12231D02*
X3659Y12206D01*
X3634Y12181D01*
X3609D01*
X3596Y12193D01*
Y12219D01*
X3609Y12231D01*
X3621D01*
X3634Y12219D01*
Y12181D01*
X3659Y12257D02*
X3672Y12269D01*
Y12295D01*
X3659Y12308D01*
X3647D01*
X3634Y12295D01*
Y12282D01*
Y12295D01*
X3621Y12308D01*
X3609D01*
X3596Y12295D01*
Y12269D01*
X3609Y12257D01*
X3659Y12333D02*
X3672Y12346D01*
Y12371D01*
X3659Y12384D01*
X3647D01*
X3634Y12371D01*
X3621Y12384D01*
X3609D01*
X3596Y12371D01*
Y12346D01*
X3609Y12333D01*
X3621D01*
X3634Y12346D01*
X3647Y12333D01*
X3659D01*
X3634Y12346D02*
Y12371D01*
X2440Y12155D02*
X2453Y12142D01*
Y12117D01*
X2440Y12104D01*
X2389D01*
X2377Y12117D01*
Y12142D01*
X2389Y12155D01*
X2453Y12231D02*
X2440Y12206D01*
X2415Y12181D01*
X2389D01*
X2377Y12193D01*
Y12219D01*
X2389Y12231D01*
X2402D01*
X2415Y12219D01*
Y12181D01*
X2440Y12257D02*
X2453Y12269D01*
Y12295D01*
X2440Y12308D01*
X2427D01*
X2415Y12295D01*
Y12282D01*
Y12295D01*
X2402Y12308D01*
X2389D01*
X2377Y12295D01*
Y12269D01*
X2389Y12257D01*
Y12333D02*
X2377Y12346D01*
Y12371D01*
X2389Y12384D01*
X2440D01*
X2453Y12371D01*
Y12346D01*
X2440Y12333D01*
X2427D01*
X2415Y12346D01*
Y12384D01*
X2961Y9666D02*
X2974Y9653D01*
Y9628D01*
X2961Y9615D01*
X2910D01*
X2897Y9628D01*
Y9653D01*
X2910Y9666D01*
X2974Y9742D02*
X2961Y9717D01*
X2935Y9691D01*
X2910D01*
X2897Y9704D01*
Y9729D01*
X2910Y9742D01*
X2923D01*
X2935Y9729D01*
Y9691D01*
X2897Y9806D02*
X2974D01*
X2935Y9768D01*
Y9818D01*
X2961Y9844D02*
X2974Y9856D01*
Y9882D01*
X2961Y9895D01*
X2910D01*
X2897Y9882D01*
Y9856D01*
X2910Y9844D01*
X2961D01*
X2364Y9666D02*
X2377Y9653D01*
Y9628D01*
X2364Y9615D01*
X2313D01*
X2300Y9628D01*
Y9653D01*
X2313Y9666D01*
X2377Y9742D02*
X2364Y9717D01*
X2339Y9691D01*
X2313D01*
X2300Y9704D01*
Y9729D01*
X2313Y9742D01*
X2326D01*
X2339Y9729D01*
Y9691D01*
X2300Y9806D02*
X2377D01*
X2339Y9768D01*
Y9818D01*
X2300Y9844D02*
Y9869D01*
Y9856D01*
X2377D01*
X2364Y9844D01*
X2821Y4649D02*
X2834Y4662D01*
X2859D01*
X2872Y4649D01*
Y4599D01*
X2859Y4586D01*
X2834D01*
X2821Y4599D01*
X2796Y4586D02*
X2770D01*
X2783D01*
Y4662D01*
X2796Y4649D01*
X2732D02*
X2720Y4662D01*
X2694D01*
X2682Y4649D01*
Y4599D01*
X2694Y4586D01*
X2720D01*
X2732Y4599D01*
Y4649D01*
X2605Y4662D02*
X2656D01*
Y4624D01*
X2631Y4637D01*
X2618D01*
X2605Y4624D01*
Y4599D01*
X2618Y4586D01*
X2643D01*
X2656Y4599D01*
X2821Y4802D02*
X2834Y4815D01*
X2859D01*
X2872Y4802D01*
Y4751D01*
X2859Y4738D01*
X2834D01*
X2821Y4751D01*
X2796Y4738D02*
X2770D01*
X2783D01*
Y4815D01*
X2796Y4802D01*
X2732D02*
X2720Y4815D01*
X2694D01*
X2682Y4802D01*
Y4751D01*
X2694Y4738D01*
X2720D01*
X2732Y4751D01*
Y4802D01*
X2605Y4815D02*
X2631Y4802D01*
X2656Y4776D01*
Y4751D01*
X2643Y4738D01*
X2618D01*
X2605Y4751D01*
Y4764D01*
X2618Y4776D01*
X2656D01*
X2821Y5526D02*
X2834Y5538D01*
X2859D01*
X2872Y5526D01*
Y5475D01*
X2859Y5462D01*
X2834D01*
X2821Y5475D01*
X2796Y5462D02*
X2770D01*
X2783D01*
Y5538D01*
X2796Y5526D01*
X2732D02*
X2720Y5538D01*
X2694D01*
X2682Y5526D01*
Y5475D01*
X2694Y5462D01*
X2720D01*
X2732Y5475D01*
Y5526D01*
X2656Y5538D02*
X2605D01*
Y5526D01*
X2656Y5475D01*
Y5462D01*
X2821Y5043D02*
X2834Y5056D01*
X2859D01*
X2872Y5043D01*
Y4992D01*
X2859Y4980D01*
X2834D01*
X2821Y4992D01*
X2796Y4980D02*
X2770D01*
X2783D01*
Y5056D01*
X2796Y5043D01*
X2732D02*
X2720Y5056D01*
X2694D01*
X2682Y5043D01*
Y4992D01*
X2694Y4980D01*
X2720D01*
X2732Y4992D01*
Y5043D01*
X2656D02*
X2643Y5056D01*
X2618D01*
X2605Y5043D01*
Y5030D01*
X2618Y5018D01*
X2605Y5005D01*
Y4992D01*
X2618Y4980D01*
X2643D01*
X2656Y4992D01*
Y5005D01*
X2643Y5018D01*
X2656Y5030D01*
Y5043D01*
X2643Y5018D02*
X2618D01*
X2821Y5284D02*
X2834Y5297D01*
X2859D01*
X2872Y5284D01*
Y5234D01*
X2859Y5221D01*
X2834D01*
X2821Y5234D01*
X2796Y5221D02*
X2770D01*
X2783D01*
Y5297D01*
X2796Y5284D01*
X2732D02*
X2720Y5297D01*
X2694D01*
X2682Y5284D01*
Y5234D01*
X2694Y5221D01*
X2720D01*
X2732Y5234D01*
Y5284D01*
X2656Y5234D02*
X2643Y5221D01*
X2618D01*
X2605Y5234D01*
Y5284D01*
X2618Y5297D01*
X2643D01*
X2656Y5284D01*
Y5272D01*
X2643Y5259D01*
X2605D01*
X2821Y5691D02*
X2834Y5704D01*
X2859D01*
X2872Y5691D01*
Y5640D01*
X2859Y5627D01*
X2834D01*
X2821Y5640D01*
X2796Y5627D02*
X2770D01*
X2783D01*
Y5704D01*
X2796Y5691D01*
X2732Y5627D02*
X2707D01*
X2720D01*
Y5704D01*
X2732Y5691D01*
X2669D02*
X2656Y5704D01*
X2631D01*
X2618Y5691D01*
Y5640D01*
X2631Y5627D01*
X2656D01*
X2669Y5640D01*
Y5691D01*
X2821Y6732D02*
X2834Y6745D01*
X2859D01*
X2872Y6732D01*
Y6681D01*
X2859Y6669D01*
X2834D01*
X2821Y6681D01*
X2796Y6669D02*
X2770D01*
X2783D01*
Y6745D01*
X2796Y6732D01*
X2732Y6669D02*
X2707D01*
X2720D01*
Y6745D01*
X2732Y6732D01*
X2669Y6669D02*
X2643D01*
X2656D01*
Y6745D01*
X2669Y6732D01*
X5258Y9195D02*
X5270Y9182D01*
Y9157D01*
X5258Y9144D01*
X5207D01*
X5194Y9157D01*
Y9182D01*
X5207Y9195D01*
X5194Y9220D02*
Y9246D01*
Y9233D01*
X5270D01*
X5258Y9220D01*
Y9284D02*
X5270Y9296D01*
Y9322D01*
X5258Y9334D01*
X5207D01*
X5194Y9322D01*
Y9296D01*
X5207Y9284D01*
X5258D01*
Y9360D02*
X5270Y9373D01*
Y9398D01*
X5258Y9411D01*
X5207D01*
X5194Y9398D01*
Y9373D01*
X5207Y9360D01*
X5258D01*
X5806Y4637D02*
X5818Y4649D01*
X5844D01*
X5856Y4637D01*
Y4586D01*
X5844Y4573D01*
X5818D01*
X5806Y4586D01*
X5742Y4573D02*
Y4649D01*
X5780Y4611D01*
X5730D01*
X5704Y4573D02*
X5679D01*
X5691D01*
Y4649D01*
X5704Y4637D01*
X5603Y4573D02*
Y4649D01*
X5641Y4611D01*
X5590D01*
X4472Y1817D02*
Y1894D01*
X4434D01*
X4421Y1881D01*
Y1855D01*
X4434Y1843D01*
X4472D01*
X4447D02*
X4421Y1817D01*
X4358D02*
Y1894D01*
X4396Y1855D01*
X4345D01*
X4320Y1881D02*
X4307Y1894D01*
X4282D01*
X4269Y1881D01*
Y1830D01*
X4282Y1817D01*
X4307D01*
X4320Y1830D01*
Y1881D01*
X4244D02*
X4231Y1894D01*
X4206D01*
X4193Y1881D01*
Y1830D01*
X4206Y1817D01*
X4231D01*
X4244Y1830D01*
Y1881D01*
X9652Y4966D02*
X9665Y4953D01*
Y4928D01*
X9652Y4915D01*
X9601D01*
X9589Y4928D01*
Y4953D01*
X9601Y4966D01*
X9589Y5042D02*
Y4991D01*
X9639Y5042D01*
X9652D01*
X9665Y5029D01*
Y5004D01*
X9652Y4991D01*
X9589Y5067D02*
Y5093D01*
Y5080D01*
X9665D01*
X9652Y5067D01*
Y5131D02*
X9665Y5143D01*
Y5169D01*
X9652Y5182D01*
X9639D01*
X9627Y5169D01*
X9614Y5182D01*
X9601D01*
X9589Y5169D01*
Y5143D01*
X9601Y5131D01*
X9614D01*
X9627Y5143D01*
X9639Y5131D01*
X9652D01*
X9627Y5143D02*
Y5169D01*
X2781Y12484D02*
Y12560D01*
X2743D01*
X2731Y12548D01*
Y12522D01*
X2743Y12509D01*
X2781D01*
X2756D02*
X2731Y12484D01*
X2705Y12548D02*
X2692Y12560D01*
X2667D01*
X2654Y12548D01*
Y12535D01*
X2667Y12522D01*
X2680D01*
X2667D01*
X2654Y12509D01*
Y12497D01*
X2667Y12484D01*
X2692D01*
X2705Y12497D01*
X2578Y12484D02*
X2629D01*
X2578Y12535D01*
Y12548D01*
X2591Y12560D01*
X2616D01*
X2629Y12548D01*
X2553D02*
X2540Y12560D01*
X2515D01*
X2502Y12548D01*
Y12535D01*
X2515Y12522D01*
X2502Y12509D01*
Y12497D01*
X2515Y12484D01*
X2540D01*
X2553Y12497D01*
Y12509D01*
X2540Y12522D01*
X2553Y12535D01*
Y12548D01*
X2540Y12522D02*
X2515D01*
X10325Y8293D02*
X10401D01*
Y8331D01*
X10389Y8344D01*
X10363D01*
X10350Y8331D01*
Y8293D01*
Y8318D02*
X10325Y8344D01*
X10401Y8420D02*
Y8369D01*
X10363D01*
X10376Y8395D01*
Y8407D01*
X10363Y8420D01*
X10338D01*
X10325Y8407D01*
Y8382D01*
X10338Y8369D01*
X10325Y8445D02*
Y8471D01*
Y8458D01*
X10401D01*
X10389Y8445D01*
X10325Y8509D02*
Y8534D01*
Y8522D01*
X10401D01*
X10389Y8509D01*
X8904Y8298D02*
X8981D01*
Y8336D01*
X8968Y8349D01*
X8943D01*
X8930Y8336D01*
Y8298D01*
Y8324D02*
X8904Y8349D01*
X8981Y8425D02*
Y8375D01*
X8943D01*
X8955Y8400D01*
Y8413D01*
X8943Y8425D01*
X8917D01*
X8904Y8413D01*
Y8387D01*
X8917Y8375D01*
X8968Y8451D02*
X8981Y8463D01*
Y8489D01*
X8968Y8502D01*
X8917D01*
X8904Y8489D01*
Y8463D01*
X8917Y8451D01*
X8968D01*
X8981Y8527D02*
Y8578D01*
X8968D01*
X8917Y8527D01*
X8904D01*
X10160Y7518D02*
X10236D01*
Y7556D01*
X10223Y7569D01*
X10198D01*
X10185Y7556D01*
Y7518D01*
Y7544D02*
X10160Y7569D01*
X10236Y7645D02*
Y7595D01*
X10198D01*
X10211Y7620D01*
Y7633D01*
X10198Y7645D01*
X10173D01*
X10160Y7633D01*
Y7607D01*
X10173Y7595D01*
X10160Y7671D02*
Y7696D01*
Y7683D01*
X10236D01*
X10223Y7671D01*
Y7734D02*
X10236Y7747D01*
Y7772D01*
X10223Y7785D01*
X10173D01*
X10160Y7772D01*
Y7747D01*
X10173Y7734D01*
X10223D01*
X8903Y7252D02*
X8979D01*
Y7290D01*
X8966Y7302D01*
X8941D01*
X8928Y7290D01*
Y7252D01*
Y7277D02*
X8903Y7302D01*
X8979Y7379D02*
Y7328D01*
X8941D01*
X8953Y7353D01*
Y7366D01*
X8941Y7379D01*
X8915D01*
X8903Y7366D01*
Y7341D01*
X8915Y7328D01*
X8966Y7404D02*
X8979Y7417D01*
Y7442D01*
X8966Y7455D01*
X8915D01*
X8903Y7442D01*
Y7417D01*
X8915Y7404D01*
X8966D01*
Y7480D02*
X8979Y7493D01*
Y7518D01*
X8966Y7531D01*
X8953D01*
X8941Y7518D01*
X8928Y7531D01*
X8915D01*
X8903Y7518D01*
Y7493D01*
X8915Y7480D01*
X8928D01*
X8941Y7493D01*
X8953Y7480D01*
X8966D01*
X8941Y7493D02*
Y7518D01*
X10325Y6820D02*
X10401D01*
Y6858D01*
X10389Y6871D01*
X10363D01*
X10350Y6858D01*
Y6820D01*
Y6845D02*
X10325Y6871D01*
X10401Y6947D02*
Y6896D01*
X10363D01*
X10376Y6921D01*
Y6934D01*
X10363Y6947D01*
X10338D01*
X10325Y6934D01*
Y6909D01*
X10338Y6896D01*
X10389Y6972D02*
X10401Y6985D01*
Y7010D01*
X10389Y7023D01*
X10338D01*
X10325Y7010D01*
Y6985D01*
X10338Y6972D01*
X10389D01*
X10338Y7048D02*
X10325Y7061D01*
Y7087D01*
X10338Y7099D01*
X10389D01*
X10401Y7087D01*
Y7061D01*
X10389Y7048D01*
X10376D01*
X10363Y7061D01*
Y7099D01*
X9766Y6375D02*
X9842D01*
Y6413D01*
X9830Y6426D01*
X9804D01*
X9792Y6413D01*
Y6375D01*
Y6401D02*
X9766Y6426D01*
X9842Y6502D02*
Y6452D01*
X9804D01*
X9817Y6477D01*
Y6490D01*
X9804Y6502D01*
X9779D01*
X9766Y6490D01*
Y6464D01*
X9779Y6452D01*
X9766Y6528D02*
Y6553D01*
Y6540D01*
X9842D01*
X9830Y6528D01*
X9842Y6642D02*
Y6591D01*
X9804D01*
X9817Y6617D01*
Y6629D01*
X9804Y6642D01*
X9779D01*
X9766Y6629D01*
Y6604D01*
X9779Y6591D01*
X8534Y6375D02*
X8611D01*
Y6413D01*
X8598Y6426D01*
X8572D01*
X8560Y6413D01*
Y6375D01*
Y6401D02*
X8534Y6426D01*
X8611Y6502D02*
Y6452D01*
X8572D01*
X8585Y6477D01*
Y6490D01*
X8572Y6502D01*
X8547D01*
X8534Y6490D01*
Y6464D01*
X8547Y6452D01*
X8534Y6528D02*
Y6553D01*
Y6540D01*
X8611D01*
X8598Y6528D01*
X8611Y6642D02*
X8598Y6617D01*
X8572Y6591D01*
X8547D01*
X8534Y6604D01*
Y6629D01*
X8547Y6642D01*
X8560D01*
X8572Y6629D01*
Y6591D01*
D178*
X6706Y10008D02*
D03*
M02*
