%FSLAX42Y42*%
%MOMM*%
G71*
G01*
G75*
G04 Layer_Physical_Order=3*
G04 Layer_Color=128*
%ADD10C,1.00*%
%ADD11C,0.25*%
%ADD12R,1.00X1.10*%
%ADD13R,0.60X2.20*%
%ADD14R,1.10X1.00*%
%ADD15C,0.90*%
%ADD16R,2.00X1.80*%
%ADD17R,4.10X4.10*%
%ADD18R,1.55X1.30*%
%ADD19R,1.50X2.15*%
%ADD20R,2.30X2.30*%
%ADD21R,0.25X1.00*%
%ADD22R,1.00X0.25*%
%ADD23R,2.20X0.60*%
%ADD24R,0.30X1.75*%
%ADD25R,1.75X0.30*%
%ADD26R,6.20X6.20*%
%ADD27R,1.35X0.60*%
%ADD28R,1.35X1.00*%
%ADD29R,1.40X0.60*%
%ADD30R,1.50X0.60*%
%ADD31R,1.85X0.35*%
%ADD32R,0.35X1.55*%
%ADD33R,1.80X0.30*%
%ADD34R,0.30X1.80*%
%ADD35R,2.03X0.66*%
%ADD36R,2.75X1.00*%
%ADD37R,1.02X1.91*%
%ADD38R,2.45X2.40*%
%ADD39R,1.80X2.40*%
%ADD40R,1.70X0.50*%
%ADD41R,2.79X3.81*%
%ADD42R,4.60X1.80*%
%ADD43R,1.80X1.60*%
%ADD44R,2.55X2.45*%
%ADD45R,1.50X1.30*%
%ADD46R,1.80X3.20*%
%ADD47R,3.30X2.20*%
%ADD48R,0.65X2.20*%
%ADD49R,5.50X1.50*%
%ADD50R,1.80X2.00*%
%ADD51R,1.30X1.50*%
%ADD52R,0.70X0.90*%
%ADD53R,0.90X0.70*%
%ADD54R,1.00X1.40*%
%ADD55R,1.30X1.55*%
%ADD56R,0.60X1.40*%
%ADD57R,2.50X1.30*%
%ADD58R,1.00X1.70*%
%ADD59R,1.70X1.30*%
%ADD60R,1.20X0.80*%
%ADD61C,0.51*%
%ADD62C,0.64*%
%ADD63C,1.02*%
%ADD64C,2.50*%
%ADD65R,2.50X2.50*%
%ADD66C,3.30*%
%ADD67C,1.80*%
%ADD68R,1.80X1.80*%
%ADD69R,4.00X2.00*%
%ADD70R,2.00X4.00*%
%ADD71R,4.50X2.00*%
%ADD72C,3.50*%
%ADD73C,1.60*%
%ADD74C,1.90*%
%ADD75C,1.40*%
%ADD76C,2.40*%
%ADD77C,1.52*%
%ADD78C,0.60*%
%ADD79C,0.66*%
%ADD80C,4.00*%
%ADD81C,0.76*%
%ADD82C,2.52*%
%ADD83C,4.32*%
%ADD84C,2.12*%
%ADD85O,4.52X2.02*%
%ADD86C,2.02*%
%ADD87C,2.92*%
%ADD88C,2.42*%
%ADD89C,1.92*%
%ADD90C,1.32*%
%ADD91C,1.82*%
%ADD92C,3.52*%
%ADD93C,3.32*%
%ADD94O,4.02X2.02*%
%ADD95O,2.02X4.02*%
%ADD96C,2.73*%
%ADD97C,1.35*%
D11*
X3188Y11875D02*
X3365D01*
X4496Y10084D02*
X4547Y10135D01*
X4001Y10084D02*
X4496D01*
X3937Y10147D02*
X4001Y10084D01*
X3607Y10147D02*
X3937D01*
X241Y12281D02*
Y12764D01*
X356Y12878D01*
X1702D01*
X2248Y12332D01*
X2350Y12230D01*
Y12040D02*
Y12230D01*
Y12040D02*
X2375Y12014D01*
X2464D01*
X2527Y12078D01*
Y12302D01*
X2583Y12357D01*
X2670D01*
X2731D01*
X2769Y12319D01*
Y11900D02*
Y12319D01*
Y11900D02*
X2794Y11875D01*
X2921D01*
X2972Y11925D01*
Y12306D01*
X3023Y12357D01*
X3111D01*
X3150Y12319D01*
Y11913D02*
Y12319D01*
Y11913D02*
X3188Y11875D01*
X3365D02*
X3429Y11938D01*
Y12319D01*
X3467Y12357D01*
X3556D01*
X3594Y12319D01*
Y11902D02*
Y12319D01*
Y11902D02*
X3952Y11544D01*
X4358D01*
X4420Y11482D01*
Y11443D02*
Y11482D01*
X4360Y11383D02*
X4420Y11443D01*
X4065Y11383D02*
X4360D01*
X4001Y11318D02*
X4065Y11383D01*
X4001Y11125D02*
Y11318D01*
Y11125D02*
X4034Y11092D01*
X4148D01*
X4280Y10960D01*
X4417D01*
X4445Y10932D01*
Y10884D02*
Y10932D01*
X4394Y10833D02*
X4445Y10884D01*
X4237Y10833D02*
X4394D01*
X4160Y10909D02*
X4237Y10833D01*
X4077Y10909D02*
X4160D01*
X4026Y10858D02*
X4077Y10909D01*
X4026Y10706D02*
Y10858D01*
Y10706D02*
X4089Y10643D01*
X4128D01*
X4178Y10592D01*
Y10554D02*
Y10592D01*
X4128Y10503D02*
X4178Y10554D01*
X4039Y10503D02*
X4128D01*
X4001Y10465D02*
X4039Y10503D01*
X4001Y10317D02*
Y10465D01*
Y10317D02*
X4043Y10274D01*
X4508D01*
X4547Y10236D01*
Y10135D02*
Y10236D01*
X3454Y9995D02*
X3607Y10147D01*
X3454Y9677D02*
Y9995D01*
X3416Y9639D02*
X3454Y9677D01*
X3353Y9639D02*
X3416D01*
X3315Y9677D02*
X3353Y9639D01*
X3315Y9677D02*
Y10001D01*
X3168Y10147D02*
X3315Y10001D01*
X2819Y10147D02*
X3168D01*
X2692Y10020D02*
X2819Y10147D01*
X2692Y9703D02*
Y10020D01*
X2654Y9665D02*
X2692Y9703D01*
X2451Y9665D02*
X2654D01*
X2413Y9703D02*
X2451Y9665D01*
X2413Y9703D02*
Y10110D01*
X2211Y10312D02*
X2413Y10110D01*
X1786Y10312D02*
X2211D01*
X1727Y10371D02*
X1786Y10312D01*
X1727Y10371D02*
Y10414D01*
X1778Y10465D01*
X2070D01*
X2273Y10668D01*
Y11024D01*
X2121Y11176D02*
X2273Y11024D01*
X2019Y11176D02*
X2121D01*
X1956Y11112D02*
X2019Y11176D01*
X1753Y11112D02*
X1956D01*
X1702Y11163D02*
X1753Y11112D01*
X1702Y11163D02*
Y11221D01*
X1746Y11265D01*
X1900D01*
X2015Y11379D01*
X2092D01*
X2134Y11421D01*
Y11633D01*
X1588Y12179D02*
X2134Y11633D01*
X343Y12179D02*
X1588D01*
X241Y12281D02*
X343Y12179D01*
X6500Y9990D02*
X6553Y10043D01*
X6441Y9990D02*
X6500D01*
X6492Y10503D02*
X6553Y10442D01*
X6101Y10503D02*
X6492D01*
X6071Y10472D02*
X6101Y10503D01*
X6071Y10264D02*
Y10472D01*
Y10264D02*
X6106Y10229D01*
X6332D01*
X6419Y10142D01*
Y10013D02*
Y10142D01*
Y10013D02*
X6441Y9990D01*
X6553Y10043D02*
Y10442D01*
X9004Y3340D02*
Y3708D01*
X9246Y3924D02*
X10478D01*
X7379Y2819D02*
X7569Y3010D01*
X8674D01*
X9004Y3340D01*
X8192Y2197D02*
X8382Y2007D01*
Y1168D02*
Y2007D01*
X9004Y3708D02*
X9246D01*
Y3924D01*
X6858Y2350D02*
Y2992D01*
Y2350D02*
X7010Y2197D01*
X7379D02*
Y2819D01*
Y2197D02*
X8192D01*
X7010D02*
X7379D01*
X4534Y2476D02*
Y3467D01*
X4623Y3556D01*
X4826D01*
X5067Y3315D01*
X6147D01*
X6470Y2992D01*
X6858D01*
X7473Y3607D02*
X7760D01*
X6858Y2992D02*
X7473Y3607D01*
X7760D02*
X8077Y3924D01*
X8128D01*
X9246D01*
X3556Y12979D02*
Y13500D01*
Y12979D02*
X3619Y12916D01*
Y12750D02*
Y12916D01*
X3518Y12649D02*
X3619Y12750D01*
X3518Y12357D02*
Y12649D01*
X3556Y13500D02*
X3659Y13603D01*
X3821D01*
X3924Y13500D01*
Y13271D02*
Y13500D01*
X3759Y13106D02*
X3924Y13271D01*
X3759Y12700D02*
Y13106D01*
X3632Y12573D02*
X3759Y12700D01*
X3632Y12497D02*
Y12573D01*
Y12497D02*
X3658Y12471D01*
X3924D01*
X3975Y12421D01*
Y12344D02*
Y12421D01*
X3937Y12306D02*
X3975Y12344D01*
X3594Y12306D02*
X3937D01*
D63*
X0Y0D02*
Y15000D01*
X11000D01*
Y0D02*
Y15000D01*
X0Y0D02*
X11000D01*
D81*
X2350D02*
Y2476D01*
X4762D01*
X6071Y1168D01*
X9474D01*
X10478Y2172D01*
Y10579D01*
X10109Y10947D02*
X10478Y10579D01*
X7492Y14503D02*
X7912Y14084D01*
X5499Y14110D02*
X5893Y14503D01*
X7492D01*
X7912Y10947D02*
Y14084D01*
Y10947D02*
X10109D01*
X1283Y14110D02*
X5499D01*
X1283D02*
Y15000D01*
D82*
X1398Y505D02*
D03*
X998D02*
D03*
D83*
X6095Y14202D02*
D03*
X7238D02*
D03*
D84*
X7213Y12830D02*
D03*
X6959D02*
D03*
X6374D02*
D03*
X6120D02*
D03*
X7111Y13567D02*
D03*
X6984Y13313D02*
D03*
X6857Y13567D02*
D03*
X6476Y13313D02*
D03*
X6603Y13567D02*
D03*
X6222Y13313D02*
D03*
D85*
X8394Y13730D02*
D03*
D86*
X9853Y2376D02*
D03*
Y2626D02*
D03*
X9653Y2376D02*
D03*
Y2626D02*
D03*
D87*
X4678Y228D02*
D03*
X6303D02*
D03*
D88*
X4678Y768D02*
D03*
X6303D02*
D03*
D89*
X10014Y631D02*
D03*
X10204D02*
D03*
D90*
X5740Y10376D02*
D03*
X889Y12693D02*
D03*
X4178Y4585D02*
D03*
X3188Y12103D02*
D03*
X4069Y9622D02*
D03*
X1283Y12103D02*
D03*
X1029Y12597D02*
D03*
X965Y12535D02*
D03*
X902Y12471D02*
D03*
X3969Y12079D02*
D03*
X8898Y3261D02*
D03*
X9063D02*
D03*
X9215D02*
D03*
X1664Y10960D02*
D03*
X1974Y10183D02*
D03*
X7309Y10395D02*
D03*
X5048Y10230D02*
D03*
X4788Y10401D02*
D03*
X6515Y3010D02*
D03*
X8882Y2561D02*
D03*
X6655Y4661D02*
D03*
X5232Y6147D02*
D03*
X7544Y10820D02*
D03*
X4331Y13386D02*
D03*
X4712Y13462D02*
D03*
X4635D02*
D03*
X7729Y2725D02*
D03*
X7829D02*
D03*
X7779Y2419D02*
D03*
X7798Y2000D02*
D03*
X7645D02*
D03*
X7493D02*
D03*
X4597Y10960D02*
D03*
X5842Y6147D02*
D03*
X5690D02*
D03*
X5537D02*
D03*
X5392Y11684D02*
D03*
X5309D02*
D03*
X5220Y11287D02*
D03*
X5715Y10452D02*
D03*
X6660Y9383D02*
D03*
X5220Y11519D02*
D03*
X5467D02*
D03*
X5593Y11367D02*
D03*
X7557Y10160D02*
D03*
Y10071D02*
D03*
Y10249D02*
D03*
X7239Y10008D02*
D03*
X6962Y10126D02*
D03*
X6193Y11455D02*
D03*
X6066D02*
D03*
X7041Y11374D02*
D03*
X4191Y10770D02*
D03*
X4527Y10633D02*
D03*
X4489Y10859D02*
D03*
X6287Y9868D02*
D03*
X6613Y9928D02*
D03*
X6463D02*
D03*
X6280D02*
D03*
X6372D02*
D03*
X6522Y10234D02*
D03*
X6272D02*
D03*
X5145Y8202D02*
D03*
X4959D02*
D03*
X4405Y9303D02*
D03*
Y9455D02*
D03*
X1588Y12954D02*
D03*
X1572Y13030D02*
D03*
X2108Y12955D02*
D03*
Y13056D02*
D03*
X2656Y13194D02*
D03*
X2738Y13252D02*
D03*
X1206Y12065D02*
D03*
Y11976D02*
D03*
Y11887D02*
D03*
Y11798D02*
D03*
Y11709D02*
D03*
Y11621D02*
D03*
X8839Y4485D02*
D03*
Y4705D02*
D03*
Y4890D02*
D03*
Y5055D02*
D03*
X6992Y12636D02*
D03*
X7696Y12593D02*
D03*
X6796Y10913D02*
D03*
X6109Y9906D02*
D03*
X6449Y10703D02*
D03*
X6297D02*
D03*
X7696Y13490D02*
D03*
X6907Y13792D02*
D03*
X5990Y13196D02*
D03*
X7104Y11443D02*
D03*
X1613Y12396D02*
D03*
X1703Y12396D02*
D03*
X3315Y12954D02*
D03*
X3251Y13018D02*
D03*
X7795Y4191D02*
D03*
X7645Y4420D02*
D03*
X7493Y4496D02*
D03*
X7341Y4115D02*
D03*
X7188Y4267D02*
D03*
X7036Y4343D02*
D03*
X3492Y12827D02*
D03*
X3810Y12711D02*
D03*
X3886Y13160D02*
D03*
X3975Y13085D02*
D03*
X4064Y12861D02*
D03*
X4128Y13235D02*
D03*
X4216Y13310D02*
D03*
Y12522D02*
D03*
X4128D02*
D03*
X3950D02*
D03*
X3861D02*
D03*
X3772D02*
D03*
X3683D02*
D03*
X3469Y12421D02*
D03*
X2341Y12721D02*
D03*
X2390Y12657D02*
D03*
X2783Y12802D02*
D03*
X2705D02*
D03*
X5220Y11367D02*
D03*
Y11600D02*
D03*
X2378Y13800D02*
D03*
X2596Y13806D02*
D03*
X5231Y9806D02*
D03*
X5303Y9870D02*
D03*
X4724Y6239D02*
D03*
X9456Y1209D02*
D03*
X3482Y2151D02*
D03*
X2645Y3303D02*
D03*
X2296Y2337D02*
D03*
X7747Y1415D02*
D03*
X7559D02*
D03*
X4991Y4585D02*
D03*
X5220Y4623D02*
D03*
X5828Y4633D02*
D03*
X3145Y8634D02*
D03*
X3018D02*
D03*
X2891D02*
D03*
X2764D02*
D03*
X3745Y6305D02*
D03*
Y6385D02*
D03*
Y6465D02*
D03*
Y6545D02*
D03*
Y6625D02*
D03*
X2405Y6065D02*
D03*
Y6145D02*
D03*
Y6225D02*
D03*
Y6305D02*
D03*
Y6385D02*
D03*
Y6465D02*
D03*
Y6545D02*
D03*
Y6625D02*
D03*
X1754Y8636D02*
D03*
X1875Y8634D02*
D03*
X2002D02*
D03*
X2129D02*
D03*
X2256D02*
D03*
X2383D02*
D03*
X2510D02*
D03*
X2637D02*
D03*
X2640Y6705D02*
D03*
X2896D02*
D03*
Y5665D02*
D03*
X3271Y5505D02*
D03*
X2896Y5265D02*
D03*
X3271Y5025D02*
D03*
X2896Y4785D02*
D03*
Y4625D02*
D03*
X2640Y5665D02*
D03*
Y5265D02*
D03*
Y4785D02*
D03*
X3510Y5025D02*
D03*
Y5505D02*
D03*
X2640Y4625D02*
D03*
Y5985D02*
D03*
Y5905D02*
D03*
Y5825D02*
D03*
X4046Y6218D02*
D03*
X4110Y6154D02*
D03*
X4046Y6091D02*
D03*
X4110Y6027D02*
D03*
X4046Y5964D02*
D03*
X4280Y1854D02*
D03*
X5070D02*
D03*
X4757Y3084D02*
D03*
X6134Y2845D02*
D03*
X5792Y2879D02*
D03*
X5403D02*
D03*
X5271Y2388D02*
D03*
X6424Y2257D02*
D03*
X5118Y4988D02*
D03*
X4991D02*
D03*
X5220Y11443D02*
D03*
X4890Y11925D02*
D03*
X6845Y10821D02*
D03*
X6546Y10733D02*
D03*
X9472Y4595D02*
D03*
X6626Y10913D02*
D03*
X6072Y10758D02*
D03*
X3569Y12767D02*
D03*
X3269Y12763D02*
D03*
X366Y13830D02*
D03*
X213D02*
D03*
X3475Y11651D02*
D03*
X3627D02*
D03*
X3893Y11787D02*
D03*
X3722Y11618D02*
D03*
Y11465D02*
D03*
Y11313D02*
D03*
Y11161D02*
D03*
Y11008D02*
D03*
Y10856D02*
D03*
Y10399D02*
D03*
Y10551D02*
D03*
Y10704D02*
D03*
X2295Y11787D02*
D03*
X2561Y11651D02*
D03*
X2713D02*
D03*
X2489Y11618D02*
D03*
Y11465D02*
D03*
Y11313D02*
D03*
Y10551D02*
D03*
Y10399D02*
D03*
X2067Y10230D02*
D03*
X2942Y10343D02*
D03*
X3094D02*
D03*
X3246D02*
D03*
X3551D02*
D03*
X3399D02*
D03*
X2789D02*
D03*
X2637D02*
D03*
X4128Y10300D02*
D03*
X3645Y10343D02*
D03*
X2543D02*
D03*
X2489Y11135D02*
D03*
Y10932D02*
D03*
Y10729D02*
D03*
X2891Y11651D02*
D03*
X3094D02*
D03*
X3297D02*
D03*
X4483Y11443D02*
D03*
X4492Y11146D02*
D03*
X4026Y11760D02*
D03*
X4953Y11798D02*
D03*
X3385Y12097D02*
D03*
X1974Y12033D02*
D03*
Y12083D02*
D03*
X2069Y12129D02*
D03*
X2019D02*
D03*
X4214Y12083D02*
D03*
Y12033D02*
D03*
X4169Y12129D02*
D03*
X4119D02*
D03*
X1974Y9933D02*
D03*
Y9983D02*
D03*
X2019Y9888D02*
D03*
X2069D02*
D03*
X4169D02*
D03*
X4119D02*
D03*
X4214Y9933D02*
D03*
Y9983D02*
D03*
X2858Y13221D02*
D03*
X2654Y13043D02*
D03*
X2870Y13679D02*
D03*
X2135Y13806D02*
D03*
X2502Y12408D02*
D03*
X1816Y13987D02*
D03*
X5275Y6675D02*
D03*
X5899Y7537D02*
D03*
Y7423D02*
D03*
X5093Y7595D02*
D03*
Y7683D02*
D03*
X9271Y14897D02*
D03*
X407Y12940D02*
D03*
X3391Y9576D02*
D03*
X3144Y9576D02*
D03*
X2519Y9614D02*
D03*
X3526Y8634D02*
D03*
X4161D02*
D03*
X4288Y8634D02*
D03*
X4458Y7849D02*
D03*
X4394Y7938D02*
D03*
X4331Y8026D02*
D03*
X4267Y8115D02*
D03*
X4204Y8204D02*
D03*
X10838Y3537D02*
D03*
X4191Y10300D02*
D03*
X4153Y10046D02*
D03*
X8222Y3128D02*
D03*
X7772Y3556D02*
D03*
X7036Y3302D02*
D03*
X7062Y2802D02*
D03*
X3147Y3632D02*
D03*
X2995Y3556D02*
D03*
X232Y4750D02*
D03*
Y4902D02*
D03*
Y5055D02*
D03*
X607Y4902D02*
D03*
X673Y4750D02*
D03*
X504Y5157D02*
D03*
X337Y6166D02*
D03*
X897Y6337D02*
D03*
X5191Y6675D02*
D03*
X6337Y6693D02*
D03*
Y6769D02*
D03*
Y6845D02*
D03*
Y6921D02*
D03*
X897Y6545D02*
D03*
X190D02*
D03*
X736Y7236D02*
D03*
X808Y7321D02*
D03*
X673Y7353D02*
D03*
X6660Y3632D02*
D03*
X6813Y3556D02*
D03*
X10112Y1560D02*
D03*
X9614D02*
D03*
X5329Y298D02*
D03*
X5853Y273D02*
D03*
X5885Y913D02*
D03*
X6954Y298D02*
D03*
X3810Y1428D02*
D03*
X3962D02*
D03*
X4140Y1418D02*
D03*
X4284Y1600D02*
D03*
X5066Y1473D02*
D03*
X5385Y1910D02*
D03*
X6802Y1687D02*
D03*
X5956Y1317D02*
D03*
X6108D02*
D03*
X6121Y1829D02*
D03*
X4531Y4055D02*
D03*
X3264Y216D02*
D03*
X3467D02*
D03*
X3670D02*
D03*
X8763Y2629D02*
D03*
X8768Y2787D02*
D03*
X5728Y2388D02*
D03*
X5848Y3424D02*
D03*
X3289Y1735D02*
D03*
X3137D02*
D03*
X2959Y1745D02*
D03*
X9076Y7566D02*
D03*
Y7396D02*
D03*
Y7826D02*
D03*
Y7996D02*
D03*
X10228Y7396D02*
D03*
Y7996D02*
D03*
Y7566D02*
D03*
X5118Y6794D02*
D03*
X5067Y6871D02*
D03*
X9944Y6086D02*
D03*
X8728Y6088D02*
D03*
X9347Y6714D02*
D03*
Y6258D02*
D03*
X10564Y6711D02*
D03*
Y6255D02*
D03*
X5634Y13495D02*
D03*
X4991Y3492D02*
D03*
Y3086D02*
D03*
X4873Y3204D02*
D03*
X5109D02*
D03*
X4873Y3374D02*
D03*
X5109D02*
D03*
X4153Y13825D02*
D03*
Y13672D02*
D03*
Y13520D02*
D03*
X8939Y3947D02*
D03*
X3467Y13408D02*
D03*
X8839Y4275D02*
D03*
X2540Y13056D02*
D03*
X8001Y4153D02*
D03*
X3510Y6145D02*
D03*
Y6225D02*
D03*
X2642Y7747D02*
D03*
X2489Y7811D02*
D03*
D91*
X1854Y14422D02*
D03*
X3632Y14478D02*
D03*
X9881Y11951D02*
D03*
X10376D02*
D03*
X10363Y9391D02*
D03*
X10198D02*
D03*
X10033D02*
D03*
X9868D02*
D03*
X10211Y11951D02*
D03*
X10046D02*
D03*
X10020Y11544D02*
D03*
X9703Y11163D02*
D03*
X9969Y13030D02*
D03*
Y10465D02*
D03*
X9690Y8598D02*
D03*
X9931Y8700D02*
D03*
X808Y14130D02*
D03*
Y13127D02*
D03*
D92*
X8040Y1034D02*
D03*
X2960D02*
D03*
Y8146D02*
D03*
X8040D02*
D03*
X10150Y14450D02*
D03*
X850D02*
D03*
Y8950D02*
D03*
X10150D02*
D03*
D93*
X10124Y3103D02*
D03*
Y1899D02*
D03*
X1798Y4005D02*
D03*
X598D02*
D03*
X1798Y905D02*
D03*
X598D02*
D03*
D94*
X8394Y14330D02*
D03*
D95*
X8884Y14025D02*
D03*
D96*
X5879Y13897D02*
D03*
X7454D02*
D03*
D97*
X5452Y6831D02*
D03*
Y6951D02*
D03*
X5572Y6831D02*
D03*
Y6951D02*
D03*
X3334Y11248D02*
D03*
X3214D02*
D03*
X3094D02*
D03*
X3214Y11128D02*
D03*
X3334Y11008D02*
D03*
Y11128D02*
D03*
Y10768D02*
D03*
Y10888D02*
D03*
X3214D02*
D03*
Y11008D02*
D03*
Y10768D02*
D03*
X3094Y11128D02*
D03*
X2974Y11248D02*
D03*
X3094Y11008D02*
D03*
X2974Y11128D02*
D03*
X2854D02*
D03*
Y11248D02*
D03*
X2974Y11008D02*
D03*
X3094Y10888D02*
D03*
X2974D02*
D03*
X3094Y10768D02*
D03*
X2974D02*
D03*
X2854Y10888D02*
D03*
Y11008D02*
D03*
Y10768D02*
D03*
M02*
