M48
;Layer_Color=9474304
;FILE_FORMAT=4:2
METRIC,LZ
;TYPE=PLATED
T1F00S00C0.30
T2F00S00C0.33
T3F00S00C0.80
T4F00S00C0.90
T5F00S00C1.00
T7F00S00C1.10
T8F00S00C1.40
T9F00S00C1.50
T10F00S00C1.71
T11F00S00C1.90
T12F00S00C2.30
T13F00S00C2.50
T14F00S00C3.30
%
T01
X003264Y000216
X003467
X00367
X003658Y00144
X00381Y001428
X003289Y001313
X003137
X002959Y001303
Y001745
X003137Y001735
X003289
X003482Y002151
X002296Y002337
X002475Y003303
X002645
X002995Y003556
X004233Y003442
X004639
X004757Y00349
X004873Y003374
Y003204
X004991Y003086
X005109Y003204
Y003374
X004991Y003492
X004757Y003084
X005338Y003141
X005403Y002879
X005792
X00588Y002789
X006033
X006134Y002845
Y003251
X005848Y003424
X005728
Y003141
X005728Y002388
X005271
X005385Y00191
X00507Y001854
X005066Y001473
X004284Y0016
X00428Y001854
X00414Y001418
X003962Y001428
X005956Y001317
X006108
Y001751
X006121Y001829
X006148Y00195
X005956Y001751
X005748Y001825
X005885Y000913
X005853Y000273
X005329Y000298
X006954
X006802Y001514
Y001687
X006424Y002257
X006515Y00301
X007062Y002802
X007036Y003302
X006813Y003556
X007772
X007829Y003245
X007811Y002896
X007829Y002725
X007729
X007779Y002419
X007544Y002426
X007493Y002
X007645
X007798
X007747Y001415
X007559
X007429Y003073
X008222Y003128
X008344Y002921
X008318Y002578
X008588Y002451
X008763Y002629
X008768Y002787
X008882Y002561
X008898Y003261
X008753Y003257
X009063Y003261
X009215
X010075Y003537
X010838
X010112Y00156
X009614
X009456Y001379
Y001209
X009265Y001612
X009263Y001938
X009215Y003642
X009063
X008898
X008939Y003757
Y003947
X008839Y004275
Y004485
Y004705
Y00489
Y005055
X00914Y005351
X009472Y004815
Y004595
X009453Y003852
X009368Y003642
X010325Y004001
X009944Y006086
X009792Y006378
X009347Y006258
Y006714
X009076Y007396
X008941Y007534
X010228Y007396
X010363Y007104
X010564Y006711
Y006255
X008728Y006088
X008572Y006381
X008001Y004153
X007795Y004191
X007645Y00442
X007493Y004496
X007341Y004115
X007188Y004267
X007036Y004343
X006655Y004661
X006304Y004582
X005828Y004633
X00522Y004623
X004991Y004585
Y004988
X005118
X005232Y006147
X005385
X005537
X00569
X005842
X005994Y006553
X006337Y006693
Y006769
Y006845
Y006921
X005899Y007423
Y007537
X005275Y006675
X005191
X005118Y006794
X005067Y006871
X004724Y006239
X004046Y006218
X00411Y006154
X004046Y006091
X00411Y006027
X004046Y005964
X004178Y004585
X004341Y004055
X004531
X00666Y003632
X003147
X003271Y004625
Y004785
X00351
Y004625
Y005025
X003271
Y005265
X00351
Y005505
Y005665
X003271
Y005505
X002896
Y005665
X00264
Y005505
Y005265
Y005025
Y004785
Y004625
X002896
Y004785
Y005025
Y005265
X00264Y005825
Y005905
Y005985
X002405Y006065
Y006145
Y006225
Y006305
Y006385
Y006465
Y006545
Y006625
X00264Y006705
X002896
X003271
X00351
X003745Y006625
Y006545
Y006465
Y006385
Y006305
X00351Y006225
Y006145
X000897Y006337
Y006545
X000902Y007239
X000736Y007236
X000808Y007321
X000673Y007353
X000412Y007361
X000431Y007126
X00019Y006545
X000337Y006166
X000504Y005157
X000607Y004902
X000673Y00475
X000232
Y004902
Y005055
X000503Y004295
X000757
X001011
X000698Y007948
X001754Y008636
X001875Y008634
X002002
X002129
X002256
X002383
X00251
X002637
X002764
X002891
X003018
X003145
X003526
X003391Y009576
X003144Y009576
X003169Y009888
X003094Y009947
X002942
X002789
X002769Y009888
X002637Y009947
X002569Y009888
X002469
X002484Y009947
X002332
X002319Y009888
X00218Y009947
X002069Y009888
X002019
X001974Y009933
Y009983
Y010183
X002067Y01023
X002071Y010399
X001974Y010383
Y010583
X002071Y010551
X002048Y010729
Y010932
X001974Y010933
X002045Y011087
X002007Y011239
X002071Y011313
Y011465
X002007Y011443
X002489Y011465
Y011313
Y011135
Y010932
Y010729
Y010551
Y010399
X002543Y010343
X002637
X002789
X002942
X003094
X003246
X003399
X003551
X003645
X003722Y010399
Y010551
Y010704
Y010856
Y011008
Y011161
Y011313
Y011465
X003704Y009947
X003769Y009888
X003869
X003856Y009947
X003551
X003399
X003369Y009888
X003246Y009947
X002519Y009614
X001676Y010211
X001664Y01096
X002489Y007811
X002642Y007747
X004458Y007849
X004394Y007938
X004331Y008026
X004267Y008115
X004204Y008204
X004161Y008634
X004288Y008634
X004405Y009303
Y009455
Y009608
X004069Y009622
X004019Y009888
X003969
X004008Y009947
X004119Y009888
X004169
X004214Y009933
Y009983
X004153Y010046
X004128Y0103
X004191
X004178Y010401
X004117Y010399
X004166Y010465
X004117Y010576
Y010704
X004176Y010683
X004191Y01077
X004117Y010856
Y011008
X004166Y010973
X004117Y011161
X004194Y011183
X004117Y011313
Y011465
X004194Y011483
X004483Y011443
X004492Y011146
X004597Y01096
X004559Y010818
X004489Y010859
X004527Y010633
X004864Y010516
X004788Y010401
X005048Y01023
X004489Y010183
X004597Y010058
X005231Y009806
X005303Y00987
X005231Y009435
X005172Y009362
X006203Y009383
X006355Y009383
X006507
X00666
X006613Y009928
X006463
X006372
X00628
X006287Y009868
X006109Y009906
X006144Y010312
X006297
X006272Y010234
X006423Y010249
X006449Y010312
X006522Y010234
X006546Y010733
X006449Y010703
X006297
X006144
X006072Y010758
X00596Y010913
X006066Y011455
X006193
X005593Y011367
X00522
Y011443
Y011287
X005715Y010452
X00574Y010376
X006842Y010618
X006845Y010821
X006796Y010913
X006626
X007041Y011374
X007104Y011443
X007544Y01082
X007557Y010249
Y01016
Y010071
X007563Y009913
X007239Y010008
X006962Y010126
X007309Y010395
X007563Y0094
X005145Y008202
X004959
X005093Y007683
Y007595
X009076Y007566
Y007826
Y007996
X008941Y008288
X010363
X010228Y007996
X010363Y007858
X010228Y007566
X009271Y014897
X007696Y01349
Y013404
X007213Y013314
X006907Y013792
X006537
X00599Y013566
Y013196
X006104Y013056
X006447Y012517
X006622Y012636
X006992
X007163Y012517
X007696Y012593
X007156Y011882
X007104Y011814
X005392Y011684
X005309
X00522Y0116
Y011519
X005467
X004953Y011798
X00489Y011925
X004214Y012033
Y012083
X004169Y012129
X004119
X003969Y012079
X004026Y01176
X004194Y011783
X004117Y011618
X004128Y012522
X004216
X00395
X004064Y012861
X003975Y013085
X004128Y013235
X004216Y01331
X004331Y013386
X004153Y01352
Y013672
Y013825
X004445Y013921
X004903
X004712Y013462
X004635
X005634Y013495
X003772Y01352
Y013672
Y013825
X003562Y013922
X003657Y013408
X003467
X003284Y013399
X003251Y013018
X003315Y012954
X003269Y012763
X003492Y012827
X003569Y012767
X00381Y012711
X003772Y012522
X003861
X003848Y012408
X003683Y012522
X003469Y012421
X003488Y012095
X003532Y01212
X003385Y012097
X003344Y01212
X003188Y012103
X003094Y012093
X003035Y012103
X002891Y012093
X002832Y012103
X002713Y01207
X002654Y01209
X002603Y012078
X002408Y01207
X002426Y012116
X002502Y012408
X00239Y012657
X002341Y012721
X002184Y012636
X002108Y012955
Y013056
X002162Y013425
X002378Y013392
Y0138
X002596Y013806
X002757Y013979
X00298Y01386
X00287Y013679
X002858Y013221
X002738Y013252
X002656Y013194
X002654Y013043
X00254Y013056
X002705Y012802
X002783
X003048Y012586
X003094Y011651
X002891
X002713
X002561
X002489Y011618
X002295Y011787
X002071Y011618
X001974Y012033
Y012083
X002019Y012129
X002069
X001703Y012396
X001613Y012396
X001588Y011938
X001206Y011976
Y012065
X001283Y012103
X001206Y011887
Y011798
Y011709
Y011621
X001029Y012597
X000965Y012535
X000902Y012471
X000889Y012693
X000407Y01294
X000366Y013421
X000213
Y01383
X000366
X001707Y013806
X001816Y013987
X002135Y013806
X001517Y013526
X001572Y01303
X001588Y012954
X001414Y013016
X003886Y01316
X003848Y01209
X00378Y01207
X003683Y01209
X003627Y011651
X003722Y011618
X003475Y011651
X003297
X003893Y011787
T02
X005452Y006831
Y006951
X005572
Y006831
X003334Y010768
X003214
Y010888
X003334
Y011008
X003214
Y011128
Y011248
X003334
Y011128
X003094
Y011248
X002974
Y011128
X002854
Y011248
Y011008
X002974
X003094
Y010888
X002974
Y010768
X003094
X002854
Y010888
T03
X008083Y008664
X008248
Y008867
X008083
Y009071
X008248
X008083Y009274
Y009477
Y011217
X008248
Y01142
X008083
X009703Y011163
X009969Y010465
X010033Y009391
X010198
X010363
X009868
X009931Y0087
X00969Y008598
X01002Y011544
X010046Y011951
X009881
X010211
X010376
X009969Y01303
X008083Y01203
Y011826
Y011623
X008248
X003886Y014422
X003632Y014478
X002108
X001854Y014422
X000808Y01413
Y013127
X000554
X000529Y012581
X000699
X000356
T04
X010014Y000631
X010204
T05
X009653Y002376
X009853
Y002626
X009653
T07
X00612Y01283
X006374
X006959
X007213
X006984Y013313
X00673
X006476
X006222
X006349Y013567
X006603
X006857
X007111
T08
X004678Y000768
X006303
T09
X000998Y000505
X001398
T10
X005879Y013897
X007454
T11
X004678Y000228
X006303
T12
X000598Y000905
X001798
X010124Y001899
Y003103
X001798Y004005
X000598
T13
X00296Y001034
X00804
X00296Y008146
X00085Y00895
X00804Y008146
X01015Y00895
Y01445
X00085
T14
X006095Y014202
X007238
M30
