%FSLAX42Y42*%
%MOMM*%
G71*
G01*
G75*
G04 Layer_Physical_Order=2*
G04 Layer_Color=32768*
%ADD10C,1.00*%
%ADD11C,0.25*%
%ADD12R,1.00X1.10*%
%ADD13R,0.60X2.20*%
%ADD14R,1.10X1.00*%
%ADD15C,0.90*%
%ADD16R,2.00X1.80*%
%ADD17R,4.10X4.10*%
%ADD18R,1.55X1.30*%
%ADD19R,1.50X2.15*%
%ADD20R,2.30X2.30*%
%ADD21R,0.25X1.00*%
%ADD22R,1.00X0.25*%
%ADD23R,2.20X0.60*%
%ADD24R,0.30X1.75*%
%ADD25R,1.75X0.30*%
%ADD26R,6.20X6.20*%
%ADD27R,1.35X0.60*%
%ADD28R,1.35X1.00*%
%ADD29R,1.40X0.60*%
%ADD30R,1.50X0.60*%
%ADD31R,1.85X0.35*%
%ADD32R,0.35X1.55*%
%ADD33R,1.80X0.30*%
%ADD34R,0.30X1.80*%
%ADD35R,2.03X0.66*%
%ADD36R,2.75X1.00*%
%ADD37R,1.02X1.91*%
%ADD38R,2.45X2.40*%
%ADD39R,1.80X2.40*%
%ADD40R,1.70X0.50*%
%ADD41R,2.79X3.81*%
%ADD42R,4.60X1.80*%
%ADD43R,1.80X1.60*%
%ADD44R,2.55X2.45*%
%ADD45R,1.50X1.30*%
%ADD46R,1.80X3.20*%
%ADD47R,3.30X2.20*%
%ADD48R,0.65X2.20*%
%ADD49R,5.50X1.50*%
%ADD50R,1.80X2.00*%
%ADD51R,1.30X1.50*%
%ADD52R,0.70X0.90*%
%ADD53R,0.90X0.70*%
%ADD54R,1.00X1.40*%
%ADD55R,1.30X1.55*%
%ADD56R,0.60X1.40*%
%ADD57R,2.50X1.30*%
%ADD58R,1.00X1.70*%
%ADD59R,1.70X1.30*%
%ADD60R,1.20X0.80*%
%ADD61C,0.51*%
%ADD62C,0.64*%
%ADD63C,1.02*%
%ADD64C,2.50*%
%ADD65R,2.50X2.50*%
%ADD66C,3.30*%
%ADD67C,1.80*%
%ADD68R,1.80X1.80*%
%ADD69R,4.00X2.00*%
%ADD70R,2.00X4.00*%
%ADD71R,4.50X2.00*%
%ADD72C,3.50*%
%ADD73C,1.60*%
%ADD74C,1.90*%
%ADD75C,1.40*%
%ADD76C,2.40*%
%ADD77C,1.52*%
%ADD78C,0.60*%
%ADD79C,0.66*%
%ADD80C,4.00*%
%ADD81C,0.76*%
%ADD82C,2.52*%
%ADD83C,4.32*%
%ADD84C,2.12*%
%ADD85O,4.52X2.02*%
%ADD86C,2.02*%
%ADD87C,2.92*%
%ADD88C,2.42*%
%ADD89C,1.92*%
%ADD90C,1.32*%
%ADD91C,1.82*%
%ADD92C,3.52*%
%ADD93C,3.32*%
D63*
X0Y0D02*
Y15000D01*
X11000D01*
Y0D02*
Y15000D01*
X0Y0D02*
X11000D01*
D81*
X10046Y3378D02*
X11000D01*
X9881Y3213D02*
X10046Y3378D01*
X9881Y2870D02*
Y3213D01*
Y2870D02*
X10033Y2718D01*
Y2235D02*
Y2718D01*
X9868Y2070D02*
X10033Y2235D01*
X9868Y1334D02*
Y2070D01*
X9296Y762D02*
X9868Y1334D01*
X7239Y762D02*
X9296D01*
X6896Y1105D02*
X7239Y762D01*
X6896Y1105D02*
Y2908D01*
X6515Y3289D02*
X6896Y2908D01*
X4077Y3289D02*
X6515D01*
X3683Y2896D02*
X4077Y3289D01*
X3683Y1156D02*
Y2896D01*
X7874Y13807D02*
Y15000D01*
X7762Y13696D02*
X7874Y13807D01*
X5461Y13805D02*
Y15000D01*
Y13805D02*
X5570Y13696D01*
X6172D02*
X6472Y13995D01*
X6929D01*
X7229Y13696D01*
X7762D01*
X5570D02*
X6172D01*
X3683Y1156D02*
X3797Y1041D01*
Y0D02*
Y1041D01*
X9868Y1334D02*
X11000D01*
D82*
X1398Y505D02*
D03*
X998D02*
D03*
D83*
X6095Y14202D02*
D03*
X7238D02*
D03*
D84*
X7213Y12830D02*
D03*
X6959D02*
D03*
X6374D02*
D03*
X6120D02*
D03*
X6984Y13313D02*
D03*
X6857Y13567D02*
D03*
X6730Y13313D02*
D03*
X6476D02*
D03*
X6603Y13567D02*
D03*
X6349D02*
D03*
X6222Y13313D02*
D03*
D85*
X8394Y13730D02*
D03*
D86*
X9853Y2376D02*
D03*
X9653D02*
D03*
Y2626D02*
D03*
D87*
X4678Y228D02*
D03*
X6303D02*
D03*
D88*
X4678Y768D02*
D03*
X6303D02*
D03*
D89*
X10014Y631D02*
D03*
D90*
X7563Y9400D02*
D03*
Y9913D02*
D03*
X4178Y10401D02*
D03*
Y4585D02*
D03*
X2654Y12090D02*
D03*
X3683D02*
D03*
X4117Y10576D02*
D03*
X4069Y9622D02*
D03*
X1283Y12103D02*
D03*
X1029Y12597D02*
D03*
X965Y12535D02*
D03*
X902Y12471D02*
D03*
X1414Y13016D02*
D03*
X3048Y12586D02*
D03*
X3035Y12103D02*
D03*
X1588Y11938D02*
D03*
X3969Y12079D02*
D03*
X9063Y3642D02*
D03*
X9215D02*
D03*
X9368D02*
D03*
X10075Y3537D02*
D03*
X8753Y3257D02*
D03*
X8898Y3642D02*
D03*
X8939Y3757D02*
D03*
X7829Y3245D02*
D03*
X7429Y3073D02*
D03*
X1974Y10583D02*
D03*
Y10933D02*
D03*
X2007Y11443D02*
D03*
Y11239D02*
D03*
X1974Y10383D02*
D03*
X1676Y10211D02*
D03*
X2757Y13979D02*
D03*
X7309Y10395D02*
D03*
X5048Y10230D02*
D03*
X4788Y10401D02*
D03*
X6515Y3010D02*
D03*
X8882Y2561D02*
D03*
X6655Y4661D02*
D03*
X5232Y6147D02*
D03*
X7544Y10820D02*
D03*
X4331Y13386D02*
D03*
X4712Y13462D02*
D03*
X4635D02*
D03*
X7779Y2419D02*
D03*
X7544Y2426D02*
D03*
X9263Y1938D02*
D03*
X4864Y10516D02*
D03*
X4597Y10960D02*
D03*
X5842Y6147D02*
D03*
X5690D02*
D03*
X5537D02*
D03*
X5392Y11684D02*
D03*
X5309D02*
D03*
X5220Y11287D02*
D03*
X5715Y10452D02*
D03*
X6355Y9383D02*
D03*
X6507D02*
D03*
X6203Y9383D02*
D03*
X5220Y11519D02*
D03*
X5467D02*
D03*
X5593Y11367D02*
D03*
X7557Y10160D02*
D03*
Y10071D02*
D03*
Y10249D02*
D03*
X6193Y11455D02*
D03*
X6066D02*
D03*
X7156Y11882D02*
D03*
X4559Y10818D02*
D03*
X4527Y10633D02*
D03*
X6613Y9928D02*
D03*
X6463D02*
D03*
X6372D02*
D03*
X6423Y10249D02*
D03*
X6522Y10234D02*
D03*
X6449Y10312D02*
D03*
X6297D02*
D03*
X6144D02*
D03*
X6272Y10234D02*
D03*
X4405Y9608D02*
D03*
X1588Y12954D02*
D03*
X1572Y13030D02*
D03*
X2108Y12955D02*
D03*
Y13056D02*
D03*
X2656Y13194D02*
D03*
X2738Y13252D02*
D03*
X1011Y4295D02*
D03*
X757D02*
D03*
X503D02*
D03*
X2184Y12636D02*
D03*
X1206Y12065D02*
D03*
Y11976D02*
D03*
Y11887D02*
D03*
Y11798D02*
D03*
Y11709D02*
D03*
Y11621D02*
D03*
X8839Y4485D02*
D03*
Y4705D02*
D03*
Y4890D02*
D03*
Y5055D02*
D03*
X6622Y12636D02*
D03*
X7696Y12593D02*
D03*
X6144Y10703D02*
D03*
X6447Y12517D02*
D03*
X7163D02*
D03*
X6104Y13056D02*
D03*
X7696Y13404D02*
D03*
X7213Y13314D02*
D03*
X6537Y13792D02*
D03*
X5990Y13566D02*
D03*
X7104Y11814D02*
D03*
X1613Y12396D02*
D03*
X1703Y12396D02*
D03*
X3315Y12954D02*
D03*
X3251Y13018D02*
D03*
X7795Y4191D02*
D03*
X7645Y4420D02*
D03*
X7493Y4496D02*
D03*
X7341Y4115D02*
D03*
X7188Y4267D02*
D03*
X7036Y4343D02*
D03*
X3492Y12827D02*
D03*
X3810Y12711D02*
D03*
X3886Y13160D02*
D03*
X3975Y13085D02*
D03*
X4064Y12861D02*
D03*
X4128Y13235D02*
D03*
X4216Y13310D02*
D03*
Y12522D02*
D03*
X4128D02*
D03*
X3950D02*
D03*
X3861D02*
D03*
X3772D02*
D03*
X3683D02*
D03*
X2341Y12721D02*
D03*
X2390Y12657D02*
D03*
X2783Y12802D02*
D03*
X2705D02*
D03*
X2832Y12103D02*
D03*
X5220Y11367D02*
D03*
Y11600D02*
D03*
X2378Y13392D02*
D03*
X2162Y13425D02*
D03*
X5231Y9435D02*
D03*
X5172Y9362D02*
D03*
X4724Y6239D02*
D03*
X9265Y1612D02*
D03*
X9456Y1379D02*
D03*
X2475Y3303D02*
D03*
X4991Y4585D02*
D03*
X5220Y4623D02*
D03*
X6304Y4582D02*
D03*
X3145Y8634D02*
D03*
X3018D02*
D03*
X2891D02*
D03*
X2764D02*
D03*
X3745Y6305D02*
D03*
Y6385D02*
D03*
Y6465D02*
D03*
Y6545D02*
D03*
Y6625D02*
D03*
X2405Y6065D02*
D03*
Y6145D02*
D03*
Y6225D02*
D03*
Y6305D02*
D03*
Y6385D02*
D03*
Y6465D02*
D03*
Y6545D02*
D03*
Y6625D02*
D03*
X1754Y8636D02*
D03*
X1875Y8634D02*
D03*
X2002D02*
D03*
X2129D02*
D03*
X2256D02*
D03*
X2383D02*
D03*
X2510D02*
D03*
X2637D02*
D03*
X3510Y6705D02*
D03*
X3271D02*
D03*
Y5665D02*
D03*
X2896Y5505D02*
D03*
X3271Y5265D02*
D03*
X2896Y5025D02*
D03*
X3271Y4785D02*
D03*
Y4625D02*
D03*
X2640Y5505D02*
D03*
Y5025D02*
D03*
X3510Y4625D02*
D03*
Y4785D02*
D03*
Y5265D02*
D03*
Y5665D02*
D03*
X2640Y5985D02*
D03*
Y5905D02*
D03*
Y5825D02*
D03*
X4046Y6218D02*
D03*
X4110Y6154D02*
D03*
X4046Y6091D02*
D03*
X4110Y6027D02*
D03*
X4046Y5964D02*
D03*
X4280Y1854D02*
D03*
X5070D02*
D03*
X6148Y1950D02*
D03*
X5748Y1825D02*
D03*
X5118Y4988D02*
D03*
X4991D02*
D03*
X5220Y11443D02*
D03*
X4890Y11925D02*
D03*
X6842Y10618D02*
D03*
X9472Y4815D02*
D03*
X6626Y10913D02*
D03*
X5960D02*
D03*
X3569Y12767D02*
D03*
X3269Y12763D02*
D03*
X366Y13421D02*
D03*
X213D02*
D03*
X2408Y12070D02*
D03*
X2603Y12078D02*
D03*
X2713Y12070D02*
D03*
X3780D02*
D03*
X3488Y12095D02*
D03*
X4117Y10399D02*
D03*
Y10704D02*
D03*
Y10856D02*
D03*
Y11008D02*
D03*
Y11161D02*
D03*
Y11313D02*
D03*
Y11465D02*
D03*
Y11618D02*
D03*
X2071Y11313D02*
D03*
Y11465D02*
D03*
Y11618D02*
D03*
Y10399D02*
D03*
Y10551D02*
D03*
X2180Y9947D02*
D03*
X2332D02*
D03*
X2484D02*
D03*
X2637D02*
D03*
X2789D02*
D03*
X2942D02*
D03*
X3094D02*
D03*
X3246D02*
D03*
X3551D02*
D03*
X3399D02*
D03*
X3704D02*
D03*
X3856D02*
D03*
X4008D02*
D03*
X2048Y10729D02*
D03*
Y10932D02*
D03*
X2045Y11087D02*
D03*
X2891Y12093D02*
D03*
X3094D02*
D03*
X3344Y12120D02*
D03*
X3532D02*
D03*
X4194Y11483D02*
D03*
Y11783D02*
D03*
Y11183D02*
D03*
X4953Y11798D02*
D03*
X3385Y12097D02*
D03*
X2426Y12116D02*
D03*
X2858Y13221D02*
D03*
X2654Y13043D02*
D03*
X2870Y13679D02*
D03*
X2135Y13806D02*
D03*
X2502Y12408D02*
D03*
X1707Y13806D02*
D03*
X2980Y13860D02*
D03*
X3284Y13399D02*
D03*
X1517Y13526D02*
D03*
X5899Y7537D02*
D03*
Y7423D02*
D03*
X5093Y7595D02*
D03*
Y7683D02*
D03*
X3769Y9888D02*
D03*
X4019D02*
D03*
X3969D02*
D03*
X3869D02*
D03*
X3369D02*
D03*
X3169D02*
D03*
X2769D02*
D03*
X2469D02*
D03*
X2569D02*
D03*
X2319D02*
D03*
X3526Y8634D02*
D03*
X4161D02*
D03*
X4288Y8634D02*
D03*
X4458Y7849D02*
D03*
X4394Y7938D02*
D03*
X4331Y8026D02*
D03*
X4267Y8115D02*
D03*
X4204Y8204D02*
D03*
X5385Y6147D02*
D03*
X5994Y6553D02*
D03*
X4489Y10183D02*
D03*
X4597Y10058D02*
D03*
X4166Y10465D02*
D03*
X4176Y10683D02*
D03*
X4166Y10973D02*
D03*
X3147Y3632D02*
D03*
X2995Y3556D02*
D03*
X607Y4902D02*
D03*
X673Y4750D02*
D03*
X504Y5157D02*
D03*
X5191Y6675D02*
D03*
X6337Y6693D02*
D03*
Y6769D02*
D03*
Y6845D02*
D03*
Y6921D02*
D03*
X902Y7239D02*
D03*
X431Y7126D02*
D03*
X412Y7361D02*
D03*
X698Y7948D02*
D03*
X6660Y3632D02*
D03*
X6813Y3556D02*
D03*
X4639Y3442D02*
D03*
X5338Y3141D02*
D03*
X6134Y3251D02*
D03*
X5728Y3141D02*
D03*
X4757Y3490D02*
D03*
X4233Y3442D02*
D03*
X4341Y4055D02*
D03*
X8318Y2578D02*
D03*
X8344Y2921D02*
D03*
X8588Y2451D02*
D03*
X7811Y2896D02*
D03*
X6802Y1514D02*
D03*
X5956Y1751D02*
D03*
X6108D02*
D03*
X5880Y2789D02*
D03*
X6033D02*
D03*
X5728Y3424D02*
D03*
X3658Y1440D02*
D03*
X3289Y1313D02*
D03*
X3137D02*
D03*
X2959Y1303D02*
D03*
X9076Y7826D02*
D03*
Y7996D02*
D03*
X10228Y7396D02*
D03*
Y7996D02*
D03*
Y7566D02*
D03*
X10363Y7858D02*
D03*
Y7104D02*
D03*
X8941Y7534D02*
D03*
Y8288D02*
D03*
X10363D02*
D03*
X5118Y6794D02*
D03*
X5067Y6871D02*
D03*
X9944Y6086D02*
D03*
X8728Y6088D02*
D03*
X9792Y6378D02*
D03*
X8572Y6381D02*
D03*
X3772Y13825D02*
D03*
Y13672D02*
D03*
Y13520D02*
D03*
X9453Y3852D02*
D03*
X3657Y13408D02*
D03*
X3562Y13922D02*
D03*
X4903Y13921D02*
D03*
X4445D02*
D03*
X3848Y12090D02*
D03*
Y12408D02*
D03*
X9140Y5351D02*
D03*
X10325Y4001D02*
D03*
X2540Y13056D02*
D03*
X8001Y4153D02*
D03*
X3510Y6145D02*
D03*
Y6225D02*
D03*
X2642Y7747D02*
D03*
X2489Y7811D02*
D03*
D91*
X699Y12581D02*
D03*
X356D02*
D03*
X529D02*
D03*
X3886Y14422D02*
D03*
X2108Y14478D02*
D03*
X8083Y11826D02*
D03*
Y12030D02*
D03*
Y11623D02*
D03*
Y11217D02*
D03*
Y11420D02*
D03*
X8248Y11217D02*
D03*
Y11420D02*
D03*
Y11623D02*
D03*
Y9071D02*
D03*
Y8867D02*
D03*
Y8664D02*
D03*
X8083Y8867D02*
D03*
Y8664D02*
D03*
Y9071D02*
D03*
Y9477D02*
D03*
Y9274D02*
D03*
X554Y13127D02*
D03*
D92*
X8040Y1034D02*
D03*
X2960D02*
D03*
Y8146D02*
D03*
X8040D02*
D03*
X10150Y14450D02*
D03*
X850D02*
D03*
Y8950D02*
D03*
X10150D02*
D03*
D93*
X1798Y4005D02*
D03*
X598D02*
D03*
X1798Y905D02*
D03*
X598D02*
D03*
M02*
