%FSLAX42Y42*%
%MOMM*%
G71*
G01*
G75*
G04 Layer_Physical_Order=1*
G04 Layer_Color=255*
%ADD10C,1.00*%
%ADD11C,0.25*%
%ADD12R,1.00X1.10*%
%ADD13R,0.60X2.20*%
%ADD14R,1.10X1.00*%
%ADD15C,0.90*%
%ADD16R,2.00X1.80*%
%ADD17R,4.10X4.10*%
%ADD18R,1.55X1.30*%
%ADD19R,1.50X2.15*%
%ADD20R,2.30X2.30*%
%ADD21R,0.25X1.00*%
%ADD22R,1.00X0.25*%
%ADD23R,2.20X0.60*%
%ADD24R,0.30X1.75*%
%ADD25R,1.75X0.30*%
%ADD26R,6.20X6.20*%
%ADD27R,1.35X0.60*%
%ADD28R,1.35X1.00*%
%ADD29R,1.40X0.60*%
%ADD30R,1.50X0.60*%
%ADD31R,1.85X0.35*%
%ADD32R,0.35X1.55*%
%ADD33R,1.80X0.30*%
%ADD34R,0.30X1.80*%
%ADD35R,2.03X0.66*%
%ADD36R,2.75X1.00*%
%ADD37R,1.02X1.91*%
%ADD38R,2.45X2.40*%
%ADD39R,1.80X2.40*%
%ADD40R,1.70X0.50*%
%ADD41R,2.79X3.81*%
%ADD42R,4.60X1.80*%
%ADD43R,1.80X1.60*%
%ADD44R,2.55X2.45*%
%ADD45R,1.50X1.30*%
%ADD46R,1.80X3.20*%
%ADD47R,3.30X2.20*%
%ADD48R,0.65X2.20*%
%ADD49R,5.50X1.50*%
%ADD50R,1.80X2.00*%
%ADD51R,1.30X1.50*%
%ADD52R,0.70X0.90*%
%ADD53R,0.90X0.70*%
%ADD54R,1.00X1.40*%
%ADD55R,1.30X1.55*%
%ADD56R,0.60X1.40*%
%ADD57R,2.50X1.30*%
%ADD58R,1.00X1.70*%
%ADD59R,1.70X1.30*%
%ADD60R,1.20X0.80*%
%ADD61C,0.51*%
%ADD62C,0.64*%
%ADD63C,1.02*%
%ADD64C,2.50*%
%ADD65R,2.50X2.50*%
%ADD66C,3.30*%
%ADD67C,1.80*%
%ADD68R,1.80X1.80*%
%ADD69R,4.00X2.00*%
%ADD70R,2.00X4.00*%
%ADD71R,4.50X2.00*%
%ADD72C,3.50*%
%ADD73C,1.60*%
%ADD74C,1.90*%
%ADD75C,1.40*%
%ADD76C,2.40*%
%ADD77C,1.52*%
%ADD78C,0.60*%
%ADD79C,0.66*%
%ADD80C,4.00*%
G36*
X10668Y12636D02*
X10274D01*
X10084Y12446D01*
X9804D01*
Y12586D01*
X10109Y12890D01*
Y13307D01*
X9484D01*
Y13056D01*
X9433D01*
Y13091D01*
X9252D01*
Y13056D01*
X7963D01*
Y13462D01*
X10668D01*
Y12636D01*
D02*
G37*
G36*
Y10071D02*
X10274D01*
X10084Y9881D01*
X9804D01*
Y10020D01*
X10109Y10325D01*
Y10742D01*
X9484D01*
Y10706D01*
Y10462D01*
X9433D01*
Y10475D01*
X9252D01*
Y10462D01*
X7966D01*
X7963Y10465D01*
Y10897D01*
X10668D01*
Y10071D01*
D02*
G37*
G36*
X746Y12802D02*
X777D01*
X819Y12760D01*
Y12724D01*
X826D01*
Y12535D01*
X749Y12459D01*
X317D01*
X241Y12535D01*
Y12764D01*
X279Y12802D01*
X463D01*
Y12802D01*
X594D01*
Y12802D01*
X616D01*
Y12802D01*
X746D01*
Y12802D01*
D02*
G37*
G36*
X10071Y12897D02*
X9754Y12579D01*
Y12332D01*
X10668D01*
Y10998D01*
X9500D01*
Y11095D01*
X9495D01*
Y11161D01*
Y11226D01*
X9500D01*
Y11683D01*
X9589Y11772D01*
Y11857D01*
X9598D01*
Y11857D01*
X9637D01*
Y11923D01*
Y11988D01*
X9598D01*
Y11988D01*
X9597D01*
X9589Y11997D01*
Y12682D01*
X9512Y12759D01*
Y13271D01*
X10071D01*
Y12897D01*
D02*
G37*
G36*
X10947Y9792D02*
X10604D01*
Y9833D01*
X10424D01*
Y9792D01*
X10398D01*
Y9833D01*
X10217D01*
Y9792D01*
X10069D01*
Y9795D01*
X9952D01*
Y9859D01*
X10069D01*
Y9864D01*
X10084D01*
X10093Y9868D01*
X10122D01*
X10274Y10020D01*
X10706D01*
Y12370D01*
X10614D01*
Y12392D01*
X10433D01*
Y12370D01*
X10411D01*
Y12392D01*
X10230D01*
Y12370D01*
X10069D01*
Y12361D01*
X9952D01*
Y12424D01*
X10069D01*
Y12421D01*
X10109D01*
X10287Y12598D01*
X10706D01*
Y13526D01*
X10122D01*
Y14084D01*
X10947D01*
Y9792D01*
D02*
G37*
G36*
X8484Y10998D02*
X7963D01*
Y12167D01*
X8484D01*
Y10998D01*
D02*
G37*
G36*
X9182Y11988D02*
X9188D01*
Y11923D01*
Y11857D01*
X9199D01*
X9385Y11671D01*
Y11226D01*
X9389D01*
Y11161D01*
Y11095D01*
X9385D01*
Y10998D01*
X8572D01*
Y12205D01*
X7963D01*
Y13018D01*
X9182D01*
Y11988D01*
D02*
G37*
G36*
X9433Y12954D02*
X9474D01*
Y12738D01*
X9543Y12669D01*
Y12497D01*
X9510D01*
Y12488D01*
X9276D01*
Y12497D01*
X9207D01*
Y12954D01*
X9252D01*
Y12964D01*
X9433D01*
Y12954D01*
D02*
G37*
G36*
X9510Y9601D02*
X9543D01*
Y9423D01*
X9530D01*
Y9357D01*
X9499D01*
Y9326D01*
X9428D01*
Y9335D01*
X9396D01*
Y9326D01*
X9326D01*
Y9357D01*
X9294D01*
Y9423D01*
X9258D01*
Y9601D01*
X9276D01*
Y9605D01*
X9510D01*
Y9601D01*
D02*
G37*
G36*
Y12167D02*
X9543D01*
Y11988D01*
X9530D01*
Y11923D01*
X9499D01*
Y11891D01*
X9428D01*
Y11900D01*
X9396D01*
Y11891D01*
X9326D01*
Y11923D01*
X9294D01*
Y11988D01*
X9258D01*
Y12167D01*
X9276D01*
Y12170D01*
X9510D01*
Y12167D01*
D02*
G37*
G36*
X9182Y9423D02*
X9188D01*
Y9357D01*
Y9292D01*
X9212D01*
X9373Y9131D01*
Y8661D01*
X9376D01*
Y8595D01*
Y8530D01*
X9373D01*
Y8446D01*
X8572D01*
Y9639D01*
X7963D01*
Y10427D01*
X9182D01*
Y9423D01*
D02*
G37*
G36*
X10071Y10344D02*
X9766Y10039D01*
Y9766D01*
X10217D01*
Y9755D01*
X10217D01*
Y9707D01*
X10398D01*
Y9755D01*
X10398D01*
Y9757D01*
X10407Y9766D01*
X10424D01*
Y9755D01*
X10424D01*
Y9707D01*
X10604D01*
Y9755D01*
X10604D01*
Y9757D01*
X10613Y9766D01*
X10947D01*
Y8433D01*
X9487D01*
Y8530D01*
X9482D01*
Y8595D01*
Y8661D01*
X9487D01*
Y9117D01*
X9576Y9206D01*
Y10117D01*
X9500Y10193D01*
Y10459D01*
X9501Y10462D01*
Y10706D01*
X10071D01*
Y10344D01*
D02*
G37*
G36*
X8484Y8446D02*
X7963D01*
Y9614D01*
X8484D01*
Y8446D01*
D02*
G37*
G36*
X9376Y14084D02*
X9957D01*
Y13526D01*
X7963D01*
Y14084D01*
X8712D01*
Y13779D01*
X9055D01*
Y14084D01*
X9166D01*
Y14090D01*
X9376D01*
Y14084D01*
D02*
G37*
G36*
X9433Y10338D02*
X9474D01*
Y10122D01*
X9543Y10053D01*
Y9931D01*
X9510D01*
Y9922D01*
X9276D01*
Y9931D01*
X9207D01*
Y10338D01*
X9252D01*
Y10348D01*
X9433D01*
Y10338D01*
D02*
G37*
%LPC*%
G36*
X10069Y9748D02*
X9984D01*
Y9732D01*
X10069D01*
Y9748D01*
D02*
G37*
G36*
X8851Y9876D02*
X8638D01*
Y9803D01*
X8851D01*
Y9876D01*
D02*
G37*
G36*
X8574D02*
X8361D01*
Y9803D01*
X8574D01*
Y9876D01*
D02*
G37*
G36*
X9920Y9922D02*
X9835D01*
Y9906D01*
X9920D01*
Y9922D01*
D02*
G37*
G36*
X10069D02*
X9984D01*
Y9906D01*
X10069D01*
Y9922D01*
D02*
G37*
G36*
X9361Y10002D02*
X9276D01*
Y9986D01*
X9361D01*
Y10002D01*
D02*
G37*
G36*
X10604Y9945D02*
X10546D01*
Y9897D01*
X10604D01*
Y9945D01*
D02*
G37*
G36*
X10276D02*
X10217D01*
Y9897D01*
X10276D01*
Y9945D01*
D02*
G37*
G36*
X10398D02*
X10339D01*
Y9897D01*
X10398D01*
Y9945D01*
D02*
G37*
G36*
X10482D02*
X10424D01*
Y9897D01*
X10482D01*
Y9945D01*
D02*
G37*
G36*
X9510Y9541D02*
X9425D01*
Y9525D01*
X9510D01*
Y9541D01*
D02*
G37*
G36*
X10069Y9621D02*
X9835D01*
Y9525D01*
X10069D01*
Y9621D01*
D02*
G37*
G36*
X10276Y9643D02*
X10217D01*
Y9595D01*
X10276D01*
Y9643D01*
D02*
G37*
G36*
X9361Y9541D02*
X9276D01*
Y9525D01*
X9361D01*
Y9541D01*
D02*
G37*
G36*
X10331Y9471D02*
X10320Y9466D01*
X10302Y9452D01*
X10289Y9434D01*
X10287Y9430D01*
X10274D01*
X10273Y9434D01*
X10259Y9452D01*
X10241Y9466D01*
X10230Y9471D01*
Y9391D01*
Y9312D01*
X10241Y9317D01*
X10259Y9331D01*
X10273Y9348D01*
X10274Y9353D01*
X10287D01*
X10289Y9348D01*
X10302Y9331D01*
X10320Y9317D01*
X10331Y9312D01*
Y9391D01*
Y9471D01*
D02*
G37*
G36*
X8051Y9556D02*
X8040Y9551D01*
X8022Y9538D01*
X8008Y9520D01*
X8004Y9509D01*
X8051D01*
Y9556D01*
D02*
G37*
G36*
X8115D02*
Y9509D01*
X8162D01*
X8157Y9520D01*
X8144Y9538D01*
X8126Y9551D01*
X8115Y9556D01*
D02*
G37*
G36*
X10398Y9643D02*
X10339D01*
Y9595D01*
X10398D01*
Y9643D01*
D02*
G37*
G36*
X8574Y9739D02*
X8361D01*
Y9666D01*
X8574D01*
Y9739D01*
D02*
G37*
G36*
X8851D02*
X8638D01*
Y9666D01*
X8851D01*
Y9739D01*
D02*
G37*
G36*
X9920Y9748D02*
X9835D01*
Y9732D01*
X9920D01*
Y9748D01*
D02*
G37*
G36*
X10069Y9668D02*
X9984D01*
Y9652D01*
X10069D01*
Y9668D01*
D02*
G37*
G36*
X10482Y9643D02*
X10424D01*
Y9595D01*
X10482D01*
Y9643D01*
D02*
G37*
G36*
X10604D02*
X10546D01*
Y9595D01*
X10604D01*
Y9643D01*
D02*
G37*
G36*
X9920Y9668D02*
X9835D01*
Y9652D01*
X9920D01*
Y9668D01*
D02*
G37*
G36*
X9510Y10002D02*
X9425D01*
Y9986D01*
X9510D01*
Y10002D01*
D02*
G37*
G36*
X8851Y10776D02*
X8638D01*
Y10703D01*
X8851D01*
Y10776D01*
D02*
G37*
G36*
X8574D02*
X8361D01*
Y10703D01*
X8574D01*
Y10776D01*
D02*
G37*
G36*
X9782Y11132D02*
X9735D01*
Y11084D01*
X9746Y11089D01*
X9764Y11103D01*
X9777Y11120D01*
X9782Y11132D01*
D02*
G37*
G36*
X9671D02*
X9624D01*
X9628Y11120D01*
X9642Y11103D01*
X9660Y11089D01*
X9671Y11084D01*
Y11132D01*
D02*
G37*
G36*
X9433Y10587D02*
X9374D01*
Y10538D01*
X9433D01*
Y10587D01*
D02*
G37*
G36*
X9311D02*
X9252D01*
Y10538D01*
X9311D01*
Y10587D01*
D02*
G37*
G36*
X8851Y10639D02*
X8638D01*
Y10566D01*
X8851D01*
Y10639D01*
D02*
G37*
G36*
X8574D02*
X8361D01*
Y10566D01*
X8574D01*
Y10639D01*
D02*
G37*
G36*
X9597Y11226D02*
X9559D01*
Y11192D01*
X9597D01*
Y11226D01*
D02*
G37*
G36*
X9325D02*
X9287D01*
Y11192D01*
X9325D01*
Y11226D01*
D02*
G37*
G36*
X9735Y11242D02*
Y11195D01*
X9782D01*
X9777Y11206D01*
X9764Y11224D01*
X9746Y11238D01*
X9735Y11242D01*
D02*
G37*
G36*
X9671D02*
X9660Y11238D01*
X9642Y11224D01*
X9628Y11206D01*
X9624Y11195D01*
X9671D01*
Y11242D01*
D02*
G37*
G36*
X9597Y11129D02*
X9559D01*
Y11095D01*
X9597D01*
Y11129D01*
D02*
G37*
G36*
X9325D02*
X9287D01*
Y11095D01*
X9325D01*
Y11129D01*
D02*
G37*
G36*
X8327Y11185D02*
X8280D01*
Y11138D01*
X8291Y11142D01*
X8309Y11156D01*
X8322Y11174D01*
X8327Y11185D01*
D02*
G37*
G36*
X8051D02*
X8004D01*
X8008Y11174D01*
X8022Y11156D01*
X8040Y11142D01*
X8051Y11138D01*
Y11185D01*
D02*
G37*
G36*
X9840Y10430D02*
X9717D01*
Y10256D01*
X9840D01*
Y10430D01*
D02*
G37*
G36*
X9654D02*
X9530D01*
Y10256D01*
X9654D01*
Y10430D01*
D02*
G37*
G36*
X10554D02*
X10431D01*
Y10256D01*
X10554D01*
Y10430D01*
D02*
G37*
G36*
X10367D02*
X10244D01*
Y10256D01*
X10367D01*
Y10430D01*
D02*
G37*
G36*
X10069Y10002D02*
X9984D01*
Y9986D01*
X10069D01*
Y10002D01*
D02*
G37*
G36*
X9920D02*
X9835D01*
Y9986D01*
X9920D01*
Y10002D01*
D02*
G37*
G36*
X9433Y10285D02*
X9374D01*
Y10236D01*
X9433D01*
Y10285D01*
D02*
G37*
G36*
X9311D02*
X9252D01*
Y10236D01*
X9311D01*
Y10285D01*
D02*
G37*
G36*
X10554Y10668D02*
X10431D01*
Y10494D01*
X10554D01*
Y10668D01*
D02*
G37*
G36*
X10367D02*
X10244D01*
Y10494D01*
X10367D01*
Y10668D01*
D02*
G37*
G36*
X10001Y10544D02*
Y10497D01*
X10049D01*
X10044Y10508D01*
X10030Y10526D01*
X10012Y10539D01*
X10001Y10544D01*
D02*
G37*
G36*
X9938D02*
X9927Y10539D01*
X9909Y10526D01*
X9895Y10508D01*
X9890Y10497D01*
X9938D01*
Y10544D01*
D02*
G37*
G36*
X10049Y10433D02*
X10001D01*
Y10386D01*
X10012Y10390D01*
X10030Y10404D01*
X10044Y10422D01*
X10049Y10433D01*
D02*
G37*
G36*
X9938D02*
X9890D01*
X9895Y10422D01*
X9909Y10404D01*
X9927Y10390D01*
X9938Y10386D01*
Y10433D01*
D02*
G37*
G36*
X9840Y10668D02*
X9717D01*
Y10494D01*
X9840D01*
Y10668D01*
D02*
G37*
G36*
X9654D02*
X9530D01*
Y10494D01*
X9654D01*
Y10668D01*
D02*
G37*
G36*
X9284Y8945D02*
X9173D01*
Y8839D01*
X9284D01*
Y8945D01*
D02*
G37*
G36*
X9110D02*
X8999D01*
Y8839D01*
X9110D01*
Y8945D01*
D02*
G37*
G36*
X9889D02*
X9778D01*
Y8839D01*
X9889D01*
Y8945D01*
D02*
G37*
G36*
X9715D02*
X9604D01*
Y8839D01*
X9715D01*
Y8945D01*
D02*
G37*
G36*
X10150Y9166D02*
X10108Y9162D01*
X10067Y9150D01*
X10030Y9130D01*
X9997Y9103D01*
X9970Y9070D01*
X9950Y9033D01*
X9938Y8992D01*
X9934Y8950D01*
X9938Y8908D01*
X9950Y8867D01*
X9970Y8830D01*
X9997Y8797D01*
X10030Y8770D01*
X10067Y8750D01*
X10108Y8738D01*
X10150Y8734D01*
X10192Y8738D01*
X10233Y8750D01*
X10270Y8770D01*
X10303Y8797D01*
X10330Y8830D01*
X10350Y8867D01*
X10362Y8908D01*
X10366Y8950D01*
X10362Y8992D01*
X10350Y9033D01*
X10330Y9070D01*
X10303Y9103D01*
X10270Y9130D01*
X10233Y9150D01*
X10192Y9162D01*
X10150Y9166D01*
D02*
G37*
G36*
X9963Y8779D02*
Y8731D01*
X10011D01*
X10006Y8742D01*
X9992Y8760D01*
X9974Y8774D01*
X9963Y8779D01*
D02*
G37*
G36*
X8327Y8836D02*
X8280D01*
Y8788D01*
X8291Y8793D01*
X8309Y8807D01*
X8322Y8824D01*
X8327Y8836D01*
D02*
G37*
G36*
X8051D02*
X8004D01*
X8008Y8824D01*
X8022Y8807D01*
X8040Y8793D01*
X8051Y8788D01*
Y8836D01*
D02*
G37*
G36*
X9110Y9114D02*
X8999D01*
Y9008D01*
X9110D01*
Y9114D01*
D02*
G37*
G36*
X8327Y9039D02*
X8280D01*
Y8991D01*
X8291Y8996D01*
X8309Y9010D01*
X8322Y9028D01*
X8327Y9039D01*
D02*
G37*
G36*
X9715Y9114D02*
X9604D01*
Y9008D01*
X9715D01*
Y9114D01*
D02*
G37*
G36*
X9284D02*
X9173D01*
Y9008D01*
X9284D01*
Y9114D01*
D02*
G37*
G36*
X8280Y8946D02*
Y8899D01*
X8327D01*
X8322Y8910D01*
X8309Y8928D01*
X8291Y8942D01*
X8280Y8946D01*
D02*
G37*
G36*
X8051D02*
X8040Y8942D01*
X8022Y8928D01*
X8008Y8910D01*
X8004Y8899D01*
X8051D01*
Y8946D01*
D02*
G37*
G36*
Y9039D02*
X8004D01*
X8008Y9028D01*
X8022Y9010D01*
X8040Y8996D01*
X8051Y8991D01*
Y9039D01*
D02*
G37*
G36*
X8216Y8946D02*
X8205Y8942D01*
X8187Y8928D01*
X8174Y8910D01*
X8172Y8906D01*
X8159D01*
X8157Y8910D01*
X8144Y8928D01*
X8126Y8942D01*
X8115Y8946D01*
Y8867D01*
Y8788D01*
X8126Y8793D01*
X8144Y8807D01*
X8157Y8824D01*
X8159Y8829D01*
X8172D01*
X8174Y8824D01*
X8187Y8807D01*
X8205Y8793D01*
X8216Y8788D01*
Y8867D01*
Y8946D01*
D02*
G37*
G36*
X8327Y8632D02*
X8280D01*
Y8585D01*
X8291Y8590D01*
X8309Y8603D01*
X8322Y8621D01*
X8327Y8632D01*
D02*
G37*
G36*
X8051D02*
X8004D01*
X8008Y8621D01*
X8022Y8603D01*
X8040Y8590D01*
X8051Y8585D01*
Y8632D01*
D02*
G37*
G36*
X10011Y8668D02*
X9963D01*
Y8620D01*
X9974Y8625D01*
X9992Y8639D01*
X10006Y8657D01*
X10011Y8668D01*
D02*
G37*
G36*
X9900D02*
X9852D01*
X9857Y8657D01*
X9871Y8639D01*
X9888Y8625D01*
X9900Y8620D01*
Y8668D01*
D02*
G37*
G36*
X9769Y8566D02*
X9722D01*
Y8519D01*
X9733Y8523D01*
X9751Y8537D01*
X9765Y8555D01*
X9769Y8566D01*
D02*
G37*
G36*
X9658D02*
X9611D01*
X9616Y8555D01*
X9629Y8537D01*
X9647Y8523D01*
X9658Y8519D01*
Y8566D01*
D02*
G37*
G36*
X9584Y8564D02*
X9546D01*
Y8530D01*
X9584D01*
Y8564D01*
D02*
G37*
G36*
X9312D02*
X9274D01*
Y8530D01*
X9312D01*
Y8564D01*
D02*
G37*
G36*
X8280Y8743D02*
Y8696D01*
X8327D01*
X8322Y8707D01*
X8309Y8725D01*
X8291Y8739D01*
X8280Y8743D01*
D02*
G37*
G36*
X8051D02*
X8040Y8739D01*
X8022Y8725D01*
X8008Y8707D01*
X8004Y8696D01*
X8051D01*
Y8743D01*
D02*
G37*
G36*
X9900Y8779D02*
X9888Y8774D01*
X9871Y8760D01*
X9857Y8742D01*
X9852Y8731D01*
X9900D01*
Y8779D01*
D02*
G37*
G36*
X8216Y8743D02*
X8205Y8739D01*
X8187Y8725D01*
X8174Y8707D01*
X8172Y8703D01*
X8159D01*
X8157Y8707D01*
X8144Y8725D01*
X8126Y8739D01*
X8115Y8743D01*
Y8664D01*
Y8585D01*
X8126Y8590D01*
X8144Y8603D01*
X8157Y8621D01*
X8159Y8625D01*
X8172D01*
X8174Y8621D01*
X8187Y8603D01*
X8205Y8590D01*
X8216Y8585D01*
Y8664D01*
Y8743D01*
D02*
G37*
G36*
X9584Y8661D02*
X9546D01*
Y8627D01*
X9584D01*
Y8661D01*
D02*
G37*
G36*
X9312D02*
X9274D01*
Y8627D01*
X9312D01*
Y8661D01*
D02*
G37*
G36*
X9722Y8677D02*
Y8630D01*
X9769D01*
X9765Y8641D01*
X9751Y8659D01*
X9733Y8672D01*
X9722Y8677D01*
D02*
G37*
G36*
X9658D02*
X9647Y8672D01*
X9629Y8659D01*
X9616Y8641D01*
X9611Y8630D01*
X9658D01*
Y8677D01*
D02*
G37*
G36*
X9739Y9423D02*
X9700D01*
Y9389D01*
X9739D01*
Y9423D01*
D02*
G37*
G36*
X9637D02*
X9598D01*
Y9389D01*
X9637D01*
Y9423D01*
D02*
G37*
G36*
X8162Y9445D02*
X8115D01*
Y9398D01*
X8126Y9403D01*
X8144Y9416D01*
X8157Y9434D01*
X8162Y9445D01*
D02*
G37*
G36*
X8051D02*
X8004D01*
X8008Y9434D01*
X8022Y9416D01*
X8040Y9403D01*
X8051Y9398D01*
Y9445D01*
D02*
G37*
G36*
X9124Y9423D02*
X9086D01*
Y9389D01*
X9124D01*
Y9423D01*
D02*
G37*
G36*
X10442Y9360D02*
X10395D01*
Y9312D01*
X10406Y9317D01*
X10424Y9331D01*
X10438Y9348D01*
X10442Y9360D01*
D02*
G37*
G36*
X9467Y9423D02*
X9428D01*
Y9389D01*
X9467D01*
Y9423D01*
D02*
G37*
G36*
X9396D02*
X9358D01*
Y9389D01*
X9396D01*
Y9423D01*
D02*
G37*
G36*
X8953Y9571D02*
X8879D01*
Y9427D01*
X8953D01*
Y9571D01*
D02*
G37*
G36*
X8816D02*
X8742D01*
Y9427D01*
X8816D01*
Y9571D01*
D02*
G37*
G36*
X10166Y9471D02*
X10155Y9466D01*
X10137Y9452D01*
X10124Y9434D01*
X10122Y9430D01*
X10109D01*
X10107Y9434D01*
X10094Y9452D01*
X10076Y9466D01*
X10065Y9471D01*
Y9391D01*
Y9312D01*
X10076Y9317D01*
X10094Y9331D01*
X10107Y9348D01*
X10109Y9353D01*
X10122D01*
X10124Y9348D01*
X10137Y9331D01*
X10155Y9317D01*
X10166Y9312D01*
Y9391D01*
Y9471D01*
D02*
G37*
G36*
X10001D02*
X9990Y9466D01*
X9972Y9452D01*
X9959Y9434D01*
X9957Y9430D01*
X9944D01*
X9942Y9434D01*
X9929Y9452D01*
X9911Y9466D01*
X9900Y9471D01*
Y9391D01*
Y9312D01*
X9911Y9317D01*
X9929Y9331D01*
X9942Y9348D01*
X9944Y9353D01*
X9957D01*
X9959Y9348D01*
X9972Y9331D01*
X9990Y9317D01*
X10001Y9312D01*
Y9391D01*
Y9471D01*
D02*
G37*
G36*
X10395D02*
Y9423D01*
X10442D01*
X10438Y9434D01*
X10424Y9452D01*
X10406Y9466D01*
X10395Y9471D01*
D02*
G37*
G36*
X9836D02*
X9825Y9466D01*
X9807Y9452D01*
X9793Y9434D01*
X9789Y9423D01*
X9836D01*
Y9471D01*
D02*
G37*
G36*
X8393Y9571D02*
X8319D01*
Y9427D01*
X8393D01*
Y9571D01*
D02*
G37*
G36*
X8256D02*
X8182D01*
Y9427D01*
X8256D01*
Y9571D01*
D02*
G37*
G36*
X8162Y9242D02*
X8115D01*
Y9195D01*
X8126Y9199D01*
X8144Y9213D01*
X8157Y9231D01*
X8162Y9242D01*
D02*
G37*
G36*
X8051D02*
X8004D01*
X8008Y9231D01*
X8022Y9213D01*
X8040Y9199D01*
X8051Y9195D01*
Y9242D01*
D02*
G37*
G36*
X8393Y9364D02*
X8319D01*
Y9220D01*
X8393D01*
Y9364D01*
D02*
G37*
G36*
X8256D02*
X8182D01*
Y9220D01*
X8256D01*
Y9364D01*
D02*
G37*
G36*
X8051Y9150D02*
X8040Y9145D01*
X8022Y9131D01*
X8008Y9114D01*
X8004Y9102D01*
X8051D01*
Y9150D01*
D02*
G37*
G36*
X9889Y9114D02*
X9778D01*
Y9008D01*
X9889D01*
Y9114D01*
D02*
G37*
G36*
X8216Y9150D02*
X8205Y9145D01*
X8187Y9131D01*
X8174Y9114D01*
X8172Y9109D01*
X8159D01*
X8157Y9114D01*
X8144Y9131D01*
X8126Y9145D01*
X8115Y9150D01*
Y9071D01*
Y8991D01*
X8126Y8996D01*
X8144Y9010D01*
X8157Y9028D01*
X8159Y9032D01*
X8172D01*
X8174Y9028D01*
X8187Y9010D01*
X8205Y8996D01*
X8216Y8991D01*
Y9071D01*
Y9150D01*
D02*
G37*
G36*
X8280D02*
Y9102D01*
X8327D01*
X8322Y9114D01*
X8309Y9131D01*
X8291Y9145D01*
X8280Y9150D01*
D02*
G37*
G36*
X8051Y9353D02*
X8040Y9348D01*
X8022Y9335D01*
X8008Y9317D01*
X8004Y9306D01*
X8051D01*
Y9353D01*
D02*
G37*
G36*
X9739Y9326D02*
X9700D01*
Y9292D01*
X9739D01*
Y9326D01*
D02*
G37*
G36*
X9836Y9360D02*
X9789D01*
X9793Y9348D01*
X9807Y9331D01*
X9825Y9317D01*
X9836Y9312D01*
Y9360D01*
D02*
G37*
G36*
X8115Y9353D02*
Y9306D01*
X8162D01*
X8157Y9317D01*
X8144Y9335D01*
X8126Y9348D01*
X8115Y9353D01*
D02*
G37*
G36*
X8953Y9364D02*
X8879D01*
Y9220D01*
X8953D01*
Y9364D01*
D02*
G37*
G36*
X8816D02*
X8742D01*
Y9220D01*
X8816D01*
Y9364D01*
D02*
G37*
G36*
X9637Y9326D02*
X9598D01*
Y9292D01*
X9637D01*
Y9326D01*
D02*
G37*
G36*
X9124D02*
X9086D01*
Y9292D01*
X9124D01*
Y9326D01*
D02*
G37*
G36*
X448Y12610D02*
X436D01*
X439Y12603D01*
X442Y12581D01*
X439Y12559D01*
X436Y12552D01*
X448D01*
X446Y12559D01*
X443Y12581D01*
X446Y12603D01*
X448Y12610D01*
D02*
G37*
G36*
X10069Y12568D02*
X9984D01*
Y12551D01*
X10069D01*
Y12568D01*
D02*
G37*
G36*
X387Y12660D02*
Y12613D01*
X435D01*
X430Y12624D01*
X416Y12642D01*
X399Y12655D01*
X387Y12660D01*
D02*
G37*
G36*
X324D02*
X313Y12655D01*
X295Y12642D01*
X281Y12624D01*
X276Y12613D01*
X324D01*
Y12660D01*
D02*
G37*
G36*
X9361Y12568D02*
X9276D01*
Y12551D01*
X9361D01*
Y12568D01*
D02*
G37*
G36*
X778Y12549D02*
X730D01*
Y12502D01*
X741Y12506D01*
X759Y12520D01*
X773Y12538D01*
X778Y12549D01*
D02*
G37*
G36*
X9920Y12568D02*
X9835D01*
Y12551D01*
X9920D01*
Y12568D01*
D02*
G37*
G36*
X9510D02*
X9425D01*
Y12551D01*
X9510D01*
Y12568D01*
D02*
G37*
G36*
X649Y12739D02*
X616D01*
Y12700D01*
X649D01*
Y12739D01*
D02*
G37*
G36*
X594D02*
X560D01*
Y12700D01*
X594D01*
Y12739D01*
D02*
G37*
G36*
X9654Y12996D02*
X9530D01*
Y12822D01*
X9654D01*
Y12996D01*
D02*
G37*
G36*
X746Y12739D02*
X713D01*
Y12700D01*
X746D01*
Y12739D01*
D02*
G37*
G36*
X730Y12660D02*
Y12613D01*
X778D01*
X773Y12624D01*
X759Y12642D01*
X741Y12655D01*
X730Y12660D01*
D02*
G37*
G36*
X497D02*
X486Y12655D01*
X468Y12642D01*
X454Y12624D01*
X449Y12613D01*
X497D01*
Y12660D01*
D02*
G37*
G36*
Y12739D02*
X463D01*
Y12700D01*
X497D01*
Y12739D01*
D02*
G37*
G36*
X667Y12660D02*
X656Y12655D01*
X638Y12642D01*
X624Y12624D01*
X620Y12614D01*
X607D01*
X603Y12624D01*
X589Y12642D01*
X572Y12655D01*
X560Y12660D01*
Y12581D01*
Y12502D01*
X572Y12506D01*
X589Y12520D01*
X603Y12538D01*
X607Y12548D01*
X620D01*
X624Y12538D01*
X638Y12520D01*
X656Y12506D01*
X667Y12502D01*
Y12581D01*
Y12660D01*
D02*
G37*
G36*
X8574Y12442D02*
X8361D01*
Y12368D01*
X8574D01*
Y12442D01*
D02*
G37*
G36*
X10069Y12314D02*
X9984D01*
Y12297D01*
X10069D01*
Y12314D01*
D02*
G37*
G36*
X10289Y12504D02*
X10230D01*
Y12456D01*
X10289D01*
Y12504D01*
D02*
G37*
G36*
X8851Y12442D02*
X8638D01*
Y12368D01*
X8851D01*
Y12442D01*
D02*
G37*
G36*
X10492Y12314D02*
X10433D01*
Y12266D01*
X10492D01*
Y12314D01*
D02*
G37*
G36*
X10411D02*
X10352D01*
Y12266D01*
X10411D01*
Y12314D01*
D02*
G37*
G36*
X9920Y12314D02*
X9835D01*
Y12297D01*
X9920D01*
Y12314D01*
D02*
G37*
G36*
X10614Y12314D02*
X10555D01*
Y12266D01*
X10614D01*
Y12314D01*
D02*
G37*
G36*
X324Y12549D02*
X276D01*
X281Y12538D01*
X295Y12520D01*
X313Y12506D01*
X324Y12502D01*
Y12549D01*
D02*
G37*
G36*
X10069Y12488D02*
X9984D01*
Y12471D01*
X10069D01*
Y12488D01*
D02*
G37*
G36*
X497Y12549D02*
X449D01*
X454Y12538D01*
X468Y12520D01*
X486Y12506D01*
X497Y12502D01*
Y12549D01*
D02*
G37*
G36*
X435D02*
X387D01*
Y12502D01*
X399Y12506D01*
X416Y12520D01*
X430Y12538D01*
X435Y12549D01*
D02*
G37*
G36*
X10492Y12504D02*
X10433D01*
Y12456D01*
X10492D01*
Y12504D01*
D02*
G37*
G36*
X10411D02*
X10352D01*
Y12456D01*
X10411D01*
Y12504D01*
D02*
G37*
G36*
X9920Y12488D02*
X9835D01*
Y12471D01*
X9920D01*
Y12488D01*
D02*
G37*
G36*
X10614Y12504D02*
X10555D01*
Y12456D01*
X10614D01*
Y12504D01*
D02*
G37*
G36*
X9840Y12996D02*
X9717D01*
Y12822D01*
X9840D01*
Y12996D01*
D02*
G37*
G36*
X10554Y13758D02*
X10431D01*
Y13584D01*
X10554D01*
Y13758D01*
D02*
G37*
G36*
X10367D02*
X10244D01*
Y13584D01*
X10367D01*
Y13758D01*
D02*
G37*
G36*
X8634Y13698D02*
X8426D01*
Y13615D01*
X8634D01*
Y13698D01*
D02*
G37*
G36*
X8362D02*
X8154D01*
Y13615D01*
X8362D01*
Y13698D01*
D02*
G37*
G36*
X8851Y13342D02*
X8638D01*
Y13268D01*
X8851D01*
Y13342D01*
D02*
G37*
G36*
X8574D02*
X8361D01*
Y13268D01*
X8574D01*
Y13342D01*
D02*
G37*
G36*
X9840Y13758D02*
X9717D01*
Y13584D01*
X9840D01*
Y13758D01*
D02*
G37*
G36*
X9654D02*
X9530D01*
Y13584D01*
X9654D01*
Y13758D01*
D02*
G37*
G36*
X10554Y13995D02*
X10431D01*
Y13821D01*
X10554D01*
Y13995D01*
D02*
G37*
G36*
X10367D02*
X10244D01*
Y13821D01*
X10367D01*
Y13995D01*
D02*
G37*
G36*
X9376Y14027D02*
X9303D01*
Y13963D01*
X9376D01*
Y14027D01*
D02*
G37*
G36*
X9239D02*
X9166D01*
Y13963D01*
X9239D01*
Y14027D01*
D02*
G37*
G36*
X8634Y13845D02*
X8426D01*
Y13762D01*
X8634D01*
Y13845D01*
D02*
G37*
G36*
X8362D02*
X8154D01*
Y13762D01*
X8362D01*
Y13845D01*
D02*
G37*
G36*
X9840Y13995D02*
X9717D01*
Y13821D01*
X9840D01*
Y13995D01*
D02*
G37*
G36*
X9654D02*
X9530D01*
Y13821D01*
X9654D01*
Y13995D01*
D02*
G37*
G36*
X10049Y12998D02*
X10001D01*
Y12951D01*
X10012Y12956D01*
X10030Y12969D01*
X10044Y12987D01*
X10049Y12998D01*
D02*
G37*
G36*
X9938D02*
X9890D01*
X9895Y12987D01*
X9909Y12969D01*
X9927Y12956D01*
X9938Y12951D01*
Y12998D01*
D02*
G37*
G36*
X9840Y13233D02*
X9717D01*
Y13059D01*
X9840D01*
Y13233D01*
D02*
G37*
G36*
X9654D02*
X9530D01*
Y13059D01*
X9654D01*
Y13233D01*
D02*
G37*
G36*
X10554Y12996D02*
X10431D01*
Y12822D01*
X10554D01*
Y12996D01*
D02*
G37*
G36*
X10367D02*
X10244D01*
Y12822D01*
X10367D01*
Y12996D01*
D02*
G37*
G36*
X9433Y12901D02*
X9374D01*
Y12852D01*
X9433D01*
Y12901D01*
D02*
G37*
G36*
X9311D02*
X9252D01*
Y12852D01*
X9311D01*
Y12901D01*
D02*
G37*
G36*
X8851Y13205D02*
X8638D01*
Y13131D01*
X8851D01*
Y13205D01*
D02*
G37*
G36*
X8574D02*
X8361D01*
Y13131D01*
X8574D01*
Y13205D01*
D02*
G37*
G36*
X9433Y13203D02*
X9374D01*
Y13154D01*
X9433D01*
Y13203D01*
D02*
G37*
G36*
X9311D02*
X9252D01*
Y13154D01*
X9311D01*
Y13203D01*
D02*
G37*
G36*
X10554Y13233D02*
X10431D01*
Y13059D01*
X10554D01*
Y13233D01*
D02*
G37*
G36*
X10367D02*
X10244D01*
Y13059D01*
X10367D01*
Y13233D01*
D02*
G37*
G36*
X10001Y13109D02*
Y13062D01*
X10049D01*
X10044Y13073D01*
X10030Y13091D01*
X10012Y13105D01*
X10001Y13109D01*
D02*
G37*
G36*
X9938D02*
X9927Y13105D01*
X9909Y13091D01*
X9895Y13073D01*
X9890Y13062D01*
X9938D01*
Y13109D01*
D02*
G37*
G36*
X10289Y12314D02*
X10230D01*
Y12266D01*
X10289D01*
Y12314D01*
D02*
G37*
G36*
X10052Y11623D02*
Y11576D01*
X10099D01*
X10095Y11587D01*
X10081Y11605D01*
X10063Y11619D01*
X10052Y11623D01*
D02*
G37*
G36*
X9989D02*
X9977Y11619D01*
X9960Y11605D01*
X9946Y11587D01*
X9941Y11576D01*
X9989D01*
Y11623D01*
D02*
G37*
G36*
X8280Y11702D02*
Y11655D01*
X8327D01*
X8322Y11666D01*
X8309Y11684D01*
X8291Y11698D01*
X8280Y11702D01*
D02*
G37*
G36*
X8051D02*
X8040Y11698D01*
X8022Y11684D01*
X8008Y11666D01*
X8004Y11655D01*
X8051D01*
Y11702D01*
D02*
G37*
G36*
X9297Y11679D02*
X9186D01*
Y11573D01*
X9297D01*
Y11679D01*
D02*
G37*
G36*
X9122D02*
X9011D01*
Y11573D01*
X9122D01*
Y11679D01*
D02*
G37*
G36*
X9902D02*
X9791D01*
Y11573D01*
X9902D01*
Y11679D01*
D02*
G37*
G36*
X9727D02*
X9616D01*
Y11573D01*
X9727D01*
Y11679D01*
D02*
G37*
G36*
X8816Y11916D02*
X8742D01*
Y11773D01*
X8816D01*
Y11916D01*
D02*
G37*
G36*
X8393D02*
X8319D01*
Y11773D01*
X8393D01*
Y11916D01*
D02*
G37*
G36*
X9124Y11891D02*
X9086D01*
Y11857D01*
X9124D01*
Y11891D01*
D02*
G37*
G36*
X8953Y11916D02*
X8879D01*
Y11773D01*
X8953D01*
Y11916D01*
D02*
G37*
G36*
X8051Y11795D02*
X8004D01*
X8008Y11783D01*
X8022Y11766D01*
X8040Y11752D01*
X8051Y11747D01*
Y11795D01*
D02*
G37*
G36*
X8216Y11702D02*
X8205Y11698D01*
X8187Y11684D01*
X8174Y11666D01*
X8172Y11662D01*
X8159D01*
X8157Y11666D01*
X8144Y11684D01*
X8126Y11698D01*
X8115Y11702D01*
Y11623D01*
Y11544D01*
X8126Y11549D01*
X8144Y11562D01*
X8157Y11580D01*
X8159Y11584D01*
X8172D01*
X8174Y11580D01*
X8187Y11562D01*
X8205Y11549D01*
X8216Y11544D01*
Y11623D01*
Y11702D01*
D02*
G37*
G36*
X8256Y11916D02*
X8182D01*
Y11773D01*
X8256D01*
Y11916D01*
D02*
G37*
G36*
X8162Y11795D02*
X8115D01*
Y11747D01*
X8126Y11752D01*
X8144Y11766D01*
X8157Y11783D01*
X8162Y11795D01*
D02*
G37*
G36*
X9122Y11510D02*
X9011D01*
Y11404D01*
X9122D01*
Y11510D01*
D02*
G37*
G36*
X8327Y11388D02*
X8280D01*
Y11341D01*
X8291Y11346D01*
X8309Y11359D01*
X8322Y11377D01*
X8327Y11388D01*
D02*
G37*
G36*
X9727Y11510D02*
X9616D01*
Y11404D01*
X9727D01*
Y11510D01*
D02*
G37*
G36*
X9297D02*
X9186D01*
Y11404D01*
X9297D01*
Y11510D01*
D02*
G37*
G36*
X8280Y11296D02*
Y11249D01*
X8327D01*
X8322Y11260D01*
X8309Y11278D01*
X8291Y11291D01*
X8280Y11296D01*
D02*
G37*
G36*
X8051D02*
X8040Y11291D01*
X8022Y11278D01*
X8008Y11260D01*
X8004Y11249D01*
X8051D01*
Y11296D01*
D02*
G37*
G36*
Y11388D02*
X8004D01*
X8008Y11377D01*
X8022Y11359D01*
X8040Y11346D01*
X8051Y11341D01*
Y11388D01*
D02*
G37*
G36*
X8216Y11296D02*
X8205Y11291D01*
X8187Y11278D01*
X8174Y11260D01*
X8172Y11256D01*
X8159D01*
X8157Y11260D01*
X8144Y11278D01*
X8126Y11291D01*
X8115Y11296D01*
Y11217D01*
Y11138D01*
X8126Y11142D01*
X8144Y11156D01*
X8157Y11174D01*
X8159Y11178D01*
X8172D01*
X8174Y11174D01*
X8187Y11156D01*
X8205Y11142D01*
X8216Y11138D01*
Y11217D01*
Y11296D01*
D02*
G37*
G36*
X10099Y11513D02*
X10052D01*
Y11465D01*
X10063Y11470D01*
X10081Y11484D01*
X10095Y11501D01*
X10099Y11513D01*
D02*
G37*
G36*
X9989D02*
X9941D01*
X9946Y11501D01*
X9960Y11484D01*
X9977Y11470D01*
X9989Y11465D01*
Y11513D01*
D02*
G37*
G36*
X8327Y11592D02*
X8280D01*
Y11544D01*
X8291Y11549D01*
X8309Y11562D01*
X8322Y11580D01*
X8327Y11592D01*
D02*
G37*
G36*
X8051D02*
X8004D01*
X8008Y11580D01*
X8022Y11562D01*
X8040Y11549D01*
X8051Y11544D01*
Y11592D01*
D02*
G37*
G36*
Y11499D02*
X8040Y11495D01*
X8022Y11481D01*
X8008Y11463D01*
X8004Y11452D01*
X8051D01*
Y11499D01*
D02*
G37*
G36*
X9902Y11510D02*
X9791D01*
Y11404D01*
X9902D01*
Y11510D01*
D02*
G37*
G36*
X8216Y11499D02*
X8205Y11495D01*
X8187Y11481D01*
X8174Y11463D01*
X8172Y11459D01*
X8159D01*
X8157Y11463D01*
X8144Y11481D01*
X8126Y11495D01*
X8115Y11499D01*
Y11420D01*
Y11341D01*
X8126Y11346D01*
X8144Y11359D01*
X8157Y11377D01*
X8159Y11381D01*
X8172D01*
X8174Y11377D01*
X8187Y11359D01*
X8205Y11346D01*
X8216Y11341D01*
Y11420D01*
Y11499D01*
D02*
G37*
G36*
X8280D02*
Y11452D01*
X8327D01*
X8322Y11463D01*
X8309Y11481D01*
X8291Y11495D01*
X8280Y11499D01*
D02*
G37*
G36*
X9739Y11891D02*
X9700D01*
Y11857D01*
X9739D01*
Y11891D01*
D02*
G37*
G36*
X9361Y12107D02*
X9276D01*
Y12090D01*
X9361D01*
Y12107D01*
D02*
G37*
G36*
X8115Y12109D02*
Y12061D01*
X8162D01*
X8157Y12073D01*
X8144Y12090D01*
X8126Y12104D01*
X8115Y12109D01*
D02*
G37*
G36*
X10069Y12187D02*
X9835D01*
Y12090D01*
X10069D01*
Y12187D01*
D02*
G37*
G36*
X9510Y12107D02*
X9425D01*
Y12090D01*
X9510D01*
Y12107D01*
D02*
G37*
G36*
X10179Y12030D02*
X10168Y12025D01*
X10150Y12011D01*
X10136Y11994D01*
X10135Y11989D01*
X10122D01*
X10120Y11994D01*
X10106Y12011D01*
X10089Y12025D01*
X10077Y12030D01*
Y11951D01*
Y11872D01*
X10089Y11876D01*
X10106Y11890D01*
X10120Y11908D01*
X10122Y11912D01*
X10135D01*
X10136Y11908D01*
X10150Y11890D01*
X10168Y11876D01*
X10179Y11872D01*
Y11951D01*
Y12030D01*
D02*
G37*
G36*
X10014D02*
X10003Y12025D01*
X9985Y12011D01*
X9971Y11994D01*
X9969Y11989D01*
X9957D01*
X9955Y11994D01*
X9941Y12011D01*
X9924Y12025D01*
X9912Y12030D01*
Y11951D01*
Y11872D01*
X9924Y11876D01*
X9941Y11890D01*
X9955Y11908D01*
X9957Y11912D01*
X9969D01*
X9971Y11908D01*
X9985Y11890D01*
X10003Y11876D01*
X10014Y11872D01*
Y11951D01*
Y12030D01*
D02*
G37*
G36*
X8051Y12109D02*
X8040Y12104D01*
X8022Y12090D01*
X8008Y12073D01*
X8004Y12061D01*
X8051D01*
Y12109D01*
D02*
G37*
G36*
X10344Y12030D02*
X10333Y12025D01*
X10315Y12011D01*
X10301Y11994D01*
X10300Y11989D01*
X10287D01*
X10285Y11994D01*
X10272Y12011D01*
X10254Y12025D01*
X10243Y12030D01*
Y11951D01*
Y11872D01*
X10254Y11876D01*
X10272Y11890D01*
X10285Y11908D01*
X10287Y11912D01*
X10300D01*
X10301Y11908D01*
X10315Y11890D01*
X10333Y11876D01*
X10344Y11872D01*
Y11951D01*
Y12030D01*
D02*
G37*
G36*
X10069Y12234D02*
X9984D01*
Y12217D01*
X10069D01*
Y12234D01*
D02*
G37*
G36*
X9920D02*
X9835D01*
Y12217D01*
X9920D01*
Y12234D01*
D02*
G37*
G36*
X8851Y12305D02*
X8638D01*
Y12231D01*
X8851D01*
Y12305D01*
D02*
G37*
G36*
X8574D02*
X8361D01*
Y12231D01*
X8574D01*
Y12305D01*
D02*
G37*
G36*
X10411Y12202D02*
X10352D01*
Y12154D01*
X10411D01*
Y12202D01*
D02*
G37*
G36*
X10289D02*
X10230D01*
Y12154D01*
X10289D01*
Y12202D01*
D02*
G37*
G36*
X10614D02*
X10555D01*
Y12154D01*
X10614D01*
Y12202D01*
D02*
G37*
G36*
X10492D02*
X10433D01*
Y12154D01*
X10492D01*
Y12202D01*
D02*
G37*
G36*
X8162Y11998D02*
X8115D01*
Y11951D01*
X8126Y11955D01*
X8144Y11969D01*
X8157Y11987D01*
X8162Y11998D01*
D02*
G37*
G36*
X8051D02*
X8004D01*
X8008Y11987D01*
X8022Y11969D01*
X8040Y11955D01*
X8051Y11951D01*
Y11998D01*
D02*
G37*
G36*
X9396Y11988D02*
X9358D01*
Y11954D01*
X9396D01*
Y11988D01*
D02*
G37*
G36*
X9124D02*
X9086D01*
Y11954D01*
X9124D01*
Y11988D01*
D02*
G37*
G36*
X8115Y11906D02*
Y11858D01*
X8162D01*
X8157Y11869D01*
X8144Y11887D01*
X8126Y11901D01*
X8115Y11906D01*
D02*
G37*
G36*
X8051D02*
X8040Y11901D01*
X8022Y11887D01*
X8008Y11869D01*
X8004Y11858D01*
X8051D01*
Y11906D01*
D02*
G37*
G36*
X10455Y11919D02*
X10408D01*
Y11872D01*
X10419Y11876D01*
X10437Y11890D01*
X10450Y11908D01*
X10455Y11919D01*
D02*
G37*
G36*
X9849D02*
X9801D01*
X9806Y11908D01*
X9820Y11890D01*
X9838Y11876D01*
X9849Y11872D01*
Y11919D01*
D02*
G37*
G36*
X8953Y12123D02*
X8879D01*
Y11980D01*
X8953D01*
Y12123D01*
D02*
G37*
G36*
X8816D02*
X8742D01*
Y11980D01*
X8816D01*
Y12123D01*
D02*
G37*
G36*
X10408Y12030D02*
Y11982D01*
X10455D01*
X10450Y11994D01*
X10437Y12011D01*
X10419Y12025D01*
X10408Y12030D01*
D02*
G37*
G36*
X9849D02*
X9838Y12025D01*
X9820Y12011D01*
X9806Y11994D01*
X9801Y11982D01*
X9849D01*
Y12030D01*
D02*
G37*
G36*
X9739Y11988D02*
X9700D01*
Y11954D01*
X9739D01*
Y11988D01*
D02*
G37*
G36*
X9467D02*
X9428D01*
Y11954D01*
X9467D01*
Y11988D01*
D02*
G37*
G36*
X8393Y12123D02*
X8319D01*
Y11980D01*
X8393D01*
Y12123D01*
D02*
G37*
G36*
X8256D02*
X8182D01*
Y11980D01*
X8256D01*
Y12123D01*
D02*
G37*
%LPD*%
D10*
X863Y11836D02*
G03*
X863Y11836I-50J0D01*
G01*
X4114Y2946D02*
G03*
X4114Y2946I-50J0D01*
G01*
X8762Y5613D02*
G03*
X8762Y5613I-50J0D01*
G01*
X4317Y7569D02*
G03*
X4317Y7569I-50J0D01*
G01*
D11*
X2891Y9244D02*
G03*
X2891Y9295I0J25D01*
G01*
Y9244D02*
G03*
X2891Y9194I0J-25D01*
G01*
Y9143D02*
G03*
X2891Y9194I0J25D01*
G01*
Y9143D02*
G03*
X2891Y9092I0J-25D01*
G01*
Y9041D02*
G03*
X2891Y9092I0J25D01*
G01*
Y9041D02*
G03*
X2891Y8990I0J-25D01*
G01*
X3018Y9244D02*
G03*
X3018Y9194I0J-25D01*
G01*
Y9143D02*
G03*
X3018Y9194I0J25D01*
G01*
Y9143D02*
G03*
X3018Y9092I0J-25D01*
G01*
Y9041D02*
G03*
X3018Y9092I0J25D01*
G01*
Y9041D02*
G03*
X3018Y8990I0J-25D01*
G01*
X3145Y9143D02*
G03*
X3145Y9194I0J25D01*
G01*
Y9143D02*
G03*
X3145Y9092I0J-25D01*
G01*
Y9041D02*
G03*
X3145Y9092I0J25D01*
G01*
Y9041D02*
G03*
X3145Y8990I0J-25D01*
G01*
X2764Y9346D02*
G03*
X2764Y9295I0J-25D01*
G01*
Y9244D02*
G03*
X2764Y9295I0J25D01*
G01*
Y9244D02*
G03*
X2764Y9194I0J-25D01*
G01*
Y9143D02*
G03*
X2764Y9194I0J25D01*
G01*
Y9143D02*
G03*
X2764Y9092I0J-25D01*
G01*
Y9041D02*
G03*
X2764Y9092I0J25D01*
G01*
Y9041D02*
G03*
X2764Y8990I0J-25D01*
G01*
X2669Y9540D02*
G03*
X2669Y9489I0J-25D01*
G01*
Y9438D02*
G03*
X2669Y9489I0J25D01*
G01*
Y9438D02*
G03*
X2669Y9387I0J-25D01*
G01*
Y9336D02*
G03*
X2669Y9387I0J25D01*
G01*
Y9336D02*
G03*
X2669Y9286I0J-25D01*
G01*
Y9235D02*
G03*
X2669Y9286I0J25D01*
G01*
Y9235D02*
G03*
X2669Y9184I0J-25D01*
G01*
Y9133D02*
G03*
X2669Y9184I0J25D01*
G01*
Y9133D02*
G03*
X2669Y9082I0J-25D01*
G01*
Y9032D02*
G03*
X2669Y9082I0J25D01*
G01*
X2565Y9461D02*
G03*
X2565Y9512I0J25D01*
G01*
Y9461D02*
G03*
X2565Y9411I0J-25D01*
G01*
Y9360D02*
G03*
X2565Y9411I0J25D01*
G01*
Y9360D02*
G03*
X2565Y9309I0J-25D01*
G01*
Y9258D02*
G03*
X2565Y9309I0J25D01*
G01*
Y9258D02*
G03*
X2565Y9207I0J-25D01*
G01*
Y9157D02*
G03*
X2565Y9207I0J25D01*
G01*
Y9157D02*
G03*
X2565Y9106I0J-25D01*
G01*
Y9055D02*
G03*
X2565Y9106I0J25D01*
G01*
X2464Y9487D02*
G03*
X2464Y9538I0J25D01*
G01*
Y9487D02*
G03*
X2464Y9436I0J-25D01*
G01*
Y9385D02*
G03*
X2464Y9436I0J25D01*
G01*
Y9385D02*
G03*
X2464Y9335I0J-25D01*
G01*
Y9284D02*
G03*
X2464Y9335I0J25D01*
G01*
Y9284D02*
G03*
X2464Y9233I0J-25D01*
G01*
Y9182D02*
G03*
X2464Y9233I0J25D01*
G01*
Y9182D02*
G03*
X2464Y9131I0J-25D01*
G01*
Y9081D02*
G03*
X2464Y9131I0J25D01*
G01*
X2159Y9360D02*
G03*
X2159Y9309I0J-25D01*
G01*
Y9258D02*
G03*
X2159Y9309I0J25D01*
G01*
Y9258D02*
G03*
X2159Y9207I0J-25D01*
G01*
Y9157D02*
G03*
X2159Y9207I0J25D01*
G01*
X2369Y9468D02*
G03*
X2369Y9519I0J25D01*
G01*
Y9367D02*
G03*
X2369Y9418I0J25D01*
G01*
Y9367D02*
G03*
X2369Y9316I0J-25D01*
G01*
Y9164D02*
G03*
X2369Y9214I0J25D01*
G01*
Y9265D02*
G03*
X2369Y9316I0J25D01*
G01*
Y9265D02*
G03*
X2369Y9214I0J-25D01*
G01*
Y9164D02*
G03*
X2369Y9113I0J-25D01*
G01*
Y9468D02*
G03*
X2369Y9418I0J-25D01*
G01*
Y9570D02*
G03*
X2369Y9519I0J-25D01*
G01*
X2269Y9309D02*
G03*
X2269Y9360I0J25D01*
G01*
Y9411D02*
G03*
X2269Y9461I0J25D01*
G01*
Y9207D02*
G03*
X2269Y9258I0J25D01*
G01*
Y9309D02*
G03*
X2269Y9258I0J-25D01*
G01*
Y9411D02*
G03*
X2269Y9360I0J-25D01*
G01*
Y9207D02*
G03*
X2269Y9157I0J-25D01*
G01*
X1070Y10913D02*
G03*
X1034Y10877I-18J-18D01*
G01*
X855Y10697D02*
G03*
X891Y10733I18J18D01*
G01*
X448Y10989D02*
G03*
X413Y10954I-18J-18D01*
G01*
X305Y10846D02*
G03*
X341Y10882I18J18D01*
G01*
X872Y11273D02*
G03*
X908Y11309I18J18D01*
G01*
X800Y11201D02*
G03*
X764Y11165I-18J-18D01*
G01*
X656Y11057D02*
G03*
X692Y11093I18J18D01*
G01*
X513Y10914D02*
G03*
X477Y10878I-18J-18D01*
G01*
X369Y10770D02*
G03*
X405Y10806I18J18D01*
G01*
X870Y11132D02*
G03*
X906Y11167I18J18D01*
G01*
X798Y11060D02*
G03*
X762Y11024I-18J-18D01*
G01*
X654Y10916D02*
G03*
X690Y10952I18J18D01*
G01*
X511Y10772D02*
G03*
X475Y10736I-18J-18D01*
G01*
X305Y10846D02*
G03*
X269Y10810I-18J-18D01*
G01*
X377Y10918D02*
G03*
X341Y10882I-18J-18D01*
G01*
X377Y10918D02*
G03*
X413Y10954I18J18D01*
G01*
X448Y10989D02*
G03*
X484Y11025I18J18D01*
G01*
X520Y11061D02*
G03*
X484Y11025I-18J-18D01*
G01*
X520Y11061D02*
G03*
X556Y11097I18J18D01*
G01*
X592Y11133D02*
G03*
X556Y11097I-18J-18D01*
G01*
X369Y10770D02*
G03*
X333Y10734I-18J-18D01*
G01*
X441Y10842D02*
G03*
X405Y10806I-18J-18D01*
G01*
X441Y10842D02*
G03*
X477Y10878I18J18D01*
G01*
X513Y10914D02*
G03*
X548Y10950I18J18D01*
G01*
X584Y10986D02*
G03*
X548Y10950I-18J-18D01*
G01*
X584Y10986D02*
G03*
X620Y11022I18J18D01*
G01*
X656Y11057D02*
G03*
X620Y11022I-18J-18D01*
G01*
X728Y11129D02*
G03*
X692Y11093I-18J-18D01*
G01*
X728Y11129D02*
G03*
X764Y11165I18J18D01*
G01*
X800Y11201D02*
G03*
X836Y11237I18J18D01*
G01*
X872Y11273D02*
G03*
X836Y11237I-18J-18D01*
G01*
X944Y11345D02*
G03*
X908Y11309I-18J-18D01*
G01*
X944Y11345D02*
G03*
X979Y11381I18J18D01*
G01*
X367Y10629D02*
G03*
X403Y10665I18J18D01*
G01*
X439Y10700D02*
G03*
X403Y10665I-18J-18D01*
G01*
X439Y10700D02*
G03*
X475Y10736I18J18D01*
G01*
X511Y10772D02*
G03*
X547Y10808I18J18D01*
G01*
X583Y10844D02*
G03*
X547Y10808I-18J-18D01*
G01*
X583Y10844D02*
G03*
X618Y10880I18J18D01*
G01*
X654Y10916D02*
G03*
X618Y10880I-18J-18D01*
G01*
X726Y10988D02*
G03*
X690Y10952I-18J-18D01*
G01*
X726Y10988D02*
G03*
X762Y11024I18J18D01*
G01*
X798Y11060D02*
G03*
X834Y11096I18J18D01*
G01*
X870Y11132D02*
G03*
X834Y11096I-18J-18D01*
G01*
X942Y11203D02*
G03*
X906Y11167I-18J-18D01*
G01*
X942Y11203D02*
G03*
X978Y11239I18J18D01*
G01*
X1014Y11275D02*
G03*
X978Y11239I-18J-18D01*
G01*
X1224Y11333D02*
G03*
X1275Y11333I25J0D01*
G01*
X1123D02*
G03*
X1173Y11333I25J0D01*
G01*
X1326D02*
G03*
X1377Y11333I25J0D01*
G01*
X1427D02*
G03*
X1478Y11333I25J0D01*
G01*
X1224D02*
G03*
X1173Y11333I-25J0D01*
G01*
X1427D02*
G03*
X1377Y11333I-25J0D01*
G01*
X1326D02*
G03*
X1275Y11333I-25J0D01*
G01*
X1529D02*
G03*
X1580Y11333I25J0D01*
G01*
X1529D02*
G03*
X1478Y11333I-25J0D01*
G01*
X1631D02*
G03*
X1580Y11333I-25J0D01*
G01*
X1638Y5815D02*
G03*
X1638Y5764I0J-25D01*
G01*
Y5612D02*
G03*
X1638Y5561I0J-25D01*
G01*
Y5713D02*
G03*
X1638Y5663I0J-25D01*
G01*
Y6323D02*
G03*
X1638Y6272I0J-25D01*
G01*
Y5917D02*
G03*
X1638Y5866I0J-25D01*
G01*
Y6018D02*
G03*
X1638Y5967I0J-25D01*
G01*
Y6120D02*
G03*
X1638Y6069I0J-25D01*
G01*
Y5612D02*
G03*
X1638Y5663I0J25D01*
G01*
Y5815D02*
G03*
X1638Y5866I0J25D01*
G01*
Y6526D02*
G03*
X1638Y6475I0J-25D01*
G01*
Y6221D02*
G03*
X1638Y6171I0J-25D01*
G01*
Y6425D02*
G03*
X1638Y6374I0J-25D01*
G01*
Y6933D02*
G03*
X1638Y6882I0J-25D01*
G01*
Y6628D02*
G03*
X1638Y6577I0J-25D01*
G01*
Y6831D02*
G03*
X1638Y6780I0J-25D01*
G01*
Y7034D02*
G03*
X1638Y6983I0J-25D01*
G01*
Y7237D02*
G03*
X1638Y7187I0J-25D01*
G01*
Y6729D02*
G03*
X1638Y6679I0J-25D01*
G01*
Y7136D02*
G03*
X1638Y7085I0J-25D01*
G01*
Y7339D02*
G03*
X1638Y7288I0J-25D01*
G01*
Y5917D02*
G03*
X1638Y5967I0J25D01*
G01*
Y5713D02*
G03*
X1638Y5764I0J25D01*
G01*
Y6425D02*
G03*
X1638Y6475I0J25D01*
G01*
Y6018D02*
G03*
X1638Y6069I0J25D01*
G01*
Y6120D02*
G03*
X1638Y6171I0J25D01*
G01*
Y6526D02*
G03*
X1638Y6577I0J25D01*
G01*
Y6221D02*
G03*
X1638Y6272I0J25D01*
G01*
Y6323D02*
G03*
X1638Y6374I0J25D01*
G01*
Y6831D02*
G03*
X1638Y6882I0J25D01*
G01*
Y6628D02*
G03*
X1638Y6679I0J25D01*
G01*
Y6729D02*
G03*
X1638Y6780I0J25D01*
G01*
Y6933D02*
G03*
X1638Y6983I0J25D01*
G01*
Y7034D02*
G03*
X1638Y7085I0J25D01*
G01*
Y7339D02*
G03*
X1638Y7390I0J25D01*
G01*
Y7136D02*
G03*
X1638Y7187I0J25D01*
G01*
Y7237D02*
G03*
X1638Y7288I0J25D01*
G01*
X1753Y7239D02*
G03*
X1753Y7188I0J-25D01*
G01*
X597Y9398D02*
G03*
X597Y9347I0J-25D01*
G01*
Y9500D02*
G03*
X597Y9449I0J-25D01*
G01*
Y9601D02*
G03*
X597Y9550I0J-25D01*
G01*
Y9398D02*
G03*
X597Y9449I0J25D01*
G01*
Y9601D02*
G03*
X597Y9652I0J25D01*
G01*
X1867Y6629D02*
G03*
X1867Y6579I0J-25D01*
G01*
Y6731D02*
G03*
X1867Y6680I0J-25D01*
G01*
Y5817D02*
G03*
X1867Y5766I0J-25D01*
G01*
Y6426D02*
G03*
X1867Y6375I0J-25D01*
G01*
X597Y9500D02*
G03*
X597Y9550I0J25D01*
G01*
X1867Y7036D02*
G03*
X1867Y6985I0J-25D01*
G01*
X597Y9296D02*
G03*
X597Y9347I0J25D01*
G01*
X1867Y7137D02*
G03*
X1867Y7087I0J-25D01*
G01*
X597Y9906D02*
G03*
X597Y9855I0J-25D01*
G01*
Y10008D02*
G03*
X597Y9957I0J-25D01*
G01*
Y9703D02*
G03*
X597Y9652I0J-25D01*
G01*
Y9804D02*
G03*
X597Y9754I0J-25D01*
G01*
Y10109D02*
G03*
X597Y10058I0J-25D01*
G01*
Y10211D02*
G03*
X597Y10160I0J-25D01*
G01*
Y10312D02*
G03*
X597Y10262I0J-25D01*
G01*
Y9906D02*
G03*
X597Y9957I0J25D01*
G01*
Y10008D02*
G03*
X597Y10058I0J25D01*
G01*
Y9703D02*
G03*
X597Y9754I0J25D01*
G01*
Y9804D02*
G03*
X597Y9855I0J25D01*
G01*
Y10211D02*
G03*
X597Y10262I0J25D01*
G01*
Y10109D02*
G03*
X597Y10160I0J25D01*
G01*
X1867Y5613D02*
G03*
X1867Y5563I0J-25D01*
G01*
Y5715D02*
G03*
X1867Y5664I0J-25D01*
G01*
Y5715D02*
G03*
X1867Y5766I0J25D01*
G01*
Y6121D02*
G03*
X1867Y6071I0J-25D01*
G01*
Y6223D02*
G03*
X1867Y6172I0J-25D01*
G01*
Y5918D02*
G03*
X1867Y5867I0J-25D01*
G01*
Y6020D02*
G03*
X1867Y5969I0J-25D01*
G01*
Y5613D02*
G03*
X1867Y5664I0J25D01*
G01*
Y6121D02*
G03*
X1867Y6172I0J25D01*
G01*
Y6223D02*
G03*
X1867Y6274I0J25D01*
G01*
Y5817D02*
G03*
X1867Y5867I0J25D01*
G01*
Y6020D02*
G03*
X1867Y6071I0J25D01*
G01*
Y5918D02*
G03*
X1867Y5969I0J25D01*
G01*
Y6325D02*
G03*
X1867Y6274I0J-25D01*
G01*
Y6528D02*
G03*
X1867Y6477I0J-25D01*
G01*
Y6528D02*
G03*
X1867Y6579I0J25D01*
G01*
Y6629D02*
G03*
X1867Y6680I0J25D01*
G01*
Y6833D02*
G03*
X1867Y6782I0J-25D01*
G01*
Y6934D02*
G03*
X1867Y6883I0J-25D01*
G01*
Y7239D02*
G03*
X1867Y7188I0J-25D01*
G01*
Y7341D02*
G03*
X1867Y7290I0J-25D01*
G01*
Y6731D02*
G03*
X1867Y6782I0J25D01*
G01*
Y6833D02*
G03*
X1867Y6883I0J25D01*
G01*
Y6325D02*
G03*
X1867Y6375I0J25D01*
G01*
Y6426D02*
G03*
X1867Y6477I0J25D01*
G01*
Y7239D02*
G03*
X1867Y7290I0J25D01*
G01*
Y7341D02*
G03*
X1867Y7391I0J25D01*
G01*
Y6934D02*
G03*
X1867Y6985I0J25D01*
G01*
Y7137D02*
G03*
X1867Y7188I0J25D01*
G01*
Y7036D02*
G03*
X1867Y7087I0J25D01*
G01*
X711Y9500D02*
G03*
X711Y9449I0J-25D01*
G01*
Y9398D02*
G03*
X711Y9347I0J-25D01*
G01*
Y10008D02*
G03*
X711Y9957I0J-25D01*
G01*
Y10109D02*
G03*
X711Y10058I0J-25D01*
G01*
Y9601D02*
G03*
X711Y9550I0J-25D01*
G01*
Y9804D02*
G03*
X711Y9754I0J-25D01*
G01*
Y9703D02*
G03*
X711Y9652I0J-25D01*
G01*
Y9296D02*
G03*
X711Y9347I0J25D01*
G01*
Y9398D02*
G03*
X711Y9449I0J25D01*
G01*
Y9601D02*
G03*
X711Y9652I0J25D01*
G01*
Y9500D02*
G03*
X711Y9550I0J25D01*
G01*
Y9804D02*
G03*
X711Y9855I0J25D01*
G01*
Y9906D02*
G03*
X711Y9855I0J-25D01*
G01*
Y9703D02*
G03*
X711Y9754I0J25D01*
G01*
Y10008D02*
G03*
X711Y10058I0J25D01*
G01*
Y9906D02*
G03*
X711Y9957I0J25D01*
G01*
Y10211D02*
G03*
X711Y10160I0J-25D01*
G01*
Y10312D02*
G03*
X711Y10262I0J-25D01*
G01*
Y10109D02*
G03*
X711Y10160I0J25D01*
G01*
Y10312D02*
G03*
X711Y10363I0J25D01*
G01*
Y10211D02*
G03*
X711Y10262I0J25D01*
G01*
Y10414D02*
G03*
X711Y10363I0J-25D01*
G01*
Y10414D02*
G03*
X711Y10465I0J25D01*
G01*
X783Y10626D02*
G03*
X747Y10590I-18J-18D01*
G01*
X783Y10626D02*
G03*
X819Y10661I18J18D01*
G01*
X855Y10697D02*
G03*
X819Y10661I-18J-18D01*
G01*
X927Y10769D02*
G03*
X891Y10733I-18J-18D01*
G01*
X927Y10769D02*
G03*
X963Y10805I18J18D01*
G01*
X999Y10841D02*
G03*
X963Y10805I-18J-18D01*
G01*
X999Y10841D02*
G03*
X1034Y10877I18J18D01*
G01*
X1070Y10913D02*
G03*
X1106Y10949I18J18D01*
G01*
X1142Y10985D02*
G03*
X1106Y10949I-18J-18D01*
G01*
X1981Y5918D02*
G03*
X1981Y5867I0J-25D01*
G01*
Y6020D02*
G03*
X1981Y5969I0J-25D01*
G01*
Y5817D02*
G03*
X1981Y5766I0J-25D01*
G01*
Y5715D02*
G03*
X1981Y5766I0J25D01*
G01*
Y6426D02*
G03*
X1981Y6375I0J-25D01*
G01*
Y6528D02*
G03*
X1981Y6477I0J-25D01*
G01*
Y6121D02*
G03*
X1981Y6071I0J-25D01*
G01*
Y6325D02*
G03*
X1981Y6274I0J-25D01*
G01*
Y6223D02*
G03*
X1981Y6172I0J-25D01*
G01*
Y5817D02*
G03*
X1981Y5867I0J25D01*
G01*
Y5918D02*
G03*
X1981Y5969I0J25D01*
G01*
Y6325D02*
G03*
X1981Y6375I0J25D01*
G01*
Y6426D02*
G03*
X1981Y6477I0J25D01*
G01*
Y6020D02*
G03*
X1981Y6071I0J25D01*
G01*
Y6223D02*
G03*
X1981Y6274I0J25D01*
G01*
Y6121D02*
G03*
X1981Y6172I0J25D01*
G01*
Y7036D02*
G03*
X1981Y6985I0J-25D01*
G01*
Y7137D02*
G03*
X1981Y7087I0J-25D01*
G01*
Y6731D02*
G03*
X1981Y6680I0J-25D01*
G01*
Y6934D02*
G03*
X1981Y6883I0J-25D01*
G01*
Y6833D02*
G03*
X1981Y6782I0J-25D01*
G01*
X1142Y10985D02*
G03*
X1178Y11021I18J18D01*
G01*
X1981Y7239D02*
G03*
X1981Y7188I0J-25D01*
G01*
Y6528D02*
G03*
X1981Y6579I0J25D01*
G01*
Y6629D02*
G03*
X1981Y6579I0J-25D01*
G01*
Y6629D02*
G03*
X1981Y6680I0J25D01*
G01*
Y6833D02*
G03*
X1981Y6883I0J25D01*
G01*
Y6731D02*
G03*
X1981Y6782I0J25D01*
G01*
Y6934D02*
G03*
X1981Y6985I0J25D01*
G01*
Y7341D02*
G03*
X1981Y7290I0J-25D01*
G01*
Y7036D02*
G03*
X1981Y7087I0J25D01*
G01*
Y7137D02*
G03*
X1981Y7188I0J25D01*
G01*
Y7239D02*
G03*
X1981Y7290I0J25D01*
G01*
X2565Y6883D02*
G03*
X2616Y6883I25J0D01*
G01*
X2565D02*
G03*
X2515Y6883I-25J0D01*
G01*
X2667D02*
G03*
X2718Y6883I25J0D01*
G01*
X2769D02*
G03*
X2819Y6883I25J0D01*
G01*
X2769D02*
G03*
X2718Y6883I-25J0D01*
G01*
X2870D02*
G03*
X2921Y6883I25J0D01*
G01*
X2870D02*
G03*
X2819Y6883I-25J0D01*
G01*
X2667D02*
G03*
X2616Y6883I-25J0D01*
G01*
X3175D02*
G03*
X3226Y6883I25J0D01*
G01*
X3277D02*
G03*
X3327Y6883I25J0D01*
G01*
X2972D02*
G03*
X3023Y6883I25J0D01*
G01*
X3073D02*
G03*
X3124Y6883I25J0D01*
G01*
X3175D02*
G03*
X3124Y6883I-25J0D01*
G01*
X3277D02*
G03*
X3226Y6883I-25J0D01*
G01*
X2972D02*
G03*
X2921Y6883I-25J0D01*
G01*
X3073D02*
G03*
X3023Y6883I-25J0D01*
G01*
X3378D02*
G03*
X3429Y6883I25J0D01*
G01*
X3480D02*
G03*
X3531Y6883I25J0D01*
G01*
X3378D02*
G03*
X3327Y6883I-25J0D01*
G01*
X3480D02*
G03*
X3429Y6883I-25J0D01*
G01*
X2565Y6998D02*
G03*
X2616Y6998I25J0D01*
G01*
X2667D02*
G03*
X2718Y6998I25J0D01*
G01*
X2769D02*
G03*
X2819Y6998I25J0D01*
G01*
X2870D02*
G03*
X2921Y6998I25J0D01*
G01*
X2769D02*
G03*
X2718Y6998I-25J0D01*
G01*
X2870D02*
G03*
X2819Y6998I-25J0D01*
G01*
X2667D02*
G03*
X2616Y6998I-25J0D01*
G01*
X3175D02*
G03*
X3226Y6998I25J0D01*
G01*
X3277D02*
G03*
X3327Y6998I25J0D01*
G01*
X2972D02*
G03*
X3023Y6998I25J0D01*
G01*
X3073D02*
G03*
X3124Y6998I25J0D01*
G01*
X3175D02*
G03*
X3124Y6998I-25J0D01*
G01*
X3277D02*
G03*
X3226Y6998I-25J0D01*
G01*
X2972D02*
G03*
X2921Y6998I-25J0D01*
G01*
X3073D02*
G03*
X3023Y6998I-25J0D01*
G01*
X3378D02*
G03*
X3429Y6998I25J0D01*
G01*
X3480D02*
G03*
X3531Y6998I25J0D01*
G01*
X3378D02*
G03*
X3327Y6998I-25J0D01*
G01*
X3480D02*
G03*
X3429Y6998I-25J0D01*
G01*
X2565Y7112D02*
G03*
X2616Y7112I25J0D01*
G01*
X2667D02*
G03*
X2718Y7112I25J0D01*
G01*
X2769D02*
G03*
X2819Y7112I25J0D01*
G01*
X2870D02*
G03*
X2921Y7112I25J0D01*
G01*
X2769D02*
G03*
X2718Y7112I-25J0D01*
G01*
X2870D02*
G03*
X2819Y7112I-25J0D01*
G01*
X2667D02*
G03*
X2616Y7112I-25J0D01*
G01*
X3378D02*
G03*
X3429Y7112I25J0D01*
G01*
X3073D02*
G03*
X3124Y7112I25J0D01*
G01*
X3277D02*
G03*
X3327Y7112I25J0D01*
G01*
X2972D02*
G03*
X2921Y7112I-25J0D01*
G01*
X2972D02*
G03*
X3023Y7112I25J0D01*
G01*
X3073D02*
G03*
X3023Y7112I-25J0D01*
G01*
X3175D02*
G03*
X3124Y7112I-25J0D01*
G01*
X3175D02*
G03*
X3226Y7112I25J0D01*
G01*
X3277D02*
G03*
X3226Y7112I-25J0D01*
G01*
X3480D02*
G03*
X3429Y7112I-25J0D01*
G01*
X3378D02*
G03*
X3327Y7112I-25J0D01*
G01*
X2667Y7226D02*
G03*
X2616Y7226I-25J0D01*
G01*
X2667D02*
G03*
X2718Y7226I25J0D01*
G01*
X2769D02*
G03*
X2819Y7226I25J0D01*
G01*
X2870D02*
G03*
X2921Y7226I25J0D01*
G01*
X2972D02*
G03*
X2921Y7226I-25J0D01*
G01*
X2769D02*
G03*
X2718Y7226I-25J0D01*
G01*
X2870D02*
G03*
X2819Y7226I-25J0D01*
G01*
X3277D02*
G03*
X3327Y7226I25J0D01*
G01*
X2972D02*
G03*
X3023Y7226I25J0D01*
G01*
X3175D02*
G03*
X3226Y7226I25J0D01*
G01*
X3073D02*
G03*
X3023Y7226I-25J0D01*
G01*
X3073D02*
G03*
X3124Y7226I25J0D01*
G01*
X3175D02*
G03*
X3124Y7226I-25J0D01*
G01*
X3277D02*
G03*
X3226Y7226I-25J0D01*
G01*
X3378D02*
G03*
X3429Y7226I25J0D01*
G01*
X3378D02*
G03*
X3327Y7226I-25J0D01*
G01*
X3480D02*
G03*
X3429Y7226I-25J0D01*
G01*
X2667Y7341D02*
G03*
X2718Y7341I25J0D01*
G01*
X2769D02*
G03*
X2819Y7341I25J0D01*
G01*
X2870D02*
G03*
X2921Y7341I25J0D01*
G01*
X2870D02*
G03*
X2819Y7341I-25J0D01*
G01*
X2972D02*
G03*
X2921Y7341I-25J0D01*
G01*
X2769D02*
G03*
X2718Y7341I-25J0D01*
G01*
X3073D02*
G03*
X3124Y7341I25J0D01*
G01*
X3175D02*
G03*
X3226Y7341I25J0D01*
G01*
X2972D02*
G03*
X3023Y7341I25J0D01*
G01*
X3073D02*
G03*
X3023Y7341I-25J0D01*
G01*
X3175D02*
G03*
X3124Y7341I-25J0D01*
G01*
X3277D02*
G03*
X3327Y7341I25J0D01*
G01*
X3277D02*
G03*
X3226Y7341I-25J0D01*
G01*
X3378D02*
G03*
X3327Y7341I-25J0D01*
G01*
X2769Y7455D02*
G03*
X2718Y7455I-25J0D01*
G01*
X2769D02*
G03*
X2819Y7455I25J0D01*
G01*
X2870D02*
G03*
X2921Y7455I25J0D01*
G01*
X2972D02*
G03*
X2921Y7455I-25J0D01*
G01*
X2870D02*
G03*
X2819Y7455I-25J0D01*
G01*
X3175D02*
G03*
X3226Y7455I25J0D01*
G01*
X2972D02*
G03*
X3023Y7455I25J0D01*
G01*
X3073D02*
G03*
X3023Y7455I-25J0D01*
G01*
X3073D02*
G03*
X3124Y7455I25J0D01*
G01*
X3277D02*
G03*
X3327Y7455I25J0D01*
G01*
X3175D02*
G03*
X3124Y7455I-25J0D01*
G01*
X3277D02*
G03*
X3226Y7455I-25J0D01*
G01*
X2769Y7569D02*
G03*
X2820Y7569I25J0D01*
G01*
X2870D02*
G03*
X2921Y7569I25J0D01*
G01*
X2870D02*
G03*
X2820Y7569I-25J0D01*
G01*
X2972D02*
G03*
X2921Y7569I-25J0D01*
G01*
X3175D02*
G03*
X3226Y7569I25J0D01*
G01*
X2972D02*
G03*
X3023Y7569I25J0D01*
G01*
X3074D02*
G03*
X3023Y7569I-25J0D01*
G01*
X3074D02*
G03*
X3124Y7569I25J0D01*
G01*
X3175D02*
G03*
X3124Y7569I-25J0D01*
G01*
X3277D02*
G03*
X3226Y7569I-25J0D01*
G01*
X2858Y7683D02*
G03*
X2908Y7683I25J0D01*
G01*
X2858D02*
G03*
X2807Y7683I-25J0D01*
G01*
X2959D02*
G03*
X2908Y7683I-25J0D01*
G01*
X2959D02*
G03*
X3010Y7683I25J0D01*
G01*
X3061D02*
G03*
X3010Y7683I-25J0D01*
G01*
X3061D02*
G03*
X3111Y7683I25J0D01*
G01*
X3162D02*
G03*
X3111Y7683I-25J0D01*
G01*
X3162D02*
G03*
X3213Y7683I25J0D01*
G01*
X1753Y7239D02*
G03*
X1753Y7290I0J25D01*
G01*
Y7137D02*
G03*
X1753Y7188I0J25D01*
G01*
Y7341D02*
G03*
X1753Y7391I0J25D01*
G01*
Y6833D02*
G03*
X1753Y6883I0J25D01*
G01*
Y6528D02*
G03*
X1753Y6579I0J25D01*
G01*
Y7036D02*
G03*
X1753Y7087I0J25D01*
G01*
Y6934D02*
G03*
X1753Y6985I0J25D01*
G01*
Y6731D02*
G03*
X1753Y6782I0J25D01*
G01*
Y6731D02*
G03*
X1753Y6680I0J-25D01*
G01*
Y6629D02*
G03*
X1753Y6680I0J25D01*
G01*
Y6426D02*
G03*
X1753Y6477I0J25D01*
G01*
Y6325D02*
G03*
X1753Y6375I0J25D01*
G01*
Y6629D02*
G03*
X1753Y6579I0J-25D01*
G01*
Y6020D02*
G03*
X1753Y6071I0J25D01*
G01*
Y5918D02*
G03*
X1753Y5969I0J25D01*
G01*
Y6223D02*
G03*
X1753Y6274I0J25D01*
G01*
Y6121D02*
G03*
X1753Y6172I0J25D01*
G01*
Y5817D02*
G03*
X1753Y5867I0J25D01*
G01*
Y6020D02*
G03*
X1753Y5969I0J-25D01*
G01*
Y5715D02*
G03*
X1753Y5766I0J25D01*
G01*
Y6223D02*
G03*
X1753Y6172I0J-25D01*
G01*
Y6121D02*
G03*
X1753Y6071I0J-25D01*
G01*
Y5613D02*
G03*
X1753Y5664I0J25D01*
G01*
Y5715D02*
G03*
X1753Y5664I0J-25D01*
G01*
X483Y9500D02*
G03*
X483Y9550I0J25D01*
G01*
Y9398D02*
G03*
X483Y9449I0J25D01*
G01*
Y9703D02*
G03*
X483Y9754I0J25D01*
G01*
Y9601D02*
G03*
X483Y9652I0J25D01*
G01*
Y9804D02*
G03*
X483Y9754I0J-25D01*
G01*
Y9703D02*
G03*
X483Y9652I0J-25D01*
G01*
Y9601D02*
G03*
X483Y9550I0J-25D01*
G01*
Y9398D02*
G03*
X483Y9347I0J-25D01*
G01*
Y9296D02*
G03*
X483Y9347I0J25D01*
G01*
Y9500D02*
G03*
X483Y9449I0J-25D01*
G01*
X1753Y7137D02*
G03*
X1753Y7087I0J-25D01*
G01*
Y7036D02*
G03*
X1753Y6985I0J-25D01*
G01*
Y7341D02*
G03*
X1753Y7290I0J-25D01*
G01*
Y6833D02*
G03*
X1753Y6782I0J-25D01*
G01*
Y5918D02*
G03*
X1753Y5867I0J-25D01*
G01*
Y6934D02*
G03*
X1753Y6883I0J-25D01*
G01*
Y6528D02*
G03*
X1753Y6477I0J-25D01*
G01*
Y6426D02*
G03*
X1753Y6375I0J-25D01*
G01*
Y5817D02*
G03*
X1753Y5766I0J-25D01*
G01*
Y5613D02*
G03*
X1753Y5563I0J-25D01*
G01*
Y6325D02*
G03*
X1753Y6274I0J-25D01*
G01*
X4868Y10894D02*
X4956D01*
X5003Y10847D01*
Y10581D02*
Y10847D01*
Y10581D02*
X5613Y9971D01*
Y9241D02*
Y9971D01*
Y9241D02*
X6692Y8162D01*
Y6783D02*
Y8162D01*
X4991Y5082D02*
X6692Y6783D01*
X4991Y4988D02*
Y5082D01*
X4197Y11283D02*
X4351D01*
X4154Y11241D02*
X4197Y11283D01*
X4103Y11241D02*
X4154D01*
X4056Y11193D02*
X4103Y11241D01*
X4056Y11133D02*
Y11193D01*
Y11133D02*
X4102Y11087D01*
X4153D01*
X4207Y11033D01*
X4906D01*
X5055Y10885D01*
Y10602D02*
Y10885D01*
Y10602D02*
X5677Y9980D01*
Y9250D02*
Y9980D01*
Y9250D02*
X6756Y8172D01*
Y6756D02*
Y8172D01*
X5055Y5056D02*
X6756Y6756D01*
X5055Y4762D02*
Y5056D01*
X4839Y4547D02*
X5055Y4762D01*
X4839Y4111D02*
Y4547D01*
X4351Y11233D02*
X4489D01*
X4585Y11138D01*
X4981D01*
X5156Y10963D01*
Y10645D02*
Y10963D01*
Y10645D02*
X5804Y9997D01*
Y9267D02*
Y9997D01*
Y9267D02*
X6882Y8188D01*
Y6704D02*
Y8188D01*
X5182Y5003D02*
X6882Y6704D01*
X5182Y4750D02*
Y5003D01*
X5144Y4712D02*
X5182Y4750D01*
X5144Y4111D02*
Y4712D01*
X4351Y11333D02*
X4465D01*
X4610Y11189D01*
X5020D01*
X5207Y11002D01*
Y10666D02*
Y11002D01*
Y10666D02*
X5867Y10005D01*
Y9275D02*
Y10005D01*
Y9275D02*
X6946Y8197D01*
Y6677D02*
Y8197D01*
X5245Y4977D02*
X6946Y6677D01*
X5245Y4750D02*
Y4977D01*
Y4750D02*
X5448Y4547D01*
Y4111D02*
Y4547D01*
X4351Y11383D02*
X4492D01*
X4635Y11239D01*
X5059D01*
X5258Y11041D01*
Y10687D02*
Y11041D01*
Y10687D02*
X5931Y10014D01*
Y9284D02*
Y10014D01*
Y9284D02*
X7010Y8205D01*
Y6651D02*
Y8205D01*
X5309Y4950D02*
X7010Y6651D01*
X5309Y4839D02*
Y4950D01*
Y4839D02*
X5601Y4547D01*
Y4111D02*
Y4547D01*
X6109Y9906D02*
X6122Y9919D01*
Y10103D01*
X5740Y9259D02*
X6819Y8180D01*
X5994Y9364D02*
X6189Y9169D01*
X6045Y9385D02*
X6210Y9220D01*
X5994Y9364D02*
Y9952D01*
X6045Y9385D02*
Y9931D01*
X7419Y9400D02*
X7563D01*
X7419Y9913D02*
X7563D01*
X7417Y9627D02*
X7419Y9625D01*
Y9627D02*
X7620D01*
X6342D02*
X7417D01*
X6171Y9797D02*
Y10103D01*
X7419Y9570D02*
Y9625D01*
X7417Y9677D02*
X7599D01*
X6363D02*
X7417D01*
X7419Y9679D01*
X6222Y9818D02*
Y10103D01*
X7419Y9679D02*
Y9743D01*
X5740Y9259D02*
Y9989D01*
X4692Y10244D02*
X4767D01*
X4897D02*
X5027Y10114D01*
Y9870D02*
Y10114D01*
X4502Y10433D02*
X4692Y10244D01*
X4351Y10433D02*
X4502D01*
X5105Y10624D02*
X5740Y9989D01*
X4660Y10530D02*
X4788Y10401D01*
X2891Y9346D02*
Y9365D01*
Y9295D02*
Y9346D01*
Y8940D02*
Y8990D01*
Y8889D02*
Y8940D01*
X2869Y9463D02*
X3016Y9315D01*
X3018Y9314D01*
Y9295D02*
Y9314D01*
Y9244D02*
Y9295D01*
Y8940D02*
Y8990D01*
Y8889D02*
Y8940D01*
X2919Y9489D02*
X3137Y9271D01*
X3145Y9263D01*
Y9244D02*
Y9263D01*
Y9194D02*
Y9244D01*
Y8940D02*
Y8990D01*
Y8889D02*
Y8940D01*
X2764Y9373D02*
Y9568D01*
Y9346D02*
Y9373D01*
Y8940D02*
Y8990D01*
Y8889D02*
Y8940D01*
X2669Y9563D02*
Y9751D01*
Y9540D02*
Y9563D01*
Y8981D02*
Y9032D01*
X2719Y9613D02*
X2764Y9568D01*
X2719Y9613D02*
Y9751D01*
X2637Y8949D02*
X2669Y8981D01*
X2637Y8889D02*
Y8949D01*
X2565Y9512D02*
Y9560D01*
Y9004D02*
Y9055D01*
X2619Y9614D02*
Y9751D01*
X2565Y9560D02*
X2619Y9614D01*
X2510Y8949D02*
X2565Y9004D01*
X2510Y8889D02*
Y8949D01*
X2464Y9538D02*
Y9587D01*
Y9030D02*
Y9081D01*
X2159Y9436D02*
Y9449D01*
Y9411D02*
Y9436D01*
Y9360D02*
Y9411D01*
Y9106D02*
Y9157D01*
X2219Y9509D02*
Y9751D01*
X2159Y9449D02*
X2219Y9509D01*
X2002Y8949D02*
X2159Y9106D01*
X2002Y8889D02*
Y8949D01*
X2269Y9089D02*
Y9157D01*
X2129Y8949D02*
X2269Y9089D01*
X2129Y8889D02*
Y8949D01*
X2256D02*
X2369Y9062D01*
Y9570D02*
Y9671D01*
Y9062D02*
Y9113D01*
X2419Y9632D02*
X2464Y9587D01*
X2419Y9632D02*
Y9751D01*
X2383Y8889D02*
Y8949D01*
X2464Y9030D01*
X2369Y9690D02*
Y9751D01*
Y9671D02*
Y9690D01*
X2256Y8889D02*
Y8949D01*
X2269Y9461D02*
Y9751D01*
X1690Y8611D02*
X2490Y7811D01*
X4178Y10401D02*
X4196Y10383D01*
X4351D01*
X9698Y2134D02*
X9778Y2214D01*
X9677Y2184D02*
X9728Y2235D01*
X9778Y2214D02*
Y2302D01*
X9853Y2376D01*
X9728Y2235D02*
Y2302D01*
X9653Y2376D02*
X9728Y2302D01*
X9457Y2184D02*
X9677D01*
X9373Y2269D02*
X9457Y2184D01*
X9373Y2269D02*
Y2859D01*
X9177Y3055D02*
X9373Y2859D01*
X8986Y3055D02*
X9177D01*
X8936Y3104D02*
X8986Y3055D01*
X8647Y3104D02*
X8936D01*
X9436Y2134D02*
X9698D01*
X9322Y2248D02*
Y2838D01*
X9156Y3004D02*
X9322Y2838D01*
Y2248D02*
X9436Y2134D01*
X8985Y3004D02*
X9156D01*
X6021Y9979D02*
Y10103D01*
X6072Y9958D02*
Y10103D01*
X5994Y9952D02*
X6021Y9979D01*
X6045Y9931D02*
X6072Y9958D01*
X6210Y9220D02*
X7561D01*
X6189Y9169D02*
X7582D01*
X7561Y9220D02*
X7836Y9495D01*
X7582Y9169D02*
X7887Y9474D01*
Y12116D01*
X7836Y9495D02*
Y12095D01*
X7620Y12382D02*
X7887Y12116D01*
X7599Y12332D02*
X7836Y12095D01*
X6850Y12332D02*
X7599D01*
X6871Y12382D02*
X7620D01*
X6830Y12423D02*
X6871Y12382D01*
X6779Y12402D02*
X6850Y12332D01*
X6705Y12781D02*
Y13133D01*
X6779Y12402D02*
Y12706D01*
X6705Y12781D02*
X6779Y12706D01*
X6830Y12423D02*
Y12727D01*
X6756Y12802D02*
X6830Y12727D01*
X6756Y12802D02*
Y13133D01*
X6857Y13234D01*
X6603D02*
X6705Y13133D01*
X2134Y7341D02*
X2476Y6998D01*
X2134Y7341D02*
Y7451D01*
X1186Y8398D02*
X2134Y7451D01*
X1186Y8398D02*
Y9058D01*
X864Y9380D02*
X1186Y9058D01*
X864Y9380D02*
Y10496D01*
X1251Y10883D01*
X1836D01*
X2074Y7273D02*
X2464Y6883D01*
X2074Y7273D02*
Y7421D01*
X1122Y8372D02*
X2074Y7421D01*
X1122Y8372D02*
Y9031D01*
X800Y9353D02*
X1122Y9031D01*
X800Y9353D02*
Y10522D01*
X1311Y11033D01*
X1836D01*
X2191Y7410D02*
Y7483D01*
Y7410D02*
X2489Y7112D01*
X1249Y8425D02*
X2191Y7483D01*
X1291Y10833D02*
X1836D01*
X927Y10469D02*
X1291Y10833D01*
X927Y9406D02*
Y10469D01*
Y9406D02*
X1249Y9084D01*
Y8425D02*
Y9084D01*
X3213Y7683D02*
X3448D01*
X3327Y7455D02*
X3497D01*
X3531Y6883D02*
X3619D01*
X3531Y6998D02*
X3595D01*
X3571Y7112D02*
X4343Y6339D01*
Y5494D02*
Y6339D01*
X4183Y5334D02*
X4343Y5494D01*
X4053Y5334D02*
X4183D01*
X4053Y5461D02*
X4159D01*
X4280Y5582D01*
Y6313D01*
X3595Y6998D02*
X4280Y6313D01*
X3619Y6883D02*
X4216Y6287D01*
Y5671D02*
Y6287D01*
X4134Y5588D02*
X4216Y5671D01*
X4053Y5588D02*
X4134D01*
X1503Y8530D02*
X2464Y7569D01*
X3473D02*
X4597Y6444D01*
X1241Y11083D02*
X1836D01*
X610Y8790D02*
X1981Y7418D01*
X610Y9119D02*
X711Y9220D01*
X610Y8790D02*
Y9119D01*
X1171Y11133D02*
X1836D01*
X597Y10559D02*
X1171Y11133D01*
X546Y9182D02*
X597Y9233D01*
X546Y8763D02*
Y9182D01*
Y8763D02*
X1867Y7442D01*
X483Y10535D02*
X1137Y11189D01*
X483Y8737D02*
X1753Y7467D01*
X1701Y11233D02*
X1836D01*
X1656Y11189D02*
X1701Y11233D01*
X1137Y11189D02*
X1656D01*
X1627Y8584D02*
X2464Y7747D01*
X1440Y8504D02*
X2489Y7455D01*
X1376Y8477D02*
X2513Y7341D01*
X1313Y8451D02*
X2538Y7226D01*
X1567Y8556D02*
X2440Y7683D01*
X2019Y5588D02*
X2094D01*
X1981Y5626D02*
X2019Y5588D01*
X1905Y5334D02*
X2094D01*
X1753Y5486D02*
X1905Y5334D01*
X1918Y5461D02*
X2094D01*
X1867Y5512D02*
X1918Y5461D01*
X1892Y5207D02*
X2094D01*
X1638Y5461D02*
X1892Y5207D01*
X395Y8735D02*
X1638Y7491D01*
X1680Y11283D02*
X1836D01*
X1649Y11252D02*
X1680Y11283D01*
X1110Y11252D02*
X1649D01*
X395Y10537D02*
X1110Y11252D01*
X395Y8735D02*
Y10537D01*
X878Y11533D02*
X1836D01*
X141Y10796D02*
X878Y11533D01*
X141Y8630D02*
Y10796D01*
Y8630D02*
X1359Y7412D01*
Y5357D02*
Y7412D01*
Y5357D02*
X2017Y4699D01*
X2094D01*
X268Y8683D02*
Y10669D01*
X331Y8709D02*
Y10593D01*
X942Y11483D02*
X1836D01*
X204Y8656D02*
Y10745D01*
Y8656D02*
X1422Y7438D01*
Y5385D02*
Y7438D01*
Y5385D02*
X1981Y4826D01*
X2094D01*
X1032Y11433D02*
X1836D01*
X268Y8683D02*
X1486Y7464D01*
Y5410D02*
Y7464D01*
Y5410D02*
X1943Y4953D01*
X2094D01*
X331Y8709D02*
X1549Y7491D01*
Y5448D02*
Y7491D01*
Y5448D02*
X1918Y5080D01*
X2094D01*
X960Y7626D02*
X1035D01*
X1270Y7391D01*
Y5118D02*
Y7391D01*
Y5118D02*
X1968Y4420D01*
X4013D01*
X4178Y4585D01*
X1414Y13294D02*
X1489D01*
X1511Y13271D01*
Y12878D02*
Y13271D01*
X1308Y12675D02*
X1511Y12878D01*
X1016Y12675D02*
X1308D01*
X844Y12502D02*
X1016Y12675D01*
X844Y12377D02*
Y12502D01*
Y12377D02*
X1080Y12141D01*
X1245D01*
X889Y12693D02*
Y12789D01*
X529Y12581D02*
Y12770D01*
Y12581D02*
X699D01*
X356D02*
X529D01*
X4724Y6239D02*
Y6494D01*
X3119Y12172D02*
X3188Y12103D01*
X3119Y12172D02*
Y12266D01*
X2654Y12090D02*
X2719Y12155D01*
X4069Y9622D02*
Y9751D01*
X1414Y13016D02*
Y13142D01*
X3019Y12557D02*
X3048Y12586D01*
X3019Y12266D02*
Y12557D01*
X3035Y12103D02*
X3069Y12137D01*
Y12266D01*
X1588Y11938D02*
X1642Y11883D01*
X1836D01*
X3969Y12079D02*
Y12266D01*
X1635Y12012D02*
Y12378D01*
X1685Y12033D02*
Y12378D01*
X1635Y12012D02*
X1714Y11933D01*
X1685Y12033D02*
X1735Y11983D01*
X1685Y12378D02*
X1703Y12396D01*
X1617D02*
X1635Y12378D01*
X9063Y3537D02*
Y3642D01*
X9215Y3537D02*
Y3642D01*
X9368Y3537D02*
Y3642D01*
X10075Y3537D02*
X10181D01*
X8647Y3257D02*
X8753D01*
X8898Y3537D02*
Y3642D01*
X8939Y3757D02*
X9076D01*
X7829Y3245D02*
Y3382D01*
X7199Y2952D02*
X7308D01*
X10350Y3537D02*
X10512D01*
X9653Y2626D02*
Y2869D01*
X9368Y3154D02*
X9653Y2869D01*
X9368Y3154D02*
Y3367D01*
X8898Y3261D02*
Y3367D01*
X9063Y3261D02*
Y3367D01*
X9215Y3261D02*
Y3367D01*
X1836Y10583D02*
X1974D01*
X1664Y10960D02*
X1687Y10983D01*
X1836D01*
Y10933D02*
X1974D01*
X1947Y11383D02*
X2007Y11443D01*
X1836Y11383D02*
X1947D01*
X1950Y11183D02*
X2007Y11239D01*
X1836Y11183D02*
X1950D01*
X1836Y10383D02*
X1974D01*
X1676Y10211D02*
X1699Y10233D01*
X1836D01*
Y10183D02*
X1974D01*
X7150Y10173D02*
X7480D01*
X6940Y10383D02*
X7150Y10173D01*
X7480D02*
X7551Y10244D01*
X6702Y10383D02*
X6940D01*
X7551Y10244D02*
X7557Y10249D01*
X7125Y10122D02*
X7518D01*
X6914Y10333D02*
X7125Y10122D01*
X7518D02*
X7557Y10160D01*
X6702Y10333D02*
X6914D01*
X7309Y10395D02*
Y10513D01*
X7544Y10389D02*
Y10513D01*
X7379Y10224D02*
X7544Y10389D01*
X7175Y10224D02*
X7379D01*
X6966Y10433D02*
X7175Y10224D01*
X6702Y10433D02*
X6966D01*
X4351Y10783D02*
X4495D01*
X5048Y10230D01*
X4351Y10583D02*
X4453D01*
X4507Y10530D01*
X4660D01*
X6181Y3344D02*
Y3810D01*
Y3344D02*
X6515Y3010D01*
X8673Y2561D02*
X8882D01*
X6655Y3937D02*
Y4661D01*
X6528Y3810D02*
X6655Y3937D01*
X6181Y3810D02*
X6528D01*
X5232Y6147D02*
Y6265D01*
X7099Y10071D02*
X7557D01*
X7729Y2572D02*
Y2725D01*
X7829Y2572D02*
Y2725D01*
X8482Y1612D02*
X8624D01*
X8418Y1676D02*
X8482Y1612D01*
X8418Y1676D02*
Y2022D01*
X8085Y2355D02*
X8418Y2022D01*
X7996Y2355D02*
X8085D01*
X7879Y2471D02*
X7996Y2355D01*
X7879Y2471D02*
Y2572D01*
X7779Y2419D02*
Y2572D01*
X7544Y2426D02*
X7579Y2461D01*
Y2572D01*
X9127Y1938D02*
X9263D01*
X4559Y10818D02*
X4635Y10742D01*
X4698D01*
X4574Y10983D02*
X4597Y10960D01*
X4575Y10894D02*
X4698D01*
X4535Y10933D02*
X4575Y10894D01*
X4351Y10933D02*
X4535D01*
X4351Y10983D02*
X4574D01*
X5842Y6147D02*
Y6265D01*
X5690Y6147D02*
Y6265D01*
X5537Y6147D02*
Y6265D01*
X5392Y10788D02*
Y11684D01*
X5309Y10782D02*
Y11684D01*
Y10782D02*
X5558Y10533D01*
X5892D01*
X5715Y10452D02*
X5746Y10483D01*
X5892D01*
X5467Y10801D02*
Y11519D01*
X4712Y11443D02*
X5220D01*
X4521Y11633D02*
X4712Y11443D01*
X4351Y11633D02*
X4521D01*
X4351Y11083D02*
X4946D01*
X5105Y10924D01*
Y10624D02*
Y10924D01*
X6819Y6730D02*
Y8180D01*
X5118Y5029D02*
X6819Y6730D01*
X5118Y4988D02*
Y5029D01*
X5593Y10853D02*
Y11367D01*
X5392Y10788D02*
X5597Y10583D01*
X5892D01*
X5467Y10801D02*
X5636Y10633D01*
X5892D01*
X5593Y10853D02*
X5714Y10733D01*
X5892D01*
X5685Y10851D02*
Y11238D01*
Y10851D02*
X5753Y10783D01*
X5892D01*
X7544Y10683D02*
Y10820D01*
X5004Y13018D02*
X6452Y11570D01*
X6888Y10283D02*
X7099Y10071D01*
X6702Y10283D02*
X6888D01*
X7309Y10683D02*
Y10971D01*
X6702Y10683D02*
X7309D01*
X6193Y11368D02*
Y11455D01*
X4914Y12786D02*
X5939Y11761D01*
X5072Y13160D02*
X6662Y11570D01*
X5041Y13085D02*
X6535Y11591D01*
X4960Y12954D02*
X6370Y11543D01*
X4945Y12861D02*
X6274Y11532D01*
X4883Y12711D02*
X5812Y11782D01*
X4852Y12636D02*
X5685Y11804D01*
X6274Y11151D02*
Y11532D01*
Y11151D02*
X6322Y11103D01*
Y10913D02*
Y11103D01*
X6452Y11143D02*
Y11570D01*
X6422Y11112D02*
X6452Y11143D01*
X6422Y10913D02*
Y11112D01*
X6662Y11368D02*
Y11570D01*
X6535Y11368D02*
Y11591D01*
X6370Y11368D02*
Y11543D01*
X6066Y11368D02*
Y11455D01*
X5939Y11368D02*
Y11761D01*
X5812Y11368D02*
Y11782D01*
X5685Y11368D02*
Y11804D01*
X6889Y11374D02*
X7041D01*
X7156Y11882D02*
X7309D01*
X4191Y10770D02*
X4227Y10733D01*
X4351D01*
X4176Y10683D02*
X4351D01*
X4463Y10833D02*
X4489Y10859D01*
X4234Y10533D02*
X4351D01*
X4166Y10465D02*
X4234Y10533D01*
X4351Y10633D02*
X4527D01*
X4351Y10833D02*
X4463D01*
X6572Y9969D02*
Y10103D01*
Y9969D02*
X6613Y9928D01*
X6422Y9969D02*
X6463Y9928D01*
X6280D02*
X6322Y9969D01*
X6422D02*
Y10103D01*
X6322Y9969D02*
Y10103D01*
X6372Y9928D02*
Y10103D01*
X6423Y10249D02*
X6472Y10200D01*
Y10103D02*
Y10200D01*
X6522Y10103D02*
Y10234D01*
X6272Y10103D02*
Y10234D01*
X1854Y14422D02*
Y14628D01*
X3632Y14272D02*
Y14478D01*
X3886Y14422D02*
Y14628D01*
X3399Y8431D02*
Y8759D01*
X3653Y8298D02*
Y8759D01*
X3780Y8298D02*
Y8759D01*
X3907Y8298D02*
Y8759D01*
X5145Y8202D02*
X5282D01*
X4822D02*
X4959D01*
X4405Y9303D02*
X4542D01*
X4405Y9455D02*
X4542D01*
X4405Y9608D02*
X4542D01*
X4712Y9303D02*
Y9850D01*
X4516Y10333D02*
X4877Y9973D01*
X4476Y10283D02*
X4813Y9946D01*
X1588Y12954D02*
X1614Y12979D01*
X2083D01*
X2108Y12955D01*
X2858Y13221D02*
X2972D01*
X2173Y13679D02*
X2646Y13205D01*
X1011Y4295D02*
Y4476D01*
X757Y4295D02*
Y4476D01*
X503Y4295D02*
Y4476D01*
X1206Y12065D02*
X1438Y11833D01*
X1206Y11976D02*
X1399Y11783D01*
X1206Y11887D02*
X1360Y11733D01*
X1206Y11798D02*
X1322Y11683D01*
X1206Y11621D02*
X1244Y11583D01*
X1206Y11709D02*
X1283Y11633D01*
X241Y7130D02*
X379Y6993D01*
X283Y7624D02*
X412D01*
X241Y7583D02*
X283Y7624D01*
X241Y7130D02*
Y7583D01*
X379Y6993D02*
X1146D01*
X1438Y11833D02*
X1836D01*
X1399Y11783D02*
X1836D01*
X1360Y11733D02*
X1836D01*
X1322Y11683D02*
X1836D01*
X1283Y11633D02*
X1836D01*
X7309Y11101D02*
Y11374D01*
X7696Y12593D02*
Y12758D01*
X6447Y12517D02*
X6542D01*
X7068D02*
X7163D01*
X7696Y12928D02*
Y13114D01*
Y13284D02*
Y13404D01*
Y13490D02*
Y13611D01*
X1714Y11933D02*
X1836D01*
X1735Y11983D02*
X1836D01*
X7795Y4191D02*
X7839Y4148D01*
X7645Y4420D02*
X7686Y4379D01*
X7493Y4496D02*
X7534Y4455D01*
X7341Y4115D02*
X7381Y4074D01*
X7188Y4267D02*
X7229Y4226D01*
X7036Y4343D02*
X7076Y4303D01*
X2269Y12649D02*
X2302Y12683D01*
X2269Y12266D02*
Y12649D01*
X3391Y12837D02*
X3444Y12890D01*
X3391Y12459D02*
Y12837D01*
X3319Y12387D02*
X3391Y12459D01*
X3492Y12827D02*
X3607D01*
X3797Y12636D01*
X3444Y12890D02*
X3835D01*
X3940Y12786D01*
X4069Y12375D02*
X4216Y12522D01*
X4019Y12414D02*
X4128Y12522D01*
X3919Y12492D02*
X3950Y12522D01*
X3719Y12380D02*
X3861Y12522D01*
X3669Y12419D02*
X3772Y12522D01*
X3619Y12458D02*
X3683Y12522D01*
X3919Y12266D02*
Y12492D01*
X4069Y12266D02*
Y12375D01*
X4019Y12266D02*
Y12414D01*
X3886Y13160D02*
X5072D01*
X3975Y13085D02*
X5041D01*
X3251Y13018D02*
X5004D01*
X3315Y12954D02*
X4960D01*
X4064Y12861D02*
X4945D01*
X3940Y12786D02*
X4914D01*
X3810Y12711D02*
X4883D01*
X3797Y12636D02*
X4852D01*
X2269Y12649D02*
X2341Y12721D01*
X2319Y12586D02*
X2390Y12657D01*
X2369Y12542D02*
X2489Y12662D01*
X2783Y12802D02*
X2819Y12765D01*
Y12266D02*
Y12765D01*
X2669D02*
X2705Y12802D01*
X2769Y12166D02*
X2832Y12103D01*
X2769Y12166D02*
Y12266D01*
X2719Y12155D02*
Y12266D01*
X2669D02*
Y12765D01*
X4592Y10483D02*
X4674Y10401D01*
X4537Y11683D02*
X4701Y11519D01*
X4351Y11533D02*
X4481D01*
X2011Y13425D02*
X2162D01*
X2596Y13806D02*
X2746D01*
X4351Y10333D02*
X4516D01*
X4351Y10283D02*
X4476D01*
X4652Y8202D02*
Y8790D01*
X4967Y8862D02*
Y8928D01*
X5465Y8524D02*
Y8790D01*
X5137Y8862D02*
Y8928D01*
X5452Y8202D02*
Y8532D01*
X5137Y8862D02*
X5392D01*
X5465Y8790D01*
X4724Y8862D02*
X4967D01*
X4652Y8790D02*
X4724Y8862D01*
X5316Y9870D02*
X5447D01*
X5027Y9362D02*
X5159D01*
X4244Y6974D02*
X4724Y6494D01*
X4244Y6974D02*
Y7160D01*
X7534Y3686D02*
Y3819D01*
X7479Y3631D02*
X7534Y3686D01*
X7479Y3382D02*
Y3631D01*
X7381Y3680D02*
Y3819D01*
Y3680D02*
X7429Y3633D01*
Y3382D02*
Y3633D01*
X7686Y3711D02*
Y3819D01*
X7529Y3554D02*
X7686Y3711D01*
X7529Y3382D02*
Y3554D01*
X7229Y3706D02*
Y3819D01*
Y3706D02*
X7379Y3556D01*
Y3382D02*
Y3556D01*
X7076Y3744D02*
Y3819D01*
X7839Y3762D02*
Y3819D01*
X7579Y3503D02*
X7839Y3762D01*
X7579Y3382D02*
Y3503D01*
X7076Y3744D02*
X7329Y3491D01*
Y3382D02*
Y3491D01*
X6998Y2991D02*
X7036Y2952D01*
X7199D01*
X6998Y3161D02*
X7039Y3202D01*
X7199D01*
X8009Y2902D02*
X8185D01*
X8395Y2692D01*
X8839D01*
X8865Y2718D01*
Y2782D01*
X8009Y2952D02*
X8224D01*
X8377Y2799D01*
X8477D01*
X8647Y2952D02*
X8933D01*
X8985Y3004D01*
X8009Y3052D02*
X8357D01*
X8409Y3104D02*
X8477D01*
X8357Y3052D02*
X8409Y3104D01*
X8009Y3002D02*
X8357D01*
X8411Y2952D02*
X8477D01*
X8360Y3002D02*
X8411Y2952D01*
X7226Y1468D02*
Y1828D01*
X8076Y1463D02*
Y1830D01*
X8009Y2702D02*
X8118D01*
X8169Y2652D01*
Y2405D02*
Y2652D01*
X8593Y1747D02*
X8687D01*
X8814Y1620D01*
Y1518D02*
Y1620D01*
X8780Y1485D02*
X8814Y1518D01*
X8624Y1485D02*
X8780D01*
X8772Y1938D02*
X8957D01*
X8772Y1865D02*
Y1938D01*
Y1865D02*
X8954Y1684D01*
Y1417D02*
Y1684D01*
X8767Y1231D02*
X8954Y1417D01*
X8624Y1231D02*
X8767D01*
X9275Y1209D02*
X9456D01*
X9254Y1231D02*
X9275Y1209D01*
X9104Y1231D02*
X9254D01*
X9277Y1379D02*
X9456D01*
X9256Y1358D02*
X9277Y1379D01*
X9104Y1358D02*
X9256D01*
X9104Y1612D02*
X9265D01*
X3372Y2151D02*
X3482D01*
X2645Y3192D02*
Y3303D01*
X2475Y3192D02*
Y3303D01*
X2296Y2337D02*
Y2447D01*
X7747Y1415D02*
X7858D01*
X7449D02*
X7559D01*
X8028D02*
X8076Y1463D01*
X7226Y1468D02*
X7279Y1415D01*
X7226Y1828D02*
X7629Y2232D01*
X7679Y2227D02*
X8076Y1830D01*
X7679Y2227D02*
Y2572D01*
X7629Y2232D02*
Y2572D01*
X7429Y2474D02*
Y2572D01*
X7404Y2449D02*
X7429Y2474D01*
X7137Y2449D02*
X7404D01*
X6813Y2773D02*
X7137Y2449D01*
X7479Y2447D02*
Y2572D01*
X7429Y2398D02*
X7479Y2447D01*
X7112Y2398D02*
X7429D01*
X6660Y2849D02*
X7112Y2398D01*
X2880Y2943D02*
Y3317D01*
X2995Y3379D02*
Y3556D01*
X3147Y3379D02*
Y3632D01*
X3134Y3196D02*
X3147Y3209D01*
X3134Y2943D02*
Y3196D01*
X3007Y2943D02*
Y3196D01*
X2626Y3174D02*
X2645Y3192D01*
X2626Y2943D02*
Y3174D01*
X2475Y3192D02*
X2499Y3168D01*
Y2943D02*
Y3168D01*
X2296Y2617D02*
X2590D01*
X2626Y2581D01*
Y2463D02*
Y2581D01*
X2499Y2168D02*
X2516Y2151D01*
X2499Y2168D02*
Y2463D01*
X2686Y2151D02*
Y2229D01*
X2753Y2296D01*
Y2463D01*
X2859Y2151D02*
X2880Y2173D01*
Y2463D01*
X3007Y2173D02*
X3029Y2151D01*
X3007Y2173D02*
Y2463D01*
X3202Y2151D02*
Y2219D01*
X3134Y2286D02*
X3202Y2219D01*
X3134Y2286D02*
Y2463D01*
X4868Y10742D02*
Y10894D01*
X4991Y4111D02*
Y4585D01*
X5753Y4332D02*
X5812Y4390D01*
X5753Y4111D02*
Y4332D01*
X6304Y4582D02*
X6320Y4566D01*
Y4390D02*
Y4566D01*
X5812Y4648D02*
Y4810D01*
Y4648D02*
X5828Y4633D01*
X3628Y6305D02*
X3745D01*
X3628Y6385D02*
X3745D01*
X3628Y6465D02*
X3745D01*
X3628Y6545D02*
X3745D01*
X3628Y6625D02*
X3745D01*
X2405Y6065D02*
X2523D01*
X2405Y6145D02*
X2523D01*
X2405Y6225D02*
X2523D01*
X2405Y6305D02*
X2523D01*
X2405Y6385D02*
X2523D01*
X2405Y6465D02*
X2523D01*
X2405Y6545D02*
X2523D01*
X2405Y6625D02*
X2523D01*
X1376Y8477D02*
Y9136D01*
X1313Y8451D02*
Y9110D01*
X1440Y8504D02*
Y9163D01*
X1503Y8530D02*
Y9189D01*
X1567Y8556D02*
Y9215D01*
X1710Y10083D02*
X1836D01*
X1627Y8584D02*
Y9250D01*
X1621Y9437D02*
X1754Y9304D01*
X1621Y9437D02*
Y9597D01*
X1316Y9561D02*
Y9711D01*
X4312Y4699D02*
X4661Y5048D01*
X4286Y4826D02*
X4597Y5137D01*
X4261Y4953D02*
X4534Y5226D01*
X4235Y5080D02*
X4470Y5315D01*
X4210Y5207D02*
X4407Y5404D01*
X1316Y9561D02*
X1627Y9250D01*
X1316Y9841D02*
Y10320D01*
X1479Y10483D02*
X1836D01*
X1738Y10033D02*
X1836D01*
X1652Y9947D02*
X1738Y10033D01*
X1633Y10133D02*
X1836D01*
X1630Y10283D02*
X1836D01*
X1316Y10320D02*
X1479Y10483D01*
X3448Y7683D02*
X4661Y6471D01*
X3546Y7226D02*
X4407Y6365D01*
X3522Y7341D02*
X4470Y6392D01*
X3497Y7455D02*
X4534Y6418D01*
X4407Y5404D02*
Y6365D01*
X4470Y5315D02*
Y6392D01*
X4534Y5226D02*
Y6418D01*
X4597Y5137D02*
Y6444D01*
X4661Y5048D02*
Y6471D01*
X2523Y6705D02*
X2640D01*
X3510D02*
X3628D01*
X2523Y5665D02*
X2640D01*
X2523Y5505D02*
X2640D01*
X2523Y5265D02*
X2640D01*
X2523Y5025D02*
X2640D01*
X2523Y4785D02*
X2640D01*
X3510Y4625D02*
X3628D01*
X3510Y4785D02*
X3628D01*
X3510Y5025D02*
X3628D01*
X3510Y5265D02*
X3628D01*
X3510Y5505D02*
X3628D01*
X3510Y5665D02*
X3628D01*
X2523Y4625D02*
X2640D01*
X2523Y5985D02*
X2640D01*
X2523Y5905D02*
X2640D01*
X2523Y5825D02*
X2640D01*
X3628Y6065D02*
X3766D01*
X3628Y5985D02*
X3776D01*
X3628Y5905D02*
X3786D01*
X3628Y5825D02*
X3796D01*
X3628Y5745D02*
X3805D01*
X3919Y6218D02*
X4046D01*
X4024Y5964D02*
X4046D01*
X3998Y6027D02*
X4110D01*
X3972Y6091D02*
X4046D01*
X3945Y6154D02*
X4110D01*
X3766Y6065D02*
X3919Y6218D01*
X3776Y5985D02*
X3945Y6154D01*
X3786Y5905D02*
X3972Y6091D01*
X3796Y5825D02*
X3998Y6027D01*
X3805Y5745D02*
X4024Y5964D01*
X3272Y8133D02*
X4244Y7160D01*
X1245Y9538D02*
X1567Y9215D01*
X991Y9432D02*
X1313Y9110D01*
X1054Y9459D02*
X1376Y9136D01*
X1118Y9485D02*
X1440Y9163D01*
X1181Y9511D02*
X1503Y9189D01*
X1652Y9830D02*
Y9947D01*
X1550Y9924D02*
X1710Y10083D01*
X1550Y10051D02*
X1633Y10133D01*
X1550Y10203D02*
X1630Y10283D01*
X1573Y10333D02*
X1836D01*
X1550Y10356D02*
X1573Y10333D01*
X1550Y9899D02*
Y9924D01*
X1245Y9538D02*
Y10338D01*
X991Y9432D02*
Y10443D01*
X1054Y9459D02*
Y10417D01*
X1118Y9485D02*
Y10390D01*
X1181Y9511D02*
Y10364D01*
X1245Y10338D02*
X1440Y10533D01*
X991Y10443D02*
X1331Y10783D01*
X1054Y10417D02*
X1371Y10733D01*
X1118Y10390D02*
X1410Y10683D01*
X1181Y10364D02*
X1450Y10633D01*
X1440Y10533D02*
X1836D01*
X1450Y10633D02*
X1836D01*
X1410Y10683D02*
X1836D01*
X1371Y10733D02*
X1836D01*
X1331Y10783D02*
X1836D01*
X6603Y598D02*
X6740D01*
X6537Y664D02*
X6603Y598D01*
X6537Y1344D02*
X6689D01*
X6537Y1514D02*
Y1687D01*
Y1857D02*
X6689D01*
X5892Y2050D02*
X6028D01*
X5771Y2000D02*
X5892D01*
X5745Y2026D02*
X5771Y2000D01*
X5745Y2026D02*
Y2088D01*
X5746Y1950D02*
X5892D01*
X5690Y2007D02*
X5746Y1950D01*
X5690Y2007D02*
Y2108D01*
X6537Y664D02*
Y1344D01*
X5745Y2088D02*
X5982Y2324D01*
X5690Y2108D02*
X5928Y2346D01*
X5423Y2330D02*
Y2506D01*
X5575D01*
X5423Y2019D02*
X5542Y1900D01*
X5892D01*
X5271Y2676D02*
X5423D01*
X6537Y1857D02*
Y1998D01*
X6484Y2050D02*
X6537Y1998D01*
X6292Y1900D02*
X6393D01*
X6414Y1880D01*
X6292Y2000D02*
X6407D01*
X6456Y1951D01*
Y1503D02*
Y1951D01*
X6292Y2050D02*
X6484D01*
X6407Y1454D02*
X6456Y1503D01*
X6287Y1454D02*
X6407D01*
X6287Y1644D02*
X6381D01*
X6414Y1676D01*
Y1880D01*
X1415Y89D02*
X3735D01*
X998Y505D02*
X1415Y89D01*
X4915Y1854D02*
X5070D01*
X4260Y1128D02*
Y1428D01*
X4305Y1473D01*
X4435D01*
X5115Y598D02*
X5271D01*
X5334Y660D01*
Y1054D01*
X5080Y1308D02*
X5334Y1054D01*
X4792Y1308D02*
X5080D01*
X4623Y1477D02*
X4792Y1308D01*
X4623Y1477D02*
Y1791D01*
X4559Y1854D02*
X4623Y1791D01*
X4280Y1854D02*
X4559D01*
X5070D02*
X5118Y1902D01*
X4966Y2333D02*
Y2506D01*
X5118Y2333D02*
Y2506D01*
X4915Y1600D02*
X5100D01*
X5121Y1579D01*
X5207D01*
X5217Y1569D01*
X5385D01*
X5423Y2019D02*
Y2140D01*
X4966Y2676D02*
Y2756D01*
X5029Y2819D01*
X5118D01*
X5208Y2909D01*
Y2997D01*
X5118Y2676D02*
Y2756D01*
X5272Y2910D01*
Y2997D01*
X5423Y2676D02*
Y2807D01*
X5467Y2851D01*
Y2997D01*
X5597Y2698D02*
Y2997D01*
X5575Y2676D02*
X5597Y2698D01*
X5662Y2885D02*
Y2997D01*
Y2885D02*
X5728Y2819D01*
X5208Y3567D02*
Y3657D01*
X4991Y3874D02*
X5208Y3657D01*
X4991Y3874D02*
Y3941D01*
X5272Y3567D02*
Y3694D01*
X5144Y3823D02*
X5272Y3694D01*
X5144Y3823D02*
Y3941D01*
X5338Y3567D02*
Y3756D01*
X5296Y3797D02*
X5338Y3756D01*
X5296Y3797D02*
Y3941D01*
X5403Y3567D02*
Y3751D01*
X5448Y3797D01*
Y3941D01*
X5467Y3567D02*
Y3690D01*
X5601Y3823D01*
Y3941D01*
X5533Y3567D02*
Y3653D01*
X5753Y3874D01*
Y3941D01*
X5597Y3477D02*
Y3567D01*
X5563Y3442D02*
X5597Y3477D01*
X5144Y3442D02*
X5563D01*
X4839Y3747D02*
X5144Y3442D01*
X4839Y3747D02*
Y3941D01*
X5662Y3567D02*
Y3669D01*
X5804Y3810D01*
X6011D01*
X4757Y3084D02*
Y3202D01*
X6134Y2845D02*
Y2963D01*
X5792Y2879D02*
Y2997D01*
X5403Y2879D02*
Y2997D01*
X5271Y2388D02*
Y2506D01*
X6306Y2257D02*
X6424D01*
X6148Y1950D02*
X6292D01*
X5774Y1850D02*
X5892D01*
X5748Y1825D02*
X5774Y1850D01*
X5296Y4111D02*
Y4547D01*
X4351Y10483D02*
X4592D01*
X4351Y11833D02*
X4448D01*
X4351Y11583D02*
X4495D01*
X4351Y11683D02*
X4537D01*
X4351Y11883D02*
X4474D01*
X4967Y8928D02*
X5020Y8981D01*
X5083D02*
X5137Y8928D01*
X4351Y10033D02*
X4529D01*
X4712Y9850D01*
X6702Y10583D02*
X6806D01*
X6842Y10618D01*
X6702Y10783D02*
X6807D01*
X6845Y10821D01*
X6546Y10733D02*
X6702D01*
X1244Y11583D02*
X1836D01*
X2227Y5585D02*
X2523D01*
X2224Y5588D02*
X2227Y5585D01*
X2386Y5425D02*
X2523D01*
X2350Y5461D02*
X2386Y5425D01*
X2224Y5461D02*
X2350D01*
X2235Y5345D02*
X2523D01*
X2224Y5334D02*
X2235Y5345D01*
X2397Y5185D02*
X2523D01*
X2375Y5207D02*
X2397Y5185D01*
X2224Y5207D02*
X2375D01*
X2412Y5105D02*
X2523D01*
X2388Y5080D02*
X2412Y5105D01*
X2224Y5080D02*
X2388D01*
X2232Y4945D02*
X2523D01*
X2224Y4953D02*
X2232Y4945D01*
X2387Y4865D02*
X2523D01*
X2348Y4826D02*
X2387Y4865D01*
X2224Y4826D02*
X2348D01*
X2230Y4705D02*
X2523D01*
X2224Y4699D02*
X2230Y4705D01*
X4053Y5207D02*
X4210D01*
X4053Y5080D02*
X4235D01*
X4053Y4953D02*
X4261D01*
X4053Y4826D02*
X4286D01*
X4053Y4699D02*
X4312D01*
X3628Y4705D02*
X3917D01*
X3923Y4699D01*
X3628Y4865D02*
X3784D01*
X3823Y4826D01*
X3923D01*
X3628Y4945D02*
X3914D01*
X3923Y4953D01*
X3628Y5105D02*
X3785D01*
X3810Y5080D01*
X3923D01*
X3628Y5185D02*
X3775D01*
X3797Y5207D01*
X3923D01*
X3628Y5345D02*
X3912D01*
X3923Y5334D01*
X3628Y5425D02*
X3774D01*
X3810Y5461D01*
X3923D01*
X3628Y5585D02*
X3919D01*
X3923Y5588D01*
X5804Y11163D02*
X5918Y11049D01*
X6083D01*
X6122Y11011D01*
Y10913D02*
Y11011D01*
X6058Y11181D02*
Y11225D01*
X5804Y11163D02*
Y11225D01*
X5931Y11163D02*
Y11225D01*
Y11163D02*
X5982Y11112D01*
X6083D01*
X6572Y10913D02*
X6626D01*
X6083Y11112D02*
X6172Y11024D01*
Y10913D02*
Y11024D01*
X6058Y11181D02*
X6081Y11159D01*
X6113D01*
X6222Y11050D01*
Y10913D02*
Y11050D01*
X6272Y10913D02*
Y11077D01*
X6193Y11156D02*
X6272Y11077D01*
X6193Y11156D02*
Y11238D01*
X6472Y10913D02*
Y11069D01*
X6522Y10913D02*
Y11030D01*
X6662Y11171D02*
Y11238D01*
X6072Y10758D02*
Y10913D01*
X5960D02*
X6022D01*
X6535Y11133D02*
Y11238D01*
X6472Y11069D02*
X6535Y11133D01*
X6522Y11030D02*
X6662Y11171D01*
X6370Y11238D02*
X6372Y11237D01*
Y10913D02*
Y11237D01*
X3569Y12266D02*
Y12535D01*
X3269Y12266D02*
Y12531D01*
X3569Y12665D02*
Y12767D01*
X3269Y12661D02*
Y12763D01*
X366Y13421D02*
Y13547D01*
X213Y13421D02*
Y13547D01*
X366Y13717D02*
Y13830D01*
X213Y13717D02*
Y13830D01*
X3219Y12266D02*
Y12453D01*
X3169Y12266D02*
Y12414D01*
X2988Y13280D02*
X3175Y13094D01*
X2972Y13221D02*
X3111Y13081D01*
X3369Y12146D02*
Y12266D01*
X3519Y12133D02*
Y12266D01*
X4495Y11583D02*
X4712Y11367D01*
X4194Y11483D02*
X4351D01*
X4891Y11367D02*
X5220D01*
X4194Y11783D02*
X4351D01*
X4194Y11183D02*
X4351D01*
X4480Y11133D02*
X4492Y11146D01*
X4351Y11133D02*
X4480D01*
X4534Y12065D02*
X4596D01*
X4351Y11983D02*
X4452D01*
X4559Y11417D02*
X4689Y11287D01*
X4481Y11533D02*
X4559Y11456D01*
Y11417D02*
Y11456D01*
X4689Y11287D02*
X5220D01*
X4351Y11433D02*
X4474D01*
X4483Y11443D01*
X4712Y11367D02*
X4761D01*
X4701Y11519D02*
X4761D01*
X4253Y11733D02*
X4351D01*
X4229Y11709D02*
X4253Y11733D01*
X4077Y11709D02*
X4229D01*
X4026Y11760D02*
X4077Y11709D01*
X4448Y11833D02*
X4681Y11600D01*
X5220D01*
X4891Y11519D02*
X5220D01*
X4739Y11925D02*
X4890D01*
X4452Y11983D02*
X4534Y12065D01*
X4601Y11933D02*
X4609Y11925D01*
X4351Y11933D02*
X4601D01*
X4559Y11798D02*
X4609D01*
X4474Y11883D02*
X4559Y11798D01*
X4739D02*
X4953D01*
X3719Y12266D02*
Y12380D01*
X3669Y12266D02*
Y12419D01*
X3619Y12266D02*
Y12458D01*
X3469Y12266D02*
Y12421D01*
X3344Y12120D02*
X3369Y12146D01*
X3419Y12131D02*
Y12266D01*
X3385Y12097D02*
X3419Y12131D01*
X3519Y12133D02*
X3532Y12120D01*
X3319Y12266D02*
Y12387D01*
X2119Y12266D02*
Y12359D01*
X2169Y12266D02*
Y12380D01*
X2219Y12266D02*
Y12401D01*
X2007Y12471D02*
X2119Y12359D01*
X2014Y12535D02*
X2169Y12380D01*
X2023Y12597D02*
X2219Y12401D01*
X965Y12535D02*
X2014D01*
X1029Y12597D02*
X2023D01*
X1836Y12033D02*
X1974D01*
X1836Y12083D02*
X1974D01*
X2069Y12129D02*
Y12266D01*
X2019Y12129D02*
Y12266D01*
X4214Y12083D02*
X4351D01*
X4214Y12033D02*
X4351D01*
X4169Y12129D02*
Y12266D01*
X4119Y12129D02*
Y12266D01*
X1836Y9933D02*
X1974D01*
X1836Y9983D02*
X1974D01*
X2019Y9751D02*
Y9888D01*
X2069Y9751D02*
Y9888D01*
X4169Y9751D02*
Y9888D01*
X4119Y9751D02*
Y9888D01*
X4214Y9933D02*
X4351D01*
X4214Y9983D02*
X4351D01*
X2469Y12159D02*
Y12266D01*
X2426Y12116D02*
X2469Y12159D01*
X2519Y12266D02*
Y12391D01*
X2616Y13373D02*
Y13513D01*
X2655Y13552D01*
X2746Y13679D02*
X2870D01*
X2011Y13806D02*
X2135D01*
X2502Y12408D02*
X2519Y12391D01*
X2419Y12266D02*
Y12439D01*
X2489Y12510D01*
X2369Y12266D02*
Y12542D01*
X2319Y12266D02*
Y12586D01*
X2988Y13280D02*
Y13399D01*
X2967Y13552D02*
X2980Y13564D01*
X2746Y13425D02*
X2962D01*
X2988Y13399D01*
X2980Y13734D02*
Y13860D01*
X3158Y13399D02*
X3284D01*
X1816Y13861D02*
Y13987D01*
Y13691D02*
X1829Y13679D01*
X1812Y13526D02*
X1838Y13552D01*
X1517Y13526D02*
X1642D01*
X2969Y12266D02*
Y13020D01*
X3111Y12471D02*
Y13081D01*
X3175Y12497D02*
X3219Y12453D01*
X3175Y12497D02*
Y13094D01*
X3111Y12471D02*
X3169Y12414D01*
X2619Y12266D02*
Y13008D01*
X5275Y6675D02*
X5387D01*
X5437Y6618D02*
Y6675D01*
X5385Y6566D02*
X5437Y6618D01*
X5283Y6566D02*
X5385D01*
X5232Y6515D02*
X5283Y6566D01*
X5232Y6435D02*
Y6515D01*
X5385Y6435D02*
Y6490D01*
X5487Y6592D01*
Y6675D01*
X5537Y6436D02*
Y6675D01*
Y6436D02*
X5537Y6435D01*
X5587Y6593D02*
Y6675D01*
Y6593D02*
X5690Y6490D01*
Y6435D02*
Y6490D01*
X5637Y6619D02*
Y6675D01*
Y6619D02*
X5690Y6566D01*
X5791D01*
X5842Y6515D01*
Y6435D02*
Y6515D01*
X6008Y7697D02*
Y7816D01*
X5944Y7633D02*
X6008Y7697D01*
X5677Y7633D02*
X5944D01*
X6262Y7460D02*
Y7748D01*
X6060Y7950D02*
X6262Y7748D01*
X5587Y7106D02*
Y7200D01*
X5651Y7264D01*
X5893D01*
X5637Y7106D02*
Y7173D01*
X5677Y7214D01*
X5914D01*
X5727Y7016D02*
X6228D01*
X6540Y7328D01*
Y7686D01*
X5727Y6966D02*
X6254D01*
X6591Y7303D01*
Y7709D01*
X6248Y8052D02*
X6591Y7709D01*
X5575Y8052D02*
X6248D01*
X5500Y7976D02*
X5575Y8052D01*
X5500Y7816D02*
Y7976D01*
X5437Y7106D02*
Y7481D01*
X5487Y7442D02*
X5677Y7633D01*
X5487Y7106D02*
Y7442D01*
X5437Y7481D02*
X5906Y7950D01*
X6060D01*
X5537Y7378D02*
X5619Y7460D01*
X5754D01*
X5537Y7106D02*
Y7378D01*
X6225Y8001D02*
X6540Y7686D01*
X5875Y8001D02*
X6225D01*
X5506Y7633D02*
X5875Y8001D01*
X5296Y7633D02*
X5506D01*
X5246Y7583D02*
X5296Y7633D01*
X5246Y7460D02*
Y7583D01*
X5893Y7264D02*
X5931Y7303D01*
X5914Y7214D02*
X5982Y7281D01*
Y7455D01*
X5931Y7303D02*
Y7391D01*
X5899Y7537D02*
X5982Y7455D01*
X5899Y7423D02*
X5931Y7391D01*
X4738Y7460D02*
Y7570D01*
X4762Y7595D01*
X5093D01*
X4992Y7708D02*
Y7816D01*
Y7708D02*
X5017Y7683D01*
X5093D01*
X9271Y14741D02*
Y14897D01*
Y14339D02*
Y14571D01*
X9326Y11923D02*
X9499D01*
X9393Y12073D02*
Y12139D01*
X9326Y12006D02*
X9393Y12073D01*
X9326Y11923D02*
Y12006D01*
X9342Y12743D02*
Y12933D01*
Y12743D02*
X9393Y12692D01*
Y12520D02*
Y12692D01*
X681Y12940D02*
X888D01*
X889Y12941D01*
X529Y12770D02*
X681D01*
X935Y13162D02*
X1059Y13038D01*
X935Y13162D02*
Y13335D01*
X1059Y12789D02*
Y13038D01*
X407Y12940D02*
X529D01*
X1107Y13142D02*
X1244D01*
X1062Y13187D02*
X1107Y13142D01*
X1062Y13187D02*
Y13335D01*
X1244Y13142D02*
Y13294D01*
X3519Y9600D02*
Y9751D01*
Y9600D02*
X4161Y8958D01*
Y8889D02*
Y8958D01*
X3469Y9549D02*
Y9751D01*
Y9549D02*
X4034Y8984D01*
Y8889D02*
Y8984D01*
X3319Y9559D02*
Y9751D01*
Y9559D02*
X3907Y8971D01*
Y8889D02*
Y8971D01*
X3269Y9533D02*
Y9751D01*
Y9533D02*
X3780Y9022D01*
Y8889D02*
Y9022D01*
X3219Y9506D02*
Y9751D01*
Y9506D02*
X3653Y9073D01*
Y8889D02*
Y9073D01*
X3069Y9568D02*
Y9751D01*
Y9568D02*
X3526Y9111D01*
Y8889D02*
Y9111D01*
X3019Y9541D02*
Y9751D01*
Y9541D02*
X3399Y9161D01*
Y8889D02*
Y9161D01*
X2969Y9515D02*
Y9751D01*
Y9515D02*
X3272Y9212D01*
Y8889D02*
Y9212D01*
X2919Y9489D02*
Y9751D01*
X2869Y9463D02*
Y9751D01*
X2819Y9436D02*
Y9751D01*
Y9436D02*
X2891Y9365D01*
X2119Y9599D02*
Y9751D01*
X1875Y9355D02*
X2119Y9599D01*
X1875Y8889D02*
Y9355D01*
X3819Y9630D02*
Y9751D01*
X3769D02*
Y9888D01*
X4019Y9751D02*
Y9888D01*
X3969Y9751D02*
Y9888D01*
X3869Y9751D02*
Y9888D01*
X3419Y9604D02*
Y9751D01*
X3369D02*
Y9888D01*
X4089Y9563D02*
X4288Y9365D01*
X3819Y9630D02*
X3886Y9563D01*
X4089D01*
X4288Y8889D02*
Y9365D01*
X3169Y9751D02*
Y9888D01*
X3119Y9601D02*
Y9751D01*
Y9601D02*
X3144Y9576D01*
X3391Y9576D02*
X3419Y9604D01*
X2769Y9751D02*
Y9888D01*
X2469Y9751D02*
Y9888D01*
X2569Y9751D02*
Y9888D01*
X2519Y9614D02*
Y9751D01*
X2319D02*
Y9888D01*
X3719Y9654D02*
Y9751D01*
Y9654D02*
X3856Y9517D01*
X3669Y9643D02*
Y9751D01*
Y9643D02*
X3835Y9477D01*
X3619Y9627D02*
Y9751D01*
Y9627D02*
X3810Y9436D01*
X3569Y9614D02*
Y9751D01*
X3848Y9335D02*
X3899D01*
X3569Y9614D02*
X3848Y9335D01*
X3810Y9436D02*
X3912D01*
X3975Y9373D01*
Y9258D02*
Y9373D01*
Y9258D02*
X4051Y9182D01*
X3835Y9477D02*
X4011D01*
X4051Y9436D01*
Y9335D02*
Y9436D01*
X3856Y9517D02*
X4059D01*
X4204Y9373D01*
Y9182D02*
Y9373D01*
X2169Y9535D02*
Y9751D01*
X2007Y9373D02*
X2169Y9535D01*
X1875Y8634D02*
Y8759D01*
X2002Y8634D02*
Y8759D01*
X2129Y8634D02*
Y8759D01*
X2256Y8634D02*
Y8759D01*
X2383Y8634D02*
Y8759D01*
X2510Y8634D02*
Y8759D01*
X2637Y8634D02*
Y8759D01*
X2764Y8634D02*
Y8759D01*
X2891Y8634D02*
Y8759D01*
X3018Y8634D02*
Y8759D01*
X3145Y8634D02*
Y8759D01*
X3526Y8634D02*
Y8759D01*
X4034Y8285D02*
Y8759D01*
X4161Y8634D02*
Y8759D01*
X4288Y8634D02*
Y8759D01*
X3272Y8133D02*
Y8759D01*
X3399Y8431D02*
X3981Y7849D01*
X4458D01*
X3653Y8298D02*
X4013Y7938D01*
X4394D01*
X3780Y8298D02*
X4051Y8026D01*
X4331D01*
X4089Y8115D02*
X4267D01*
X3907Y8298D02*
X4089Y8115D01*
X4034Y8285D02*
X4115Y8204D01*
X4204D01*
X7839Y3989D02*
Y4148D01*
X7686Y3989D02*
Y4379D01*
X7534Y3989D02*
Y4455D01*
X7229Y3989D02*
Y4226D01*
X7381Y3989D02*
Y4074D01*
X7076Y3989D02*
Y4303D01*
X5385Y6147D02*
Y6265D01*
X5994Y6435D02*
Y6553D01*
X5842Y6265D02*
X5994D01*
X10682Y3537D02*
X10838D01*
X2108Y14272D02*
Y14478D01*
X4257Y10233D02*
X4351D01*
X4240Y10133D02*
X4351D01*
Y10183D02*
X4489D01*
X4351Y10083D02*
X4572D01*
X4255Y10883D02*
X4351D01*
X4166Y10973D02*
X4255Y10883D01*
X8009Y3152D02*
X8131D01*
X8235Y3257D01*
X8477D01*
X8009Y3102D02*
X8197D01*
X8222Y3128D01*
X7629Y3382D02*
Y3482D01*
X7703Y3556D01*
X7772D01*
X7086Y3252D02*
X7199D01*
X7036Y3302D02*
X7086Y3252D01*
X7062Y2802D02*
X7199D01*
X1194Y5004D02*
X2880Y3317D01*
X1194Y5004D02*
Y5728D01*
X1156Y5766D02*
X1194Y5728D01*
X973Y5766D02*
X1156D01*
X503Y5158D02*
Y5301D01*
X607Y4902D02*
X686D01*
X757Y4974D01*
Y5301D01*
X673Y4750D02*
X860D01*
X1011Y4901D01*
Y5301D01*
X902Y12471D02*
X2007D01*
X337Y6166D02*
X548D01*
X5220Y4623D02*
X5296Y4547D01*
X7454Y13897D02*
X7666D01*
X7699Y13864D01*
Y13781D02*
Y13864D01*
X5668Y13897D02*
X5879D01*
X5634Y13864D02*
X5668Y13897D01*
X5634Y13786D02*
Y13864D01*
X5727Y6816D02*
X5986D01*
X5727Y6766D02*
X5896D01*
X5969Y6693D01*
X6337D01*
X5986Y6816D02*
X6033Y6769D01*
X6337D01*
X5727Y6866D02*
X6025D01*
X6045Y6845D01*
X6337D01*
X6331Y6916D02*
X6337Y6921D01*
X5727Y6916D02*
X6331D01*
X897Y6545D02*
X1146D01*
X190D02*
X376D01*
X601Y7236D02*
X736D01*
X808Y7321D02*
Y7456D01*
X960Y7298D02*
Y7456D01*
X431Y7126D02*
Y7236D01*
X412Y7361D02*
Y7432D01*
X618Y7409D02*
Y7452D01*
Y7409D02*
X673Y7353D01*
X418Y7795D02*
Y7948D01*
X588D02*
X698D01*
X618Y7624D02*
X806D01*
X808Y7626D01*
X960D01*
X618Y7624D02*
Y7766D01*
X588Y7795D02*
X618Y7766D01*
X6813Y3166D02*
Y3556D01*
X6660Y3166D02*
Y3632D01*
Y2849D02*
Y2996D01*
X6813Y2773D02*
Y2996D01*
X9948Y1560D02*
X10112D01*
X9614D02*
X9778D01*
X5115Y298D02*
X5329D01*
X5853Y273D02*
Y488D01*
X5885Y913D02*
Y1128D01*
X6740Y298D02*
X6954D01*
X3810Y1428D02*
Y1579D01*
X3962Y1428D02*
Y1579D01*
X4140Y1418D02*
Y1569D01*
X4284Y1600D02*
X4435D01*
X4915Y1473D02*
X5066D01*
X5385Y1759D02*
Y1910D01*
X6689Y1687D02*
X6802D01*
X5956Y1317D02*
Y1468D01*
X6108Y1317D02*
Y1468D01*
X6143Y1850D02*
X6292D01*
X8494Y1847D02*
X8593Y1747D01*
X8494Y1847D02*
Y2080D01*
X8169Y2405D02*
X8494Y2080D01*
X5728Y2676D02*
Y2819D01*
X6028Y2050D02*
X6116Y2138D01*
Y2257D01*
X5982Y2375D02*
X6033Y2426D01*
Y2506D01*
X5880Y2426D02*
X5928Y2378D01*
X5880Y2426D02*
Y2506D01*
X4521Y3442D02*
X4639D01*
X5338Y2997D02*
Y3141D01*
X6134Y3133D02*
Y3251D01*
X5728Y2997D02*
Y3141D01*
X4757Y3372D02*
Y3490D01*
X4233Y3442D02*
X4351D01*
X4351Y3442D02*
Y3594D01*
X4531Y3924D02*
X4534Y3927D01*
X4341Y3924D02*
Y4055D01*
X4531Y3924D02*
Y4055D01*
X4351Y3747D02*
Y3914D01*
X4341Y3924D02*
X4351Y3914D01*
X4813Y9246D02*
Y9946D01*
X4877Y9272D02*
Y9973D01*
Y9272D02*
X5083Y9065D01*
X4813Y9246D02*
X5020Y9039D01*
X5083Y8981D02*
Y9065D01*
X5020Y8981D02*
Y9039D01*
X3264Y216D02*
Y356D01*
X3467Y216D02*
Y356D01*
X3670Y216D02*
Y356D01*
Y526D02*
Y699D01*
X3467Y526D02*
Y699D01*
X3264Y526D02*
Y699D01*
X4966Y5512D02*
Y6871D01*
X5061Y6966D01*
X5296D01*
X4902Y5538D02*
Y6896D01*
X5022Y7016D01*
X5296D01*
X4839Y5564D02*
Y6921D01*
X5105Y7188D01*
X5359D01*
X5387Y7161D01*
Y7106D02*
Y7161D01*
X4877Y5423D02*
X4966Y5512D01*
X4750Y5476D02*
X4839Y5564D01*
X4813Y5449D02*
X4902Y5538D01*
X4877Y4915D02*
Y5423D01*
X4750Y4968D02*
Y5476D01*
X4813Y4941D02*
Y5449D01*
X3683Y3721D02*
X4877Y4915D01*
X3556Y3774D02*
X4750Y4968D01*
X3619Y3747D02*
X4813Y4941D01*
X3683Y1999D02*
Y3721D01*
X3556Y2052D02*
Y3774D01*
X3619Y2026D02*
Y3747D01*
X3531Y1847D02*
X3683Y1999D01*
X3404Y1900D02*
X3556Y2052D01*
X3467Y1873D02*
X3619Y2026D01*
X3264Y869D02*
Y978D01*
X3670Y869D02*
Y978D01*
X4251Y898D02*
X5115D01*
X3531Y1118D02*
X3670Y978D01*
X8242Y2474D02*
X8602Y2114D01*
Y1857D02*
Y2114D01*
Y1857D02*
X8649Y1811D01*
X8725D01*
X8890Y1645D01*
Y1455D02*
Y1645D01*
X8793Y1358D02*
X8890Y1455D01*
X8624Y1358D02*
X8793D01*
X8242Y2474D02*
Y2667D01*
X8009Y2752D02*
X8157D01*
X8242Y2667D01*
X8009Y2852D02*
X8146D01*
X8412Y2586D01*
X8477D01*
X8647D02*
X8673Y2561D01*
X8660Y2787D02*
X8768D01*
X8647Y2799D02*
X8660Y2787D01*
X7308Y2952D02*
X7429Y3073D01*
X7904Y2802D02*
X8009D01*
X7811Y2896D02*
X7904Y2802D01*
X6689Y1514D02*
X6802D01*
X5956Y1638D02*
Y1751D01*
X6121Y1829D02*
X6143Y1850D01*
X6108Y1638D02*
Y1751D01*
X5880Y2676D02*
Y2789D01*
X6033Y2676D02*
Y2789D01*
X5728Y2388D02*
Y2506D01*
X5728Y3424D02*
Y3567D01*
X5792Y3479D02*
Y3567D01*
Y3479D02*
X5848Y3424D01*
X4521Y3914D02*
X4531Y3924D01*
X4521Y3594D02*
Y3914D01*
X3658Y1440D02*
Y1566D01*
X3289Y1313D02*
Y1439D01*
X3137Y1313D02*
Y1439D01*
X2959Y1303D02*
Y1429D01*
X3289Y1609D02*
Y1735D01*
X3137Y1609D02*
Y1735D01*
X2959Y1619D02*
Y1745D01*
X3531Y1118D02*
Y1847D01*
X3467Y869D02*
Y1873D01*
X3404Y1118D02*
Y1900D01*
X3264Y978D02*
X3404Y1118D01*
X4572Y10083D02*
X4597Y10058D01*
X4191Y10300D02*
X4257Y10233D01*
X4153Y10046D02*
X4240Y10133D01*
X9076Y7566D02*
X9207D01*
X9076Y7396D02*
X9207D01*
X10097D02*
X10228D01*
X10097Y7566D02*
X10228D01*
X9076Y7826D02*
X9207D01*
X9076Y7996D02*
X9207D01*
X10097D02*
X10228D01*
X5189Y6866D02*
X5296D01*
X5191Y6675D02*
Y6715D01*
X5242Y6766D01*
X5296D01*
X5105Y5918D02*
X5283Y5740D01*
X5224Y6816D02*
X5296D01*
X5105Y5918D02*
Y6697D01*
X5224Y6816D01*
X5112Y6916D02*
X5296D01*
X9944Y6086D02*
X10114D01*
X8728Y6088D02*
X8897D01*
Y6883D01*
X10114Y6086D02*
Y6881D01*
X9347Y6714D02*
Y6883D01*
Y6088D02*
Y6258D01*
X10564Y6711D02*
Y6881D01*
Y6086D02*
Y6255D01*
X5067Y6871D02*
X5112Y6916D01*
X5118Y6794D02*
X5189Y6866D01*
X5634Y13495D02*
Y13616D01*
X6298Y12040D02*
X7404D01*
X5103Y13235D02*
X6298Y12040D01*
X4128Y13235D02*
X5103D01*
X7401Y10398D02*
Y10932D01*
X7328Y10325D02*
X7401Y10398D01*
X7226Y10325D02*
X7328D01*
X7019Y10533D02*
X7226Y10325D01*
X6702Y10533D02*
X7019D01*
X7404Y12040D02*
X7480Y11963D01*
X7401Y10932D02*
X7480Y11011D01*
Y11963D01*
X6702Y10483D02*
X6993D01*
X7201Y10274D01*
X7353D01*
X7452Y10373D01*
Y10855D01*
X7544Y10947D01*
Y11976D01*
X7429Y12090D02*
X7544Y11976D01*
X6353Y12090D02*
X7429D01*
X5134Y13310D02*
X6353Y12090D01*
X4216Y13310D02*
X5134D01*
X7544Y10820D02*
X7607Y10884D01*
Y11989D01*
X7455Y12141D02*
X7607Y11989D01*
X6417Y12141D02*
X7455D01*
X5172Y13386D02*
X6417Y12141D01*
X4331Y13386D02*
X5172D01*
X4739Y12052D02*
X5144D01*
X5530Y11666D01*
Y10827D02*
Y11666D01*
Y10827D02*
X5675Y10683D01*
X5892D01*
X6603Y13234D02*
Y13567D01*
X6857Y13234D02*
Y13567D01*
X6222Y13313D02*
X6325Y13211D01*
X6375Y13213D02*
X6476Y13313D01*
X6375Y13125D02*
Y13213D01*
Y13125D02*
X6579Y12921D01*
X6325Y13104D02*
X6528Y12900D01*
X6375Y12548D02*
X6579Y12751D01*
X6375Y12382D02*
Y12548D01*
Y12382D02*
X6502Y12256D01*
X6325Y12361D02*
Y12569D01*
X6502Y12256D02*
X7535D01*
X6481Y12205D02*
X7514D01*
X7696Y12023D01*
Y9775D02*
Y12023D01*
X7599Y9677D02*
X7696Y9775D01*
X7747Y9754D02*
Y12044D01*
X6325Y13104D02*
Y13211D01*
X6528Y12772D02*
Y12900D01*
X6325Y12569D02*
X6528Y12772D01*
X6325Y12361D02*
X6481Y12205D01*
X6222Y9818D02*
X6363Y9677D01*
X6579Y12751D02*
Y12921D01*
X7535Y12256D02*
X7747Y12044D01*
X7620Y9627D02*
X7747Y9754D01*
X6171Y9797D02*
X6342Y9627D01*
X3735Y89D02*
X4134Y488D01*
X1398Y505D02*
X1751Y152D01*
X3708D01*
X3874Y317D01*
Y521D01*
X4251Y898D01*
X4134Y488D02*
X4228D01*
X5982Y2324D02*
Y2375D01*
X5928Y2346D02*
Y2375D01*
X5134Y1749D02*
X5207D01*
X5113Y1727D02*
X5134Y1749D01*
X4788Y1727D02*
X5113D01*
X4750Y1765D02*
X4788Y1727D01*
X4750Y1765D02*
Y1880D01*
X4966Y2095D01*
Y2163D01*
X5118Y1902D02*
Y2163D01*
X6740Y898D02*
X6938D01*
X7205Y631D01*
X10014D01*
X4991Y3374D02*
Y3492D01*
Y3086D02*
Y3204D01*
X4873D02*
X4991D01*
X5109D01*
X4873Y3374D02*
X4991D01*
X5109D01*
X4047Y13825D02*
X4153D01*
X3772D02*
X3877D01*
X4047Y13672D02*
X4153D01*
X3772D02*
X3877D01*
X4047Y13520D02*
X4153D01*
X3772D02*
X3877D01*
X9316Y3852D02*
X9453D01*
X8939Y3947D02*
X9076D01*
X3467Y13408D02*
Y13545D01*
X3657Y13408D02*
Y13545D01*
X3562Y13785D02*
Y13922D01*
X3124Y14123D02*
Y14272D01*
Y14123D02*
X3226Y14021D01*
X4598Y13801D02*
Y13964D01*
X3378Y14275D02*
Y14628D01*
Y14275D02*
X3569Y14084D01*
X4750Y13801D02*
Y13990D01*
X3569Y14084D02*
X4656D01*
X4750Y13990D01*
X3226Y14021D02*
X4542D01*
X4598Y13964D01*
Y13550D02*
Y13631D01*
Y13550D02*
X4635Y13513D01*
Y13462D02*
Y13513D01*
X4712Y13462D02*
Y13513D01*
X4750Y13551D01*
Y13631D01*
X4750Y13631D02*
X4903D01*
X4445D02*
X4598D01*
X4903Y13801D02*
Y13921D01*
X4445Y13801D02*
Y13921D01*
X3869Y12111D02*
Y12266D01*
X3848Y12090D02*
X3869Y12111D01*
X3819Y12379D02*
X3848Y12408D01*
X3819Y12266D02*
Y12379D01*
X3769Y12266D02*
Y12367D01*
X3781Y12379D01*
X3819D01*
X2753Y2943D02*
Y3354D01*
X1130Y4977D02*
X2753Y3354D01*
X1130Y4977D02*
Y5550D01*
X1067Y5613D02*
X1130Y5550D01*
X368Y5613D02*
X1067D01*
X330Y5651D02*
X368Y5613D01*
X330Y5651D02*
Y5728D01*
X368Y5766D01*
X548D01*
X9350Y4595D02*
X9472D01*
X9350Y4815D02*
X9472D01*
X8839Y4485D02*
X8970D01*
X2738Y13252D02*
X2969Y13020D01*
X2616Y13373D02*
X2738Y13252D01*
X2655Y13552D02*
X2746D01*
X2967D01*
X9140Y4485D02*
X9350D01*
X9140Y4275D02*
X9350D01*
X9140Y4705D02*
X9350D01*
X9140Y4890D02*
X9220D01*
X9256Y4925D01*
X9350D01*
X9140Y5055D02*
X9233D01*
X9253Y5035D01*
X9350D01*
X8970Y5055D02*
Y5220D01*
X8970Y5055D02*
X8970Y5055D01*
X8839Y5055D02*
X8970D01*
X8839Y4890D02*
X8970D01*
X8839Y4705D02*
X8970D01*
X1829Y13679D02*
X2011D01*
X2173D01*
X8839Y4275D02*
X8970D01*
X10145Y3835D02*
X10262D01*
X9975D02*
Y3988D01*
X10145D02*
Y4210D01*
X9140Y5220D02*
Y5351D01*
X10262Y3835D02*
X10325Y3899D01*
Y4001D01*
X1572Y13030D02*
X2083D01*
X2083D01*
X2083D02*
X2108Y13056D01*
X2619Y13008D02*
X2654Y13043D01*
X2919Y12266D02*
Y12994D01*
X2720Y13193D02*
X2919Y12994D01*
X2659Y13193D02*
X2720D01*
X1838Y13552D02*
X2011D01*
X2133D01*
X2289Y13396D01*
Y13167D02*
Y13396D01*
Y13167D02*
X2569Y12887D01*
Y12266D02*
Y12887D01*
X2591Y13106D02*
X2731D01*
X2869Y12968D01*
Y12266D02*
Y12968D01*
X2540Y13056D02*
X2591Y13106D01*
X1245Y12141D02*
X1283Y12103D01*
X973Y6166D02*
Y6261D01*
X897Y6337D02*
X973Y6261D01*
X902Y7239D02*
X960Y7298D01*
X8001Y4153D02*
X9398D01*
X9563Y3988D01*
X9975D01*
X204Y10745D02*
X269Y10810D01*
X592Y11133D02*
X942Y11483D01*
X268Y10669D02*
X333Y10734D01*
X979Y11381D02*
X1032Y11433D01*
X331Y10593D02*
X367Y10629D01*
X1014Y11275D02*
X1072Y11333D01*
X1123D01*
X1631D02*
X1836D01*
X1638Y5461D02*
Y5561D01*
Y7390D02*
Y7491D01*
X597Y9233D02*
Y9296D01*
Y10312D02*
Y10559D01*
X1867Y5512D02*
Y5563D01*
Y7391D02*
Y7442D01*
X711Y9220D02*
Y9296D01*
Y10465D02*
Y10554D01*
X747Y10590D01*
X1981Y5626D02*
Y5715D01*
X1178Y11021D02*
X1241Y11083D01*
X1981Y7341D02*
Y7418D01*
X2464Y6883D02*
X2515D01*
X2476Y6998D02*
X2565D01*
X2489Y7112D02*
X2565D01*
X3480D02*
X3571D01*
X2538Y7226D02*
X2616D01*
X3480D02*
X3546D01*
X2513Y7341D02*
X2667D01*
X3378D02*
X3522D01*
X2489Y7455D02*
X2718D01*
X2464Y7569D02*
X2769D01*
X3277D02*
X3473D01*
X2440Y7683D02*
X2807D01*
X1754Y8636D02*
Y9304D01*
X1621Y9799D02*
X1652Y9830D01*
X1621Y9727D02*
Y9799D01*
X1514Y10433D02*
X1836D01*
X1443Y10362D02*
X1514Y10433D01*
X1443Y9835D02*
Y10362D01*
Y9835D02*
X1468Y9809D01*
Y9727D02*
Y9809D01*
X3510Y6145D02*
X3628D01*
X3510Y6225D02*
X3628D01*
X1468Y9500D02*
Y9597D01*
Y9500D02*
X1690Y9278D01*
Y8611D02*
Y9278D01*
X2464Y7747D02*
X2642D01*
X1753Y7391D02*
Y7467D01*
Y5486D02*
Y5563D01*
X483Y9804D02*
Y10535D01*
Y8737D02*
Y9296D01*
D12*
X3670Y869D02*
D03*
Y699D02*
D03*
X3467Y869D02*
D03*
Y699D02*
D03*
X3264Y869D02*
D03*
Y699D02*
D03*
Y526D02*
D03*
Y356D02*
D03*
X3467Y526D02*
D03*
Y356D02*
D03*
X3670Y526D02*
D03*
Y356D02*
D03*
X7544Y10513D02*
D03*
Y10683D02*
D03*
X2995Y3379D02*
D03*
X3147D02*
D03*
X7696Y13284D02*
D03*
Y13114D02*
D03*
Y12758D02*
D03*
Y12928D02*
D03*
X7419Y9400D02*
D03*
Y9570D02*
D03*
Y9913D02*
D03*
Y9743D02*
D03*
X7696Y13611D02*
D03*
X5634Y13616D02*
D03*
X7309Y10683D02*
D03*
Y10513D02*
D03*
X3147Y3209D02*
D03*
X2995D02*
D03*
X2296Y2617D02*
D03*
Y2447D02*
D03*
X9368Y3367D02*
D03*
Y3537D02*
D03*
X8898D02*
D03*
Y3367D02*
D03*
X9215Y3537D02*
D03*
Y3367D02*
D03*
X9063Y3537D02*
D03*
Y3367D02*
D03*
X2980Y13734D02*
D03*
Y13564D02*
D03*
X1816Y13691D02*
D03*
Y13861D02*
D03*
X4903Y13801D02*
D03*
Y13631D02*
D03*
X4445Y13801D02*
D03*
Y13631D02*
D03*
X4598Y13631D02*
D03*
Y13801D02*
D03*
X4750Y13631D02*
D03*
Y13801D02*
D03*
X5385Y6265D02*
D03*
Y6435D02*
D03*
X5537Y6265D02*
D03*
Y6435D02*
D03*
X5690Y6265D02*
D03*
Y6435D02*
D03*
X5842Y6265D02*
D03*
Y6435D02*
D03*
X5232Y6265D02*
D03*
Y6435D02*
D03*
X960Y7626D02*
D03*
Y7456D02*
D03*
X808Y7626D02*
D03*
Y7456D02*
D03*
X9271Y14571D02*
D03*
Y14741D02*
D03*
X681Y12940D02*
D03*
Y12770D02*
D03*
X366Y13717D02*
D03*
Y13547D02*
D03*
X213Y13717D02*
D03*
Y13547D02*
D03*
X529Y12940D02*
D03*
Y12770D02*
D03*
X8865Y2952D02*
D03*
Y2782D02*
D03*
X7839Y3819D02*
D03*
Y3989D02*
D03*
X7686Y3819D02*
D03*
Y3989D02*
D03*
X7534Y3819D02*
D03*
Y3989D02*
D03*
X7381Y3819D02*
D03*
Y3989D02*
D03*
X7229Y3819D02*
D03*
Y3989D02*
D03*
X7076Y3819D02*
D03*
Y3989D02*
D03*
X9346Y1209D02*
D03*
Y1379D02*
D03*
X6998Y2991D02*
D03*
Y3161D02*
D03*
X6813Y2996D02*
D03*
Y3166D02*
D03*
X6660Y2996D02*
D03*
Y3166D02*
D03*
X5207Y1579D02*
D03*
Y1749D02*
D03*
X5118Y2506D02*
D03*
Y2676D02*
D03*
Y2163D02*
D03*
Y2333D02*
D03*
X4966Y2506D02*
D03*
Y2676D02*
D03*
Y2163D02*
D03*
Y2333D02*
D03*
X3137Y1609D02*
D03*
Y1439D02*
D03*
X3289Y1609D02*
D03*
Y1439D02*
D03*
X3658Y1736D02*
D03*
Y1566D02*
D03*
X3962Y1579D02*
D03*
Y1749D02*
D03*
X3810Y1579D02*
D03*
Y1749D02*
D03*
X5271Y2506D02*
D03*
Y2676D02*
D03*
X6689Y1687D02*
D03*
Y1857D02*
D03*
X5423Y2506D02*
D03*
Y2676D02*
D03*
X6537Y1687D02*
D03*
Y1857D02*
D03*
Y1344D02*
D03*
Y1514D02*
D03*
X6689Y1514D02*
D03*
Y1344D02*
D03*
X5575Y2506D02*
D03*
Y2676D02*
D03*
X6033D02*
D03*
Y2506D02*
D03*
X5880Y2676D02*
D03*
Y2506D02*
D03*
X5728Y2676D02*
D03*
Y2506D02*
D03*
X6108Y1638D02*
D03*
Y1468D02*
D03*
X5956Y1638D02*
D03*
Y1468D02*
D03*
X4757Y3372D02*
D03*
Y3202D02*
D03*
X6134Y3133D02*
D03*
Y2963D02*
D03*
X5994Y6435D02*
D03*
Y6265D02*
D03*
X7696Y13781D02*
D03*
X5634Y13786D02*
D03*
X4991Y3374D02*
D03*
Y3204D02*
D03*
X5385Y1749D02*
D03*
Y1579D02*
D03*
D13*
X2753Y2943D02*
D03*
X2880D02*
D03*
X2499Y2463D02*
D03*
X2626D02*
D03*
X2753D02*
D03*
X2880D02*
D03*
X3007D02*
D03*
X3134D02*
D03*
X3261D02*
D03*
X3388D02*
D03*
X2499Y2943D02*
D03*
X2626D02*
D03*
X3007D02*
D03*
X3134D02*
D03*
X3261D02*
D03*
X3388D02*
D03*
D14*
X7068Y12517D02*
D03*
X6898D02*
D03*
X6542D02*
D03*
X6712D02*
D03*
X9948Y1560D02*
D03*
X9778D02*
D03*
X2475Y3192D02*
D03*
X2645D02*
D03*
X2859Y2151D02*
D03*
X3029D02*
D03*
X2516D02*
D03*
X2686D02*
D03*
X3202D02*
D03*
X3372D02*
D03*
X10181Y3537D02*
D03*
X10350D02*
D03*
X10682D02*
D03*
X10512D02*
D03*
X1642Y13526D02*
D03*
X1812D02*
D03*
X3158Y13399D02*
D03*
X2988D02*
D03*
X4698Y10894D02*
D03*
X4868D02*
D03*
X4868Y10742D02*
D03*
X4698D02*
D03*
X588Y7795D02*
D03*
X418D02*
D03*
X4542Y9608D02*
D03*
X4712D02*
D03*
X4967Y8862D02*
D03*
X5137D02*
D03*
X4712Y9303D02*
D03*
X4542D02*
D03*
X4712Y9455D02*
D03*
X4542D02*
D03*
X588Y7948D02*
D03*
X418D02*
D03*
X4652Y8202D02*
D03*
X4822D02*
D03*
X5452D02*
D03*
X5282D02*
D03*
X431Y7236D02*
D03*
X601D02*
D03*
X9669Y11923D02*
D03*
X9499D02*
D03*
X9527Y11161D02*
D03*
X9357D02*
D03*
X9326Y11923D02*
D03*
X9156D02*
D03*
X9669Y9357D02*
D03*
X9499D02*
D03*
X9514Y8595D02*
D03*
X9344D02*
D03*
X9326Y9357D02*
D03*
X9156D02*
D03*
X889Y12789D02*
D03*
X1059D02*
D03*
X1414Y13294D02*
D03*
X1244D02*
D03*
X1244Y13142D02*
D03*
X1414D02*
D03*
X1059Y12941D02*
D03*
X889D02*
D03*
X8647Y2952D02*
D03*
X8477D02*
D03*
X8647Y3104D02*
D03*
X8477D02*
D03*
X8602Y1938D02*
D03*
X8772D02*
D03*
X8957D02*
D03*
X9127D02*
D03*
X8647Y2586D02*
D03*
X8477D02*
D03*
X8028Y1415D02*
D03*
X7858D02*
D03*
X7279D02*
D03*
X7449D02*
D03*
X8647Y3257D02*
D03*
X8477D02*
D03*
X8477Y2799D02*
D03*
X8647D02*
D03*
X6181Y3810D02*
D03*
X6011D02*
D03*
X5457Y4417D02*
D03*
X5287D02*
D03*
X4351Y3442D02*
D03*
X4521D02*
D03*
X4351Y3747D02*
D03*
X4521D02*
D03*
X4351Y3594D02*
D03*
X4521D02*
D03*
X8970Y5220D02*
D03*
X9140D02*
D03*
X4047Y13825D02*
D03*
X3877D02*
D03*
X4047Y13520D02*
D03*
X3877D02*
D03*
X4047Y13672D02*
D03*
X3877D02*
D03*
X8970Y5055D02*
D03*
X9140D02*
D03*
X9975Y3988D02*
D03*
X10145D02*
D03*
Y3835D02*
D03*
X9975D02*
D03*
X9140Y4890D02*
D03*
X8970D02*
D03*
X9140Y4705D02*
D03*
X8970D02*
D03*
X9140Y4485D02*
D03*
X8970D02*
D03*
X9140Y4275D02*
D03*
X8970D02*
D03*
D15*
X2489Y12662D02*
D03*
Y12510D02*
D03*
X4674Y10401D02*
D03*
X4051Y9335D02*
D03*
Y9182D02*
D03*
X4204D02*
D03*
X3899Y9335D02*
D03*
X1550Y10356D02*
D03*
Y10203D02*
D03*
Y10051D02*
D03*
Y9899D02*
D03*
X2007Y9373D02*
D03*
X5283Y5740D02*
D03*
D16*
X6889Y11882D02*
D03*
Y11374D02*
D03*
X7309D02*
D03*
Y11882D02*
D03*
X5447Y9362D02*
D03*
Y9870D02*
D03*
X5027D02*
D03*
Y9362D02*
D03*
D17*
X5452Y8532D02*
D03*
X4652D02*
D03*
D18*
X376Y6995D02*
D03*
X1146Y6993D02*
D03*
Y6545D02*
D03*
X376D02*
D03*
D19*
X1011Y4476D02*
D03*
X757D02*
D03*
X503D02*
D03*
Y5301D02*
D03*
X757D02*
D03*
X1011D02*
D03*
D20*
X5512Y6891D02*
D03*
D21*
X5637Y6675D02*
D03*
X5587D02*
D03*
X5487D02*
D03*
X5387D02*
D03*
Y7106D02*
D03*
X5437D02*
D03*
X5487D02*
D03*
X5537D02*
D03*
X5587D02*
D03*
X5637D02*
D03*
X5437Y6675D02*
D03*
X5537D02*
D03*
D22*
X5296Y6816D02*
D03*
Y6866D02*
D03*
Y6916D02*
D03*
Y6966D02*
D03*
Y7016D02*
D03*
X5727D02*
D03*
Y6966D02*
D03*
Y6916D02*
D03*
Y6866D02*
D03*
Y6816D02*
D03*
Y6766D02*
D03*
X5296D02*
D03*
D23*
X9104Y1231D02*
D03*
Y1358D02*
D03*
Y1485D02*
D03*
Y1612D02*
D03*
X8624Y1231D02*
D03*
Y1358D02*
D03*
Y1485D02*
D03*
Y1612D02*
D03*
X4435Y1854D02*
D03*
Y1727D02*
D03*
Y1600D02*
D03*
Y1473D02*
D03*
X4915Y1854D02*
D03*
Y1727D02*
D03*
Y1600D02*
D03*
Y1473D02*
D03*
D24*
X4169Y12266D02*
D03*
X4119D02*
D03*
X4069D02*
D03*
X4019D02*
D03*
X3919D02*
D03*
X3869D02*
D03*
X3819D02*
D03*
X3769D02*
D03*
X3719D02*
D03*
X3669D02*
D03*
X3619D02*
D03*
X3569D02*
D03*
X3519D02*
D03*
X3469D02*
D03*
X3419D02*
D03*
X3369D02*
D03*
X3319D02*
D03*
X3269D02*
D03*
X3219D02*
D03*
X3169D02*
D03*
X3119D02*
D03*
X3069D02*
D03*
X3019D02*
D03*
X2969D02*
D03*
X2919D02*
D03*
X2869D02*
D03*
X2819D02*
D03*
X2769D02*
D03*
X2719D02*
D03*
X2669D02*
D03*
X2619D02*
D03*
X2569D02*
D03*
X2519D02*
D03*
X2469D02*
D03*
X2419D02*
D03*
X2369D02*
D03*
X2319D02*
D03*
X2269D02*
D03*
X2219D02*
D03*
X2169D02*
D03*
X2119D02*
D03*
X2069D02*
D03*
X2019D02*
D03*
Y9751D02*
D03*
X2069D02*
D03*
X2119D02*
D03*
X2219D02*
D03*
X2269D02*
D03*
X2319D02*
D03*
X2369D02*
D03*
X2419D02*
D03*
X2469D02*
D03*
X2519D02*
D03*
X2569D02*
D03*
X2619D02*
D03*
X2669D02*
D03*
X2719D02*
D03*
X2769D02*
D03*
X2819D02*
D03*
X2869D02*
D03*
X2919D02*
D03*
X2969D02*
D03*
X3019D02*
D03*
X3069D02*
D03*
X3119D02*
D03*
X3169D02*
D03*
X3219D02*
D03*
X3269D02*
D03*
X3319D02*
D03*
X3369D02*
D03*
X3419D02*
D03*
X3469D02*
D03*
X3519D02*
D03*
X3569D02*
D03*
X3619D02*
D03*
X3669D02*
D03*
X3719D02*
D03*
X3769D02*
D03*
X3819D02*
D03*
X3869D02*
D03*
X3919D02*
D03*
X3969D02*
D03*
X4019D02*
D03*
X4069D02*
D03*
X4119D02*
D03*
X4169D02*
D03*
X2169D02*
D03*
X3969Y12266D02*
D03*
D25*
X1836Y12083D02*
D03*
Y12033D02*
D03*
Y11983D02*
D03*
Y11933D02*
D03*
Y11883D02*
D03*
Y11833D02*
D03*
Y11783D02*
D03*
Y11733D02*
D03*
Y11683D02*
D03*
Y11633D02*
D03*
Y11583D02*
D03*
Y11533D02*
D03*
Y11483D02*
D03*
Y11433D02*
D03*
Y11383D02*
D03*
Y11333D02*
D03*
Y11283D02*
D03*
Y11233D02*
D03*
Y11183D02*
D03*
Y11133D02*
D03*
Y11083D02*
D03*
Y11033D02*
D03*
Y10983D02*
D03*
Y10933D02*
D03*
Y10883D02*
D03*
Y10833D02*
D03*
Y10783D02*
D03*
Y10733D02*
D03*
Y10683D02*
D03*
Y10633D02*
D03*
Y10583D02*
D03*
Y10533D02*
D03*
Y10483D02*
D03*
Y10433D02*
D03*
Y10383D02*
D03*
Y10233D02*
D03*
Y10183D02*
D03*
Y10033D02*
D03*
Y9983D02*
D03*
Y9933D02*
D03*
X4351D02*
D03*
Y9983D02*
D03*
Y10033D02*
D03*
Y10083D02*
D03*
Y10133D02*
D03*
Y10183D02*
D03*
Y10233D02*
D03*
Y10283D02*
D03*
Y10333D02*
D03*
Y10383D02*
D03*
Y10433D02*
D03*
Y10483D02*
D03*
Y10533D02*
D03*
Y10583D02*
D03*
Y10633D02*
D03*
Y10683D02*
D03*
Y10733D02*
D03*
Y10783D02*
D03*
Y10833D02*
D03*
Y10883D02*
D03*
Y10933D02*
D03*
Y10983D02*
D03*
Y11033D02*
D03*
Y11083D02*
D03*
Y11133D02*
D03*
Y11183D02*
D03*
Y11233D02*
D03*
Y11283D02*
D03*
Y11333D02*
D03*
Y11383D02*
D03*
Y11433D02*
D03*
Y11483D02*
D03*
Y11533D02*
D03*
Y11583D02*
D03*
Y11633D02*
D03*
Y11683D02*
D03*
Y11733D02*
D03*
Y11783D02*
D03*
Y11833D02*
D03*
Y11883D02*
D03*
Y11933D02*
D03*
Y11983D02*
D03*
Y12033D02*
D03*
Y12083D02*
D03*
X1836Y10333D02*
D03*
Y10283D02*
D03*
Y10133D02*
D03*
Y10083D02*
D03*
D26*
X3094Y11008D02*
D03*
D27*
X412Y7432D02*
D03*
Y7624D02*
D03*
X618D02*
D03*
D28*
Y7452D02*
D03*
D29*
X9316Y3852D02*
D03*
X9076Y3757D02*
D03*
Y3947D02*
D03*
D30*
X2011Y13806D02*
D03*
Y13679D02*
D03*
Y13552D02*
D03*
Y13425D02*
D03*
X2746Y13806D02*
D03*
Y13679D02*
D03*
Y13552D02*
D03*
Y13425D02*
D03*
D31*
X5892Y2050D02*
D03*
Y2000D02*
D03*
Y1950D02*
D03*
Y1900D02*
D03*
Y1850D02*
D03*
X6292Y2050D02*
D03*
Y2000D02*
D03*
Y1950D02*
D03*
Y1900D02*
D03*
Y1850D02*
D03*
D32*
X5208Y2997D02*
D03*
X5272D02*
D03*
X5338D02*
D03*
X5403D02*
D03*
X5467D02*
D03*
X5533D02*
D03*
X5597D02*
D03*
X5662D02*
D03*
X5728D02*
D03*
X5792D02*
D03*
X5208Y3567D02*
D03*
X5272D02*
D03*
X5338D02*
D03*
X5403D02*
D03*
X5467D02*
D03*
X5533D02*
D03*
X5597D02*
D03*
X5662D02*
D03*
X5728D02*
D03*
X5792D02*
D03*
D33*
X8009Y2702D02*
D03*
Y2752D02*
D03*
Y2802D02*
D03*
Y2852D02*
D03*
Y2902D02*
D03*
Y2952D02*
D03*
Y3002D02*
D03*
Y3052D02*
D03*
Y3102D02*
D03*
Y3152D02*
D03*
Y3202D02*
D03*
Y3252D02*
D03*
X7199D02*
D03*
Y3202D02*
D03*
Y3152D02*
D03*
Y3102D02*
D03*
Y3052D02*
D03*
Y3002D02*
D03*
Y2952D02*
D03*
Y2902D02*
D03*
Y2852D02*
D03*
Y2802D02*
D03*
Y2752D02*
D03*
Y2702D02*
D03*
X5892Y10783D02*
D03*
Y10733D02*
D03*
Y10683D02*
D03*
Y10633D02*
D03*
Y10583D02*
D03*
Y10533D02*
D03*
Y10483D02*
D03*
Y10433D02*
D03*
Y10383D02*
D03*
Y10333D02*
D03*
Y10283D02*
D03*
Y10233D02*
D03*
X6702D02*
D03*
Y10283D02*
D03*
Y10333D02*
D03*
Y10383D02*
D03*
Y10433D02*
D03*
Y10483D02*
D03*
Y10533D02*
D03*
Y10583D02*
D03*
Y10633D02*
D03*
Y10683D02*
D03*
Y10733D02*
D03*
Y10783D02*
D03*
D34*
X7879Y3382D02*
D03*
X7829D02*
D03*
X7779D02*
D03*
X7729D02*
D03*
X7679D02*
D03*
X7629D02*
D03*
X7579D02*
D03*
X7529D02*
D03*
X7479D02*
D03*
X7429D02*
D03*
X7379D02*
D03*
X7329D02*
D03*
Y2572D02*
D03*
X7379D02*
D03*
X7429D02*
D03*
X7479D02*
D03*
X7529D02*
D03*
X7579D02*
D03*
X7629D02*
D03*
X7679D02*
D03*
X7729D02*
D03*
X7779D02*
D03*
X7829D02*
D03*
X7879D02*
D03*
X6022Y10103D02*
D03*
X6072D02*
D03*
X6122D02*
D03*
X6172D02*
D03*
X6222D02*
D03*
X6272D02*
D03*
X6322D02*
D03*
X6372D02*
D03*
X6422D02*
D03*
X6472D02*
D03*
X6522D02*
D03*
X6572D02*
D03*
Y10913D02*
D03*
X6522D02*
D03*
X6472D02*
D03*
X6422D02*
D03*
X6372D02*
D03*
X6322D02*
D03*
X6272D02*
D03*
X6222D02*
D03*
X6172D02*
D03*
X6122D02*
D03*
X6072D02*
D03*
X6022D02*
D03*
D35*
X9393Y9954D02*
D03*
Y9827D02*
D03*
Y9700D02*
D03*
Y9573D02*
D03*
X9952Y9954D02*
D03*
Y9827D02*
D03*
Y9700D02*
D03*
Y9573D02*
D03*
X9393Y12520D02*
D03*
Y12393D02*
D03*
Y12266D02*
D03*
Y12139D02*
D03*
X9952Y12520D02*
D03*
Y12393D02*
D03*
Y12266D02*
D03*
Y12139D02*
D03*
D36*
X548Y6166D02*
D03*
Y5966D02*
D03*
Y5766D02*
D03*
X973Y6166D02*
D03*
Y5966D02*
D03*
Y5766D02*
D03*
D37*
X5156Y14272D02*
D03*
X5410Y14628D02*
D03*
X4648Y14272D02*
D03*
X4902Y14628D02*
D03*
X4140Y14272D02*
D03*
X4394Y14628D02*
D03*
X3632Y14272D02*
D03*
X3886Y14628D02*
D03*
X3124Y14272D02*
D03*
X3378Y14628D02*
D03*
X2616Y14272D02*
D03*
X2870Y14628D02*
D03*
X2362D02*
D03*
X1854D02*
D03*
X2108Y14272D02*
D03*
X1600D02*
D03*
X6262Y7460D02*
D03*
X5754D02*
D03*
X6008Y7816D02*
D03*
X5500D02*
D03*
X4992D02*
D03*
X5246Y7460D02*
D03*
X4738D02*
D03*
D38*
X5115Y898D02*
D03*
Y598D02*
D03*
X4260Y1128D02*
D03*
X5115Y298D02*
D03*
X6740Y898D02*
D03*
Y598D02*
D03*
X5885Y1128D02*
D03*
X6740Y298D02*
D03*
D39*
X4228Y488D02*
D03*
X5853D02*
D03*
D40*
X2523Y6705D02*
D03*
Y6625D02*
D03*
Y6545D02*
D03*
Y6465D02*
D03*
Y6385D02*
D03*
Y6305D02*
D03*
Y6225D02*
D03*
Y6145D02*
D03*
Y6065D02*
D03*
Y5985D02*
D03*
Y5905D02*
D03*
Y5825D02*
D03*
Y5745D02*
D03*
Y5665D02*
D03*
Y5585D02*
D03*
Y5505D02*
D03*
Y5425D02*
D03*
Y5345D02*
D03*
Y5265D02*
D03*
Y5185D02*
D03*
Y5105D02*
D03*
Y5025D02*
D03*
Y4945D02*
D03*
Y4865D02*
D03*
Y4785D02*
D03*
Y4705D02*
D03*
Y4625D02*
D03*
X3628Y6705D02*
D03*
Y6625D02*
D03*
Y6545D02*
D03*
Y6465D02*
D03*
Y6385D02*
D03*
Y6305D02*
D03*
Y6225D02*
D03*
Y6145D02*
D03*
Y6065D02*
D03*
Y5985D02*
D03*
Y5905D02*
D03*
Y5825D02*
D03*
Y5745D02*
D03*
Y5665D02*
D03*
Y5585D02*
D03*
Y5505D02*
D03*
Y5425D02*
D03*
Y5345D02*
D03*
Y5265D02*
D03*
Y5185D02*
D03*
Y5105D02*
D03*
Y5025D02*
D03*
Y4945D02*
D03*
Y4865D02*
D03*
Y4785D02*
D03*
Y4705D02*
D03*
Y4625D02*
D03*
D41*
X10399Y13028D02*
D03*
X9685D02*
D03*
X10399Y13790D02*
D03*
X9685D02*
D03*
X10399Y10462D02*
D03*
X9685D02*
D03*
D42*
X8606Y12336D02*
D03*
Y13236D02*
D03*
Y9771D02*
D03*
Y10671D02*
D03*
D43*
X9271Y14339D02*
D03*
Y14059D02*
D03*
D44*
X9154Y11542D02*
D03*
X9759D02*
D03*
X9142Y8976D02*
D03*
X9746D02*
D03*
D45*
X10320Y12234D02*
D03*
Y12424D02*
D03*
X10524Y12234D02*
D03*
Y12424D02*
D03*
X9342Y12933D02*
D03*
Y13123D02*
D03*
X10308Y9675D02*
D03*
Y9865D02*
D03*
X10514Y9675D02*
D03*
Y9865D02*
D03*
X9342Y10316D02*
D03*
Y10506D02*
D03*
X2959Y1619D02*
D03*
Y1429D02*
D03*
X4140Y1569D02*
D03*
Y1759D02*
D03*
X5423Y2140D02*
D03*
Y2330D02*
D03*
X6287Y1644D02*
D03*
Y1454D02*
D03*
D46*
X8288Y11948D02*
D03*
X8848D02*
D03*
X8288Y9395D02*
D03*
X8848D02*
D03*
D47*
X808Y13935D02*
D03*
D48*
X1062Y13335D02*
D03*
X935D02*
D03*
X808D02*
D03*
X681D02*
D03*
X554D02*
D03*
D49*
X8076Y1745D02*
D03*
X7226D02*
D03*
D50*
X5812Y4810D02*
D03*
Y4390D02*
D03*
X6320Y4810D02*
D03*
Y4390D02*
D03*
D51*
X6116Y2257D02*
D03*
X6306D02*
D03*
X4341Y3924D02*
D03*
X4531D02*
D03*
D52*
X3145Y8889D02*
D03*
Y8759D02*
D03*
X3018Y8889D02*
D03*
Y8759D02*
D03*
X2891Y8889D02*
D03*
Y8759D02*
D03*
X2764Y8889D02*
D03*
Y8759D02*
D03*
X2637Y8889D02*
D03*
Y8759D02*
D03*
X2510Y8889D02*
D03*
Y8759D02*
D03*
X2383Y8889D02*
D03*
Y8759D02*
D03*
X2256Y8889D02*
D03*
Y8759D02*
D03*
X2129Y8889D02*
D03*
Y8759D02*
D03*
X2002Y8889D02*
D03*
Y8759D02*
D03*
X1875Y8889D02*
D03*
Y8759D02*
D03*
X1621Y9727D02*
D03*
Y9597D02*
D03*
X1468Y9727D02*
D03*
Y9597D02*
D03*
X1316Y9841D02*
D03*
Y9711D02*
D03*
X4161Y8889D02*
D03*
Y8759D02*
D03*
X3272Y8759D02*
D03*
Y8889D02*
D03*
X3653Y8889D02*
D03*
Y8759D02*
D03*
X3399Y8759D02*
D03*
Y8889D02*
D03*
X3526Y8889D02*
D03*
Y8759D02*
D03*
X3780Y8889D02*
D03*
Y8759D02*
D03*
X3907Y8889D02*
D03*
Y8759D02*
D03*
X4034Y8889D02*
D03*
Y8759D02*
D03*
X4288Y8759D02*
D03*
Y8889D02*
D03*
X5685Y11238D02*
D03*
Y11368D02*
D03*
X3269Y12661D02*
D03*
Y12531D02*
D03*
X3569Y12665D02*
D03*
Y12535D02*
D03*
X6662Y11238D02*
D03*
Y11368D02*
D03*
X6535Y11238D02*
D03*
Y11368D02*
D03*
X6370Y11238D02*
D03*
Y11368D02*
D03*
X6193Y11238D02*
D03*
Y11368D02*
D03*
X6066Y11238D02*
D03*
Y11368D02*
D03*
X5939Y11238D02*
D03*
Y11368D02*
D03*
X5812Y11238D02*
D03*
Y11368D02*
D03*
X7309Y10971D02*
D03*
Y11101D02*
D03*
X5144Y3961D02*
D03*
Y4091D02*
D03*
X5601Y3961D02*
D03*
Y4091D02*
D03*
X5296Y3961D02*
D03*
Y4091D02*
D03*
X5448Y3961D02*
D03*
Y4091D02*
D03*
X4991Y3961D02*
D03*
Y4091D02*
D03*
X4839Y3961D02*
D03*
Y4091D02*
D03*
X5753Y3961D02*
D03*
Y4091D02*
D03*
D53*
X3923Y4699D02*
D03*
X4053D02*
D03*
X3923Y4826D02*
D03*
X4053D02*
D03*
X3923Y4953D02*
D03*
X4053D02*
D03*
X3923Y5080D02*
D03*
X4053D02*
D03*
X3923Y5207D02*
D03*
X4053D02*
D03*
X3923Y5334D02*
D03*
X4053D02*
D03*
X3923Y5461D02*
D03*
X4053D02*
D03*
X3923Y5588D02*
D03*
X4053D02*
D03*
X2224D02*
D03*
X2094D02*
D03*
X2224Y5461D02*
D03*
X2094D02*
D03*
X2224Y5334D02*
D03*
X2094D02*
D03*
X2224Y5207D02*
D03*
X2094D02*
D03*
X2224Y5080D02*
D03*
X2094D02*
D03*
X2224Y4953D02*
D03*
X2094D02*
D03*
X2224Y4826D02*
D03*
X2094D02*
D03*
X2224Y4699D02*
D03*
X2094D02*
D03*
X4767Y10244D02*
D03*
X4897D02*
D03*
X4609Y11925D02*
D03*
X4739D02*
D03*
X4609Y11798D02*
D03*
X4739D02*
D03*
X4891Y11367D02*
D03*
X4761D02*
D03*
X4739Y12052D02*
D03*
X4609D02*
D03*
X4891Y11519D02*
D03*
X4761D02*
D03*
D54*
X9207Y7396D02*
D03*
Y7566D02*
D03*
X10097D02*
D03*
Y7396D02*
D03*
Y7996D02*
D03*
X9207D02*
D03*
Y7826D02*
D03*
D55*
X8897Y6883D02*
D03*
Y6088D02*
D03*
X9347D02*
D03*
Y6883D02*
D03*
X10114Y6881D02*
D03*
Y6086D02*
D03*
X10564D02*
D03*
Y6881D02*
D03*
D56*
X3467Y13545D02*
D03*
X3657D02*
D03*
X3562Y13785D02*
D03*
D57*
X10640Y4190D02*
D03*
Y5716D02*
D03*
X9790D02*
D03*
D58*
X10145Y4210D02*
D03*
D59*
X9985Y4190D02*
D03*
D60*
X9350Y4705D02*
D03*
Y4815D02*
D03*
Y4375D02*
D03*
Y4485D02*
D03*
Y4595D02*
D03*
Y4925D02*
D03*
Y5035D02*
D03*
Y5145D02*
D03*
Y4275D02*
D03*
D61*
X4140Y1759D02*
X4172Y1727D01*
X4435D01*
X3810Y1749D02*
X3962D01*
X4130D01*
X3670D02*
X3810D01*
X3658Y1736D02*
X3670Y1749D01*
D62*
X554Y13114D02*
Y13335D01*
X681Y12940D02*
Y13335D01*
X808Y13114D02*
Y13335D01*
D63*
Y13935D02*
Y14130D01*
D64*
X1398Y505D02*
D03*
D65*
X998D02*
D03*
D66*
X6095Y14202D02*
D03*
X7238D02*
D03*
D67*
X7213Y12830D02*
D03*
X6959D02*
D03*
X6374D02*
D03*
X6120D02*
D03*
X7111Y13567D02*
D03*
X6984Y13313D02*
D03*
X6857Y13567D02*
D03*
X6730Y13313D02*
D03*
X6476D02*
D03*
X6603Y13567D02*
D03*
X6349D02*
D03*
D68*
X6222Y13313D02*
D03*
D69*
X8394Y14330D02*
D03*
D70*
X8884Y14025D02*
D03*
D71*
X8394Y13730D02*
D03*
D72*
X10124Y3103D02*
D03*
Y1899D02*
D03*
X1798Y4005D02*
D03*
X598D02*
D03*
X1798Y905D02*
D03*
X598D02*
D03*
D73*
X9853Y2376D02*
D03*
Y2626D02*
D03*
X9653Y2376D02*
D03*
Y2626D02*
D03*
D74*
X4678Y228D02*
D03*
X6303D02*
D03*
D75*
X4678Y768D02*
D03*
X6303D02*
D03*
X699Y12581D02*
D03*
X356D02*
D03*
X529D02*
D03*
X1854Y14422D02*
D03*
X3632Y14478D02*
D03*
X3886Y14422D02*
D03*
X2108Y14478D02*
D03*
X9881Y11951D02*
D03*
X10376D02*
D03*
X10363Y9391D02*
D03*
X10198D02*
D03*
X10033D02*
D03*
X9868D02*
D03*
X10211Y11951D02*
D03*
X10046D02*
D03*
X8083Y11826D02*
D03*
Y12030D02*
D03*
Y11623D02*
D03*
Y11217D02*
D03*
Y11420D02*
D03*
X8248Y11217D02*
D03*
Y11420D02*
D03*
Y11623D02*
D03*
X10020Y11544D02*
D03*
X9703Y11163D02*
D03*
X9969Y13030D02*
D03*
Y10465D02*
D03*
X9690Y8598D02*
D03*
X9931Y8700D02*
D03*
X8248Y9071D02*
D03*
Y8867D02*
D03*
Y8664D02*
D03*
X8083Y8867D02*
D03*
Y8664D02*
D03*
Y9071D02*
D03*
Y9477D02*
D03*
Y9274D02*
D03*
X554Y13127D02*
D03*
X808Y14130D02*
D03*
Y13127D02*
D03*
D76*
X5879Y13897D02*
D03*
X7454D02*
D03*
D77*
X10014Y631D02*
D03*
X10204D02*
D03*
D78*
X7563Y9400D02*
D03*
Y9913D02*
D03*
X5740Y10376D02*
D03*
X4178Y10401D02*
D03*
X889Y12693D02*
D03*
X4178Y4585D02*
D03*
X3188Y12103D02*
D03*
X2654Y12090D02*
D03*
X3683D02*
D03*
X4117Y10576D02*
D03*
X4069Y9622D02*
D03*
X1283Y12103D02*
D03*
X1029Y12597D02*
D03*
X965Y12535D02*
D03*
X902Y12471D02*
D03*
X1414Y13016D02*
D03*
X3048Y12586D02*
D03*
X3035Y12103D02*
D03*
X1588Y11938D02*
D03*
X3969Y12079D02*
D03*
X9063Y3642D02*
D03*
X9215D02*
D03*
X9368D02*
D03*
X10075Y3537D02*
D03*
X8753Y3257D02*
D03*
X8898Y3642D02*
D03*
X8939Y3757D02*
D03*
X7829Y3245D02*
D03*
X7429Y3073D02*
D03*
X8898Y3261D02*
D03*
X9063D02*
D03*
X9215D02*
D03*
X1974Y10583D02*
D03*
X1664Y10960D02*
D03*
X1974Y10933D02*
D03*
X2007Y11443D02*
D03*
Y11239D02*
D03*
X1974Y10383D02*
D03*
X1676Y10211D02*
D03*
X1974Y10183D02*
D03*
X2757Y13979D02*
D03*
X7309Y10395D02*
D03*
X5048Y10230D02*
D03*
X4788Y10401D02*
D03*
X6515Y3010D02*
D03*
X8882Y2561D02*
D03*
X6655Y4661D02*
D03*
X5232Y6147D02*
D03*
X7544Y10820D02*
D03*
X4331Y13386D02*
D03*
X4712Y13462D02*
D03*
X4635D02*
D03*
X7729Y2725D02*
D03*
X7829D02*
D03*
X7779Y2419D02*
D03*
X7798Y2000D02*
D03*
X7645D02*
D03*
X7493D02*
D03*
X7544Y2426D02*
D03*
X9263Y1938D02*
D03*
X4864Y10516D02*
D03*
X4597Y10960D02*
D03*
X5842Y6147D02*
D03*
X5690D02*
D03*
X5537D02*
D03*
X5392Y11684D02*
D03*
X5309D02*
D03*
X5220Y11287D02*
D03*
X5715Y10452D02*
D03*
X6355Y9383D02*
D03*
X6507D02*
D03*
X6203Y9383D02*
D03*
X6660Y9383D02*
D03*
X5220Y11519D02*
D03*
X5467D02*
D03*
X5593Y11367D02*
D03*
X7557Y10160D02*
D03*
Y10071D02*
D03*
Y10249D02*
D03*
X7239Y10008D02*
D03*
X6962Y10126D02*
D03*
X6193Y11455D02*
D03*
X6066D02*
D03*
X7041Y11374D02*
D03*
X7156Y11882D02*
D03*
X4191Y10770D02*
D03*
X4559Y10818D02*
D03*
X4527Y10633D02*
D03*
X4489Y10859D02*
D03*
X6287Y9868D02*
D03*
X6613Y9928D02*
D03*
X6463D02*
D03*
X6280D02*
D03*
X6372D02*
D03*
X6423Y10249D02*
D03*
X6522Y10234D02*
D03*
X6449Y10312D02*
D03*
X6297D02*
D03*
X6144D02*
D03*
X6272Y10234D02*
D03*
X5145Y8202D02*
D03*
X4959D02*
D03*
X4405Y9303D02*
D03*
Y9455D02*
D03*
Y9608D02*
D03*
X1588Y12954D02*
D03*
X1572Y13030D02*
D03*
X2108Y12955D02*
D03*
Y13056D02*
D03*
X2656Y13194D02*
D03*
X2738Y13252D02*
D03*
X1011Y4295D02*
D03*
X757D02*
D03*
X503D02*
D03*
X2184Y12636D02*
D03*
X1206Y12065D02*
D03*
Y11976D02*
D03*
Y11887D02*
D03*
Y11798D02*
D03*
Y11709D02*
D03*
Y11621D02*
D03*
X8839Y4485D02*
D03*
Y4705D02*
D03*
Y4890D02*
D03*
Y5055D02*
D03*
X6622Y12636D02*
D03*
X6992D02*
D03*
X7696Y12593D02*
D03*
X6796Y10913D02*
D03*
X6109Y9906D02*
D03*
X6449Y10703D02*
D03*
X6297D02*
D03*
X6144D02*
D03*
X6447Y12517D02*
D03*
X7163D02*
D03*
X6104Y13056D02*
D03*
X7696Y13404D02*
D03*
Y13490D02*
D03*
X7213Y13314D02*
D03*
X6907Y13792D02*
D03*
X6537D02*
D03*
X5990Y13196D02*
D03*
Y13566D02*
D03*
X7104Y11443D02*
D03*
Y11814D02*
D03*
X1613Y12396D02*
D03*
X1703Y12396D02*
D03*
X3315Y12954D02*
D03*
X3251Y13018D02*
D03*
X7795Y4191D02*
D03*
X7645Y4420D02*
D03*
X7493Y4496D02*
D03*
X7341Y4115D02*
D03*
X7188Y4267D02*
D03*
X7036Y4343D02*
D03*
X3492Y12827D02*
D03*
X3810Y12711D02*
D03*
X3886Y13160D02*
D03*
X3975Y13085D02*
D03*
X4064Y12861D02*
D03*
X4128Y13235D02*
D03*
X4216Y13310D02*
D03*
Y12522D02*
D03*
X4128D02*
D03*
X3950D02*
D03*
X3861D02*
D03*
X3772D02*
D03*
X3683D02*
D03*
X3469Y12421D02*
D03*
X2341Y12721D02*
D03*
X2390Y12657D02*
D03*
X2783Y12802D02*
D03*
X2705D02*
D03*
X2832Y12103D02*
D03*
X5220Y11367D02*
D03*
Y11600D02*
D03*
X2378Y13392D02*
D03*
Y13800D02*
D03*
X2162Y13425D02*
D03*
X2596Y13806D02*
D03*
X5231Y9435D02*
D03*
Y9806D02*
D03*
X5303Y9870D02*
D03*
X5172Y9362D02*
D03*
X4724Y6239D02*
D03*
X9265Y1612D02*
D03*
X9456Y1209D02*
D03*
Y1379D02*
D03*
X3482Y2151D02*
D03*
X2645Y3303D02*
D03*
X2475D02*
D03*
X2296Y2337D02*
D03*
X7747Y1415D02*
D03*
X7559D02*
D03*
X4991Y4585D02*
D03*
X5220Y4623D02*
D03*
X5828Y4633D02*
D03*
X6304Y4582D02*
D03*
X3145Y8634D02*
D03*
X3018D02*
D03*
X2891D02*
D03*
X2764D02*
D03*
X3745Y6305D02*
D03*
Y6385D02*
D03*
Y6465D02*
D03*
Y6545D02*
D03*
Y6625D02*
D03*
X2405Y6065D02*
D03*
Y6145D02*
D03*
Y6225D02*
D03*
Y6305D02*
D03*
Y6385D02*
D03*
Y6465D02*
D03*
Y6545D02*
D03*
Y6625D02*
D03*
X1754Y8636D02*
D03*
X1875Y8634D02*
D03*
X2002D02*
D03*
X2129D02*
D03*
X2256D02*
D03*
X2383D02*
D03*
X2510D02*
D03*
X2637D02*
D03*
X2640Y6705D02*
D03*
X3510D02*
D03*
X2896D02*
D03*
X3271D02*
D03*
Y5665D02*
D03*
X2896D02*
D03*
X3271Y5505D02*
D03*
X2896D02*
D03*
X3271Y5265D02*
D03*
X2896D02*
D03*
X3271Y5025D02*
D03*
X2896D02*
D03*
X3271Y4785D02*
D03*
X2896D02*
D03*
X3271Y4625D02*
D03*
X2896D02*
D03*
X2640Y5665D02*
D03*
Y5505D02*
D03*
Y5265D02*
D03*
Y5025D02*
D03*
Y4785D02*
D03*
X3510Y4625D02*
D03*
Y4785D02*
D03*
Y5025D02*
D03*
Y5265D02*
D03*
Y5505D02*
D03*
Y5665D02*
D03*
X2640Y4625D02*
D03*
Y5985D02*
D03*
Y5905D02*
D03*
Y5825D02*
D03*
X4046Y6218D02*
D03*
X4110Y6154D02*
D03*
X4046Y6091D02*
D03*
X4110Y6027D02*
D03*
X4046Y5964D02*
D03*
X4280Y1854D02*
D03*
X5070D02*
D03*
X4757Y3084D02*
D03*
X6134Y2845D02*
D03*
X5792Y2879D02*
D03*
X5403D02*
D03*
X5271Y2388D02*
D03*
X6424Y2257D02*
D03*
X6148Y1950D02*
D03*
X5748Y1825D02*
D03*
X5118Y4988D02*
D03*
X4991D02*
D03*
X5220Y11443D02*
D03*
X4890Y11925D02*
D03*
X6842Y10618D02*
D03*
X6845Y10821D02*
D03*
X6546Y10733D02*
D03*
X9472Y4815D02*
D03*
Y4595D02*
D03*
X6626Y10913D02*
D03*
X6072Y10758D02*
D03*
X5960Y10913D02*
D03*
X3569Y12767D02*
D03*
X3269Y12763D02*
D03*
X366Y13421D02*
D03*
X213D02*
D03*
X366Y13830D02*
D03*
X213D02*
D03*
X2408Y12070D02*
D03*
X2603Y12078D02*
D03*
X2713Y12070D02*
D03*
X3780D02*
D03*
X3488Y12095D02*
D03*
X3475Y11651D02*
D03*
X3627D02*
D03*
X3893Y11787D02*
D03*
X3722Y11618D02*
D03*
Y11465D02*
D03*
Y11313D02*
D03*
Y11161D02*
D03*
Y11008D02*
D03*
Y10856D02*
D03*
Y10399D02*
D03*
Y10551D02*
D03*
Y10704D02*
D03*
X4117Y10399D02*
D03*
Y10704D02*
D03*
Y10856D02*
D03*
Y11008D02*
D03*
Y11161D02*
D03*
Y11313D02*
D03*
Y11465D02*
D03*
Y11618D02*
D03*
X2295Y11787D02*
D03*
X2561Y11651D02*
D03*
X2713D02*
D03*
X2489Y11618D02*
D03*
Y11465D02*
D03*
Y11313D02*
D03*
X2071D02*
D03*
Y11465D02*
D03*
Y11618D02*
D03*
Y10399D02*
D03*
Y10551D02*
D03*
X2489D02*
D03*
Y10399D02*
D03*
X2067Y10230D02*
D03*
X2180Y9947D02*
D03*
X2332D02*
D03*
X2484D02*
D03*
X2637D02*
D03*
X2789D02*
D03*
X2942D02*
D03*
Y10343D02*
D03*
X3094D02*
D03*
X3246D02*
D03*
X3551D02*
D03*
X3399D02*
D03*
X2789D02*
D03*
X2637D02*
D03*
X3094Y9947D02*
D03*
X3246D02*
D03*
X3551D02*
D03*
X3399D02*
D03*
X3704D02*
D03*
X3856D02*
D03*
X4008D02*
D03*
X4128Y10300D02*
D03*
X3645Y10343D02*
D03*
X2543D02*
D03*
X2489Y11135D02*
D03*
Y10932D02*
D03*
Y10729D02*
D03*
X2048D02*
D03*
Y10932D02*
D03*
X2045Y11087D02*
D03*
X2891Y12093D02*
D03*
X3094D02*
D03*
X2891Y11651D02*
D03*
X3094D02*
D03*
X3297D02*
D03*
X3344Y12120D02*
D03*
X3532D02*
D03*
X4194Y11483D02*
D03*
X4483Y11443D02*
D03*
X4194Y11783D02*
D03*
Y11183D02*
D03*
X4492Y11146D02*
D03*
X4026Y11760D02*
D03*
X4953Y11798D02*
D03*
X3385Y12097D02*
D03*
X1974Y12033D02*
D03*
Y12083D02*
D03*
X2069Y12129D02*
D03*
X2019D02*
D03*
X4214Y12083D02*
D03*
Y12033D02*
D03*
X4169Y12129D02*
D03*
X4119D02*
D03*
X1974Y9933D02*
D03*
Y9983D02*
D03*
X2019Y9888D02*
D03*
X2069D02*
D03*
X4169D02*
D03*
X4119D02*
D03*
X4214Y9933D02*
D03*
Y9983D02*
D03*
X2426Y12116D02*
D03*
X2858Y13221D02*
D03*
X2654Y13043D02*
D03*
X2870Y13679D02*
D03*
X2135Y13806D02*
D03*
X2502Y12408D02*
D03*
X1707Y13806D02*
D03*
X2980Y13860D02*
D03*
X3284Y13399D02*
D03*
X1816Y13987D02*
D03*
X1517Y13526D02*
D03*
X5275Y6675D02*
D03*
X5899Y7537D02*
D03*
Y7423D02*
D03*
X5093Y7595D02*
D03*
Y7683D02*
D03*
X9271Y14897D02*
D03*
X407Y12940D02*
D03*
X3769Y9888D02*
D03*
X4019D02*
D03*
X3969D02*
D03*
X3869D02*
D03*
X3391Y9576D02*
D03*
X3369Y9888D02*
D03*
X3169D02*
D03*
X3144Y9576D02*
D03*
X2769Y9888D02*
D03*
X2469D02*
D03*
X2569D02*
D03*
X2519Y9614D02*
D03*
X2319Y9888D02*
D03*
X3526Y8634D02*
D03*
X4161D02*
D03*
X4288Y8634D02*
D03*
X4458Y7849D02*
D03*
X4394Y7938D02*
D03*
X4331Y8026D02*
D03*
X4267Y8115D02*
D03*
X4204Y8204D02*
D03*
X5385Y6147D02*
D03*
X5994Y6553D02*
D03*
X10838Y3537D02*
D03*
X4191Y10300D02*
D03*
X4153Y10046D02*
D03*
X4489Y10183D02*
D03*
X4597Y10058D02*
D03*
X4166Y10465D02*
D03*
X4176Y10683D02*
D03*
X4166Y10973D02*
D03*
X8222Y3128D02*
D03*
X7772Y3556D02*
D03*
X7036Y3302D02*
D03*
X7062Y2802D02*
D03*
X3147Y3632D02*
D03*
X2995Y3556D02*
D03*
X232Y4750D02*
D03*
Y4902D02*
D03*
Y5055D02*
D03*
X607Y4902D02*
D03*
X673Y4750D02*
D03*
X504Y5157D02*
D03*
X337Y6166D02*
D03*
X897Y6337D02*
D03*
X5191Y6675D02*
D03*
X6337Y6693D02*
D03*
Y6769D02*
D03*
Y6845D02*
D03*
Y6921D02*
D03*
X897Y6545D02*
D03*
X190D02*
D03*
X736Y7236D02*
D03*
X808Y7321D02*
D03*
X902Y7239D02*
D03*
X431Y7126D02*
D03*
X412Y7361D02*
D03*
X673Y7353D02*
D03*
X698Y7948D02*
D03*
X6660Y3632D02*
D03*
X6813Y3556D02*
D03*
X10112Y1560D02*
D03*
X9614D02*
D03*
X5329Y298D02*
D03*
X5853Y273D02*
D03*
X5885Y913D02*
D03*
X6954Y298D02*
D03*
X3810Y1428D02*
D03*
X3962D02*
D03*
X4140Y1418D02*
D03*
X4284Y1600D02*
D03*
X5066Y1473D02*
D03*
X5385Y1910D02*
D03*
X6802Y1687D02*
D03*
X5956Y1317D02*
D03*
X6108D02*
D03*
X6121Y1829D02*
D03*
X4639Y3442D02*
D03*
X5338Y3141D02*
D03*
X6134Y3251D02*
D03*
X5728Y3141D02*
D03*
X4757Y3490D02*
D03*
X4233Y3442D02*
D03*
X4341Y4055D02*
D03*
X4531D02*
D03*
X3264Y216D02*
D03*
X3467D02*
D03*
X3670D02*
D03*
X8318Y2578D02*
D03*
X8344Y2921D02*
D03*
X8763Y2629D02*
D03*
X8768Y2787D02*
D03*
X8588Y2451D02*
D03*
X7811Y2896D02*
D03*
X6802Y1514D02*
D03*
X5956Y1751D02*
D03*
X6108D02*
D03*
X5880Y2789D02*
D03*
X6033D02*
D03*
X5728Y2388D02*
D03*
X5728Y3424D02*
D03*
X5848D02*
D03*
X3658Y1440D02*
D03*
X3289Y1313D02*
D03*
X3137D02*
D03*
X2959Y1303D02*
D03*
X3289Y1735D02*
D03*
X3137D02*
D03*
X2959Y1745D02*
D03*
X9076Y7566D02*
D03*
Y7396D02*
D03*
Y7826D02*
D03*
Y7996D02*
D03*
X10228Y7396D02*
D03*
Y7996D02*
D03*
Y7566D02*
D03*
X10363Y7858D02*
D03*
Y7104D02*
D03*
X8941Y7534D02*
D03*
Y8288D02*
D03*
X10363D02*
D03*
X5118Y6794D02*
D03*
X5067Y6871D02*
D03*
X9944Y6086D02*
D03*
X8728Y6088D02*
D03*
X9347Y6714D02*
D03*
Y6258D02*
D03*
X10564Y6711D02*
D03*
Y6255D02*
D03*
X9792Y6378D02*
D03*
X8572Y6381D02*
D03*
X5634Y13495D02*
D03*
X4991Y3492D02*
D03*
Y3086D02*
D03*
X4873Y3204D02*
D03*
X5109D02*
D03*
X4873Y3374D02*
D03*
X5109D02*
D03*
X4153Y13825D02*
D03*
X3772D02*
D03*
X4153Y13672D02*
D03*
X3772D02*
D03*
X4153Y13520D02*
D03*
X3772D02*
D03*
X9453Y3852D02*
D03*
X8939Y3947D02*
D03*
X3467Y13408D02*
D03*
X3657D02*
D03*
X3562Y13922D02*
D03*
X4903Y13921D02*
D03*
X4445D02*
D03*
X3848Y12090D02*
D03*
Y12408D02*
D03*
X8839Y4275D02*
D03*
X9140Y5351D02*
D03*
X10325Y4001D02*
D03*
X2540Y13056D02*
D03*
X8001Y4153D02*
D03*
X3510Y6145D02*
D03*
Y6225D02*
D03*
X2642Y7747D02*
D03*
X2489Y7811D02*
D03*
D79*
X5452Y6831D02*
D03*
Y6951D02*
D03*
X5572Y6831D02*
D03*
Y6951D02*
D03*
X3334Y11248D02*
D03*
X3214D02*
D03*
X3094D02*
D03*
X3214Y11128D02*
D03*
X3334Y11008D02*
D03*
Y11128D02*
D03*
Y10768D02*
D03*
Y10888D02*
D03*
X3214D02*
D03*
Y11008D02*
D03*
Y10768D02*
D03*
X3094Y11128D02*
D03*
X2974Y11248D02*
D03*
X3094Y11008D02*
D03*
X2974Y11128D02*
D03*
X2854D02*
D03*
Y11248D02*
D03*
X2974Y11008D02*
D03*
X3094Y10888D02*
D03*
X2974D02*
D03*
X3094Y10768D02*
D03*
X2974D02*
D03*
X2854Y10888D02*
D03*
Y11008D02*
D03*
Y10768D02*
D03*
D80*
X8040Y1034D02*
D03*
X2960D02*
D03*
Y8146D02*
D03*
X8040D02*
D03*
X10150Y14450D02*
D03*
X850D02*
D03*
Y8950D02*
D03*
X10150D02*
D03*
M02*
