%FSLAX42Y42*%
%MOMM*%
G71*
G01*
G75*
G04 Layer_Color=8421504*
%ADD10C,1.00*%
%ADD11C,0.25*%
%ADD12R,1.00X1.10*%
%ADD13R,0.60X2.20*%
%ADD14R,1.10X1.00*%
%ADD15C,0.90*%
%ADD16R,2.00X1.80*%
%ADD17R,4.10X4.10*%
%ADD18R,1.55X1.30*%
%ADD19R,1.50X2.15*%
%ADD20R,2.30X2.30*%
%ADD21R,0.25X1.00*%
%ADD22R,1.00X0.25*%
%ADD23R,2.20X0.60*%
%ADD24R,0.30X1.75*%
%ADD25R,1.75X0.30*%
%ADD26R,6.20X6.20*%
%ADD27R,1.35X0.60*%
%ADD28R,1.35X1.00*%
%ADD29R,1.40X0.60*%
%ADD30R,1.50X0.60*%
%ADD31R,1.85X0.35*%
%ADD32R,0.35X1.55*%
%ADD33R,1.80X0.30*%
%ADD34R,0.30X1.80*%
%ADD35R,2.03X0.66*%
%ADD36R,2.75X1.00*%
%ADD37R,1.02X1.91*%
%ADD38R,2.45X2.40*%
%ADD39R,1.80X2.40*%
%ADD40R,1.70X0.50*%
%ADD41R,2.79X3.81*%
%ADD42R,4.60X1.80*%
%ADD43R,1.80X1.60*%
%ADD44R,2.55X2.45*%
%ADD45R,1.50X1.30*%
%ADD46R,1.80X3.20*%
%ADD47R,3.30X2.20*%
%ADD48R,0.65X2.20*%
%ADD49R,5.50X1.50*%
%ADD50R,1.80X2.00*%
%ADD51R,1.30X1.50*%
%ADD52R,0.70X0.90*%
%ADD53R,0.90X0.70*%
%ADD54R,1.00X1.40*%
%ADD55R,1.30X1.55*%
%ADD56R,0.60X1.40*%
%ADD57R,2.50X1.30*%
%ADD58R,1.00X1.70*%
%ADD59R,1.70X1.30*%
%ADD60R,1.20X0.80*%
%ADD61C,0.51*%
%ADD62C,0.64*%
%ADD63C,1.02*%
%ADD64C,2.50*%
%ADD65R,2.50X2.50*%
%ADD66C,3.30*%
%ADD67C,1.80*%
%ADD68R,1.80X1.80*%
%ADD69R,4.00X2.00*%
%ADD70R,2.00X4.00*%
%ADD71R,4.50X2.00*%
%ADD72C,3.50*%
%ADD73C,1.60*%
%ADD74C,1.90*%
%ADD75C,1.40*%
%ADD76C,2.40*%
%ADD77C,1.52*%
%ADD78C,0.60*%
%ADD79C,0.66*%
%ADD80C,4.00*%
%ADD81C,0.76*%
%ADD82C,2.52*%
%ADD83C,4.32*%
%ADD84C,2.12*%
%ADD85O,4.52X2.02*%
%ADD86C,2.02*%
%ADD87C,2.92*%
%ADD88C,2.42*%
%ADD89C,1.92*%
%ADD90C,1.32*%
%ADD91C,1.82*%
%ADD92C,3.52*%
%ADD93C,3.32*%
%ADD94O,4.02X2.02*%
%ADD95O,2.02X4.02*%
%ADD96C,2.73*%
%ADD97C,1.35*%
%ADD98R,1.80X1.25*%
%ADD99C,0.10*%
%ADD100C,0.25*%
%ADD101C,0.20*%
%ADD102C,0.60*%
%ADD103C,0.13*%
%ADD104C,0.03*%
%ADD105C,0.10*%
%ADD106C,0.55*%
%ADD107C,0.15*%
%ADD108R,1.42X0.36*%
%ADD109R,0.36X1.42*%
%ADD110R,2.51X8.92*%
D10*
X863Y11836D02*
G03*
X863Y11836I-50J0D01*
G01*
X4114Y2946D02*
G03*
X4114Y2946I-50J0D01*
G01*
X8762Y5613D02*
G03*
X8762Y5613I-50J0D01*
G01*
X4317Y7569D02*
G03*
X4317Y7569I-50J0D01*
G01*
D12*
X3670Y869D02*
D03*
Y699D02*
D03*
X3467Y869D02*
D03*
Y699D02*
D03*
X3264Y869D02*
D03*
Y699D02*
D03*
Y526D02*
D03*
Y356D02*
D03*
X3467Y526D02*
D03*
Y356D02*
D03*
X3670Y526D02*
D03*
Y356D02*
D03*
X7544Y10513D02*
D03*
Y10683D02*
D03*
X2995Y3379D02*
D03*
X3147D02*
D03*
X7696Y13284D02*
D03*
Y13114D02*
D03*
Y12758D02*
D03*
Y12928D02*
D03*
X7419Y9400D02*
D03*
Y9570D02*
D03*
Y9913D02*
D03*
Y9743D02*
D03*
X7696Y13611D02*
D03*
X5634Y13616D02*
D03*
X7309Y10683D02*
D03*
Y10513D02*
D03*
X3147Y3209D02*
D03*
X2995D02*
D03*
X2296Y2617D02*
D03*
Y2447D02*
D03*
X9368Y3367D02*
D03*
Y3537D02*
D03*
X8898D02*
D03*
Y3367D02*
D03*
X9215Y3537D02*
D03*
Y3367D02*
D03*
X9063Y3537D02*
D03*
Y3367D02*
D03*
X2980Y13734D02*
D03*
Y13564D02*
D03*
X1816Y13691D02*
D03*
Y13861D02*
D03*
X4903Y13801D02*
D03*
Y13631D02*
D03*
X4445Y13801D02*
D03*
Y13631D02*
D03*
X4598Y13631D02*
D03*
Y13801D02*
D03*
X4750Y13631D02*
D03*
Y13801D02*
D03*
X5385Y6265D02*
D03*
Y6435D02*
D03*
X5537Y6265D02*
D03*
Y6435D02*
D03*
X5690Y6265D02*
D03*
Y6435D02*
D03*
X5842Y6265D02*
D03*
Y6435D02*
D03*
X5232Y6265D02*
D03*
Y6435D02*
D03*
X960Y7626D02*
D03*
Y7456D02*
D03*
X808Y7626D02*
D03*
Y7456D02*
D03*
X9271Y14571D02*
D03*
Y14741D02*
D03*
X681Y12940D02*
D03*
Y12770D02*
D03*
X366Y13717D02*
D03*
Y13547D02*
D03*
X213Y13717D02*
D03*
Y13547D02*
D03*
X529Y12940D02*
D03*
Y12770D02*
D03*
X8865Y2952D02*
D03*
Y2782D02*
D03*
X7839Y3819D02*
D03*
Y3989D02*
D03*
X7686Y3819D02*
D03*
Y3989D02*
D03*
X7534Y3819D02*
D03*
Y3989D02*
D03*
X7381Y3819D02*
D03*
Y3989D02*
D03*
X7229Y3819D02*
D03*
Y3989D02*
D03*
X7076Y3819D02*
D03*
Y3989D02*
D03*
X9346Y1209D02*
D03*
Y1379D02*
D03*
X6998Y2991D02*
D03*
Y3161D02*
D03*
X6813Y2996D02*
D03*
Y3166D02*
D03*
X6660Y2996D02*
D03*
Y3166D02*
D03*
X5207Y1579D02*
D03*
Y1749D02*
D03*
X5118Y2506D02*
D03*
Y2676D02*
D03*
Y2163D02*
D03*
Y2333D02*
D03*
X4966Y2506D02*
D03*
Y2676D02*
D03*
Y2163D02*
D03*
Y2333D02*
D03*
X3137Y1609D02*
D03*
Y1439D02*
D03*
X3289Y1609D02*
D03*
Y1439D02*
D03*
X3658Y1736D02*
D03*
Y1566D02*
D03*
X3962Y1579D02*
D03*
Y1749D02*
D03*
X3810Y1579D02*
D03*
Y1749D02*
D03*
X5271Y2506D02*
D03*
Y2676D02*
D03*
X6689Y1687D02*
D03*
Y1857D02*
D03*
X5423Y2506D02*
D03*
Y2676D02*
D03*
X6537Y1687D02*
D03*
Y1857D02*
D03*
Y1344D02*
D03*
Y1514D02*
D03*
X6689Y1514D02*
D03*
Y1344D02*
D03*
X5575Y2506D02*
D03*
Y2676D02*
D03*
X6033D02*
D03*
Y2506D02*
D03*
X5880Y2676D02*
D03*
Y2506D02*
D03*
X5728Y2676D02*
D03*
Y2506D02*
D03*
X6108Y1638D02*
D03*
Y1468D02*
D03*
X5956Y1638D02*
D03*
Y1468D02*
D03*
X4757Y3372D02*
D03*
Y3202D02*
D03*
X6134Y3133D02*
D03*
Y2963D02*
D03*
X5994Y6435D02*
D03*
Y6265D02*
D03*
X7696Y13781D02*
D03*
X5634Y13786D02*
D03*
X4991Y3374D02*
D03*
Y3204D02*
D03*
X5385Y1749D02*
D03*
Y1579D02*
D03*
D13*
X2753Y2943D02*
D03*
X2880D02*
D03*
X2499Y2463D02*
D03*
X2626D02*
D03*
X2753D02*
D03*
X2880D02*
D03*
X3007D02*
D03*
X3134D02*
D03*
X3261D02*
D03*
X3388D02*
D03*
X2499Y2943D02*
D03*
X2626D02*
D03*
X3007D02*
D03*
X3134D02*
D03*
X3261D02*
D03*
X3388D02*
D03*
D14*
X7068Y12517D02*
D03*
X6898D02*
D03*
X6542D02*
D03*
X6712D02*
D03*
X9948Y1560D02*
D03*
X9778D02*
D03*
X2475Y3192D02*
D03*
X2645D02*
D03*
X2859Y2151D02*
D03*
X3029D02*
D03*
X2516D02*
D03*
X2686D02*
D03*
X3202D02*
D03*
X3372D02*
D03*
X10181Y3537D02*
D03*
X10350D02*
D03*
X10682D02*
D03*
X10512D02*
D03*
X1642Y13526D02*
D03*
X1812D02*
D03*
X3158Y13399D02*
D03*
X2988D02*
D03*
X4698Y10894D02*
D03*
X4868D02*
D03*
X4868Y10742D02*
D03*
X4698D02*
D03*
X588Y7795D02*
D03*
X418D02*
D03*
X4542Y9608D02*
D03*
X4712D02*
D03*
X4967Y8862D02*
D03*
X5137D02*
D03*
X4712Y9303D02*
D03*
X4542D02*
D03*
X4712Y9455D02*
D03*
X4542D02*
D03*
X588Y7948D02*
D03*
X418D02*
D03*
X4652Y8202D02*
D03*
X4822D02*
D03*
X5452D02*
D03*
X5282D02*
D03*
X431Y7236D02*
D03*
X601D02*
D03*
X9669Y11923D02*
D03*
X9499D02*
D03*
X9527Y11161D02*
D03*
X9357D02*
D03*
X9326Y11923D02*
D03*
X9156D02*
D03*
X9669Y9357D02*
D03*
X9499D02*
D03*
X9514Y8595D02*
D03*
X9344D02*
D03*
X9326Y9357D02*
D03*
X9156D02*
D03*
X889Y12789D02*
D03*
X1059D02*
D03*
X1414Y13294D02*
D03*
X1244D02*
D03*
X1244Y13142D02*
D03*
X1414D02*
D03*
X1059Y12941D02*
D03*
X889D02*
D03*
X8647Y2952D02*
D03*
X8477D02*
D03*
X8647Y3104D02*
D03*
X8477D02*
D03*
X8602Y1938D02*
D03*
X8772D02*
D03*
X8957D02*
D03*
X9127D02*
D03*
X8647Y2586D02*
D03*
X8477D02*
D03*
X8028Y1415D02*
D03*
X7858D02*
D03*
X7279D02*
D03*
X7449D02*
D03*
X8647Y3257D02*
D03*
X8477D02*
D03*
X8477Y2799D02*
D03*
X8647D02*
D03*
X6181Y3810D02*
D03*
X6011D02*
D03*
X5457Y4417D02*
D03*
X5287D02*
D03*
X4351Y3442D02*
D03*
X4521D02*
D03*
X4351Y3747D02*
D03*
X4521D02*
D03*
X4351Y3594D02*
D03*
X4521D02*
D03*
X8970Y5220D02*
D03*
X9140D02*
D03*
X4047Y13825D02*
D03*
X3877D02*
D03*
X4047Y13520D02*
D03*
X3877D02*
D03*
X4047Y13672D02*
D03*
X3877D02*
D03*
X8970Y5055D02*
D03*
X9140D02*
D03*
X9975Y3988D02*
D03*
X10145D02*
D03*
Y3835D02*
D03*
X9975D02*
D03*
X9140Y4890D02*
D03*
X8970D02*
D03*
X9140Y4705D02*
D03*
X8970D02*
D03*
X9140Y4485D02*
D03*
X8970D02*
D03*
X9140Y4275D02*
D03*
X8970D02*
D03*
D15*
X2489Y12662D02*
D03*
Y12510D02*
D03*
X4674Y10401D02*
D03*
X4051Y9335D02*
D03*
Y9182D02*
D03*
X4204D02*
D03*
X3899Y9335D02*
D03*
X1550Y10356D02*
D03*
Y10203D02*
D03*
Y10051D02*
D03*
Y9899D02*
D03*
X2007Y9373D02*
D03*
X5283Y5740D02*
D03*
D16*
X6889Y11882D02*
D03*
Y11374D02*
D03*
X7309D02*
D03*
Y11882D02*
D03*
X5447Y9362D02*
D03*
Y9870D02*
D03*
X5027D02*
D03*
Y9362D02*
D03*
D17*
X5452Y8532D02*
D03*
X4652D02*
D03*
D18*
X376Y6995D02*
D03*
X1146Y6993D02*
D03*
Y6545D02*
D03*
X376D02*
D03*
D19*
X1011Y4476D02*
D03*
X757D02*
D03*
X503D02*
D03*
Y5301D02*
D03*
X757D02*
D03*
X1011D02*
D03*
D20*
X5512Y6891D02*
D03*
D21*
X5637Y6675D02*
D03*
X5587D02*
D03*
X5487D02*
D03*
X5387D02*
D03*
Y7106D02*
D03*
X5437D02*
D03*
X5487D02*
D03*
X5537D02*
D03*
X5587D02*
D03*
X5637D02*
D03*
X5437Y6675D02*
D03*
X5537D02*
D03*
D22*
X5296Y6816D02*
D03*
Y6866D02*
D03*
Y6916D02*
D03*
Y6966D02*
D03*
Y7016D02*
D03*
X5727D02*
D03*
Y6966D02*
D03*
Y6916D02*
D03*
Y6866D02*
D03*
Y6816D02*
D03*
Y6766D02*
D03*
X5296D02*
D03*
D23*
X9104Y1231D02*
D03*
Y1358D02*
D03*
Y1485D02*
D03*
Y1612D02*
D03*
X8624Y1231D02*
D03*
Y1358D02*
D03*
Y1485D02*
D03*
Y1612D02*
D03*
X4435Y1854D02*
D03*
Y1727D02*
D03*
Y1600D02*
D03*
Y1473D02*
D03*
X4915Y1854D02*
D03*
Y1727D02*
D03*
Y1600D02*
D03*
Y1473D02*
D03*
D24*
X4169Y12266D02*
D03*
X4119D02*
D03*
X4069D02*
D03*
X4019D02*
D03*
X3919D02*
D03*
X3869D02*
D03*
X3819D02*
D03*
X3769D02*
D03*
X3719D02*
D03*
X3669D02*
D03*
X3619D02*
D03*
X3569D02*
D03*
X3519D02*
D03*
X3469D02*
D03*
X3419D02*
D03*
X3369D02*
D03*
X3319D02*
D03*
X3269D02*
D03*
X3219D02*
D03*
X3169D02*
D03*
X3119D02*
D03*
X3069D02*
D03*
X3019D02*
D03*
X2969D02*
D03*
X2919D02*
D03*
X2869D02*
D03*
X2819D02*
D03*
X2769D02*
D03*
X2719D02*
D03*
X2669D02*
D03*
X2619D02*
D03*
X2569D02*
D03*
X2519D02*
D03*
X2469D02*
D03*
X2419D02*
D03*
X2369D02*
D03*
X2319D02*
D03*
X2269D02*
D03*
X2219D02*
D03*
X2169D02*
D03*
X2119D02*
D03*
X2069D02*
D03*
X2019D02*
D03*
Y9751D02*
D03*
X2069D02*
D03*
X2119D02*
D03*
X2219D02*
D03*
X2269D02*
D03*
X2319D02*
D03*
X2369D02*
D03*
X2419D02*
D03*
X2469D02*
D03*
X2519D02*
D03*
X2569D02*
D03*
X2619D02*
D03*
X2669D02*
D03*
X2719D02*
D03*
X2769D02*
D03*
X2819D02*
D03*
X2869D02*
D03*
X2919D02*
D03*
X2969D02*
D03*
X3019D02*
D03*
X3069D02*
D03*
X3119D02*
D03*
X3169D02*
D03*
X3219D02*
D03*
X3269D02*
D03*
X3319D02*
D03*
X3369D02*
D03*
X3419D02*
D03*
X3469D02*
D03*
X3519D02*
D03*
X3569D02*
D03*
X3619D02*
D03*
X3669D02*
D03*
X3719D02*
D03*
X3769D02*
D03*
X3819D02*
D03*
X3869D02*
D03*
X3919D02*
D03*
X3969D02*
D03*
X4019D02*
D03*
X4069D02*
D03*
X4119D02*
D03*
X4169D02*
D03*
X2169D02*
D03*
X3969Y12266D02*
D03*
D25*
X1836Y12083D02*
D03*
Y12033D02*
D03*
Y11983D02*
D03*
Y11933D02*
D03*
Y11883D02*
D03*
Y11833D02*
D03*
Y11783D02*
D03*
Y11733D02*
D03*
Y11683D02*
D03*
Y11633D02*
D03*
Y11583D02*
D03*
Y11533D02*
D03*
Y11483D02*
D03*
Y11433D02*
D03*
Y11383D02*
D03*
Y11333D02*
D03*
Y11283D02*
D03*
Y11233D02*
D03*
Y11183D02*
D03*
Y11133D02*
D03*
Y11083D02*
D03*
Y11033D02*
D03*
Y10983D02*
D03*
Y10933D02*
D03*
Y10883D02*
D03*
Y10833D02*
D03*
Y10783D02*
D03*
Y10733D02*
D03*
Y10683D02*
D03*
Y10633D02*
D03*
Y10583D02*
D03*
Y10533D02*
D03*
Y10483D02*
D03*
Y10433D02*
D03*
Y10383D02*
D03*
Y10233D02*
D03*
Y10183D02*
D03*
Y10033D02*
D03*
Y9983D02*
D03*
Y9933D02*
D03*
X4351D02*
D03*
Y9983D02*
D03*
Y10033D02*
D03*
Y10083D02*
D03*
Y10133D02*
D03*
Y10183D02*
D03*
Y10233D02*
D03*
Y10283D02*
D03*
Y10333D02*
D03*
Y10383D02*
D03*
Y10433D02*
D03*
Y10483D02*
D03*
Y10533D02*
D03*
Y10583D02*
D03*
Y10633D02*
D03*
Y10683D02*
D03*
Y10733D02*
D03*
Y10783D02*
D03*
Y10833D02*
D03*
Y10883D02*
D03*
Y10933D02*
D03*
Y10983D02*
D03*
Y11033D02*
D03*
Y11083D02*
D03*
Y11133D02*
D03*
Y11183D02*
D03*
Y11233D02*
D03*
Y11283D02*
D03*
Y11333D02*
D03*
Y11383D02*
D03*
Y11433D02*
D03*
Y11483D02*
D03*
Y11533D02*
D03*
Y11583D02*
D03*
Y11633D02*
D03*
Y11683D02*
D03*
Y11733D02*
D03*
Y11783D02*
D03*
Y11833D02*
D03*
Y11883D02*
D03*
Y11933D02*
D03*
Y11983D02*
D03*
Y12033D02*
D03*
Y12083D02*
D03*
X1836Y10333D02*
D03*
Y10283D02*
D03*
Y10133D02*
D03*
Y10083D02*
D03*
D26*
X3094Y11008D02*
D03*
D27*
X412Y7432D02*
D03*
Y7624D02*
D03*
X618D02*
D03*
D28*
Y7452D02*
D03*
D29*
X9316Y3852D02*
D03*
X9076Y3757D02*
D03*
Y3947D02*
D03*
D30*
X2011Y13806D02*
D03*
Y13679D02*
D03*
Y13552D02*
D03*
Y13425D02*
D03*
X2746Y13806D02*
D03*
Y13679D02*
D03*
Y13552D02*
D03*
Y13425D02*
D03*
D31*
X5892Y2050D02*
D03*
Y2000D02*
D03*
Y1950D02*
D03*
Y1900D02*
D03*
Y1850D02*
D03*
X6292Y2050D02*
D03*
Y2000D02*
D03*
Y1950D02*
D03*
Y1900D02*
D03*
Y1850D02*
D03*
D32*
X5208Y2997D02*
D03*
X5272D02*
D03*
X5338D02*
D03*
X5403D02*
D03*
X5467D02*
D03*
X5533D02*
D03*
X5597D02*
D03*
X5662D02*
D03*
X5728D02*
D03*
X5792D02*
D03*
X5208Y3567D02*
D03*
X5272D02*
D03*
X5338D02*
D03*
X5403D02*
D03*
X5467D02*
D03*
X5533D02*
D03*
X5597D02*
D03*
X5662D02*
D03*
X5728D02*
D03*
X5792D02*
D03*
D33*
X8009Y2702D02*
D03*
Y2752D02*
D03*
Y2802D02*
D03*
Y2852D02*
D03*
Y2902D02*
D03*
Y2952D02*
D03*
Y3002D02*
D03*
Y3052D02*
D03*
Y3102D02*
D03*
Y3152D02*
D03*
Y3202D02*
D03*
Y3252D02*
D03*
X7199D02*
D03*
Y3202D02*
D03*
Y3152D02*
D03*
Y3102D02*
D03*
Y3052D02*
D03*
Y3002D02*
D03*
Y2952D02*
D03*
Y2902D02*
D03*
Y2852D02*
D03*
Y2802D02*
D03*
Y2752D02*
D03*
Y2702D02*
D03*
X5892Y10783D02*
D03*
Y10733D02*
D03*
Y10683D02*
D03*
Y10633D02*
D03*
Y10583D02*
D03*
Y10533D02*
D03*
Y10483D02*
D03*
Y10433D02*
D03*
Y10383D02*
D03*
Y10333D02*
D03*
Y10283D02*
D03*
Y10233D02*
D03*
X6702D02*
D03*
Y10283D02*
D03*
Y10333D02*
D03*
Y10383D02*
D03*
Y10433D02*
D03*
Y10483D02*
D03*
Y10533D02*
D03*
Y10583D02*
D03*
Y10633D02*
D03*
Y10683D02*
D03*
Y10733D02*
D03*
Y10783D02*
D03*
D34*
X7879Y3382D02*
D03*
X7829D02*
D03*
X7779D02*
D03*
X7729D02*
D03*
X7679D02*
D03*
X7629D02*
D03*
X7579D02*
D03*
X7529D02*
D03*
X7479D02*
D03*
X7429D02*
D03*
X7379D02*
D03*
X7329D02*
D03*
Y2572D02*
D03*
X7379D02*
D03*
X7429D02*
D03*
X7479D02*
D03*
X7529D02*
D03*
X7579D02*
D03*
X7629D02*
D03*
X7679D02*
D03*
X7729D02*
D03*
X7779D02*
D03*
X7829D02*
D03*
X7879D02*
D03*
X6022Y10103D02*
D03*
X6072D02*
D03*
X6122D02*
D03*
X6172D02*
D03*
X6222D02*
D03*
X6272D02*
D03*
X6322D02*
D03*
X6372D02*
D03*
X6422D02*
D03*
X6472D02*
D03*
X6522D02*
D03*
X6572D02*
D03*
Y10913D02*
D03*
X6522D02*
D03*
X6472D02*
D03*
X6422D02*
D03*
X6372D02*
D03*
X6322D02*
D03*
X6272D02*
D03*
X6222D02*
D03*
X6172D02*
D03*
X6122D02*
D03*
X6072D02*
D03*
X6022D02*
D03*
D35*
X9393Y9954D02*
D03*
Y9827D02*
D03*
Y9700D02*
D03*
Y9573D02*
D03*
X9952Y9954D02*
D03*
Y9827D02*
D03*
Y9700D02*
D03*
Y9573D02*
D03*
X9393Y12520D02*
D03*
Y12393D02*
D03*
Y12266D02*
D03*
Y12139D02*
D03*
X9952Y12520D02*
D03*
Y12393D02*
D03*
Y12266D02*
D03*
Y12139D02*
D03*
D36*
X548Y6166D02*
D03*
Y5966D02*
D03*
Y5766D02*
D03*
X973Y6166D02*
D03*
Y5966D02*
D03*
Y5766D02*
D03*
D37*
X5156Y14272D02*
D03*
X5410Y14628D02*
D03*
X4648Y14272D02*
D03*
X4902Y14628D02*
D03*
X4140Y14272D02*
D03*
X4394Y14628D02*
D03*
X3632Y14272D02*
D03*
X3886Y14628D02*
D03*
X3124Y14272D02*
D03*
X3378Y14628D02*
D03*
X2616Y14272D02*
D03*
X2870Y14628D02*
D03*
X2362D02*
D03*
X1854D02*
D03*
X2108Y14272D02*
D03*
X1600D02*
D03*
X6262Y7460D02*
D03*
X5754D02*
D03*
X6008Y7816D02*
D03*
X5500D02*
D03*
X4992D02*
D03*
X5246Y7460D02*
D03*
X4738D02*
D03*
D38*
X5115Y898D02*
D03*
Y598D02*
D03*
X4260Y1128D02*
D03*
X5115Y298D02*
D03*
X6740Y898D02*
D03*
Y598D02*
D03*
X5885Y1128D02*
D03*
X6740Y298D02*
D03*
D39*
X4228Y488D02*
D03*
X5853D02*
D03*
D40*
X2523Y6705D02*
D03*
Y6625D02*
D03*
Y6545D02*
D03*
Y6465D02*
D03*
Y6385D02*
D03*
Y6305D02*
D03*
Y6225D02*
D03*
Y6145D02*
D03*
Y6065D02*
D03*
Y5985D02*
D03*
Y5905D02*
D03*
Y5825D02*
D03*
Y5745D02*
D03*
Y5665D02*
D03*
Y5585D02*
D03*
Y5505D02*
D03*
Y5425D02*
D03*
Y5345D02*
D03*
Y5265D02*
D03*
Y5185D02*
D03*
Y5105D02*
D03*
Y5025D02*
D03*
Y4945D02*
D03*
Y4865D02*
D03*
Y4785D02*
D03*
Y4705D02*
D03*
Y4625D02*
D03*
X3628Y6705D02*
D03*
Y6625D02*
D03*
Y6545D02*
D03*
Y6465D02*
D03*
Y6385D02*
D03*
Y6305D02*
D03*
Y6225D02*
D03*
Y6145D02*
D03*
Y6065D02*
D03*
Y5985D02*
D03*
Y5905D02*
D03*
Y5825D02*
D03*
Y5745D02*
D03*
Y5665D02*
D03*
Y5585D02*
D03*
Y5505D02*
D03*
Y5425D02*
D03*
Y5345D02*
D03*
Y5265D02*
D03*
Y5185D02*
D03*
Y5105D02*
D03*
Y5025D02*
D03*
Y4945D02*
D03*
Y4865D02*
D03*
Y4785D02*
D03*
Y4705D02*
D03*
Y4625D02*
D03*
D41*
X10399Y13028D02*
D03*
X9685D02*
D03*
X10399Y13790D02*
D03*
X9685D02*
D03*
X10399Y10462D02*
D03*
X9685D02*
D03*
D42*
X8606Y12336D02*
D03*
Y13236D02*
D03*
Y9771D02*
D03*
Y10671D02*
D03*
D43*
X9271Y14339D02*
D03*
Y14059D02*
D03*
D44*
X9154Y11542D02*
D03*
X9759D02*
D03*
X9142Y8976D02*
D03*
X9746D02*
D03*
D45*
X10320Y12234D02*
D03*
Y12424D02*
D03*
X10524Y12234D02*
D03*
Y12424D02*
D03*
X9342Y12933D02*
D03*
Y13123D02*
D03*
X10308Y9675D02*
D03*
Y9865D02*
D03*
X10514Y9675D02*
D03*
Y9865D02*
D03*
X9342Y10316D02*
D03*
Y10506D02*
D03*
X2959Y1619D02*
D03*
Y1429D02*
D03*
X4140Y1569D02*
D03*
Y1759D02*
D03*
X5423Y2140D02*
D03*
Y2330D02*
D03*
X6287Y1644D02*
D03*
Y1454D02*
D03*
D46*
X8288Y11948D02*
D03*
X8848D02*
D03*
X8288Y9395D02*
D03*
X8848D02*
D03*
D47*
X808Y13935D02*
D03*
D48*
X1062Y13335D02*
D03*
X935D02*
D03*
X808D02*
D03*
X681D02*
D03*
X554D02*
D03*
D49*
X8076Y1745D02*
D03*
X7226D02*
D03*
D50*
X5812Y4810D02*
D03*
Y4390D02*
D03*
X6320Y4810D02*
D03*
Y4390D02*
D03*
D51*
X6116Y2257D02*
D03*
X6306D02*
D03*
X4341Y3924D02*
D03*
X4531D02*
D03*
D52*
X3145Y8889D02*
D03*
Y8759D02*
D03*
X3018Y8889D02*
D03*
Y8759D02*
D03*
X2891Y8889D02*
D03*
Y8759D02*
D03*
X2764Y8889D02*
D03*
Y8759D02*
D03*
X2637Y8889D02*
D03*
Y8759D02*
D03*
X2510Y8889D02*
D03*
Y8759D02*
D03*
X2383Y8889D02*
D03*
Y8759D02*
D03*
X2256Y8889D02*
D03*
Y8759D02*
D03*
X2129Y8889D02*
D03*
Y8759D02*
D03*
X2002Y8889D02*
D03*
Y8759D02*
D03*
X1875Y8889D02*
D03*
Y8759D02*
D03*
X1621Y9727D02*
D03*
Y9597D02*
D03*
X1468Y9727D02*
D03*
Y9597D02*
D03*
X1316Y9841D02*
D03*
Y9711D02*
D03*
X4161Y8889D02*
D03*
Y8759D02*
D03*
X3272Y8759D02*
D03*
Y8889D02*
D03*
X3653Y8889D02*
D03*
Y8759D02*
D03*
X3399Y8759D02*
D03*
Y8889D02*
D03*
X3526Y8889D02*
D03*
Y8759D02*
D03*
X3780Y8889D02*
D03*
Y8759D02*
D03*
X3907Y8889D02*
D03*
Y8759D02*
D03*
X4034Y8889D02*
D03*
Y8759D02*
D03*
X4288Y8759D02*
D03*
Y8889D02*
D03*
X5685Y11238D02*
D03*
Y11368D02*
D03*
X3269Y12661D02*
D03*
Y12531D02*
D03*
X3569Y12665D02*
D03*
Y12535D02*
D03*
X6662Y11238D02*
D03*
Y11368D02*
D03*
X6535Y11238D02*
D03*
Y11368D02*
D03*
X6370Y11238D02*
D03*
Y11368D02*
D03*
X6193Y11238D02*
D03*
Y11368D02*
D03*
X6066Y11238D02*
D03*
Y11368D02*
D03*
X5939Y11238D02*
D03*
Y11368D02*
D03*
X5812Y11238D02*
D03*
Y11368D02*
D03*
X7309Y10971D02*
D03*
Y11101D02*
D03*
X5144Y3961D02*
D03*
Y4091D02*
D03*
X5601Y3961D02*
D03*
Y4091D02*
D03*
X5296Y3961D02*
D03*
Y4091D02*
D03*
X5448Y3961D02*
D03*
Y4091D02*
D03*
X4991Y3961D02*
D03*
Y4091D02*
D03*
X4839Y3961D02*
D03*
Y4091D02*
D03*
X5753Y3961D02*
D03*
Y4091D02*
D03*
D53*
X3923Y4699D02*
D03*
X4053D02*
D03*
X3923Y4826D02*
D03*
X4053D02*
D03*
X3923Y4953D02*
D03*
X4053D02*
D03*
X3923Y5080D02*
D03*
X4053D02*
D03*
X3923Y5207D02*
D03*
X4053D02*
D03*
X3923Y5334D02*
D03*
X4053D02*
D03*
X3923Y5461D02*
D03*
X4053D02*
D03*
X3923Y5588D02*
D03*
X4053D02*
D03*
X2224D02*
D03*
X2094D02*
D03*
X2224Y5461D02*
D03*
X2094D02*
D03*
X2224Y5334D02*
D03*
X2094D02*
D03*
X2224Y5207D02*
D03*
X2094D02*
D03*
X2224Y5080D02*
D03*
X2094D02*
D03*
X2224Y4953D02*
D03*
X2094D02*
D03*
X2224Y4826D02*
D03*
X2094D02*
D03*
X2224Y4699D02*
D03*
X2094D02*
D03*
X4767Y10244D02*
D03*
X4897D02*
D03*
X4609Y11925D02*
D03*
X4739D02*
D03*
X4609Y11798D02*
D03*
X4739D02*
D03*
X4891Y11367D02*
D03*
X4761D02*
D03*
X4739Y12052D02*
D03*
X4609D02*
D03*
X4891Y11519D02*
D03*
X4761D02*
D03*
D54*
X9207Y7396D02*
D03*
Y7566D02*
D03*
X10097D02*
D03*
Y7396D02*
D03*
Y7996D02*
D03*
X9207D02*
D03*
Y7826D02*
D03*
D55*
X8897Y6883D02*
D03*
Y6088D02*
D03*
X9347D02*
D03*
Y6883D02*
D03*
X10114Y6881D02*
D03*
Y6086D02*
D03*
X10564D02*
D03*
Y6881D02*
D03*
D56*
X3467Y13545D02*
D03*
X3657D02*
D03*
X3562Y13785D02*
D03*
D57*
X10640Y4190D02*
D03*
Y5716D02*
D03*
X9790D02*
D03*
D58*
X10145Y4210D02*
D03*
D59*
X9985Y4190D02*
D03*
D60*
X9350Y4705D02*
D03*
Y4815D02*
D03*
Y4375D02*
D03*
Y4485D02*
D03*
Y4595D02*
D03*
Y4925D02*
D03*
Y5035D02*
D03*
Y5145D02*
D03*
Y4275D02*
D03*
M02*
