%FSLAX42Y42*%
%MOMM*%
G71*
G01*
G75*
G04 Layer_Color=128*
%ADD10C,1.00*%
%ADD11C,0.25*%
%ADD12R,1.00X1.10*%
%ADD13R,0.60X2.20*%
%ADD14R,1.10X1.00*%
%ADD15C,0.90*%
%ADD16R,2.00X1.80*%
%ADD17R,4.10X4.10*%
%ADD18R,1.55X1.30*%
%ADD19R,1.50X2.15*%
%ADD20R,2.30X2.30*%
%ADD21R,0.25X1.00*%
%ADD22R,1.00X0.25*%
%ADD23R,2.20X0.60*%
%ADD24R,0.30X1.75*%
%ADD25R,1.75X0.30*%
%ADD26R,6.20X6.20*%
%ADD27R,1.35X0.60*%
%ADD28R,1.35X1.00*%
%ADD29R,1.40X0.60*%
%ADD30R,1.50X0.60*%
%ADD31R,1.85X0.35*%
%ADD32R,0.35X1.55*%
%ADD33R,1.80X0.30*%
%ADD34R,0.30X1.80*%
%ADD35R,2.03X0.66*%
%ADD36R,2.75X1.00*%
%ADD37R,1.02X1.91*%
%ADD38R,2.45X2.40*%
%ADD39R,1.80X2.40*%
%ADD40R,1.70X0.50*%
%ADD41R,2.79X3.81*%
%ADD42R,4.60X1.80*%
%ADD43R,1.80X1.60*%
%ADD44R,2.55X2.45*%
%ADD45R,1.50X1.30*%
%ADD46R,1.80X3.20*%
%ADD47R,3.30X2.20*%
%ADD48R,0.65X2.20*%
%ADD49R,5.50X1.50*%
%ADD50R,1.80X2.00*%
%ADD51R,1.30X1.50*%
%ADD52R,0.70X0.90*%
%ADD53R,0.90X0.70*%
%ADD54R,1.00X1.40*%
%ADD55R,1.30X1.55*%
%ADD56R,0.60X1.40*%
%ADD57R,2.50X1.30*%
%ADD58R,1.00X1.70*%
%ADD59R,1.70X1.30*%
%ADD60R,1.20X0.80*%
%ADD61C,0.51*%
%ADD62C,0.64*%
%ADD63C,1.02*%
%ADD64C,2.50*%
%ADD65R,2.50X2.50*%
%ADD66C,3.30*%
%ADD67C,1.80*%
%ADD68R,1.80X1.80*%
%ADD69R,4.00X2.00*%
%ADD70R,2.00X4.00*%
%ADD71R,4.50X2.00*%
%ADD72C,3.50*%
%ADD73C,1.60*%
%ADD74C,1.90*%
%ADD75C,1.40*%
%ADD76C,2.40*%
%ADD77C,1.52*%
%ADD78C,0.60*%
%ADD79C,0.66*%
%ADD80C,4.00*%
%ADD81C,0.76*%
%ADD82C,2.52*%
%ADD83C,4.32*%
%ADD84C,2.12*%
%ADD85O,4.52X2.02*%
%ADD86C,2.02*%
%ADD87C,2.92*%
%ADD88C,2.42*%
%ADD89C,1.92*%
%ADD90C,1.32*%
%ADD91C,1.82*%
%ADD92C,3.52*%
%ADD93C,3.32*%
%ADD94O,4.02X2.02*%
%ADD95O,2.02X4.02*%
%ADD96C,2.73*%
%ADD97C,1.35*%
%ADD98R,1.80X1.25*%
%ADD99C,0.10*%
%ADD100C,0.25*%
%ADD101C,0.20*%
%ADD102C,0.60*%
%ADD103C,0.13*%
%ADD104C,0.03*%
%ADD105C,0.10*%
%ADD106C,0.55*%
%ADD107C,0.15*%
%ADD108R,1.42X0.36*%
%ADD109R,0.36X1.42*%
%ADD110R,2.51X8.92*%
%ADD111C,3.39*%
%ADD112R,1.20X1.30*%
%ADD113R,0.80X2.40*%
%ADD114R,1.30X1.20*%
%ADD115C,1.10*%
%ADD116R,2.20X2.00*%
%ADD117R,4.30X4.30*%
%ADD118R,1.75X1.50*%
%ADD119R,1.65X2.30*%
%ADD120R,2.50X2.50*%
%ADD121R,0.45X1.20*%
%ADD122R,1.20X0.45*%
%ADD123R,2.40X0.80*%
%ADD124R,0.50X1.95*%
%ADD125R,1.95X0.50*%
%ADD126R,6.40X6.40*%
%ADD127R,1.55X0.80*%
%ADD128R,1.55X1.20*%
%ADD129R,1.60X0.80*%
%ADD130R,1.70X0.80*%
%ADD131R,2.05X0.55*%
%ADD132R,0.55X1.75*%
%ADD133R,2.00X0.50*%
%ADD134R,0.50X2.00*%
%ADD135R,2.24X0.86*%
%ADD136R,2.95X1.20*%
%ADD137R,1.22X2.11*%
%ADD138R,2.65X2.60*%
%ADD139R,2.00X2.60*%
%ADD140R,1.90X0.70*%
%ADD141R,3.00X4.01*%
%ADD142R,4.80X2.00*%
%ADD143R,2.00X1.80*%
%ADD144R,2.75X2.65*%
%ADD145R,1.70X1.50*%
%ADD146R,2.00X3.40*%
%ADD147R,3.50X2.40*%
%ADD148R,0.85X2.40*%
%ADD149R,5.70X1.70*%
%ADD150R,2.00X2.20*%
%ADD151R,1.50X1.70*%
%ADD152R,0.90X1.10*%
%ADD153R,1.10X0.90*%
%ADD154R,1.20X1.60*%
%ADD155R,1.50X1.75*%
%ADD156R,0.80X1.60*%
%ADD157R,2.70X1.50*%
%ADD158R,1.20X1.90*%
%ADD159R,1.90X1.50*%
%ADD160R,1.40X1.00*%
%ADD161C,2.70*%
%ADD162R,2.70X2.70*%
%ADD163C,3.50*%
%ADD164C,2.00*%
%ADD165R,2.00X2.00*%
%ADD166R,4.20X2.20*%
%ADD167R,2.20X4.20*%
%ADD168R,4.70X2.20*%
%ADD169C,3.70*%
%ADD170C,1.80*%
%ADD171C,2.10*%
%ADD172C,1.60*%
%ADD173C,2.60*%
%ADD174C,1.73*%
%ADD175C,4.20*%
%ADD176R,2.00X1.45*%
%ADD177C,0.86*%
D10*
X9374Y2654D02*
G03*
X9374Y2654I-50J0D01*
G01*
X9526Y14122D02*
G03*
X9526Y14122I-50J0D01*
G01*
X1726Y2654D02*
G03*
X1726Y2654I-50J0D01*
G01*
X1574Y14122D02*
G03*
X1574Y14122I-50J0D01*
G01*
D12*
X6660Y9724D02*
D03*
Y9554D02*
D03*
X6203Y9554D02*
D03*
Y9724D02*
D03*
X6355Y9724D02*
D03*
Y9554D02*
D03*
X6507Y9724D02*
D03*
Y9554D02*
D03*
X7213Y13214D02*
D03*
Y13044D02*
D03*
X5990Y13296D02*
D03*
Y13466D02*
D03*
X5231Y9706D02*
D03*
Y9536D02*
D03*
X7104Y11713D02*
D03*
Y11543D02*
D03*
X7645Y2290D02*
D03*
Y2120D02*
D03*
X7493Y2290D02*
D03*
Y2120D02*
D03*
X7798Y2290D02*
D03*
Y2120D02*
D03*
X2378Y13530D02*
D03*
Y13700D02*
D03*
X2332Y10230D02*
D03*
Y10060D02*
D03*
X2942Y10230D02*
D03*
Y10060D02*
D03*
X2408Y11787D02*
D03*
Y11957D02*
D03*
X3627Y11787D02*
D03*
Y11957D02*
D03*
X3094Y10230D02*
D03*
Y10060D02*
D03*
X3551Y10230D02*
D03*
Y10060D02*
D03*
X3704Y10230D02*
D03*
Y10060D02*
D03*
X3246Y10230D02*
D03*
Y10060D02*
D03*
X2789Y10230D02*
D03*
Y10060D02*
D03*
X2180Y10230D02*
D03*
Y10060D02*
D03*
X4008Y10230D02*
D03*
Y10060D02*
D03*
X3856Y10230D02*
D03*
Y10060D02*
D03*
X3780Y11787D02*
D03*
Y11957D02*
D03*
X2637Y10230D02*
D03*
Y10060D02*
D03*
X2713Y11787D02*
D03*
Y11957D02*
D03*
X2561Y11787D02*
D03*
Y11957D02*
D03*
X3475Y11787D02*
D03*
Y11957D02*
D03*
X3399Y10230D02*
D03*
Y10060D02*
D03*
X2484Y10230D02*
D03*
Y10060D02*
D03*
X6297Y10593D02*
D03*
Y10423D02*
D03*
X6449Y10593D02*
D03*
Y10423D02*
D03*
X5647Y10758D02*
D03*
Y10928D02*
D03*
X6985Y10817D02*
D03*
Y10646D02*
D03*
X6144Y10423D02*
D03*
Y10593D02*
D03*
X9627Y4620D02*
D03*
Y4790D02*
D03*
X2870Y13809D02*
D03*
Y13979D02*
D03*
X10363Y7996D02*
D03*
Y8166D02*
D03*
X8941Y7996D02*
D03*
Y8166D02*
D03*
X10363Y7566D02*
D03*
Y7736D02*
D03*
X8941Y7826D02*
D03*
Y7656D02*
D03*
X10363Y7396D02*
D03*
Y7226D02*
D03*
X8572Y6088D02*
D03*
Y6258D02*
D03*
X9792Y6086D02*
D03*
Y6256D02*
D03*
D14*
X4817Y10633D02*
D03*
X4647D02*
D03*
X6792Y10234D02*
D03*
X6962D02*
D03*
X6016D02*
D03*
X5846D02*
D03*
X2354Y12522D02*
D03*
X2184D02*
D03*
X6626Y11049D02*
D03*
X6796D02*
D03*
X6722Y12636D02*
D03*
X6892D02*
D03*
X6204Y13056D02*
D03*
X6374D02*
D03*
X6807Y13792D02*
D03*
X6637D02*
D03*
X8477Y2609D02*
D03*
X8647D02*
D03*
X8307Y2451D02*
D03*
X8477D02*
D03*
X2353Y10551D02*
D03*
X2183D02*
D03*
X2353Y11465D02*
D03*
X2183D02*
D03*
X3835Y11618D02*
D03*
X4004D02*
D03*
X3835Y11313D02*
D03*
X4004D02*
D03*
X3835Y11161D02*
D03*
X4004D02*
D03*
X3835Y10856D02*
D03*
X4004D02*
D03*
X3835Y10704D02*
D03*
X4004D02*
D03*
X3835Y10399D02*
D03*
X4004D02*
D03*
X2353Y11618D02*
D03*
X2183D02*
D03*
X2353Y10399D02*
D03*
X2183D02*
D03*
X3835Y11008D02*
D03*
X4004D02*
D03*
X2353Y11313D02*
D03*
X2183D02*
D03*
X3835Y10551D02*
D03*
X4004D02*
D03*
X3835Y11465D02*
D03*
X4004D02*
D03*
X2999Y6705D02*
D03*
X3168D02*
D03*
X2999Y5665D02*
D03*
X3168D02*
D03*
X2999Y5265D02*
D03*
X3168D02*
D03*
Y5025D02*
D03*
X2999D02*
D03*
X3168Y5505D02*
D03*
X2999D02*
D03*
Y4785D02*
D03*
X3168D02*
D03*
X2999Y4625D02*
D03*
X3168D02*
D03*
X5981Y4607D02*
D03*
X6151D02*
D03*
X4759Y1854D02*
D03*
X4589D02*
D03*
X2003Y13806D02*
D03*
X1833D02*
D03*
X334Y5055D02*
D03*
X504D02*
D03*
X334Y4902D02*
D03*
X504D02*
D03*
X334Y4750D02*
D03*
X504D02*
D03*
X5581Y10294D02*
D03*
X5412D02*
D03*
X5581Y10447D02*
D03*
X5412D02*
D03*
D45*
X3297Y11777D02*
D03*
Y11967D02*
D03*
X2891Y11777D02*
D03*
Y11967D02*
D03*
X3094Y11777D02*
D03*
Y11967D02*
D03*
X5826Y10748D02*
D03*
Y10938D02*
D03*
D51*
X8467Y2787D02*
D03*
X8657D02*
D03*
X2364Y10729D02*
D03*
X2174D02*
D03*
X2364Y10932D02*
D03*
X2174D02*
D03*
X2364Y11135D02*
D03*
X2174D02*
D03*
D98*
X7080Y10008D02*
D03*
X6830D02*
D03*
M02*
